<?xml version="1.0" encoding="UTF-8" standalone="no"?>
<svg
   width="1476"
   height="1389"
   fill="none"
   version="1.1"
   id="svg253"
   sodipodi:docname="Alert.svg"
   inkscape:version="1.1.2 (0a00cf5339, 2022-02-04)"
   xmlns:inkscape="http://www.inkscape.org/namespaces/inkscape"
   xmlns:sodipodi="http://sodipodi.sourceforge.net/DTD/sodipodi-0.dtd"
   xmlns="http://www.w3.org/2000/svg"
   xmlns:svg="http://www.w3.org/2000/svg">
  <sodipodi:namedview
     id="namedview255"
     pagecolor="#ffffff"
     bordercolor="#666666"
     borderopacity="1.0"
     inkscape:pageshadow="2"
     inkscape:pageopacity="0.0"
     inkscape:pagecheckerboard="true"
     showgrid="false"
     inkscape:zoom="1.0352772"
     inkscape:cx="821.03616"
     inkscape:cy="709.9548"
     inkscape:window-width="2516"
     inkscape:window-height="1330"
     inkscape:window-x="26"
     inkscape:window-y="23"
     inkscape:window-maximized="0"
     inkscape:current-layer="New_Layer_1653319471.4695668" />
  <defs
     id="defs251">
    <filter
       id="Alert__a"
       x="569"
       y="353"
       width="370"
       height="785"
       filterUnits="userSpaceOnUse"
       color-interpolation-filters="sRGB">
      <feFlood
         flood-opacity="0"
         result="BackgroundImageFix"
         id="feFlood236" />
      <feColorMatrix
         in="SourceAlpha"
         values="0 0 0 0 0 0 0 0 0 0 0 0 0 0 0 0 0 0 127 0"
         result="hardAlpha"
         id="feColorMatrix238" />
      <feMorphology
         radius="1"
         operator="dilate"
         in="SourceAlpha"
         result="effect1_dropShadow_4863_33043"
         id="feMorphology240" />
      <feOffset
         id="feOffset242" />
      <feColorMatrix
         values="0 0 0 0 0.878431 0 0 0 0 0.878431 0 0 0 0 0.878431 0 0 0 1 0"
         id="feColorMatrix244" />
      <feBlend
         in2="BackgroundImageFix"
         result="effect1_dropShadow_4863_33043"
         id="feBlend246" />
      <feBlend
         in="SourceGraphic"
         in2="effect1_dropShadow_4863_33043"
         result="shape"
         id="feBlend248" />
    </filter>
  </defs>
  <g
     inkscape:groupmode="layer"
     id="layer1"
     inkscape:label="bg"
     style="display:inline"
     sodipodi:insensitive="true">
    <text
       fill="#000000"
       fill-opacity="0.87"
       xml:space="preserve"
       style="white-space:pre"
       font-family="'Roboto Mono'"
       font-size="64px"
       font-weight="500"
       letter-spacing="-1.5"
       id="text6"><tspan
         x="120"
         y="182.35899"
         id="tspan4">Alert</tspan></text>
    <path
       d="m 120,259 v -1 h -1 v 1 z m 1236,0 h 1 v -1 h -1 z m 0,1 v 1 h 1 v -1 z m -1236,0 h -1 v 1 h 1 z m 0,0 h 1236 v -2 H 120 Z m 1235,-1 v 1 h 2 v -1 z m 1,0 H 120 v 2 h 1236 z m -1235,1 v -1 h -2 v 1 z"
       fill="#000000"
       fill-opacity="0.12"
       id="path8" />
    <rect
       x="120"
       y="1225"
       width="1236"
       height="124"
       rx="10"
       fill="#f5f5f5"
       id="rect10" />
    <path
       fill-rule="evenodd"
       clip-rule="evenodd"
       d="m 194.972,1270.31 a 0.931,0.931 0 0 0 0.325,-0.32 c 0.079,-0.14 0.12,-0.29 0.121,-0.45 l 0.016,-5.14 c 0,-0.16 0.042,-0.31 0.12,-0.44 a 0.883,0.883 0 0 1 0.326,-0.33 l 2.788,-1.6 a 0.874,0.874 0 0 1 0.888,0 0.88,0.88 0 0 1 0.325,0.33 c 0.078,0.13 0.119,0.28 0.119,0.44 v 9.35 c 0,0.16 -0.041,0.31 -0.12,0.45 a 0.856,0.856 0 0 1 -0.326,0.32 l -10.524,6.05 a 0.857,0.857 0 0 1 -0.441,0.12 0.86,0.86 0 0 1 -0.442,-0.12 l -8.259,-4.72 a 0.888,0.888 0 0 1 -0.328,-0.33 0.913,0.913 0 0 1 -0.12,-0.45 v -4.71 c 0,-0.01 0.006,-0.01 0.012,-0.01 h 0.01 v -0.01 c 0,0 0.002,-0.01 0.006,-0.01 l 6.801,-3.91 c 0.007,0 0.004,-0.01 -0.003,-0.01 h -0.005 c -0.002,0 -0.002,0 -0.002,-0.01 l 0.013,-4.62 a 0.9,0.9 0 0 0 -0.118,-0.45 0.931,0.931 0 0 0 -0.325,-0.32 0.872,0.872 0 0 0 -0.445,-0.12 c -0.156,0 -0.31,0.04 -0.445,0.12 l -5.055,2.91 a 0.868,0.868 0 0 1 -0.444,0.12 0.868,0.868 0 0 1 -0.444,-0.12 l -5.071,-2.92 a 0.868,0.868 0 0 0 -0.444,-0.12 0.88,0.88 0 0 0 -0.769,0.45 0.849,0.849 0 0 0 -0.119,0.44 v 8.36 c 0,0.15 -0.041,0.3 -0.118,0.44 a 0.854,0.854 0 0 1 -0.325,0.32 0.862,0.862 0 0 1 -0.443,0.12 0.859,0.859 0 0 1 -0.444,-0.11 l -2.814,-1.61 a 0.88,0.88 0 0 1 -0.328,-0.33 0.866,0.866 0 0 1 -0.12,-0.44 l 0.025,-14.61 c 0,-0.15 0.041,-0.31 0.119,-0.44 a 0.88,0.88 0 0 1 0.325,-0.33 0.979,0.979 0 0 1 0.444,-0.12 c 0.155,0 0.308,0.04 0.443,0.12 l 9.64,5.54 c 0.135,0.08 0.288,0.12 0.443,0.12 0.155,0 0.308,-0.04 0.443,-0.12 l 9.637,-5.54 a 0.868,0.868 0 0 1 0.444,-0.12 c 0.156,0 0.309,0.05 0.444,0.12 a 0.88,0.88 0 0 1 0.325,0.33 c 0.078,0.13 0.119,0.29 0.119,0.44 v 14.61 c 0,0.16 -0.042,0.31 -0.12,0.45 a 0.926,0.926 0 0 1 -0.326,0.32 l -5.047,2.91 a 0.883,0.883 0 0 0 -0.326,0.33 0.849,0.849 0 0 0 -0.119,0.44 c 0.001,0.16 0.042,0.31 0.121,0.45 a 0.94,0.94 0 0 0 0.328,0.32 l 2.784,1.59 c 0.134,0.07 0.286,0.11 0.441,0.11 0.155,0 0.307,-0.04 0.441,-0.12 z m 0.584,-13.1 c 0,0.16 0.041,0.31 0.121,0.45 0.079,0.13 0.193,0.24 0.33,0.32 0.136,0.08 0.291,0.12 0.448,0.12 a 0.99,0.99 0 0 0 0.446,-0.13 l 2.667,-1.6 a 0.905,0.905 0 0 0 0.316,-0.32 0.922,0.922 0 0 0 0.116,-0.44 v -3.26 c 0,-0.16 -0.042,-0.31 -0.122,-0.45 a 0.798,0.798 0 0 0 -0.329,-0.32 0.889,0.889 0 0 0 -0.449,-0.12 0.883,0.883 0 0 0 -0.446,0.13 l -2.666,1.6 a 0.875,0.875 0 0 0 -0.432,0.76 z"
       fill="#007fff"
       id="path12" />
    <text
       fill="#000000"
       fill-opacity="0.6"
       xml:space="preserve"
       style="white-space:pre"
       font-family="'Roboto Mono'"
       font-size="16px"
       letter-spacing="0.15"
       id="text16"><tspan
         x="168"
         y="1317.21"
         id="tspan14">Visit mui.com for extended documentation.</tspan></text>
    <text
       fill="#000000"
       fill-opacity="0.6"
       xml:space="preserve"
       style="white-space:pre"
       font-family="'Roboto Mono'"
       font-size="16px"
       letter-spacing="0.15"
       id="text20"><tspan
         x="1249"
         y="1317.21"
         id="tspan18">v5.4.0</tspan></text>
    <text
       fill="#000000"
       fill-opacity="0.6"
       xml:space="preserve"
       style="white-space:pre"
       font-family="Roboto"
       font-size="16px"
       font-weight="500"
       letter-spacing="0.15"
       id="text24"><tspan
         x="120"
         y="403.46899"
         id="tspan22">Variants</tspan></text>
    <text
       fill="#000000"
       fill-opacity="0.6"
       xml:space="preserve"
       style="white-space:pre"
       font-family="Roboto"
       font-size="16px"
       font-weight="500"
       letter-spacing="0.15"
       id="text28"><tspan
         x="120"
         y="646.46899"
         id="tspan26">With Title</tspan></text>
    <text
       fill="#000000"
       fill-opacity="0.6"
       xml:space="preserve"
       style="white-space:pre"
       font-family="Roboto"
       font-size="16px"
       font-weight="500"
       letter-spacing="0.15"
       id="text32"><tspan
         x="120"
         y="728.46899"
         id="tspan30">With Actions</tspan></text>
    <text
       fill="#000000"
       fill-opacity="0.6"
       xml:space="preserve"
       style="white-space:pre"
       font-family="Roboto"
       font-size="16px"
       font-weight="500"
       letter-spacing="0.15"
       id="text36"><tspan
         x="120"
         y="872.46899"
         id="tspan34">Severity Colors</tspan></text>
    <rect
       x="988"
       y="354"
       width="368"
       height="783"
       rx="10"
       fill="#121212"
       id="rect138" />
    <rect
       x="570"
       y="354"
       width="368"
       height="783"
       rx="10"
       fill="#ffffff"
       id="rect38"
       style="display:inline;filter:url(#Alert__a)" />
  </g>
  <g
     inkscape:label="New_Layer_1653319471.4594352"
     inkscape:groupmode="layer"
     id="New_Layer_1653319471.4594352"
     style="display:inline">
    <path
       d="m 594,529 a 4,4 0 0 1 4,-4 h 312 a 4,4 0 0 1 4,4 v 40 a 4,4 0 0 1 -4,4 H 598 a 4,4 0 0 1 -4,-4 z"
       fill="#d32f2f"
       id="path40" />
    <path
       d="m 620.083,551.75 h 1.834 v 1.833 h -1.834 z m 0,-7.333 h 1.834 v 5.5 h -1.834 z m 0.908,-4.584 c -5.06,0 -9.158,4.107 -9.158,9.167 0,5.06 4.098,9.167 9.158,9.167 5.069,0 9.176,-4.107 9.176,-9.167 0,-5.06 -4.107,-9.167 -9.176,-9.167 z m 0.009,16.5 A 7.33,7.33 0 0 1 613.667,549 7.33,7.33 0 0 1 621,541.667 7.33,7.33 0 0 1 628.333,549 7.33,7.33 0 0 1 621,556.333 Z"
       fill="#ffffff"
       id="path42" />
    <text
       fill="#ffffff"
       xml:space="preserve"
       style="white-space:pre"
       font-family="Roboto"
       font-size="14px"
       letter-spacing="0.17"
       id="text46"
       inkscape:label="text46"><tspan
         x="644"
         y="553.78497"
         id="tspan44">Filled</tspan></text>
  </g>
  <g
     inkscape:label="New_Layer_1653319471.4605129"
     inkscape:groupmode="layer"
     id="New_Layer_1653319471.4605129"
     style="display:inline">
    <path
       d="m 594,627 a 4,4 0 0 1 4,-4 h 312 a 4,4 0 0 1 4,4 v 68 a 4,4 0 0 1 -4,4 H 598 a 4,4 0 0 1 -4,-4 z"
       fill="#d32f2f"
       id="path48" />
    <path
       d="m 620.083,649.75 h 1.834 v 1.833 h -1.834 z m 0,-7.333 h 1.834 v 5.5 h -1.834 z m 0.908,-4.584 c -5.06,0 -9.158,4.107 -9.158,9.167 0,5.06 4.098,9.167 9.158,9.167 5.069,0 9.176,-4.107 9.176,-9.167 0,-5.06 -4.107,-9.167 -9.176,-9.167 z m 0.009,16.5 A 7.33,7.33 0 0 1 613.667,647 7.33,7.33 0 0 1 621,639.667 7.33,7.33 0 0 1 628.333,647 7.33,7.33 0 0 1 621,654.333 Z"
       fill="#ffffff"
       id="path50" />
    <text
       fill="#ffffff"
       xml:space="preserve"
       style="white-space:pre"
       font-family="Roboto"
       font-size="16px"
       font-weight="500"
       letter-spacing="0.15"
       id="text54"><tspan
         x="644"
         y="654.46899"
         id="tspan52">Title</tspan></text>
    <text
       fill="#ffffff"
       xml:space="preserve"
       style="white-space:pre"
       font-family="Roboto"
       font-size="14px"
       letter-spacing="0.17"
       id="text58"><tspan
         x="644"
         y="679.78497"
         id="tspan56">Alert content</tspan></text>
  </g>
  <g
     inkscape:label="New_Layer_1653319471.4617815"
     inkscape:groupmode="layer"
     id="New_Layer_1653319471.4617815"
     style="display:inline">
    <path
       d="m 594,727 a 4,4 0 0 1 4,-4 h 312 a 4,4 0 0 1 4,4 v 68 a 4,4 0 0 1 -4,4 H 598 a 4,4 0 0 1 -4,-4 z"
       fill="#d32f2f"
       id="path60" />
    <path
       d="m 620.083,749.75 h 1.834 v 1.833 h -1.834 z m 0,-7.333 h 1.834 v 5.5 h -1.834 z m 0.908,-4.584 c -5.06,0 -9.158,4.107 -9.158,9.167 0,5.06 4.098,9.167 9.158,9.167 5.069,0 9.176,-4.107 9.176,-9.167 0,-5.06 -4.107,-9.167 -9.176,-9.167 z m 0.009,16.5 A 7.33,7.33 0 0 1 613.667,747 7.33,7.33 0 0 1 621,739.667 7.33,7.33 0 0 1 628.333,747 7.33,7.33 0 0 1 621,754.333 Z"
       fill="#ffffff"
       id="path62" />
    <text
       fill="#ffffff"
       xml:space="preserve"
       style="white-space:pre"
       font-family="Roboto"
       font-size="16px"
       font-weight="500"
       letter-spacing="0.15"
       id="text66"><tspan
         x="644"
         y="754.46899"
         id="tspan64">Title</tspan></text>
    <text
       fill="#ffffff"
       xml:space="preserve"
       style="white-space:pre"
       font-family="Roboto"
       font-size="14px"
       letter-spacing="0.17"
       id="text70"><tspan
         x="644"
         y="779.78497"
         id="tspan68">Alert content</tspan></text>
    <text
       fill="#ffffff"
       xml:space="preserve"
       style="white-space:pre"
       font-family="Roboto"
       font-size="13px"
       font-weight="500"
       letter-spacing="0.46"
       id="text74"><tspan
         x="816"
         y="751.44299"
         id="tspan72">ACTION</tspan></text>
    <path
       d="m 889.833,742.342 -1.175,-1.175 -4.658,4.658 -4.658,-4.658 -1.175,1.175 4.658,4.658 -4.658,4.658 1.175,1.175 4.658,-4.658 4.658,4.658 1.175,-1.175 -4.658,-4.658 z"
       fill="#ffffff"
       id="path76" />
  </g>
  <g
     inkscape:label="New_Layer_1653319471.463607"
     inkscape:groupmode="layer"
     id="New_Layer_1653319471.463607"
     style="display:inline">
    <path
       d="m 594,853 a 4,4 0 0 1 4,-4 h 312 a 4,4 0 0 1 4,4 v 40 a 4,4 0 0 1 -4,4 H 598 a 4,4 0 0 1 -4,-4 z"
       fill="#d32f2f"
       id="path78" />
    <path
       d="m 620.083,875.75 h 1.834 v 1.833 h -1.834 z m 0,-7.333 h 1.834 v 5.5 h -1.834 z m 0.908,-4.584 c -5.06,0 -9.158,4.107 -9.158,9.167 0,5.06 4.098,9.167 9.158,9.167 5.069,0 9.176,-4.107 9.176,-9.167 0,-5.06 -4.107,-9.167 -9.176,-9.167 z m 0.009,16.5 A 7.33,7.33 0 0 1 613.667,873 7.33,7.33 0 0 1 621,865.667 7.33,7.33 0 0 1 628.333,873 7.33,7.33 0 0 1 621,880.333 Z"
       fill="#ffffff"
       id="path80" />
    <text
       fill="#ffffff"
       xml:space="preserve"
       style="white-space:pre"
       font-family="Roboto"
       font-size="14px"
       letter-spacing="0.17"
       id="text84"><tspan
         x="644"
         y="877.78497"
         id="tspan82">Error</tspan></text>
  </g>
  <g
     inkscape:label="New_Layer_1653319471.4645796"
     inkscape:groupmode="layer"
     id="New_Layer_1653319471.4645796"
     style="display:inline">
    <path
       d="m 594,925 a 4,4 0 0 1 4,-4 h 312 a 4,4 0 0 1 4,4 v 40 a 4,4 0 0 1 -4,4 H 598 a 4,4 0 0 1 -4,-4 z"
       fill="#ed6c02"
       id="path86" />
    <path
       d="m 621,939.949 6.903,11.926 h -13.805 z m 0,-3.657 -10.083,17.416 h 20.166 z"
       fill="#ffffff"
       id="path88" />
    <path
       d="m 621.917,949.125 h -1.834 v 1.833 h 1.834 z m 0,-5.5 h -1.834 v 4.583 h 1.834 z"
       fill="#ffffff"
       id="path90" />
    <text
       fill="#ffffff"
       xml:space="preserve"
       style="white-space:pre"
       font-family="Roboto"
       font-size="14px"
       letter-spacing="0.17"
       id="text94"><tspan
         x="644"
         y="949.78497"
         id="tspan92">Warning</tspan></text>
  </g>
  <g
     inkscape:label="New_Layer_1653319471.4658391"
     inkscape:groupmode="layer"
     id="New_Layer_1653319471.4658391"
     style="display:inline">
    <path
       d="m 594,997 a 4,4 0 0 1 4,-4 h 312 a 4,4 0 0 1 4,4 v 40 a 4,4 0 0 1 -4,4 H 598 a 4,4 0 0 1 -4,-4 z"
       fill="#0288d1"
       id="path96" />
    <path
       d="m 620.083,1012.42 h 1.834 v 1.83 h -1.834 z m 0,3.66 h 1.834 v 5.5 h -1.834 z m 0.917,-8.25 c -5.06,0 -9.167,4.11 -9.167,9.17 0,5.06 4.107,9.17 9.167,9.17 5.06,0 9.167,-4.11 9.167,-9.17 0,-5.06 -4.107,-9.17 -9.167,-9.17 z m 0,16.5 c -4.043,0 -7.333,-3.29 -7.333,-7.33 0,-4.04 3.29,-7.33 7.333,-7.33 4.042,0 7.333,3.29 7.333,7.33 0,4.04 -3.291,7.33 -7.333,7.33 z"
       fill="#ffffff"
       id="path98" />
    <text
       fill="#ffffff"
       xml:space="preserve"
       style="white-space:pre"
       font-family="Roboto"
       font-size="14px"
       letter-spacing="0.17"
       id="text102"><tspan
         x="644"
         y="1021.79"
         id="tspan100">Info</tspan></text>
  </g>
  <g
     inkscape:label="New_Layer_1653319471.466802"
     inkscape:groupmode="layer"
     id="New_Layer_1653319471.466802"
     style="display:inline">
    <path
       d="m 594,1069 a 4,4 0 0 1 4,-4 h 312 a 4,4 0 0 1 4,4 v 40 a 4,4 0 0 1 -4,4 H 598 a 4,4 0 0 1 -4,-4 z"
       fill="#2e7d32"
       id="path104" />
    <path
       d="m 625.207,1084.95 -6.04,6.04 -3.291,-3.28 -1.293,1.29 4.584,4.58 7.333,-7.33 z M 621,1079.83 c -5.06,0 -9.167,4.11 -9.167,9.17 0,5.06 4.107,9.17 9.167,9.17 5.06,0 9.167,-4.11 9.167,-9.17 0,-5.06 -4.107,-9.17 -9.167,-9.17 z m 0,16.5 a 7.329,7.329 0 0 1 -7.333,-7.33 c 0,-4.05 3.281,-7.33 7.333,-7.33 a 7.329,7.329 0 0 1 7.333,7.33 c 0,4.05 -3.281,7.33 -7.333,7.33 z"
       fill="#ffffff"
       id="path106" />
    <text
       fill="#ffffff"
       xml:space="preserve"
       style="white-space:pre"
       font-family="Roboto"
       font-size="14px"
       letter-spacing="0.17"
       id="text110"><tspan
         x="644"
         y="1093.79"
         id="tspan108">Success</tspan></text>
  </g>
  <g
     inkscape:label="New_Layer_1653319471.4681895"
     inkscape:groupmode="layer"
     id="New_Layer_1653319471.4681895"
     style="display:inline">
    <path
       d="m 620.083,475.75 h 1.834 v 1.833 h -1.834 z m 0,-7.333 h 1.834 v 5.5 h -1.834 z m 0.908,-4.584 c -5.06,0 -9.158,4.107 -9.158,9.167 0,5.06 4.098,9.167 9.158,9.167 5.069,0 9.176,-4.107 9.176,-9.167 0,-5.06 -4.107,-9.167 -9.176,-9.167 z m 0.009,16.5 A 7.33,7.33 0 0 1 613.667,473 7.33,7.33 0 0 1 621,465.667 7.33,7.33 0 0 1 628.333,473 7.33,7.33 0 0 1 621,480.333 Z"
       fill="#d32f2f"
       id="path112" />
    <text
       fill="#000000"
       fill-opacity="0.6"
       xml:space="preserve"
       style="white-space:pre;fill:#6a3030;fill-opacity:1"
       font-family="Roboto"
       font-size="14px"
       letter-spacing="0.17"
       id="text120"><tspan
         x="644"
         y="477.785"
         id="tspan118"
         style="fill:#6a3030;fill-opacity:1">Outlined</tspan></text>
    <path
       d="m 598,450 h 312 v -2 H 598 Z m 315,3 v 40 h 2 v -40 z m -3,43 H 598 v 2 h 312 z m -315,-3 v -40 h -2 v 40 z m 3,3 c -1.65685,0 -3,-1.34315 -3,-3 h -2 c 0,2.76142 2.23858,5 5,5 z m 315,-3 c 0,1.65685 -1.34315,3 -3,3 v 2 c 2.76142,0 5,-2.23858 5,-5 z m -3,-43 c 1.65685,0 3,1.34315 3,3 h 2 c 0,-2.76142 -2.23858,-5 -5,-5 z m -312,-2 c -2.76142,0 -5,2.23858 -5,5 h 2 c 0,-1.65685 1.34315,-3 3,-3 z"
       fill="#d32f2f"
       id="path122"
       sodipodi:nodetypes="cccccccccccccccccccccccccccccccccccccccc" />
  </g>
  <g
     inkscape:label="New_Layer_1653319471.4695668"
     inkscape:groupmode="layer"
     id="New_Layer_1653319471.4695668"
     style="display:inline">
    <path
       d="m 594,382 a 4,4 0 0 1 4,-4 h 312 a 4,4 0 0 1 4,4 v 40 a 4,4 0 0 1 -4,4 H 598 a 4,4 0 0 1 -4,-4 z"
       fill="#ffffff"
       fill-opacity="0.9"
       id="path124"
       style="fill:#fbeaea;fill-opacity:1" />
    <path
       d="m 620.083,404.75 h 1.834 v 1.833 h -1.834 z m 0,-7.333 h 1.834 v 5.5 h -1.834 z m 0.908,-4.584 c -5.06,0 -9.158,4.107 -9.158,9.167 0,5.06 4.098,9.167 9.158,9.167 5.069,0 9.176,-4.107 9.176,-9.167 0,-5.06 -4.107,-9.167 -9.176,-9.167 z m 0.009,16.5 A 7.33,7.33 0 0 1 613.667,402 7.33,7.33 0 0 1 621,394.667 7.33,7.33 0 0 1 628.333,402 7.33,7.33 0 0 1 621,409.333 Z"
       fill="#d32f2f"
       id="path126" />
    <text
       fill="#000000"
       fill-opacity="0.6"
       xml:space="preserve"
       font-family="Roboto"
       font-size="14px"
       letter-spacing="0.17"
       id="text134"
       style="white-space:pre;fill:#622525;fill-opacity:1"><tspan
         x="644"
         y="406.785"
         id="tspan132"
         style="fill:#622525;fill-opacity:1">Standard</tspan></text>
  </g>
  <g
     inkscape:label="New_Layer_1653319471.4705305"
     inkscape:groupmode="layer"
     id="New_Layer_1653319471.4705305"
     style="display:inline">
    <path
       d="m 1012,529 a 4,4 0 0 1 4,-4 h 312 a 4,4 0 0 1 4,4 v 40 a 4,4 0 0 1 -4,4 h -312 a 4,4 0 0 1 -4,-4 z"
       fill="#f44336"
       id="path140" />
    <path
       d="m 1038.08,551.75 h 1.84 v 1.833 h -1.84 z m 0,-7.333 h 1.84 v 5.5 h -1.84 z m 0.91,-4.584 c -5.06,0 -9.16,4.107 -9.16,9.167 0,5.06 4.1,9.167 9.16,9.167 5.07,0 9.18,-4.107 9.18,-9.167 0,-5.06 -4.11,-9.167 -9.18,-9.167 z m 0.01,16.5 a 7.329,7.329 0 0 1 -7.33,-7.333 7.329,7.329 0 0 1 7.33,-7.333 c 4.05,0 7.33,3.281 7.33,7.333 a 7.329,7.329 0 0 1 -7.33,7.333 z"
       fill="#ffffff"
       id="path142" />
    <text
       fill="#ffffff"
       xml:space="preserve"
       style="white-space:pre"
       font-family="Roboto"
       font-size="14px"
       letter-spacing="0.17"
       id="text146"><tspan
         x="1062"
         y="553.78497"
         id="tspan144">Filled</tspan></text>
  </g>
  <g
     inkscape:label="New_Layer_1653319471.4714904"
     inkscape:groupmode="layer"
     id="New_Layer_1653319471.4714904"
     style="display:inline">
    <path
       d="m 1012,627 a 4,4 0 0 1 4,-4 h 312 a 4,4 0 0 1 4,4 v 68 a 4,4 0 0 1 -4,4 h -312 a 4,4 0 0 1 -4,-4 z"
       fill="#f44336"
       id="path148" />
    <path
       d="m 1038.08,649.75 h 1.84 v 1.833 h -1.84 z m 0,-7.333 h 1.84 v 5.5 h -1.84 z m 0.91,-4.584 c -5.06,0 -9.16,4.107 -9.16,9.167 0,5.06 4.1,9.167 9.16,9.167 5.07,0 9.18,-4.107 9.18,-9.167 0,-5.06 -4.11,-9.167 -9.18,-9.167 z m 0.01,16.5 a 7.329,7.329 0 0 1 -7.33,-7.333 7.329,7.329 0 0 1 7.33,-7.333 c 4.05,0 7.33,3.281 7.33,7.333 a 7.329,7.329 0 0 1 -7.33,7.333 z"
       fill="#ffffff"
       id="path150" />
    <text
       fill="#ffffff"
       xml:space="preserve"
       style="white-space:pre"
       font-family="Roboto"
       font-size="16px"
       font-weight="500"
       letter-spacing="0.15"
       id="text154"><tspan
         x="1062"
         y="654.46899"
         id="tspan152">Title</tspan></text>
    <text
       fill="#ffffff"
       xml:space="preserve"
       style="white-space:pre"
       font-family="Roboto"
       font-size="14px"
       letter-spacing="0.17"
       id="text158"><tspan
         x="1062"
         y="679.78497"
         id="tspan156">Alert content</tspan></text>
  </g>
  <g
     inkscape:label="New_Layer_1653319471.472995"
     inkscape:groupmode="layer"
     id="New_Layer_1653319471.472995"
     style="display:inline">
    <path
       d="m 1012,727 a 4,4 0 0 1 4,-4 h 312 a 4,4 0 0 1 4,4 v 68 a 4,4 0 0 1 -4,4 h -312 a 4,4 0 0 1 -4,-4 z"
       fill="#f44336"
       id="path160" />
    <path
       d="m 1038.08,749.75 h 1.84 v 1.833 h -1.84 z m 0,-7.333 h 1.84 v 5.5 h -1.84 z m 0.91,-4.584 c -5.06,0 -9.16,4.107 -9.16,9.167 0,5.06 4.1,9.167 9.16,9.167 5.07,0 9.18,-4.107 9.18,-9.167 0,-5.06 -4.11,-9.167 -9.18,-9.167 z m 0.01,16.5 a 7.329,7.329 0 0 1 -7.33,-7.333 7.329,7.329 0 0 1 7.33,-7.333 c 4.05,0 7.33,3.281 7.33,7.333 a 7.329,7.329 0 0 1 -7.33,7.333 z"
       fill="#ffffff"
       id="path162" />
    <text
       fill="#ffffff"
       xml:space="preserve"
       style="white-space:pre"
       font-family="Roboto"
       font-size="16px"
       font-weight="500"
       letter-spacing="0.15"
       id="text166"><tspan
         x="1062"
         y="754.46899"
         id="tspan164">Title</tspan></text>
    <text
       fill="#ffffff"
       xml:space="preserve"
       style="white-space:pre"
       font-family="Roboto"
       font-size="14px"
       letter-spacing="0.17"
       id="text170"><tspan
         x="1062"
         y="779.78497"
         id="tspan168">Alert content</tspan></text>
    <text
       fill="#ffffff"
       xml:space="preserve"
       style="white-space:pre"
       font-family="Roboto"
       font-size="13px"
       font-weight="500"
       letter-spacing="0.46"
       id="text174"><tspan
         x="1234"
         y="751.44299"
         id="tspan172">ACTION</tspan></text>
    <path
       d="m 1307.83,742.342 -1.17,-1.175 -4.66,4.658 -4.66,-4.658 -1.17,1.175 4.65,4.658 -4.65,4.658 1.17,1.175 4.66,-4.658 4.66,4.658 1.17,-1.175 -4.66,-4.658 z"
       fill="#ffffff"
       id="path176" />
  </g>
  <g
     inkscape:label="New_Layer_1653319471.4748302"
     inkscape:groupmode="layer"
     id="New_Layer_1653319471.4748302"
     style="display:inline">
    <path
       d="m 1012,853 a 4,4 0 0 1 4,-4 h 312 a 4,4 0 0 1 4,4 v 40 a 4,4 0 0 1 -4,4 h -312 a 4,4 0 0 1 -4,-4 z"
       fill="#f44336"
       id="path178" />
    <path
       d="m 1038.08,875.75 h 1.84 v 1.833 h -1.84 z m 0,-7.333 h 1.84 v 5.5 h -1.84 z m 0.91,-4.584 c -5.06,0 -9.16,4.107 -9.16,9.167 0,5.06 4.1,9.167 9.16,9.167 5.07,0 9.18,-4.107 9.18,-9.167 0,-5.06 -4.11,-9.167 -9.18,-9.167 z m 0.01,16.5 a 7.329,7.329 0 0 1 -7.33,-7.333 7.329,7.329 0 0 1 7.33,-7.333 c 4.05,0 7.33,3.281 7.33,7.333 a 7.329,7.329 0 0 1 -7.33,7.333 z"
       fill="#ffffff"
       id="path180" />
    <text
       fill="#ffffff"
       xml:space="preserve"
       style="white-space:pre"
       font-family="Roboto"
       font-size="14px"
       letter-spacing="0.17"
       id="text184"><tspan
         x="1062"
         y="877.78497"
         id="tspan182">Error</tspan></text>
  </g>
  <g
     inkscape:label="New_Layer_1653319471.475794"
     inkscape:groupmode="layer"
     id="New_Layer_1653319471.475794"
     style="display:inline">
    <path
       d="m 1012,925 a 4,4 0 0 1 4,-4 h 312 a 4,4 0 0 1 4,4 v 40 a 4,4 0 0 1 -4,4 h -312 a 4,4 0 0 1 -4,-4 z"
       fill="#ffa726"
       id="path186" />
    <path
       d="m 1039,939.949 6.9,11.926 h -13.8 z m 0,-3.657 -10.08,17.416 h 20.16 z"
       fill="#ffffff"
       id="path188" />
    <path
       d="m 1039.92,949.125 h -1.84 v 1.833 h 1.84 z m 0,-5.5 h -1.84 v 4.583 h 1.84 z"
       fill="#ffffff"
       id="path190" />
    <text
       fill="#ffffff"
       xml:space="preserve"
       style="white-space:pre"
       font-family="Roboto"
       font-size="14px"
       letter-spacing="0.17"
       id="text194"><tspan
         x="1062"
         y="949.78497"
         id="tspan192">Warning</tspan></text>
  </g>
  <g
     inkscape:label="New_Layer_1653319471.4770427"
     inkscape:groupmode="layer"
     id="New_Layer_1653319471.4770427"
     style="display:inline">
    <path
       d="m 1012,997 a 4,4 0 0 1 4,-4 h 312 a 4,4 0 0 1 4,4 v 40 c 0,2.21 -1.79,4 -4,4 h -312 c -2.21,0 -4,-1.79 -4,-4 z"
       fill="#29b6f6"
       id="path196" />
    <path
       d="m 1038.08,1012.42 h 1.84 v 1.83 h -1.84 z m 0,3.66 h 1.84 v 5.5 h -1.84 z m 0.92,-8.25 c -5.06,0 -9.17,4.11 -9.17,9.17 0,5.06 4.11,9.17 9.17,9.17 5.06,0 9.17,-4.11 9.17,-9.17 0,-5.06 -4.11,-9.17 -9.17,-9.17 z m 0,16.5 c -4.04,0 -7.33,-3.29 -7.33,-7.33 0,-4.04 3.29,-7.33 7.33,-7.33 4.04,0 7.33,3.29 7.33,7.33 0,4.04 -3.29,7.33 -7.33,7.33 z"
       fill="#ffffff"
       id="path198" />
    <text
       fill="#ffffff"
       xml:space="preserve"
       style="white-space:pre"
       font-family="Roboto"
       font-size="14px"
       letter-spacing="0.17"
       id="text202"><tspan
         x="1062"
         y="1021.79"
         id="tspan200">Info</tspan></text>
  </g>
  <g
     inkscape:label="New_Layer_1653319471.4780114"
     inkscape:groupmode="layer"
     id="New_Layer_1653319471.4780114"
     style="display:inline">
    <path
       d="m 1012,1069 c 0,-2.21 1.79,-4 4,-4 h 312 c 2.21,0 4,1.79 4,4 v 40 c 0,2.21 -1.79,4 -4,4 h -312 c -2.21,0 -4,-1.79 -4,-4 z"
       fill="#66bb6a"
       id="path204" />
    <path
       d="m 1043.21,1084.95 -6.04,6.04 -3.29,-3.28 -1.3,1.29 4.59,4.58 7.33,-7.33 z m -4.21,-5.12 c -5.06,0 -9.17,4.11 -9.17,9.17 0,5.06 4.11,9.17 9.17,9.17 5.06,0 9.17,-4.11 9.17,-9.17 0,-5.06 -4.11,-9.17 -9.17,-9.17 z m 0,16.5 c -4.05,0 -7.33,-3.28 -7.33,-7.33 0,-4.05 3.28,-7.33 7.33,-7.33 4.05,0 7.33,3.28 7.33,7.33 0,4.05 -3.28,7.33 -7.33,7.33 z"
       fill="#ffffff"
       id="path206" />
    <text
       fill="#ffffff"
       xml:space="preserve"
       style="white-space:pre"
       font-family="Roboto"
       font-size="14px"
       letter-spacing="0.17"
       id="text210"><tspan
         x="1062"
         y="1093.79"
         id="tspan208">Success</tspan></text>
  </g>
  <g
     inkscape:label="New_Layer_1653319471.4789803"
     inkscape:groupmode="layer"
     id="New_Layer_1653319471.4789803"
     style="display:inline">
    <path
       d="m 1038.08,475.75 h 1.84 v 1.833 h -1.84 z m 0,-7.333 h 1.84 v 5.5 h -1.84 z m 0.91,-4.584 c -5.06,0 -9.16,4.107 -9.16,9.167 0,5.06 4.1,9.167 9.16,9.167 5.07,0 9.18,-4.107 9.18,-9.167 0,-5.06 -4.11,-9.167 -9.18,-9.167 z m 0.01,16.5 a 7.329,7.329 0 0 1 -7.33,-7.333 7.329,7.329 0 0 1 7.33,-7.333 c 4.05,0 7.33,3.281 7.33,7.333 a 7.329,7.329 0 0 1 -7.33,7.333 z"
       fill="#f44336"
       id="path212" />
    <text
       fill="#f44336"
       xml:space="preserve"
       style="white-space:pre"
       font-family="Roboto"
       font-size="14px"
       letter-spacing="0.17"
       id="text216"><tspan
         x="1062"
         y="477.785"
         id="tspan214">Outlined</tspan></text>
    <text
       fill="#ffffff"
       fill-opacity="0.6"
       xml:space="preserve"
       style="white-space:pre"
       font-family="Roboto"
       font-size="14px"
       letter-spacing="0.17"
       id="text220"><tspan
         x="1062"
         y="477.785"
         id="tspan218">Outlined</tspan></text>
    <path
       d="m 1016,450 h 312 v -2 h -312 z m 315,3 v 40 h 2 v -40 z m -3,43 h -312 v 2 h 312 z m -315,-3 v -40 h -2 v 40 z m 3,3 c -1.66,0 -3,-1.343 -3,-3 h -2 c 0,2.761 2.24,5 5,5 z m 315,-3 c 0,1.657 -1.34,3 -3,3 v 2 c 2.76,0 5,-2.239 5,-5 z m -3,-43 c 1.66,0 3,1.343 3,3 h 2 c 0,-2.761 -2.24,-5 -5,-5 z m -312,-2 c -2.76,0 -5,2.239 -5,5 h 2 c 0,-1.657 1.34,-3 3,-3 z"
       fill="#f44336"
       id="path222"
       sodipodi:nodetypes="cccccccccccccccccccccccccccccccccccccccc" />
  </g>
  <g
     inkscape:label="New_Layer_1653319471.4802465"
     inkscape:groupmode="layer"
     id="New_Layer_1653319471.4802465"
     style="display:inline">
    <path
       d="m 1012,382 a 4,4 0 0 1 4,-4 h 312 a 4,4 0 0 1 4,4 v 40 a 4,4 0 0 1 -4,4 h -312 a 4,4 0 0 1 -4,-4 z"
       fill="#000000"
       fill-opacity="0.9"
       id="path224" />
    <path
       d="m 1038.08,404.75 h 1.84 v 1.833 h -1.84 z m 0,-7.333 h 1.84 v 5.5 h -1.84 z m 0.91,-4.584 c -5.06,0 -9.16,4.107 -9.16,9.167 0,5.06 4.1,9.167 9.16,9.167 5.07,0 9.18,-4.107 9.18,-9.167 0,-5.06 -4.11,-9.167 -9.18,-9.167 z m 0.01,16.5 a 7.329,7.329 0 0 1 -7.33,-7.333 7.329,7.329 0 0 1 7.33,-7.333 c 4.05,0 7.33,3.281 7.33,7.333 a 7.329,7.329 0 0 1 -7.33,7.333 z"
       fill="#f44336"
       id="path226" />
    <text
       fill="#f44336"
       xml:space="preserve"
       style="white-space:pre"
       font-family="Roboto"
       font-size="14px"
       letter-spacing="0.17"
       id="text230"><tspan
         x="1062"
         y="406.785"
         id="tspan228">Standard</tspan></text>
    <text
       fill="#ffffff"
       fill-opacity="0.6"
       xml:space="preserve"
       style="white-space:pre"
       font-family="Roboto"
       font-size="14px"
       letter-spacing="0.17"
       id="text234"><tspan
         x="1062"
         y="406.785"
         id="tspan232">Standard</tspan></text>
  </g>
</svg>
