<?xml version="1.0" encoding="UTF-8" standalone="no"?>
<!-- Created with Inkscape (http://www.inkscape.org/) -->

<svg
   width="58.20826mm"
   height="12.435401mm"
   viewBox="0 0 58.20826 12.435401"
   version="1.1"
   id="svg5"
   xml:space="preserve"
   xmlns="http://www.w3.org/2000/svg"
   xmlns:svg="http://www.w3.org/2000/svg"><defs
     id="defs2"><clipPath
       id="a-6"><path
         fill="#ffffff"
         d="M 0,0 H 220 V 24 H 0 Z"
         transform="translate(0,17.5)"
         id="path554" /></clipPath></defs><g
     id="New_Layer_1652822696.899852"
     style="display:inline"
     transform="translate(-124.355,-605.49458)"><path
       fill="#000000"
       fill-opacity="0.38"
       d="M 2.121,9.08 H 6.164 V 10 H 0.99 V 1.469 H 2.121 Z M 11.341,10 C 11.279,9.875 11.228,9.652 11.189,9.332 10.685,9.855 10.084,10.117 9.384,10.117 8.759,10.117 8.246,9.941 7.844,9.59 A 1.728,1.728 0 0 1 7.246,8.242 c 0,-0.66 0.25,-1.172 0.75,-1.535 0.504,-0.367 1.21,-0.55 2.12,-0.55 h 1.056 V 5.658 c 0,-0.379 -0.114,-0.68 -0.34,-0.902 C 10.605,4.529 10.272,4.416 9.83,4.416 9.443,4.416 9.119,4.514 8.857,4.709 8.595,4.904 8.464,5.141 8.464,5.418 H 7.374 C 7.374,5.102 7.486,4.797 7.709,4.504 7.935,4.207 8.239,3.973 8.623,3.801 9.009,3.629 9.433,3.543 9.894,3.543 c 0.73,0 1.303,0.184 1.717,0.55 0.414,0.364 0.629,0.866 0.644,1.507 v 2.918 c 0,0.582 0.075,1.044 0.223,1.388 V 10 Z M 9.543,9.174 c 0.34,0 0.662,-0.088 0.966,-0.264 A 1.59,1.59 0 0 0 11.171,8.225 V 6.924 h -0.85 c -1.327,0 -1.991,0.388 -1.991,1.166 0,0.34 0.113,0.605 0.34,0.797 0.226,0.191 0.517,0.287 0.873,0.287 z M 19.472,6.9 c 0,0.97 -0.223,1.748 -0.668,2.338 -0.445,0.586 -1.043,0.88 -1.793,0.88 -0.8,0 -1.42,-0.284 -1.857,-0.85 L 15.1,10 H 14.104 V 1 h 1.084 v 3.357 c 0.437,-0.543 1.04,-0.814 1.81,-0.814 0.77,0 1.373,0.291 1.81,0.873 0.442,0.582 0.663,1.379 0.663,2.39 V 6.9 Z M 18.388,6.777 c 0,-0.738 -0.143,-1.308 -0.428,-1.71 -0.285,-0.403 -0.695,-0.604 -1.23,-0.604 -0.715,0 -1.229,0.332 -1.541,0.996 v 2.742 c 0.332,0.664 0.85,0.996 1.552,0.996 0.52,0 0.924,-0.2 1.213,-0.603 0.29,-0.403 0.434,-1.008 0.434,-1.817 z m 5.236,3.34 c -0.86,0 -1.559,-0.281 -2.098,-0.844 C 20.987,8.707 20.718,7.951 20.718,7.006 v -0.2 c 0,-0.628 0.119,-1.189 0.357,-1.681 a 2.814,2.814 0 0 1 1.008,-1.16 2.535,2.535 0 0 1 1.406,-0.422 c 0.824,0 1.465,0.271 1.922,0.814 0.457,0.543 0.685,1.32 0.685,2.332 v 0.452 h -4.294 c 0.015,0.625 0.197,1.13 0.544,1.517 0.352,0.383 0.797,0.574 1.336,0.574 0.383,0 0.708,-0.078 0.973,-0.234 0.266,-0.156 0.498,-0.363 0.697,-0.621 l 0.663,0.516 c -0.532,0.816 -1.329,1.224 -2.391,1.224 z M 23.489,4.434 c -0.437,0 -0.805,0.16 -1.102,0.48 -0.296,0.316 -0.48,0.762 -0.55,1.336 h 3.175 V 6.168 C 24.982,5.618 24.832,5.191 24.567,4.891 24.302,4.586 23.942,4.434 23.489,4.434 Z M 28.684,10 H 27.6 V 1 h 1.084 z"
       id="path546"
       transform="matrix(0.264583,0,0,0.264583,124.354,605.23)" /><g
       clip-path="url(#a-6)"
       id="g550"
       transform="matrix(0.264583,0,0,0.264583,124.355,605.23)"><path
         fill="#000000"
         fill-opacity="0.26"
         d="M 4.828,23.125 V 34.5 H 3.32 V 23.125 Z m 6.867,0 -4.725,5.305 -2.657,2.758 -0.25,-1.61 2,-2.203 3.82,-4.25 h 1.813 z M 10.242,34.5 6.032,28.953 6.93,27.758 12.04,34.5 Z m 8.33,-8.453 h 1.312 v 8.273 c 0,0.745 -0.15,1.38 -0.453,1.907 a 2.951,2.951 0 0 1 -1.265,1.195 c -0.537,0.276 -1.157,0.414 -1.86,0.414 -0.291,0 -0.635,-0.047 -1.031,-0.14 a 4.161,4.161 0 0 1 -1.156,-0.462 2.889,2.889 0 0 1 -0.946,-0.867 l 0.758,-0.86 c 0.354,0.428 0.724,0.725 1.11,0.891 0.39,0.167 0.776,0.25 1.156,0.25 0.458,0 0.854,-0.086 1.187,-0.257 a 1.8,1.8 0 0 0 0.774,-0.766 c 0.187,-0.333 0.281,-0.745 0.281,-1.234 v -6.485 l 0.133,-1.86 z m -5.82,4.32 v -0.164 c 0,-0.646 0.075,-1.232 0.226,-1.758 0.156,-0.53 0.378,-0.987 0.664,-1.367 a 2.981,2.981 0 0 1 2.445,-1.187 c 0.532,0 0.995,0.093 1.391,0.28 0.401,0.183 0.74,0.451 1.016,0.806 0.281,0.349 0.502,0.77 0.664,1.265 0.161,0.495 0.273,1.055 0.336,1.68 v 0.719 a 7.355,7.355 0 0 1 -0.336,1.672 3.941,3.941 0 0 1 -0.664,1.265 2.778,2.778 0 0 1 -1.016,0.805 c -0.4,0.182 -0.87,0.273 -1.406,0.273 -0.505,0 -0.964,-0.106 -1.375,-0.32 a 3.131,3.131 0 0 1 -1.047,-0.898 4.255,4.255 0 0 1 -0.672,-1.36 6.18,6.18 0 0 1 -0.226,-1.71 z m 1.445,-0.164 v 0.164 c 0,0.422 0.042,0.818 0.125,1.188 0.088,0.37 0.221,0.695 0.398,0.976 0.183,0.282 0.414,0.503 0.696,0.664 0.28,0.157 0.617,0.235 1.007,0.235 0.48,0 0.875,-0.102 1.188,-0.305 0.312,-0.203 0.56,-0.471 0.742,-0.805 a 4.65,4.65 0 0 0 0.438,-1.086 v -1.882 a 3.84,3.84 0 0 0 -0.266,-0.829 2.55,2.55 0 0 0 -0.453,-0.718 1.959,1.959 0 0 0 -0.68,-0.508 2.255,2.255 0 0 0 -0.953,-0.188 c -0.396,0 -0.737,0.084 -1.023,0.25 a 1.994,1.994 0 0 0 -0.696,0.672 c -0.177,0.282 -0.31,0.61 -0.398,0.985 a 5.39,5.39 0 0 0 -0.125,1.187 z"
         id="path548" /></g><path
       stroke="#000000"
       stroke-dasharray="1, 1"
       stroke-opacity="0.42"
       d="M 0,47.5 H 220"
       id="path552"
       transform="matrix(0.264583,0,0,0.264583,124.355,605.23)" /></g></svg>
