<?xml version="1.0" encoding="UTF-8" standalone="no"?>
<svg
   id="svg674"
   version="1.1"
   fill="none"
   viewBox="0 0 2776 2214.5"
   height="2214.5"
   width="2776"
   xmlns="http://www.w3.org/2000/svg"
   xmlns:svg="http://www.w3.org/2000/svg">
  <defs
     id="defs672" />
  <g
     id="layer1"
     style="display:inline"
     transform="translate(-1,-1.5)">
    <text
       fill="#000000"
       fill-opacity="0.87"
       xml:space="preserve"
       style="white-space:pre"
       font-family="'Roboto Mono'"
       font-size="64px"
       font-weight="500"
       letter-spacing="-1.5px"
       id="text6"
       x="2532"
       y="400.785"><tspan
         x="120"
         y="182.35899"
         id="tspan4">Text Field</tspan></text>
    <rect
       x="2744"
       y="120"
       width="32"
       height="32"
       rx="16"
       fill="#000000"
       fill-opacity="0.08"
       id="rect8" />
    <path
       d="m 2758,140.5 6,-4.5 -6,-4.5 z m 2,-14.5 c -5.52,0 -10,4.48 -10,10 0,5.52 4.48,10 10,10 5.52,0 10,-4.48 10,-10 0,-5.52 -4.48,-10 -10,-10 z m 0,18 c -4.41,0 -8,-3.59 -8,-8 0,-4.41 3.59,-8 8,-8 4.41,0 8,3.59 8,8 0,4.41 -3.59,8 -8,8 z"
       fill="#000000"
       fill-opacity="0.54"
       id="path10" />
    <path
       d="m 120,259 v -1 h -1 v 1 z m 2656,0 h 1 v -1 h -1 z m 0,1 v 1 h 1 v -1 z m -2656,0 h -1 v 1 h 1 z m 0,0 h 2656 v -2 H 120 Z m 2655,-1 v 1 h 2 v -1 z m 1,0 H 120 v 2 h 2656 z m -2655,1 v -1 h -2 v 1 z"
       fill="#000000"
       fill-opacity="0.12"
       id="path12" />
    <text
       fill="#000000"
       fill-opacity="0.6"
       xml:space="preserve"
       style="white-space:pre"
       font-family="Roboto"
       font-size="16px"
       font-weight="500"
       letter-spacing="0.15px"
       id="text16"
       x="2532"
       y="400.785"><tspan
         x="120"
         y="401.46899"
         id="tspan14">States</tspan></text>
    <text
       fill="#000000"
       fill-opacity="0.6"
       xml:space="preserve"
       style="white-space:pre"
       font-family="Roboto"
       font-size="14px"
       letter-spacing="0.15px"
       id="text596"
       x="2532"
       y="400.785"><tspan
         x="440"
         y="460.785"
         id="tspan594">Value: False</tspan></text>
    <text
       fill="#000000"
       fill-opacity="0.6"
       xml:space="preserve"
       style="white-space:pre"
       font-family="Roboto"
       font-size="14px"
       letter-spacing="0.15px"
       id="text600"
       x="2532"
       y="400.785"><tspan
         x="440"
         y="532.78497"
         id="tspan598">Value: True</tspan></text>
    <text
       fill="#000000"
       fill-opacity="0.6"
       xml:space="preserve"
       style="white-space:pre"
       font-family="Roboto"
       font-size="16px"
       font-weight="500"
       letter-spacing="0.15px"
       id="text604"
       x="2532"
       y="400.785"><tspan
         x="120"
         y="821.46899"
         id="tspan602">Helper Text: True</tspan></text>
    <text
       fill="#000000"
       fill-opacity="0.6"
       xml:space="preserve"
       style="white-space:pre"
       font-family="Roboto"
       font-size="16px"
       font-weight="500"
       letter-spacing="0.15px"
       id="text608"
       x="2532"
       y="400.785"><tspan
         x="120"
         y="605.46899"
         id="tspan606">Sizes</tspan></text>
    <text
       fill="#000000"
       fill-opacity="0.6"
       xml:space="preserve"
       style="white-space:pre"
       font-family="Roboto"
       font-size="16px"
       font-weight="500"
       letter-spacing="0.15px"
       id="text612"
       x="2532"
       y="400.785"><tspan
         x="120"
         y="677.46899"
         id="tspan610">Prefix: True</tspan></text>
    <text
       fill="#000000"
       fill-opacity="0.6"
       xml:space="preserve"
       style="white-space:pre"
       font-family="Roboto"
       font-size="16px"
       font-weight="500"
       letter-spacing="0.15px"
       id="text616"
       x="2532"
       y="400.785"><tspan
         x="120"
         y="749.46899"
         id="tspan614">Suffix: True</tspan></text>
    <rect
       x="120"
       y="2092"
       width="2656"
       height="124"
       rx="10"
       fill="#f5f5f5"
       id="rect618" />
    <path
       fill-rule="evenodd"
       clip-rule="evenodd"
       d="m 194.972,2137.31 c 0.135,-0.08 0.247,-0.19 0.325,-0.32 0.079,-0.14 0.12,-0.29 0.121,-0.45 l 0.016,-5.14 c 0,-0.16 0.042,-0.31 0.12,-0.44 0.078,-0.14 0.191,-0.25 0.326,-0.33 l 2.788,-1.6 c 0.136,-0.08 0.289,-0.12 0.445,-0.12 0.155,0 0.308,0.04 0.443,0.12 0.135,0.08 0.247,0.19 0.325,0.33 0.078,0.13 0.119,0.29 0.119,0.44 v 9.35 c 0,0.16 -0.041,0.31 -0.12,0.45 -0.078,0.13 -0.191,0.25 -0.326,0.32 l -10.524,6.05 c -0.134,0.08 -0.286,0.12 -0.441,0.12 -0.155,0 -0.308,-0.04 -0.442,-0.12 l -8.259,-4.72 c -0.136,-0.08 -0.249,-0.19 -0.328,-0.33 -0.078,-0.14 -0.12,-0.29 -0.12,-0.45 v -4.71 c 0,-0.01 0.006,-0.01 0.012,-0.01 0.004,0 0.01,0 0.01,0 v -0.01 c 0,0 0.002,-0.01 0.006,-0.01 l 6.801,-3.91 c 0.007,0 0.004,-0.01 -0.003,-0.01 -0.002,0 -0.004,0 -0.005,0 -0.002,0 -0.002,0 -0.002,-0.01 l 0.013,-4.62 c 0.001,-0.16 -0.04,-0.31 -0.118,-0.45 -0.078,-0.13 -0.19,-0.24 -0.325,-0.32 -0.135,-0.08 -0.289,-0.12 -0.445,-0.12 -0.156,0 -0.31,0.04 -0.445,0.12 l -5.055,2.91 c -0.135,0.08 -0.288,0.12 -0.444,0.12 -0.156,0 -0.309,-0.04 -0.444,-0.12 l -5.071,-2.92 c -0.135,-0.08 -0.288,-0.12 -0.444,-0.12 -0.156,0 -0.309,0.04 -0.444,0.12 -0.135,0.08 -0.247,0.19 -0.325,0.33 -0.078,0.13 -0.119,0.28 -0.119,0.44 v 8.36 c 0,0.15 -0.041,0.3 -0.118,0.44 -0.078,0.13 -0.19,0.25 -0.325,0.32 -0.134,0.08 -0.287,0.12 -0.443,0.12 -0.156,0.01 -0.309,-0.03 -0.444,-0.11 l -2.814,-1.61 c -0.136,-0.08 -0.25,-0.19 -0.328,-0.33 -0.079,-0.13 -0.12,-0.29 -0.12,-0.44 l 0.025,-14.61 c 0,-0.15 0.041,-0.31 0.119,-0.44 0.078,-0.14 0.19,-0.25 0.325,-0.33 0.135,-0.07 0.288,-0.12 0.444,-0.12 0.155,0 0.308,0.04 0.443,0.12 l 9.64,5.54 c 0.135,0.08 0.288,0.12 0.443,0.12 0.155,0 0.308,-0.04 0.443,-0.12 l 9.637,-5.54 c 0.135,-0.08 0.288,-0.12 0.444,-0.12 0.156,0 0.309,0.05 0.444,0.12 0.135,0.08 0.247,0.19 0.325,0.33 0.078,0.13 0.119,0.29 0.119,0.44 v 14.61 c 0,0.16 -0.042,0.31 -0.12,0.45 -0.078,0.13 -0.19,0.24 -0.326,0.32 l -5.047,2.91 c -0.135,0.08 -0.248,0.19 -0.326,0.33 -0.078,0.13 -0.119,0.28 -0.119,0.44 0.001,0.16 0.042,0.31 0.121,0.45 0.079,0.13 0.192,0.24 0.328,0.32 l 2.784,1.59 c 0.134,0.07 0.286,0.11 0.441,0.11 0.155,0 0.307,-0.04 0.441,-0.12 z m 0.584,-13.1 c 0,0.16 0.041,0.31 0.121,0.45 0.079,0.13 0.193,0.24 0.33,0.32 0.136,0.08 0.291,0.12 0.448,0.12 0.158,-0.01 0.311,-0.05 0.446,-0.13 l 2.667,-1.6 c 0.132,-0.08 0.241,-0.19 0.316,-0.32 0.076,-0.14 0.116,-0.29 0.116,-0.44 v -3.26 c 0,-0.16 -0.042,-0.31 -0.122,-0.45 -0.079,-0.14 -0.193,-0.25 -0.329,-0.32 -0.137,-0.08 -0.292,-0.12 -0.449,-0.12 -0.157,0 -0.311,0.05 -0.446,0.13 l -2.666,1.6 c -0.132,0.08 -0.241,0.19 -0.317,0.32 -0.075,0.13 -0.115,0.29 -0.115,0.44 z"
       fill="#007fff"
       id="path620" />
    <text
       fill="#000000"
       fill-opacity="0.6"
       xml:space="preserve"
       style="white-space:pre"
       font-family="'Roboto Mono'"
       font-size="16px"
       letter-spacing="0.15px"
       id="text624"
       x="2532"
       y="400.785"><tspan
         x="168"
         y="2184.21"
         id="tspan622">Visit mui.com for extended documentation.</tspan></text>
    <text
       fill="#000000"
       fill-opacity="0.6"
       xml:space="preserve"
       style="white-space:pre"
       font-family="'Roboto Mono'"
       font-size="16px"
       letter-spacing="0.15px"
       id="text628"
       x="2532"
       y="400.785"><tspan
         x="2669"
         y="2184.21"
         id="tspan626">v5.4.0</tspan></text>
    <rect
       x="570"
       y="354"
       width="1078"
       height="1597"
       rx="10"
       fill="#ffffff"
       id="rect18" />
    <text
       fill="#000000"
       fill-opacity="0.6"
       xml:space="preserve"
       style="white-space:pre"
       font-family="Roboto"
       font-size="14px"
       letter-spacing="0.15px"
       id="text104"
       x="2532"
       y="400.785"><tspan
         x="594"
         y="400.785"
         id="tspan102">Inactive</tspan></text>
    <text
       fill="#000000"
       fill-opacity="0.6"
       xml:space="preserve"
       style="white-space:pre"
       font-family="Roboto"
       font-size="14px"
       letter-spacing="0.15px"
       id="text108"
       x="2532"
       y="400.785"><tspan
         x="864"
         y="400.785"
         id="tspan106">Active</tspan></text>
    <text
       fill="#000000"
       fill-opacity="0.6"
       xml:space="preserve"
       style="white-space:pre"
       font-family="Roboto"
       font-size="14px"
       letter-spacing="0.15px"
       id="text112"
       x="2532"
       y="400.785"><tspan
         x="1134"
         y="400.785"
         id="tspan110">Error</tspan></text>
    <text
       fill="#000000"
       fill-opacity="0.6"
       xml:space="preserve"
       style="white-space:pre"
       font-family="Roboto"
       font-size="14px"
       letter-spacing="0.15px"
       id="text116"
       x="2532"
       y="400.785"><tspan
         x="1404"
         y="400.785"
         id="tspan114">Disabled</tspan></text>
    <rect
       x="1698"
       y="354"
       width="1078"
       height="1597"
       rx="10"
       fill="#121212"
       id="rect306" />
    <text
       fill="#ffffff"
       fill-opacity="0.7"
       xml:space="preserve"
       style="white-space:pre"
       font-family="Roboto"
       font-size="14px"
       letter-spacing="0.15px"
       id="text392"
       x="2532"
       y="400.785"><tspan
         x="1722"
         y="400.785"
         id="tspan390">Inactive</tspan></text>
    <text
       fill="#ffffff"
       fill-opacity="0.7"
       xml:space="preserve"
       style="white-space:pre"
       font-family="Roboto"
       font-size="14px"
       letter-spacing="0.15px"
       id="text396"
       x="2532"
       y="400.785"><tspan
         x="1992"
         y="400.785"
         id="tspan394">Active</tspan></text>
    <text
       fill="#ffffff"
       fill-opacity="0.7"
       xml:space="preserve"
       style="white-space:pre"
       font-family="Roboto"
       font-size="14px"
       letter-spacing="0.15px"
       id="text400"
       x="2532"
       y="400.785"><tspan
         x="2262"
         y="400.785"
         id="tspan398">Error</tspan></text>
    <text
       fill="#ffffff"
       fill-opacity="0.7"
       xml:space="preserve"
       style="white-space:pre"
       font-family="Roboto"
       font-size="14px"
       letter-spacing="0.15px"
       id="text404"
       x="2532"
       y="400.785"><tspan
         x="2532"
         y="400.785"
         id="tspan402">Disabled</tspan></text>
    <path
       style="fill:none;stroke:#000000;stroke-width:1"
       d="M 1,2 V 2"
       id="path55" />
  </g>
</svg>
