<?xml version="1.0" encoding="UTF-8" standalone="no"?>
<svg
   id="svg674"
   version="1.1"
   fill="none"
   viewBox="0 0 220 56"
   height="56"
   width="220"
   xmlns="http://www.w3.org/2000/svg"
   xmlns:svg="http://www.w3.org/2000/svg">
  <defs
     id="defs672" />
  <g
     id="New_Layer_1653405217.2641027"
     style="display:inline"
     transform="translate(-594,-1768)">
    <path
       d="m 594,1772 c 0,-2.21 1.791,-4 4,-4 h 212 c 2.209,0 4,1.79 4,4 v 51 H 594 Z"
       fill="#000000"
       fill-opacity="0.06"
       id="path2676" />
    <text
       fill="#000000"
       fill-opacity="0.6"
       xml:space="preserve"
       style="white-space:pre"
       font-family="Roboto"
       font-size="12px"
       letter-spacing="0.15px"
       id="text4832"
       x="606"
       y="1787.1"><tspan
         x="606"
         y="1787.1"
         id="tspan3977">Label</tspan></text>
    <path
       d="m 790,1796.5 c -5,0 -9.27,3.11 -11,7.5 1.73,4.39 6,7.5 11,7.5 5,0 9.27,-3.11 11,-7.5 -1.73,-4.39 -6,-7.5 -11,-7.5 z m 0,12.5 c -2.76,0 -5,-2.24 -5,-5 0,-2.76 2.24,-5 5,-5 2.76,0 5,2.24 5,5 0,2.76 -2.24,5 -5,5 z m 0,-8 c -1.66,0 -3,1.34 -3,3 0,1.66 1.34,3 3,3 1.66,0 3,-1.34 3,-3 0,-1.66 -1.34,-3 -3,-3 z"
       fill="#000000"
       fill-opacity="0.54"
       id="path5736" />
    <line
       x1="594"
       y1="1823.5"
       x2="814"
       y2="1823.5"
       stroke="#000000"
       stroke-opacity="0.42"
       id="line8361" />
  </g>
</svg>
