<?xml version="1.0" encoding="UTF-8" standalone="no"?>
<!-- Created with Inkscape (http://www.inkscape.org/) -->

<svg
   width="58.20826mm"
   height="11.492956mm"
   viewBox="0 0 58.20826 11.492956"
   version="1.1"
   id="svg5"
   xml:space="preserve"
   xmlns="http://www.w3.org/2000/svg"
   xmlns:svg="http://www.w3.org/2000/svg"><defs
     id="defs2" /><g
     id="New_Layer_1652822696.7714167"
     style="display:inline"
     transform="translate(-124.355,-24.192943)"><path
       fill="#000000"
       fill-opacity="0.6"
       d="m 2.828,31.773 h 5.39 V 33 H 1.32 V 21.625 H 2.828 Z M 15.072,33 c -0.083,-0.167 -0.151,-0.464 -0.203,-0.89 -0.672,0.697 -1.474,1.046 -2.406,1.046 -0.834,0 -1.519,-0.234 -2.055,-0.703 -0.531,-0.474 -0.797,-1.073 -0.797,-1.797 0,-0.88 0.333,-1.562 1,-2.047 0.672,-0.49 1.614,-0.734 2.828,-0.734 h 1.406 v -0.664 c 0,-0.505 -0.15,-0.906 -0.453,-1.203 -0.302,-0.302 -0.747,-0.453 -1.336,-0.453 -0.515,0 -0.948,0.13 -1.297,0.39 -0.349,0.26 -0.523,0.576 -0.523,0.946 H 9.783 c 0,-0.422 0.148,-0.828 0.445,-1.22 0.302,-0.395 0.709,-0.707 1.219,-0.937 a 4.126,4.126 0 0 1 1.695,-0.343 c 0.974,0 1.737,0.244 2.29,0.734 0.551,0.484 0.838,1.154 0.859,2.008 v 3.89 c 0,0.776 0.099,1.394 0.296,1.852 V 33 Z m -2.399,-1.102 a 2.54,2.54 0 0 0 1.29,-0.351 c 0.406,-0.235 0.7,-0.54 0.882,-0.914 v -1.735 h -1.133 c -1.77,0 -2.656,0.519 -2.656,1.555 0,0.453 0.151,0.807 0.453,1.063 0.303,0.255 0.69,0.382 1.164,0.382 z m 13.19,-3.03 c 0,1.29 -0.297,2.33 -0.891,3.116 -0.594,0.782 -1.39,1.172 -2.39,1.172 -1.069,0 -1.894,-0.377 -2.477,-1.133 L 20.035,33 H 18.706 V 21 h 1.446 v 4.477 c 0.583,-0.724 1.388,-1.086 2.414,-1.086 1.026,0 1.83,0.388 2.414,1.164 0.588,0.776 0.883,1.838 0.883,3.187 v 0.125 z m -1.446,-0.165 c 0,-0.984 -0.19,-1.745 -0.57,-2.281 -0.38,-0.537 -0.927,-0.805 -1.64,-0.805 -0.954,0 -1.639,0.443 -2.055,1.328 v 3.657 c 0.442,0.885 1.132,1.328 2.07,1.328 0.693,0 1.232,-0.268 1.617,-0.805 0.386,-0.537 0.578,-1.344 0.578,-2.422 z m 6.931,4.453 c -1.145,0 -2.078,-0.375 -2.796,-1.125 -0.72,-0.755 -1.079,-1.763 -1.079,-3.023 v -0.266 c 0,-0.838 0.16,-1.586 0.477,-2.242 0.323,-0.662 0.77,-1.177 1.344,-1.547 a 3.38,3.38 0 0 1 1.875,-0.562 c 1.099,0 1.953,0.362 2.562,1.086 0.61,0.724 0.914,1.76 0.914,3.109 v 0.602 H 28.92 c 0.02,0.833 0.263,1.507 0.726,2.023 0.47,0.51 1.063,0.766 1.782,0.766 0.51,0 0.942,-0.105 1.296,-0.313 0.355,-0.208 0.665,-0.484 0.93,-0.828 l 0.883,0.687 c -0.708,1.089 -1.77,1.633 -3.188,1.633 z m -0.18,-7.578 c -0.583,0 -1.072,0.214 -1.468,0.64 -0.396,0.423 -0.64,1.016 -0.734,1.782 H 33.2 V 27.89 C 33.158,27.156 32.96,26.588 32.606,26.187 32.252,25.781 31.773,25.578 31.169,25.578 Z M 38.046,33 H 36.6 V 21 h 1.445 v 12 z"
       id="path2374"
       transform="matrix(0.264583,0,0,0.264583,124.354,18.6367)" /><path
       stroke="#d32f2f"
       stroke-width="2"
       d="M 0,44 H 220"
       id="path2376"
       transform="matrix(0.264583,0,0,0.264583,124.355,18.6367)" /><path
       fill="#d32f2f"
       d="m 6.563,57.137 v 0.92 H 1.944 v -0.92 H 6.561 Z M 2.12,53.469 V 62 H 0.991 v -8.531 h 1.13 z m 5.426,0 V 62 H 6.422 v -8.531 h 1.125 z m 4.876,8.648 a 3.12,3.12 0 0 1 -1.2,-0.222 2.724,2.724 0 0 1 -0.92,-0.64 2.841,2.841 0 0 1 -0.587,-0.972 3.568,3.568 0 0 1 -0.205,-1.23 v -0.246 c 0,-0.516 0.077,-0.975 0.229,-1.377 0.152,-0.407 0.36,-0.75 0.62,-1.032 0.263,-0.28 0.56,-0.494 0.892,-0.638 a 2.557,2.557 0 0 1 1.03,-0.217 c 0.454,0 0.845,0.078 1.173,0.234 0.332,0.157 0.603,0.375 0.814,0.657 0.211,0.277 0.367,0.605 0.469,0.984 0.101,0.375 0.152,0.785 0.152,1.23 v 0.487 H 10.155 V 58.25 h 3.65 v -0.082 a 2.704,2.704 0 0 0 -0.175,-0.82 1.475,1.475 0 0 0 -0.47,-0.657 c -0.214,-0.172 -0.507,-0.257 -0.878,-0.257 a 1.475,1.475 0 0 0 -1.213,0.615 2.302,2.302 0 0 0 -0.346,0.744 3.77,3.77 0 0 0 -0.123,1.014 v 0.246 c 0,0.3 0.041,0.584 0.123,0.85 0.086,0.261 0.21,0.492 0.37,0.69 0.163,0.2 0.36,0.356 0.591,0.47 0.234,0.113 0.5,0.17 0.797,0.17 0.383,0 0.707,-0.079 0.973,-0.235 a 2.41,2.41 0 0 0 0.697,-0.627 l 0.656,0.522 c -0.136,0.207 -0.31,0.404 -0.521,0.591 -0.211,0.188 -0.471,0.34 -0.78,0.457 a 3.017,3.017 0 0 1 -1.084,0.176 z M 17.733,53 v 9 h -1.09 v -9 z m 3.225,3.879 v 7.559 h -1.09 V 55.66 h 0.996 z m 4.271,1.898 V 58.9 c 0,0.461 -0.054,0.89 -0.164,1.284 -0.11,0.39 -0.27,0.73 -0.48,1.02 a 2.19,2.19 0 0 1 -0.768,0.673 c -0.305,0.16 -0.654,0.24 -1.049,0.24 a 2.67,2.67 0 0 1 -1.066,-0.199 2.103,2.103 0 0 1 -0.785,-0.58 2.964,2.964 0 0 1 -0.516,-0.914 5.285,5.285 0 0 1 -0.258,-1.201 v -0.657 a 5.51,5.51 0 0 1 0.264,-1.26 c 0.129,-0.37 0.299,-0.687 0.51,-0.949 0.215,-0.265 0.474,-0.466 0.78,-0.603 0.304,-0.14 0.655,-0.211 1.054,-0.211 0.398,0 0.752,0.078 1.06,0.234 0.309,0.153 0.569,0.371 0.78,0.657 a 3,3 0 0 1 0.474,1.025 c 0.11,0.394 0.164,0.834 0.164,1.318 z m -1.09,0.123 v -0.123 a 3.78,3.78 0 0 0 -0.1,-0.89 2.252,2.252 0 0 0 -0.31,-0.739 1.48,1.48 0 0 0 -0.527,-0.504 1.5,1.5 0 0 0 -0.768,-0.187 1.69,1.69 0 0 0 -0.715,0.14 1.559,1.559 0 0 0 -0.51,0.381 2.02,2.02 0 0 0 -0.345,0.54 c -0.086,0.199 -0.15,0.406 -0.193,0.62 v 1.518 c 0.078,0.274 0.187,0.532 0.328,0.774 0.14,0.238 0.328,0.431 0.562,0.58 0.235,0.144 0.53,0.217 0.885,0.217 0.293,0 0.545,-0.061 0.756,-0.182 a 1.53,1.53 0 0 0 0.527,-0.51 c 0.14,-0.215 0.244,-0.46 0.31,-0.738 0.067,-0.281 0.1,-0.58 0.1,-0.897 z m 5.504,3.217 c -0.441,0 -0.842,-0.074 -1.201,-0.222 a 2.722,2.722 0 0 1 -0.92,-0.64 2.843,2.843 0 0 1 -0.586,-0.972 3.568,3.568 0 0 1 -0.205,-1.23 v -0.246 c 0,-0.516 0.076,-0.975 0.228,-1.377 0.153,-0.407 0.36,-0.75 0.622,-1.032 a 2.66,2.66 0 0 1 0.89,-0.638 2.557,2.557 0 0 1 1.031,-0.217 c 0.454,0 0.844,0.078 1.172,0.234 0.332,0.157 0.604,0.375 0.815,0.657 0.21,0.277 0.367,0.605 0.468,0.984 0.102,0.375 0.153,0.785 0.153,1.23 v 0.487 H 27.375 V 58.25 h 3.65 v -0.082 a 2.701,2.701 0 0 0 -0.175,-0.82 1.475,1.475 0 0 0 -0.469,-0.657 c -0.215,-0.172 -0.508,-0.257 -0.879,-0.257 a 1.475,1.475 0 0 0 -1.212,0.615 2.3,2.3 0 0 0 -0.346,0.744 3.77,3.77 0 0 0 -0.123,1.014 v 0.246 c 0,0.3 0.04,0.584 0.123,0.85 0.086,0.261 0.209,0.492 0.369,0.69 0.164,0.2 0.361,0.356 0.592,0.47 0.234,0.113 0.5,0.17 0.797,0.17 0.382,0 0.707,-0.079 0.972,-0.235 0.266,-0.156 0.498,-0.365 0.698,-0.627 l 0.656,0.522 c -0.137,0.207 -0.31,0.404 -0.522,0.591 a 2.49,2.49 0 0 1 -0.779,0.457 3.017,3.017 0 0 1 -1.084,0.176 z m 5.216,-5.46 V 62 h -1.084 v -6.34 h 1.055 l 0.03,0.996 z m 1.98,-1.032 -0.005,1.008 a 1.57,1.57 0 0 0 -0.258,-0.035 2.713,2.713 0 0 0 -0.27,-0.012 c -0.25,0 -0.47,0.039 -0.661,0.117 a 1.372,1.372 0 0 0 -0.487,0.328 1.57,1.57 0 0 0 -0.316,0.504 2.425,2.425 0 0 0 -0.147,0.633 l -0.304,0.176 c 0,-0.383 0.037,-0.742 0.111,-1.078 0.078,-0.336 0.197,-0.633 0.357,-0.891 a 1.75,1.75 0 0 1 0.61,-0.61 1.713,1.713 0 0 1 1.16,-0.193 0.8,0.8 0 0 1 0.21,0.053 z m 7.434,0.035 v 0.832 H 40.845 V 55.66 Z m -2.268,-1.54 h 1.084 v 6.31 c 0,0.215 0.033,0.377 0.1,0.486 a 0.47,0.47 0 0 0 0.258,0.217 c 0.105,0.035 0.218,0.052 0.34,0.052 0.09,0 0.183,-0.007 0.28,-0.023 0.102,-0.02 0.178,-0.035 0.23,-0.047 L 44.302,62 a 2.55,2.55 0 0 1 -0.34,0.076 2.587,2.587 0 0 1 -0.498,0.041 c -0.266,0 -0.51,-0.052 -0.732,-0.158 a 1.179,1.179 0 0 1 -0.534,-0.527 c -0.129,-0.25 -0.193,-0.586 -0.193,-1.008 v -6.305 z m 6.57,7.997 c -0.441,0 -0.842,-0.074 -1.201,-0.222 a 2.723,2.723 0 0 1 -0.92,-0.64 2.841,2.841 0 0 1 -0.586,-0.972 3.568,3.568 0 0 1 -0.205,-1.23 v -0.246 c 0,-0.516 0.076,-0.975 0.228,-1.377 0.153,-0.407 0.36,-0.75 0.622,-1.032 a 2.66,2.66 0 0 1 0.89,-0.638 2.557,2.557 0 0 1 1.031,-0.217 c 0.454,0 0.844,0.078 1.172,0.234 0.332,0.157 0.604,0.375 0.815,0.657 0.21,0.277 0.367,0.605 0.468,0.984 a 4.7,4.7 0 0 1 0.153,1.23 v 0.487 H 46.307 V 58.25 h 3.65 v -0.082 a 2.701,2.701 0 0 0 -0.175,-0.82 1.474,1.474 0 0 0 -0.469,-0.657 c -0.215,-0.172 -0.508,-0.257 -0.879,-0.257 a 1.475,1.475 0 0 0 -1.212,0.615 2.3,2.3 0 0 0 -0.346,0.744 3.77,3.77 0 0 0 -0.123,1.014 v 0.246 c 0,0.3 0.04,0.584 0.123,0.85 0.086,0.261 0.209,0.492 0.369,0.69 0.164,0.2 0.361,0.356 0.592,0.47 0.234,0.113 0.5,0.17 0.797,0.17 0.382,0 0.707,-0.079 0.972,-0.235 0.266,-0.156 0.498,-0.365 0.697,-0.627 l 0.657,0.522 c -0.137,0.207 -0.31,0.404 -0.522,0.591 a 2.49,2.49 0 0 1 -0.779,0.457 3.017,3.017 0 0 1 -1.084,0.176 z m 4.865,-6.457 1.389,2.309 1.406,-2.309 h 1.271 L 55.432,58.79 57.571,62 H 56.317 L 54.852,59.621 53.387,62 h -1.26 l 2.133,-3.21 -2.068,-3.13 z m 8.275,0 v 0.832 H 58.287 V 55.66 Z m -2.268,-1.54 h 1.084 v 6.31 c 0,0.215 0.034,0.377 0.1,0.486 a 0.47,0.47 0 0 0 0.258,0.217 c 0.105,0.035 0.218,0.052 0.34,0.052 0.09,0 0.183,-0.007 0.28,-0.023 0.102,-0.02 0.178,-0.035 0.23,-0.047 L 61.744,62 a 2.55,2.55 0 0 1 -0.34,0.076 2.588,2.588 0 0 1 -0.498,0.041 1.68,1.68 0 0 1 -0.732,-0.158 1.179,1.179 0 0 1 -0.533,-0.527 c -0.13,-0.25 -0.194,-0.586 -0.194,-1.008 v -6.305 z"
       id="path2378"
       transform="matrix(0.264583,0,0,0.264583,124.355,18.6367)" /></g></svg>
