<?xml version="1.0" encoding="UTF-8" standalone="no"?>
<svg
   id="svg674"
   version="1.1"
   fill="none"
   viewBox="0 0 220 46.89801"
   height="46.89801"
   width="220"
   xmlns="http://www.w3.org/2000/svg"
   xmlns:svg="http://www.w3.org/2000/svg">
  <defs
     id="defs672">
    <clipPath
       id="clip3_4880_117893">
      <rect
         width="220"
         height="24"
         fill="#ffffff"
         transform="translate(1722,743.5)"
         id="rect669"
         x="0"
         y="0" />
    </clipPath>
  </defs>
  <g
     id="New_Layer_1653405217.2762089"
     style="display:inline"
     transform="translate(-1722,-727.10199)">
    <text
       fill="#ffffff"
       fill-opacity="0.7"
       xml:space="preserve"
       style="white-space:pre"
       font-family="Roboto"
       font-size="12px"
       letter-spacing="0.15px"
       id="text161"
       x="1722"
       y="736.10199"><tspan
         x="1722"
         y="736.10199"
         id="tspan4048">Label</tspan></text>
    <g
       clip-path="url(#clip3_4880_117893)"
       id="g3447">
      <path
         d="m 1930,748 c -5,0 -9.27,3.11 -11,7.5 1.73,4.39 6,7.5 11,7.5 5,0 9.27,-3.11 11,-7.5 -1.73,-4.39 -6,-7.5 -11,-7.5 z m 0,12.5 c -2.76,0 -5,-2.24 -5,-5 0,-2.76 2.24,-5 5,-5 2.76,0 5,2.24 5,5 0,2.76 -2.24,5 -5,5 z m 0,-8 c -1.66,0 -3,1.34 -3,3 0,1.66 1.34,3 3,3 1.66,0 3,-1.34 3,-3 0,-1.66 -1.34,-3 -3,-3 z"
         fill="#ffffff"
         fill-opacity="0.56"
         id="path4051" />
    </g>
    <line
       x1="1722"
       y1="773.5"
       x2="1942"
       y2="773.5"
       stroke="#ffffff"
       stroke-opacity="0.42"
       id="line621" />
  </g>
</svg>
