<?xml version="1.0" encoding="UTF-8" standalone="no"?>
<svg
   id="svg674"
   version="1.1"
   fill="none"
   viewBox="0 0 220 56"
   height="56"
   width="220"
   xmlns="http://www.w3.org/2000/svg"
   xmlns:svg="http://www.w3.org/2000/svg">
  <defs
     id="defs672" />
  <g
     id="New_Layer_1653405217.2979999"
     style="display:inline"
     transform="translate(-1722,-1768)">
    <path
       d="m 1722,1772 c 0,-2.21 1.79,-4 4,-4 h 212 c 2.21,0 4,1.79 4,4 v 51 h -220 z"
       fill="#ffffff"
       fill-opacity="0.09"
       id="path7335" />
    <text
       fill="#ffffff"
       fill-opacity="0.7"
       xml:space="preserve"
       style="white-space:pre"
       font-family="Roboto"
       font-size="12px"
       letter-spacing="0.15px"
       id="text6543"
       x="1734"
       y="1787.1"><tspan
         x="1734"
         y="1787.1"
         id="tspan4185">Label</tspan></text>
    <path
       d="m 1918,1796.5 c -5,0 -9.27,3.11 -11,7.5 1.73,4.39 6,7.5 11,7.5 5,0 9.27,-3.11 11,-7.5 -1.73,-4.39 -6,-7.5 -11,-7.5 z m 0,12.5 c -2.76,0 -5,-2.24 -5,-5 0,-2.76 2.24,-5 5,-5 2.76,0 5,2.24 5,5 0,2.76 -2.24,5 -5,5 z m 0,-8 c -1.66,0 -3,1.34 -3,3 0,1.66 1.34,3 3,3 1.66,0 3,-1.34 3,-3 0,-1.66 -1.34,-3 -3,-3 z"
       fill="#ffffff"
       fill-opacity="0.56"
       id="path9997" />
    <line
       x1="1722"
       y1="1823.5"
       x2="1942"
       y2="1823.5"
       stroke="#ffffff"
       stroke-opacity="0.42"
       id="line5864" />
  </g>
</svg>
