<?xml version="1.0" encoding="UTF-8" standalone="no"?>
<!-- Created with Inkscape (http://www.inkscape.org/) -->

<svg
   width="58.20826mm"
   height="17.578365mm"
   viewBox="0 0 58.20826 17.578365"
   version="1.1"
   id="svg5"
   xml:space="preserve"
   xmlns="http://www.w3.org/2000/svg"
   xmlns:svg="http://www.w3.org/2000/svg"><defs
     id="defs2"><clipPath
       id="a-937"><path
         fill="#ffffff"
         d="M 0,0 H 220 V 24 H 0 Z"
         transform="translate(0,17.5)"
         id="path1838" /></clipPath></defs><g
     id="New_Layer_1652822696.8166633"
     style="display:inline"
     transform="translate(0,-667.56458)"><path
       fill="#000000"
       fill-opacity="0.6"
       d="M 2.121,9.08 H 6.164 V 10 H 0.99 V 1.469 H 2.121 Z M 11.341,10 C 11.279,9.875 11.228,9.652 11.189,9.332 10.685,9.855 10.084,10.117 9.384,10.117 8.759,10.117 8.246,9.941 7.844,9.59 A 1.728,1.728 0 0 1 7.246,8.242 c 0,-0.66 0.25,-1.172 0.75,-1.535 0.504,-0.367 1.21,-0.55 2.12,-0.55 h 1.056 V 5.658 c 0,-0.379 -0.114,-0.68 -0.34,-0.902 C 10.605,4.529 10.272,4.416 9.83,4.416 9.443,4.416 9.119,4.514 8.857,4.709 8.595,4.904 8.464,5.141 8.464,5.418 H 7.374 C 7.374,5.102 7.486,4.797 7.709,4.504 7.935,4.207 8.239,3.973 8.623,3.801 9.009,3.629 9.433,3.543 9.894,3.543 c 0.73,0 1.303,0.184 1.717,0.55 0.414,0.364 0.629,0.866 0.644,1.507 v 2.918 c 0,0.582 0.075,1.044 0.223,1.388 V 10 Z M 9.543,9.174 c 0.34,0 0.662,-0.088 0.966,-0.264 A 1.59,1.59 0 0 0 11.171,8.225 V 6.924 h -0.85 c -1.327,0 -1.991,0.388 -1.991,1.166 0,0.34 0.113,0.605 0.34,0.797 0.226,0.191 0.517,0.287 0.873,0.287 z M 19.472,6.9 c 0,0.97 -0.223,1.748 -0.668,2.338 -0.445,0.586 -1.043,0.88 -1.793,0.88 -0.8,0 -1.42,-0.284 -1.857,-0.85 L 15.1,10 H 14.104 V 1 h 1.084 v 3.357 c 0.437,-0.543 1.04,-0.814 1.81,-0.814 0.77,0 1.373,0.291 1.81,0.873 0.442,0.582 0.663,1.379 0.663,2.39 V 6.9 Z M 18.388,6.777 c 0,-0.738 -0.143,-1.308 -0.428,-1.71 -0.285,-0.403 -0.695,-0.604 -1.23,-0.604 -0.715,0 -1.229,0.332 -1.541,0.996 v 2.742 c 0.332,0.664 0.85,0.996 1.552,0.996 0.52,0 0.924,-0.2 1.213,-0.603 0.29,-0.403 0.434,-1.008 0.434,-1.817 z m 5.236,3.34 c -0.86,0 -1.559,-0.281 -2.098,-0.844 C 20.987,8.707 20.718,7.951 20.718,7.006 v -0.2 c 0,-0.628 0.119,-1.189 0.357,-1.681 a 2.814,2.814 0 0 1 1.008,-1.16 2.535,2.535 0 0 1 1.406,-0.422 c 0.824,0 1.465,0.271 1.922,0.814 0.457,0.543 0.685,1.32 0.685,2.332 v 0.452 h -4.294 c 0.015,0.625 0.197,1.13 0.544,1.517 0.352,0.383 0.797,0.574 1.336,0.574 0.383,0 0.708,-0.078 0.973,-0.234 0.266,-0.156 0.498,-0.363 0.697,-0.621 l 0.663,0.516 c -0.532,0.816 -1.329,1.224 -2.391,1.224 z M 23.489,4.434 c -0.437,0 -0.805,0.16 -1.102,0.48 -0.296,0.316 -0.48,0.762 -0.55,1.336 h 3.175 V 6.168 C 24.982,5.618 24.832,5.191 24.567,4.891 24.302,4.586 23.942,4.434 23.489,4.434 Z M 28.684,10 H 27.6 V 1 h 1.084 z"
       id="path1826"
       transform="matrix(0.264583,0,0,0.264583,-1.5e-6,667.3)" /><g
       clip-path="url(#a-937)"
       id="g1832"
       transform="matrix(0.264583,0,0,0.264583,0,667.3)"><path
         fill="#000000"
         fill-opacity="0.87"
         d="m 5.086,32.508 3.25,-9.383 h 1.64 L 5.759,34.5 H 4.43 L 0.219,23.125 H 1.852 Z M 16.29,34.5 c -0.084,-0.167 -0.151,-0.464 -0.204,-0.89 -0.671,0.697 -1.473,1.046 -2.406,1.046 -0.833,0 -1.518,-0.234 -2.054,-0.703 -0.532,-0.474 -0.797,-1.073 -0.797,-1.797 0,-0.88 0.333,-1.562 1,-2.047 0.672,-0.49 1.614,-0.734 2.828,-0.734 h 1.406 v -0.664 c 0,-0.505 -0.151,-0.906 -0.453,-1.203 -0.302,-0.302 -0.748,-0.453 -1.336,-0.453 -0.516,0 -0.948,0.13 -1.297,0.39 -0.349,0.26 -0.523,0.576 -0.523,0.946 h -1.453 c 0,-0.422 0.148,-0.828 0.445,-1.22 0.302,-0.395 0.708,-0.707 1.219,-0.937 a 4.127,4.127 0 0 1 1.695,-0.343 c 0.974,0 1.737,0.244 2.289,0.734 0.552,0.484 0.838,1.154 0.86,2.008 v 3.89 c 0,0.776 0.098,1.394 0.296,1.852 V 34.5 Z m -2.399,-1.102 a 2.54,2.54 0 0 0 1.29,-0.351 c 0.405,-0.234 0.7,-0.54 0.882,-0.914 V 30.398 H 14.93 c -1.77,0 -2.656,0.519 -2.656,1.555 0,0.453 0.151,0.807 0.453,1.063 0.302,0.255 0.69,0.382 1.164,0.382 z M 21.494,34.5 H 20.05 v -12 h 1.445 v 12 z m 7.69,-0.836 c -0.563,0.661 -1.389,0.992 -2.477,0.992 -0.901,0 -1.589,-0.26 -2.063,-0.781 -0.468,-0.526 -0.705,-1.302 -0.71,-2.328 v -5.5 h 1.445 v 5.46 c 0,1.282 0.52,1.923 1.562,1.923 1.104,0 1.839,-0.412 2.203,-1.235 V 26.047 H 30.59 V 34.5 h -1.375 l -0.032,-0.836 z m 7.267,0.992 c -1.146,0 -2.079,-0.375 -2.797,-1.125 -0.72,-0.755 -1.078,-1.763 -1.078,-3.023 v -0.266 c 0,-0.838 0.158,-1.586 0.476,-2.242 0.323,-0.662 0.771,-1.177 1.344,-1.547 a 3.38,3.38 0 0 1 1.875,-0.562 c 1.099,0 1.953,0.362 2.562,1.086 0.61,0.724 0.914,1.76 0.914,3.109 v 0.602 h -5.726 c 0.02,0.833 0.263,1.507 0.726,2.023 0.47,0.51 1.063,0.766 1.782,0.766 0.51,0 0.942,-0.105 1.297,-0.313 0.354,-0.208 0.664,-0.484 0.93,-0.828 l 0.882,0.687 c -0.708,1.089 -1.77,1.633 -3.187,1.633 z m -0.18,-7.578 c -0.584,0 -1.073,0.214 -1.469,0.64 -0.396,0.423 -0.64,1.016 -0.734,1.782 h 4.234 v -0.11 c -0.041,-0.734 -0.24,-1.302 -0.594,-1.703 -0.354,-0.406 -0.833,-0.609 -1.437,-0.609 z"
         id="path1828" /><path
         fill="#000000"
         fill-opacity="0.54"
         d="m 208,22 c -5,0 -9.27,3.11 -11,7.5 1.73,4.39 6,7.5 11,7.5 5,0 9.27,-3.11 11,-7.5 -1.73,-4.39 -6,-7.5 -11,-7.5 z m 0,12.5 c -2.76,0 -5,-2.24 -5,-5 0,-2.76 2.24,-5 5,-5 2.76,0 5,2.24 5,5 0,2.76 -2.24,5 -5,5 z m 0,-8 c -1.66,0 -3,1.34 -3,3 0,1.66 1.34,3 3,3 1.66,0 3,-1.34 3,-3 0,-1.66 -1.34,-3 -3,-3 z"
         id="path1830" /></g><path
       stroke="#000000"
       stroke-width="2"
       d="M 0,47 H 220"
       id="path1834"
       transform="matrix(0.264583,0,0,0.264583,0,667.3)" /><path
       fill="#000000"
       fill-opacity="0.6"
       d="m 6.563,60.137 v 0.92 H 1.944 v -0.92 H 6.561 Z M 2.12,56.469 V 65 H 0.991 v -8.531 h 1.13 z m 5.426,0 V 65 H 6.422 v -8.531 h 1.125 z m 4.876,8.648 c -0.441,0 -0.841,-0.074 -1.2,-0.223 A 2.724,2.724 0 0 1 10.302,64.256 2.841,2.841 0 0 1 9.715,63.283 3.568,3.568 0 0 1 9.51,62.053 v -0.246 c 0,-0.516 0.077,-0.975 0.229,-1.377 0.152,-0.407 0.36,-0.75 0.62,-1.032 0.263,-0.28 0.56,-0.494 0.892,-0.638 a 2.557,2.557 0 0 1 1.03,-0.217 c 0.454,0 0.845,0.078 1.173,0.234 0.332,0.157 0.603,0.375 0.814,0.657 0.211,0.277 0.367,0.605 0.469,0.984 0.101,0.375 0.152,0.785 0.152,1.23 v 0.487 H 10.155 V 61.25 h 3.65 v -0.082 a 2.704,2.704 0 0 0 -0.175,-0.82 1.475,1.475 0 0 0 -0.47,-0.657 c -0.214,-0.172 -0.507,-0.257 -0.878,-0.257 a 1.475,1.475 0 0 0 -1.213,0.615 2.302,2.302 0 0 0 -0.346,0.744 3.77,3.77 0 0 0 -0.123,1.014 v 0.246 c 0,0.3 0.041,0.584 0.123,0.85 0.086,0.261 0.21,0.492 0.37,0.69 0.163,0.2 0.36,0.356 0.591,0.47 0.234,0.113 0.5,0.17 0.797,0.17 0.383,0 0.707,-0.079 0.973,-0.235 a 2.41,2.41 0 0 0 0.697,-0.627 l 0.656,0.522 c -0.136,0.207 -0.31,0.404 -0.521,0.591 -0.211,0.188 -0.471,0.34 -0.78,0.457 a 3.017,3.017 0 0 1 -1.084,0.176 z M 17.733,56 v 9 h -1.09 v -9 z m 3.225,3.879 v 7.559 h -1.09 V 58.66 h 0.996 z m 4.271,1.898 V 61.9 c 0,0.461 -0.054,0.89 -0.164,1.284 -0.11,0.39 -0.27,0.73 -0.48,1.02 a 2.19,2.19 0 0 1 -0.768,0.673 c -0.305,0.16 -0.654,0.24 -1.049,0.24 a 2.67,2.67 0 0 1 -1.066,-0.199 2.103,2.103 0 0 1 -0.785,-0.58 2.964,2.964 0 0 1 -0.516,-0.914 5.285,5.285 0 0 1 -0.258,-1.201 v -0.657 a 5.51,5.51 0 0 1 0.264,-1.26 c 0.129,-0.37 0.299,-0.687 0.51,-0.949 0.215,-0.265 0.474,-0.466 0.78,-0.603 0.304,-0.14 0.655,-0.211 1.054,-0.211 0.398,0 0.752,0.078 1.06,0.234 0.309,0.153 0.569,0.371 0.78,0.657 a 3,3 0 0 1 0.474,1.025 c 0.11,0.394 0.164,0.834 0.164,1.318 z m -1.09,0.123 v -0.123 a 3.78,3.78 0 0 0 -0.1,-0.89 2.252,2.252 0 0 0 -0.31,-0.739 1.48,1.48 0 0 0 -0.527,-0.504 1.5,1.5 0 0 0 -0.768,-0.187 1.69,1.69 0 0 0 -0.715,0.14 1.559,1.559 0 0 0 -0.51,0.381 2.02,2.02 0 0 0 -0.345,0.54 c -0.086,0.199 -0.15,0.406 -0.193,0.62 v 1.518 c 0.078,0.274 0.187,0.532 0.328,0.774 0.14,0.238 0.328,0.431 0.562,0.58 0.235,0.144 0.53,0.217 0.885,0.217 0.293,0 0.545,-0.061 0.756,-0.182 a 1.53,1.53 0 0 0 0.527,-0.51 c 0.14,-0.215 0.244,-0.46 0.31,-0.738 0.067,-0.281 0.1,-0.58 0.1,-0.897 z m 5.504,3.217 c -0.441,0 -0.842,-0.074 -1.201,-0.223 a 2.722,2.722 0 0 1 -0.92,-0.638 2.843,2.843 0 0 1 -0.586,-0.973 3.568,3.568 0 0 1 -0.205,-1.23 v -0.246 c 0,-0.516 0.076,-0.975 0.228,-1.377 0.153,-0.407 0.36,-0.75 0.622,-1.032 a 2.66,2.66 0 0 1 0.89,-0.638 2.557,2.557 0 0 1 1.031,-0.217 c 0.454,0 0.844,0.078 1.172,0.234 0.332,0.157 0.604,0.375 0.815,0.657 0.21,0.277 0.367,0.605 0.468,0.984 0.102,0.375 0.153,0.785 0.153,1.23 v 0.487 H 27.375 V 61.25 h 3.65 v -0.082 a 2.701,2.701 0 0 0 -0.175,-0.82 1.475,1.475 0 0 0 -0.469,-0.657 c -0.215,-0.172 -0.508,-0.257 -0.879,-0.257 a 1.475,1.475 0 0 0 -1.212,0.615 2.3,2.3 0 0 0 -0.346,0.744 3.77,3.77 0 0 0 -0.123,1.014 v 0.246 c 0,0.3 0.04,0.584 0.123,0.85 0.086,0.261 0.209,0.492 0.369,0.69 0.164,0.2 0.361,0.356 0.592,0.47 0.234,0.113 0.5,0.17 0.797,0.17 0.382,0 0.707,-0.079 0.972,-0.235 0.266,-0.156 0.498,-0.365 0.698,-0.627 l 0.656,0.522 c -0.137,0.207 -0.31,0.404 -0.522,0.591 a 2.49,2.49 0 0 1 -0.779,0.457 3.017,3.017 0 0 1 -1.084,0.176 z m 5.216,-5.46 V 65 h -1.084 v -6.34 h 1.055 l 0.03,0.996 z m 1.98,-1.032 -0.005,1.008 a 1.57,1.57 0 0 0 -0.258,-0.035 2.713,2.713 0 0 0 -0.27,-0.012 c -0.25,0 -0.47,0.039 -0.661,0.117 a 1.372,1.372 0 0 0 -0.487,0.328 1.57,1.57 0 0 0 -0.316,0.504 2.425,2.425 0 0 0 -0.147,0.633 l -0.304,0.176 c 0,-0.383 0.037,-0.742 0.111,-1.078 0.078,-0.336 0.197,-0.633 0.357,-0.891 a 1.75,1.75 0 0 1 0.61,-0.61 1.713,1.713 0 0 1 1.16,-0.193 0.8,0.8 0 0 1 0.21,0.053 z m 7.434,0.035 v 0.832 H 40.845 V 58.66 Z m -2.268,-1.54 h 1.084 v 6.31 c 0,0.215 0.033,0.377 0.1,0.486 a 0.47,0.47 0 0 0 0.258,0.217 c 0.105,0.035 0.218,0.053 0.34,0.053 0.09,0 0.183,-0.008 0.28,-0.024 0.102,-0.02 0.178,-0.035 0.23,-0.047 L 44.302,65 a 2.55,2.55 0 0 1 -0.34,0.076 2.587,2.587 0 0 1 -0.498,0.041 1.69,1.69 0 0 1 -0.732,-0.158 1.179,1.179 0 0 1 -0.534,-0.527 c -0.129,-0.25 -0.193,-0.586 -0.193,-1.008 v -6.305 z m 6.57,7.997 c -0.441,0 -0.842,-0.074 -1.201,-0.223 a 2.723,2.723 0 0 1 -0.92,-0.638 2.841,2.841 0 0 1 -0.586,-0.973 3.568,3.568 0 0 1 -0.205,-1.23 v -0.246 c 0,-0.516 0.076,-0.975 0.228,-1.377 0.153,-0.407 0.36,-0.75 0.622,-1.032 a 2.66,2.66 0 0 1 0.89,-0.638 2.557,2.557 0 0 1 1.031,-0.217 c 0.454,0 0.844,0.078 1.172,0.234 0.332,0.157 0.604,0.375 0.815,0.657 0.21,0.277 0.367,0.605 0.468,0.984 a 4.7,4.7 0 0 1 0.153,1.23 v 0.487 H 46.307 V 61.25 h 3.65 v -0.082 a 2.701,2.701 0 0 0 -0.175,-0.82 1.474,1.474 0 0 0 -0.469,-0.657 c -0.215,-0.172 -0.508,-0.257 -0.879,-0.257 a 1.475,1.475 0 0 0 -1.212,0.615 2.3,2.3 0 0 0 -0.346,0.744 3.77,3.77 0 0 0 -0.123,1.014 v 0.246 c 0,0.3 0.04,0.584 0.123,0.85 0.086,0.261 0.209,0.492 0.369,0.69 0.164,0.2 0.361,0.356 0.592,0.47 0.234,0.113 0.5,0.17 0.797,0.17 0.382,0 0.707,-0.079 0.972,-0.235 0.266,-0.156 0.498,-0.365 0.697,-0.627 l 0.657,0.522 c -0.137,0.207 -0.31,0.404 -0.522,0.591 a 2.49,2.49 0 0 1 -0.779,0.457 3.017,3.017 0 0 1 -1.084,0.176 z m 4.865,-6.457 1.389,2.309 1.406,-2.309 h 1.271 L 55.432,61.79 57.571,65 H 56.317 L 54.852,62.621 53.387,65 h -1.26 l 2.133,-3.21 -2.068,-3.13 z m 8.275,0 v 0.832 H 58.287 V 58.66 Z m -2.268,-1.54 h 1.084 v 6.31 c 0,0.215 0.034,0.377 0.1,0.486 a 0.47,0.47 0 0 0 0.258,0.217 c 0.105,0.035 0.218,0.053 0.34,0.053 0.09,0 0.183,-0.008 0.28,-0.024 0.102,-0.02 0.178,-0.035 0.23,-0.047 L 61.744,65 a 2.55,2.55 0 0 1 -0.34,0.076 2.588,2.588 0 0 1 -0.498,0.041 c -0.265,0 -0.51,-0.053 -0.732,-0.158 a 1.179,1.179 0 0 1 -0.533,-0.527 c -0.13,-0.25 -0.194,-0.586 -0.194,-1.008 v -6.305 z"
       id="path1836"
       transform="matrix(0.264583,0,0,0.264583,0,667.3)" /></g></svg>
