<?xml version="1.0" encoding="UTF-8" standalone="no"?>
<!-- Created with Inkscape (http://www.inkscape.org/) -->

<svg
   width="58.20826mm"
   height="12.435401mm"
   viewBox="0 0 58.20826 12.435401"
   version="1.1"
   id="svg5"
   xml:space="preserve"
   xmlns="http://www.w3.org/2000/svg"
   xmlns:svg="http://www.w3.org/2000/svg"><defs
     id="defs2"><clipPath
       id="a-20"><path
         fill="#ffffff"
         d="M 0,0 H 220 V 24 H 0 Z"
         transform="translate(0,17.5)"
         id="path1079" /></clipPath></defs><g
     id="New_Layer_1652822696.8661432"
     style="display:inline"
     transform="translate(-62.1771,-454.66458)"><path
       fill="#d32f2f"
       d="M 2.121,9.08 H 6.164 V 10 H 0.99 V 1.469 H 2.121 Z M 11.341,10 C 11.279,9.875 11.228,9.652 11.189,9.332 10.685,9.855 10.084,10.117 9.384,10.117 8.759,10.117 8.246,9.941 7.844,9.59 A 1.728,1.728 0 0 1 7.246,8.242 c 0,-0.66 0.25,-1.172 0.75,-1.535 0.504,-0.367 1.21,-0.55 2.12,-0.55 h 1.056 V 5.658 c 0,-0.379 -0.114,-0.68 -0.34,-0.902 C 10.605,4.529 10.272,4.416 9.83,4.416 9.443,4.416 9.119,4.514 8.857,4.709 8.595,4.904 8.464,5.141 8.464,5.418 H 7.374 C 7.374,5.102 7.486,4.797 7.709,4.504 7.935,4.207 8.239,3.973 8.623,3.801 9.009,3.629 9.433,3.543 9.894,3.543 c 0.73,0 1.303,0.184 1.717,0.55 0.414,0.364 0.629,0.866 0.644,1.507 v 2.918 c 0,0.582 0.075,1.044 0.223,1.388 V 10 Z M 9.543,9.174 c 0.34,0 0.662,-0.088 0.966,-0.264 A 1.59,1.59 0 0 0 11.171,8.225 V 6.924 h -0.85 c -1.327,0 -1.991,0.388 -1.991,1.166 0,0.34 0.113,0.605 0.34,0.797 0.226,0.191 0.517,0.287 0.873,0.287 z M 19.472,6.9 c 0,0.97 -0.223,1.748 -0.668,2.338 -0.445,0.586 -1.043,0.88 -1.793,0.88 -0.8,0 -1.42,-0.284 -1.857,-0.85 L 15.1,10 H 14.104 V 1 h 1.084 v 3.357 c 0.437,-0.543 1.04,-0.814 1.81,-0.814 0.77,0 1.373,0.291 1.81,0.873 0.442,0.582 0.663,1.379 0.663,2.39 V 6.9 Z M 18.388,6.777 c 0,-0.738 -0.143,-1.308 -0.428,-1.71 -0.285,-0.403 -0.695,-0.604 -1.23,-0.604 -0.715,0 -1.229,0.332 -1.541,0.996 v 2.742 c 0.332,0.664 0.85,0.996 1.552,0.996 0.52,0 0.924,-0.2 1.213,-0.603 0.29,-0.403 0.434,-1.008 0.434,-1.817 z m 5.236,3.34 c -0.86,0 -1.559,-0.281 -2.098,-0.844 C 20.987,8.707 20.718,7.951 20.718,7.006 v -0.2 c 0,-0.628 0.119,-1.189 0.357,-1.681 a 2.814,2.814 0 0 1 1.008,-1.16 2.535,2.535 0 0 1 1.406,-0.422 c 0.824,0 1.465,0.271 1.922,0.814 0.457,0.543 0.685,1.32 0.685,2.332 v 0.452 h -4.294 c 0.015,0.625 0.197,1.13 0.544,1.517 0.352,0.383 0.797,0.574 1.336,0.574 0.383,0 0.708,-0.078 0.973,-0.234 0.266,-0.156 0.498,-0.363 0.697,-0.621 l 0.663,0.516 c -0.532,0.816 -1.329,1.224 -2.391,1.224 z M 23.489,4.434 c -0.437,0 -0.805,0.16 -1.102,0.48 -0.296,0.316 -0.48,0.762 -0.55,1.336 h 3.175 V 6.168 C 24.982,5.618 24.832,5.191 24.567,4.891 24.302,4.586 23.942,4.434 23.489,4.434 Z M 28.684,10 H 27.6 V 1 h 1.084 z"
       id="path1071"
       transform="matrix(0.264583,0,0,0.264583,62.1771,454.4)" /><g
       clip-path="url(#a-20)"
       id="g1075"
       transform="matrix(0.264583,0,0,0.264583,62.1771,454.4)"><path
         fill="#000000"
         fill-opacity="0.54"
         d="m 208,22 c -5,0 -9.27,3.11 -11,7.5 1.73,4.39 6,7.5 11,7.5 5,0 9.27,-3.11 11,-7.5 -1.73,-4.39 -6,-7.5 -11,-7.5 z m 0,12.5 c -2.76,0 -5,-2.24 -5,-5 0,-2.76 2.24,-5 5,-5 2.76,0 5,2.24 5,5 0,2.76 -2.24,5 -5,5 z m 0,-8 c -1.66,0 -3,1.34 -3,3 0,1.66 1.34,3 3,3 1.66,0 3,-1.34 3,-3 0,-1.66 -1.34,-3 -3,-3 z"
         id="path1073" /></g><path
       stroke="#d32f2f"
       stroke-width="2"
       d="M 0,47 H 220"
       id="path1077"
       transform="matrix(0.264583,0,0,0.264583,62.1771,454.4)" /></g></svg>
