<?xml version="1.0" encoding="UTF-8" standalone="no"?>
<!-- Created with Inkscape (http://www.inkscape.org/) -->

<svg
   width="58.20826mm"
   height="6.7468667mm"
   viewBox="0 0 58.20826 6.7468667"
   version="1.1"
   id="svg5"
   xml:space="preserve"
   xmlns="http://www.w3.org/2000/svg"
   xmlns:svg="http://www.w3.org/2000/svg"><defs
     id="defs2" /><g
     id="New_Layer_1652822696.869026"
     style="display:inline"
     transform="translate(0,-479.05612)"><path
       fill="#000000"
       fill-opacity="0.6"
       d="m 2.828,33.273 h 5.39 V 34.5 H 1.32 V 23.125 H 2.828 Z M 15.072,34.5 c -0.083,-0.167 -0.151,-0.464 -0.203,-0.89 -0.672,0.697 -1.474,1.046 -2.406,1.046 -0.834,0 -1.519,-0.234 -2.055,-0.703 -0.531,-0.474 -0.797,-1.073 -0.797,-1.797 0,-0.88 0.333,-1.562 1,-2.047 0.672,-0.49 1.614,-0.734 2.828,-0.734 h 1.406 v -0.664 c 0,-0.505 -0.15,-0.906 -0.453,-1.203 -0.302,-0.302 -0.747,-0.453 -1.336,-0.453 -0.515,0 -0.948,0.13 -1.297,0.39 -0.349,0.26 -0.523,0.576 -0.523,0.946 H 9.783 c 0,-0.422 0.148,-0.828 0.445,-1.22 0.302,-0.395 0.709,-0.707 1.219,-0.937 a 4.126,4.126 0 0 1 1.695,-0.343 c 0.974,0 1.737,0.244 2.29,0.734 0.551,0.484 0.838,1.154 0.859,2.008 v 3.89 c 0,0.776 0.099,1.394 0.296,1.852 V 34.5 Z m -2.399,-1.102 a 2.54,2.54 0 0 0 1.29,-0.351 c 0.406,-0.234 0.7,-0.54 0.882,-0.914 v -1.735 h -1.133 c -1.77,0 -2.656,0.519 -2.656,1.555 0,0.453 0.151,0.807 0.453,1.063 0.303,0.255 0.69,0.382 1.164,0.382 z m 13.19,-3.03 c 0,1.29 -0.297,2.33 -0.891,3.116 -0.594,0.782 -1.39,1.172 -2.39,1.172 -1.069,0 -1.894,-0.377 -2.477,-1.133 l -0.07,0.977 h -1.329 v -12 h 1.446 v 4.477 c 0.583,-0.724 1.388,-1.086 2.414,-1.086 1.026,0 1.83,0.388 2.414,1.164 0.588,0.776 0.883,1.838 0.883,3.187 v 0.125 z m -1.446,-0.165 c 0,-0.984 -0.19,-1.745 -0.57,-2.281 -0.38,-0.537 -0.927,-0.805 -1.64,-0.805 -0.954,0 -1.639,0.443 -2.055,1.328 v 3.657 c 0.442,0.885 1.132,1.328 2.07,1.328 0.693,0 1.232,-0.269 1.617,-0.805 0.386,-0.536 0.578,-1.344 0.578,-2.422 z m 6.931,4.453 c -1.145,0 -2.078,-0.375 -2.796,-1.125 -0.72,-0.755 -1.079,-1.763 -1.079,-3.023 v -0.266 c 0,-0.838 0.16,-1.586 0.477,-2.242 0.323,-0.662 0.77,-1.177 1.344,-1.547 a 3.38,3.38 0 0 1 1.875,-0.562 c 1.099,0 1.953,0.362 2.562,1.086 0.61,0.724 0.914,1.76 0.914,3.109 v 0.602 H 28.92 c 0.02,0.833 0.263,1.507 0.726,2.023 0.47,0.51 1.063,0.766 1.782,0.766 0.51,0 0.942,-0.105 1.296,-0.313 0.355,-0.208 0.665,-0.484 0.93,-0.828 l 0.883,0.687 c -0.708,1.089 -1.77,1.633 -3.188,1.633 z m -0.18,-7.578 c -0.583,0 -1.072,0.214 -1.468,0.64 -0.396,0.423 -0.64,1.016 -0.734,1.782 H 33.2 V 29.39 C 33.158,28.656 32.96,28.088 32.606,27.687 32.252,27.281 31.773,27.078 31.169,27.078 Z M 38.045,34.5 H 36.6 v -12 h 1.445 z"
       id="path1040"
       transform="matrix(0.264583,0,0,0.264583,-1.5e-6,473.103)" /><path
       stroke="#d32f2f"
       stroke-width="2"
       d="M 0,47 H 220"
       id="path1042"
       transform="matrix(0.264583,0,0,0.264583,0,473.103)" /></g></svg>
