<?xml version="1.0" encoding="UTF-8" standalone="no"?>
<svg
   width="80.069"
   height="42"
   fill="none"
   viewBox="0 0 80.069 42"
   version="1.1"
   id="svg17324"
   xmlns="http://www.w3.org/2000/svg"
   xmlns:svg="http://www.w3.org/2000/svg">
  <defs
     id="defs17328" />
  <g
     id="New_Layer_1652827419.5658484"
     style="display:inline"
     transform="translate(-292,-330)">
    <g
       class="Padding"
       id="g14558"
       transform="translate(-36,-24)">
      <rect
         width="42"
         height="42"
         x="328"
         y="354"
         fill="#9c27b0"
         fill-opacity="0.04"
         rx="21"
         id="rect14552" />
      <g
         class="CheckBoxFilled"
         id="g14556">
        <path
           fill="#9c27b0"
           d="m 356,366 h -14 a 2,2 0 0 0 -2,2 v 14 a 2,2 0 0 0 2,2 h 14 a 2,2 0 0 0 2,-2 v -14 a 2,2 0 0 0 -2,-2 z m -9,14 -5,-5 1.41,-1.41 3.59,3.58 7.59,-7.59 1.41,1.42 z"
           class="Vector"
           id="path14554" />
      </g>
    </g>
    <path
       fill="#000000"
       fill-opacity="0.87"
       d="M 378.219,378.773 V 380 h -5.688 v -1.227 z m -5.391,-10.148 V 380 h -1.508 v -11.375 z m 12.033,9.93 v -4.352 a 1.77,1.77 0 0 0 -0.203,-0.867 1.325,1.325 0 0 0 -0.594,-0.578 c -0.266,-0.136 -0.594,-0.203 -0.984,-0.203 -0.365,0 -0.685,0.062 -0.961,0.187 a 1.672,1.672 0 0 0 -0.641,0.492 1.08,1.08 0 0 0 -0.226,0.657 h -1.446 c 0,-0.302 0.078,-0.602 0.235,-0.899 a 2.62,2.62 0 0 1 0.671,-0.804 3.373,3.373 0 0 1 1.063,-0.579 c 0.417,-0.145 0.88,-0.218 1.391,-0.218 0.614,0 1.156,0.104 1.625,0.312 0.474,0.208 0.843,0.524 1.109,0.945 0.271,0.417 0.406,0.941 0.406,1.571 v 3.937 c 0,0.282 0.024,0.581 0.071,0.899 0.052,0.317 0.127,0.591 0.226,0.82 V 380 h -1.508 a 2.715,2.715 0 0 1 -0.172,-0.664 5.446,5.446 0 0 1 -0.062,-0.781 z m 0.25,-3.68 0.016,1.016 h -1.461 a 5.38,5.38 0 0 0 -1.102,0.101 2.526,2.526 0 0 0 -0.812,0.289 c -0.219,0.13 -0.386,0.295 -0.5,0.492 -0.115,0.193 -0.172,0.42 -0.172,0.68 0,0.266 0.06,0.508 0.179,0.727 0.12,0.218 0.3,0.393 0.539,0.523 0.245,0.125 0.545,0.188 0.899,0.188 0.443,0 0.833,-0.094 1.172,-0.282 0.338,-0.187 0.607,-0.416 0.804,-0.687 0.204,-0.271 0.313,-0.534 0.329,-0.789 l 0.617,0.695 a 2.122,2.122 0 0 1 -0.297,0.727 3.482,3.482 0 0 1 -0.649,0.765 3.49,3.49 0 0 1 -0.953,0.602 3.107,3.107 0 0 1 -1.234,0.234 c -0.573,0 -1.076,-0.112 -1.508,-0.336 a 2.58,2.58 0 0 1 -1,-0.898 2.382,2.382 0 0 1 -0.351,-1.274 c 0,-0.453 0.088,-0.851 0.265,-1.195 a 2.3,2.3 0 0 1 0.766,-0.867 3.623,3.623 0 0 1 1.203,-0.531 c 0.469,-0.12 0.992,-0.18 1.57,-0.18 z M 388.722,368 h 1.453 v 10.359 L 390.05,380 h -1.328 z m 7.164,7.703 v 0.164 c 0,0.615 -0.073,1.185 -0.219,1.711 a 4.222,4.222 0 0 1 -0.64,1.36 2.995,2.995 0 0 1 -1.032,0.898 c -0.406,0.213 -0.872,0.32 -1.398,0.32 -0.537,0 -1.008,-0.091 -1.414,-0.273 a 2.786,2.786 0 0 1 -1.016,-0.805 4.169,4.169 0 0 1 -0.664,-1.266 8.028,8.028 0 0 1 -0.336,-1.671 v -0.719 a 8.052,8.052 0 0 1 0.336,-1.68 c 0.167,-0.495 0.388,-0.916 0.664,-1.265 a 2.667,2.667 0 0 1 1.016,-0.805 c 0.401,-0.188 0.867,-0.281 1.398,-0.281 0.531,0 1.003,0.104 1.414,0.312 0.412,0.203 0.756,0.495 1.032,0.875 0.281,0.38 0.494,0.836 0.64,1.367 0.146,0.526 0.219,1.112 0.219,1.758 z m -1.453,0.164 v -0.164 c 0,-0.422 -0.039,-0.818 -0.117,-1.187 a 3.118,3.118 0 0 0 -0.375,-0.985 1.88,1.88 0 0 0 -0.68,-0.672 c -0.281,-0.166 -0.628,-0.25 -1.039,-0.25 -0.365,0 -0.682,0.063 -0.953,0.188 a 2.057,2.057 0 0 0 -0.68,0.508 2.716,2.716 0 0 0 -0.461,0.718 4.22,4.22 0 0 0 -0.258,0.829 v 1.882 c 0.084,0.365 0.219,0.717 0.407,1.055 0.192,0.333 0.447,0.607 0.765,0.82 0.323,0.214 0.722,0.321 1.195,0.321 0.391,0 0.724,-0.078 1,-0.235 0.282,-0.161 0.508,-0.383 0.68,-0.664 0.177,-0.281 0.307,-0.607 0.391,-0.976 0.083,-0.37 0.125,-0.766 0.125,-1.188 z m 6.939,4.289 a 4.157,4.157 0 0 1 -1.602,-0.297 3.636,3.636 0 0 1 -1.226,-0.851 3.78,3.78 0 0 1 -0.781,-1.297 4.74,4.74 0 0 1 -0.274,-1.641 v -0.328 c 0,-0.687 0.102,-1.299 0.305,-1.836 0.203,-0.541 0.479,-1 0.828,-1.375 a 3.541,3.541 0 0 1 1.187,-0.851 3.407,3.407 0 0 1 1.375,-0.289 c 0.605,0 1.125,0.104 1.563,0.312 0.443,0.208 0.805,0.5 1.086,0.875 0.281,0.37 0.489,0.807 0.625,1.313 0.135,0.5 0.203,1.047 0.203,1.64 v 0.649 h -6.313 V 375 h 4.868 v -0.109 a 3.594,3.594 0 0 0 -0.235,-1.094 1.96,1.96 0 0 0 -0.625,-0.875 c -0.286,-0.229 -0.677,-0.344 -1.172,-0.344 a 1.962,1.962 0 0 0 -1.617,0.82 3.082,3.082 0 0 0 -0.461,0.993 c -0.109,0.39 -0.164,0.841 -0.164,1.351 v 0.328 c 0,0.401 0.055,0.779 0.164,1.133 0.115,0.349 0.279,0.656 0.492,0.922 0.219,0.266 0.482,0.474 0.79,0.625 0.312,0.151 0.666,0.227 1.062,0.227 0.51,0 0.943,-0.105 1.297,-0.313 0.354,-0.208 0.664,-0.487 0.93,-0.836 l 0.875,0.695 a 4.048,4.048 0 0 1 -0.696,0.789 c -0.281,0.25 -0.627,0.454 -1.039,0.61 -0.406,0.156 -0.888,0.234 -1.445,0.234 z M 408.069,368 v 12 h -1.453 v -12 z"
       class="Label"
       id="path14560"
       transform="translate(-36,-24)" />
  </g>
</svg>
