<?xml version="1.0" encoding="UTF-8" standalone="no"?>
<svg
   width="68.044998"
   height="18"
   fill="none"
   viewBox="0 0 68.044998 18"
   version="1.1"
   id="svg17324"
   xmlns="http://www.w3.org/2000/svg"
   xmlns:svg="http://www.w3.org/2000/svg">
  <defs
     id="defs17328" />
  <g
     id="New_Layer_1652827419.5245728"
     style="display:inline"
     transform="translate(-198,-1200)">
    <g
       class="Padding"
       id="g12850"
       transform="translate(-36,-24)">
      <g
         class="IndeterminateCheckBoxFilled"
         id="g12848">
        <path
           fill="#0288d1"
           d="m 250,1224 h -14 c -1.1,0 -2,0.9 -2,2 v 14 c 0,1.1 0.9,2 2,2 h 14 c 1.1,0 2,-0.9 2,-2 v -14 c 0,-1.1 -0.9,-2 -2,-2 z m -2,10 h -10 v -2 h 10 z"
           class="Vector"
           id="path12846" />
      </g>
    </g>
    <path
       fill="#000000"
       fill-opacity="0.87"
       d="m 266.828,1236.77 h 5.391 v 1.23 h -6.899 v -11.38 h 1.508 z m 12.244,1.23 c -0.083,-0.17 -0.151,-0.46 -0.203,-0.89 -0.672,0.7 -1.474,1.05 -2.407,1.05 -0.833,0 -1.518,-0.24 -2.054,-0.71 -0.531,-0.47 -0.797,-1.07 -0.797,-1.79 0,-0.88 0.333,-1.57 1,-2.05 0.672,-0.49 1.615,-0.73 2.828,-0.73 h 1.406 v -0.67 c 0,-0.5 -0.151,-0.91 -0.453,-1.2 -0.302,-0.3 -0.747,-0.46 -1.336,-0.46 -0.515,0 -0.948,0.13 -1.297,0.4 -0.349,0.26 -0.523,0.57 -0.523,0.94 h -1.453 c 0,-0.42 0.148,-0.83 0.445,-1.22 a 3.15,3.15 0 0 1 1.219,-0.94 4.278,4.278 0 0 1 1.695,-0.34 c 0.974,0 1.737,0.25 2.289,0.73 0.552,0.49 0.839,1.16 0.86,2.01 v 3.89 c 0,0.78 0.099,1.4 0.296,1.86 v 0.12 z m -2.399,-1.1 c 0.454,0 0.883,-0.12 1.289,-0.35 0.407,-0.24 0.701,-0.54 0.883,-0.92 v -1.73 h -1.133 c -1.77,0 -2.656,0.52 -2.656,1.55 0,0.46 0.151,0.81 0.453,1.07 0.302,0.25 0.69,0.38 1.164,0.38 z m 13.189,-3.03 c 0,1.29 -0.296,2.33 -0.89,3.11 -0.594,0.79 -1.391,1.18 -2.391,1.18 -1.067,0 -1.893,-0.38 -2.476,-1.14 l -0.071,0.98 h -1.328 v -12 h 1.446 v 4.48 c 0.583,-0.73 1.388,-1.09 2.414,-1.09 1.026,0 1.83,0.39 2.414,1.16 0.588,0.78 0.882,1.84 0.882,3.19 z m -1.445,-0.17 c 0,-0.98 -0.19,-1.74 -0.57,-2.28 -0.38,-0.53 -0.927,-0.8 -1.641,-0.8 -0.953,0 -1.638,0.44 -2.054,1.33 v 3.65 c 0.442,0.89 1.132,1.33 2.07,1.33 0.693,0 1.232,-0.27 1.617,-0.81 0.385,-0.53 0.578,-1.34 0.578,-2.42 z m 6.931,4.46 c -1.145,0 -2.078,-0.38 -2.796,-1.13 -0.719,-0.75 -1.079,-1.76 -1.079,-3.02 v -0.27 c 0,-0.84 0.159,-1.58 0.477,-2.24 0.323,-0.66 0.771,-1.18 1.344,-1.55 a 3.418,3.418 0 0 1 1.875,-0.56 c 1.099,0 1.953,0.36 2.562,1.09 0.61,0.72 0.914,1.76 0.914,3.11 v 0.6 h -5.726 c 0.021,0.83 0.263,1.51 0.726,2.02 0.469,0.51 1.063,0.77 1.782,0.77 0.51,0 0.942,-0.11 1.296,-0.32 0.355,-0.2 0.665,-0.48 0.93,-0.82 l 0.883,0.68 c -0.708,1.09 -1.771,1.64 -3.188,1.64 z m -0.179,-7.58 c -0.584,0 -1.073,0.21 -1.469,0.64 -0.396,0.42 -0.641,1.01 -0.734,1.78 h 4.234 v -0.11 c -0.042,-0.73 -0.24,-1.3 -0.594,-1.7 -0.354,-0.41 -0.833,-0.61 -1.437,-0.61 z m 6.876,7.42 H 300.6 v -12 h 1.445 z"
       class="Label"
       id="path12852"
       transform="translate(-36,-24)" />
  </g>
</svg>
