<?xml version="1.0" encoding="UTF-8" standalone="no"?>
<svg
   width="101.14922"
   height="160.7218"
   fill="none"
   version="1.1"
   id="svg373"
   xmlns="http://www.w3.org/2000/svg"
   xmlns:svg="http://www.w3.org/2000/svg">
  <defs
     id="defs371" />
  <g
     id="New_Layer_1653328872.7497578"
     style="display:inline"
     transform="translate(-720.16406,-1327.9387)">
    <text
       fill="#d32f2f"
       xml:space="preserve"
       style="white-space:pre"
       font-family="Roboto"
       font-size="16px"
       letter-spacing="0.15"
       id="text316"
       x="720"
       y="1486.1"><tspan
         x="720"
         y="1339.47"
         id="tspan314">Group error*</tspan></text>
    <path
       d="m 748,1360 v 14 h -14 v -14 z m 0,-2 h -14 c -1.1,0 -2,0.9 -2,2 v 14 c 0,1.1 0.9,2 2,2 h 14 c 1.1,0 2,-0.9 2,-2 v -14 c 0,-1.1 -0.9,-2 -2,-2 z"
       fill="#000000"
       fill-opacity="0.6"
       id="path318" />
    <text
       fill="#000000"
       fill-opacity="0.87"
       xml:space="preserve"
       style="white-space:pre"
       font-family="Roboto"
       font-size="16px"
       letter-spacing="0.15"
       id="text322"
       x="720"
       y="1486.1"><tspan
         x="762"
         y="1372.47"
         id="tspan320">Label</tspan></text>
    <path
       d="m 748,1402 v 14 h -14 v -14 z m 0,-2 h -14 c -1.1,0 -2,0.9 -2,2 v 14 c 0,1.1 0.9,2 2,2 h 14 c 1.1,0 2,-0.9 2,-2 v -14 c 0,-1.1 -0.9,-2 -2,-2 z"
       fill="#000000"
       fill-opacity="0.6"
       id="path324" />
    <text
       fill="#000000"
       fill-opacity="0.87"
       xml:space="preserve"
       style="white-space:pre"
       font-family="Roboto"
       font-size="16px"
       letter-spacing="0.15"
       id="text328"
       x="720"
       y="1486.1"><tspan
         x="762"
         y="1414.47"
         id="tspan326">Label</tspan></text>
    <path
       d="m 748,1444 v 14 h -14 v -14 z m 0,-2 h -14 c -1.1,0 -2,0.9 -2,2 v 14 c 0,1.1 0.9,2 2,2 h 14 c 1.1,0 2,-0.9 2,-2 v -14 c 0,-1.1 -0.9,-2 -2,-2 z"
       fill="#000000"
       fill-opacity="0.6"
       id="path330" />
    <text
       fill="#000000"
       fill-opacity="0.87"
       xml:space="preserve"
       style="white-space:pre"
       font-family="Roboto"
       font-size="16px"
       letter-spacing="0.15"
       id="text334"
       x="720"
       y="1486.1"><tspan
         x="762"
         y="1456.47"
         id="tspan332">Label</tspan></text>
    <text
       fill="#d32f2f"
       xml:space="preserve"
       style="white-space:pre"
       font-family="Roboto"
       font-size="12px"
       letter-spacing="0.4"
       id="text338"
       x="720"
       y="1486.1"><tspan
         x="720"
         y="1486.1"
         id="tspan336">*Error display hint</tspan></text>
  </g>
</svg>
