<?xml version="1.0" encoding="UTF-8" standalone="no"?>
<svg
   width="80.044998"
   height="42"
   fill="none"
   viewBox="0 0 80.044998 42"
   version="1.1"
   id="svg17324"
   xmlns="http://www.w3.org/2000/svg"
   xmlns:svg="http://www.w3.org/2000/svg">
  <defs
     id="defs17328" />
  <g
     id="New_Layer_1652827419.548857"
     style="display:inline"
     transform="translate(-292,-396)">
    <g
       class="Padding"
       id="g14258"
       transform="translate(-36,-24)">
      <rect
         width="42"
         height="42"
         x="328"
         y="420"
         fill="#d32f2f"
         fill-opacity="0.04"
         rx="21"
         id="rect14252" />
      <g
         class="CheckBoxOutlineBlankOutlined"
         id="g14256">
        <path
           fill="#000000"
           fill-opacity="0.6"
           d="m 356,434 v 14 h -14 v -14 z m 0,-2 h -14 c -1.1,0 -2,0.9 -2,2 v 14 c 0,1.1 0.9,2 2,2 h 14 c 1.1,0 2,-0.9 2,-2 v -14 c 0,-1.1 -0.9,-2 -2,-2 z"
           class="Vector"
           id="path14254" />
      </g>
    </g>
    <path
       fill="#000000"
       fill-opacity="0.87"
       d="m 372.828,444.773 h 5.391 V 446 h -6.899 v -11.375 h 1.508 z M 385.072,446 c -0.083,-0.167 -0.151,-0.464 -0.203,-0.891 -0.672,0.698 -1.474,1.047 -2.407,1.047 -0.833,0 -1.518,-0.234 -2.054,-0.703 -0.531,-0.474 -0.797,-1.073 -0.797,-1.797 0,-0.88 0.333,-1.562 1,-2.047 0.672,-0.489 1.615,-0.734 2.828,-0.734 h 1.406 v -0.664 c 0,-0.505 -0.151,-0.906 -0.453,-1.203 -0.302,-0.302 -0.747,-0.453 -1.336,-0.453 -0.515,0 -0.948,0.13 -1.297,0.39 -0.349,0.261 -0.523,0.576 -0.523,0.946 h -1.453 c 0,-0.422 0.148,-0.829 0.445,-1.219 0.302,-0.396 0.708,-0.708 1.219,-0.938 a 4.128,4.128 0 0 1 1.695,-0.343 c 0.974,0 1.737,0.244 2.289,0.734 0.552,0.484 0.839,1.154 0.86,2.008 v 3.89 c 0,0.776 0.099,1.394 0.296,1.852 V 446 Z m -2.399,-1.102 a 2.54,2.54 0 0 0 1.289,-0.351 c 0.407,-0.235 0.701,-0.539 0.883,-0.914 v -1.735 h -1.133 c -1.77,0 -2.656,0.519 -2.656,1.555 0,0.453 0.151,0.807 0.453,1.063 0.302,0.255 0.69,0.382 1.164,0.382 z m 13.189,-3.031 c 0,1.292 -0.296,2.331 -0.89,3.117 -0.594,0.782 -1.391,1.172 -2.391,1.172 -1.067,0 -1.893,-0.377 -2.476,-1.133 L 390.034,446 h -1.328 v -12 h 1.446 v 4.477 c 0.583,-0.724 1.388,-1.086 2.414,-1.086 1.026,0 1.83,0.388 2.414,1.164 0.588,0.776 0.882,1.838 0.882,3.187 z m -1.445,-0.164 c 0,-0.984 -0.19,-1.745 -0.57,-2.281 -0.38,-0.537 -0.927,-0.805 -1.641,-0.805 -0.953,0 -1.638,0.443 -2.054,1.328 v 3.657 c 0.442,0.885 1.132,1.328 2.07,1.328 0.693,0 1.232,-0.269 1.617,-0.805 0.385,-0.536 0.578,-1.344 0.578,-2.422 z m 6.931,4.453 c -1.145,0 -2.078,-0.375 -2.796,-1.125 -0.719,-0.755 -1.079,-1.763 -1.079,-3.023 v -0.266 c 0,-0.838 0.159,-1.586 0.477,-2.242 0.323,-0.661 0.771,-1.177 1.344,-1.547 a 3.38,3.38 0 0 1 1.875,-0.562 c 1.099,0 1.953,0.362 2.562,1.086 0.61,0.724 0.914,1.76 0.914,3.109 v 0.602 h -5.726 c 0.021,0.833 0.263,1.507 0.726,2.023 0.469,0.51 1.063,0.766 1.782,0.766 0.51,0 0.942,-0.105 1.296,-0.313 0.355,-0.208 0.665,-0.484 0.93,-0.828 l 0.883,0.687 c -0.708,1.089 -1.771,1.633 -3.188,1.633 z m -0.179,-7.578 c -0.584,0 -1.073,0.214 -1.469,0.641 -0.396,0.422 -0.641,1.015 -0.734,1.781 h 4.234 v -0.109 c -0.042,-0.735 -0.24,-1.302 -0.594,-1.703 -0.354,-0.407 -0.833,-0.61 -1.437,-0.61 z M 408.045,446 H 406.6 v -12 h 1.445 z"
       class="Label"
       id="path14260"
       transform="translate(-36,-24)" />
  </g>
</svg>
