<?xml version="1.0" encoding="UTF-8" standalone="no"?>
<svg
   width="95.241798"
   height="158.74719"
   fill="none"
   version="1.1"
   id="svg373"
   xmlns="http://www.w3.org/2000/svg"
   xmlns:svg="http://www.w3.org/2000/svg">
  <defs
     id="defs371" />
  <g
     id="New_Layer_1653328872.7181756"
     style="display:inline"
     transform="translate(-570.95312,-1327.47)">
    <text
       fill="#000000"
       fill-opacity="0.6"
       xml:space="preserve"
       style="white-space:pre"
       font-family="Roboto"
       font-size="16px"
       letter-spacing="0.15"
       id="text290"
       x="570"
       y="1486.1"><tspan
         x="570"
         y="1339.47"
         id="tspan288">Group label</tspan></text>
    <path
       d="m 598,1360 v 14 h -14 v -14 z m 0,-2 h -14 c -1.1,0 -2,0.9 -2,2 v 14 c 0,1.1 0.9,2 2,2 h 14 c 1.1,0 2,-0.9 2,-2 v -14 c 0,-1.1 -0.9,-2 -2,-2 z"
       fill="#000000"
       fill-opacity="0.6"
       id="path292" />
    <text
       fill="#000000"
       fill-opacity="0.87"
       xml:space="preserve"
       style="white-space:pre"
       font-family="Roboto"
       font-size="16px"
       letter-spacing="0.15"
       id="text296"
       x="570"
       y="1486.1"><tspan
         x="612"
         y="1372.47"
         id="tspan294">Label</tspan></text>
    <path
       d="m 598,1402 v 14 h -14 v -14 z m 0,-2 h -14 c -1.1,0 -2,0.9 -2,2 v 14 c 0,1.1 0.9,2 2,2 h 14 c 1.1,0 2,-0.9 2,-2 v -14 c 0,-1.1 -0.9,-2 -2,-2 z"
       fill="#000000"
       fill-opacity="0.6"
       id="path298" />
    <text
       fill="#000000"
       fill-opacity="0.87"
       xml:space="preserve"
       style="white-space:pre"
       font-family="Roboto"
       font-size="16px"
       letter-spacing="0.15"
       id="text302"
       x="570"
       y="1486.1"><tspan
         x="612"
         y="1414.47"
         id="tspan300">Label</tspan></text>
    <path
       d="m 598,1444 v 14 h -14 v -14 z m 0,-2 h -14 c -1.1,0 -2,0.9 -2,2 v 14 c 0,1.1 0.9,2 2,2 h 14 c 1.1,0 2,-0.9 2,-2 v -14 c 0,-1.1 -0.9,-2 -2,-2 z"
       fill="#000000"
       fill-opacity="0.26"
       id="path304" />
    <text
       fill="#000000"
       fill-opacity="0.26"
       xml:space="preserve"
       style="white-space:pre"
       font-family="Roboto"
       font-size="16px"
       letter-spacing="0.15"
       id="text308"
       x="570"
       y="1486.1"><tspan
         x="612"
         y="1456.47"
         id="tspan306">Label</tspan></text>
    <text
       fill="#000000"
       fill-opacity="0.6"
       xml:space="preserve"
       style="white-space:pre"
       font-family="Roboto"
       font-size="12px"
       letter-spacing="0.4"
       id="text312"
       x="570"
       y="1486.1"><tspan
         x="570"
         y="1486.1"
         id="tspan310">Information label</tspan></text>
  </g>
</svg>
