<?xml version="1.0" encoding="UTF-8" standalone="no"?>
<svg
   width="97"
   height="38"
   fill="none"
   version="1.1"
   id="svg5780"
   xmlns="http://www.w3.org/2000/svg"
   xmlns:svg="http://www.w3.org/2000/svg">
  <defs
     id="defs5778" />
  <g
     id="New_Layer_1653067966.2784138"
     style="display:inline"
     transform="translate(-1304,-1141)">
    <text
       fill="#90caf9"
       xml:space="preserve"
       style="white-space:pre;display:inline"
       font-family="Roboto"
       font-size="14px"
       font-weight="500"
       letter-spacing="0.4"
       id="text3814"
       x="1321"
       y="1164.79"><tspan
         x="1321"
         y="1164.79"
         id="tspan3812">PRIMARY</tspan></text>
    <path
       d="m 1309,1143 h 87 v -2 h -87 z m 90,3 v 28 h 2 v -28 z m -3,31 h -87 v 2 h 87 z m -90,-3 v -28 h -2 v 28 z m 3,3 c -1.66,0 -3,-1.34 -3,-3 h -2 c 0,2.76 2.24,5 5,5 z m 90,-3 c 0,1.66 -1.34,3 -3,3 v 2 c 2.76,0 5,-2.24 5,-5 z m -3,-31 c 1.66,0 3,1.34 3,3 h 2 c 0,-2.76 -2.24,-5 -5,-5 z m -87,-2 c -2.76,0 -5,2.24 -5,5 h 2 c 0,-1.66 1.34,-3 3,-3 z"
       fill="#90caf9"
       fill-opacity="0.5"
       id="path3816"
       style="display:inline" />
  </g>
</svg>
