<?xml version="1.0" encoding="UTF-8" standalone="no"?>
<svg
   width="118"
   height="38"
   fill="none"
   version="1.1"
   id="svg5780"
   xmlns="http://www.w3.org/2000/svg"
   xmlns:svg="http://www.w3.org/2000/svg">
  <defs
     id="defs5778" />
  <g
     id="New_Layer_1653067966.279011"
     style="display:inline"
     transform="translate(-1424,-1141)">
    <text
       fill="#ce93d8"
       xml:space="preserve"
       style="white-space:pre;display:inline"
       font-family="Roboto"
       font-size="14px"
       font-weight="500"
       letter-spacing="0.4"
       id="text3820"
       x="1441"
       y="1164.79"><tspan
         x="1441"
         y="1164.79"
         id="tspan3818">SECONDARY</tspan></text>
    <path
       d="m 1429,1143 h 108 v -2 h -108 z m 111,3 v 28 h 2 v -28 z m -3,31 h -108 v 2 h 108 z m -111,-3 v -28 h -2 v 28 z m 3,3 c -1.66,0 -3,-1.34 -3,-3 h -2 c 0,2.76 2.24,5 5,5 z m 111,-3 c 0,1.66 -1.34,3 -3,3 v 2 c 2.76,0 5,-2.24 5,-5 z m -3,-31 c 1.66,0 3,1.34 3,3 h 2 c 0,-2.76 -2.24,-5 -5,-5 z m -108,-2 c -2.76,0 -5,2.24 -5,5 h 2 c 0,-1.66 1.34,-3 3,-3 z"
       fill="#ce93d8"
       fill-opacity="0.5"
       id="path3822"
       style="display:inline" />
  </g>
</svg>
