<?xml version="1.0" encoding="UTF-8" standalone="no"?>
<!-- Created with Inkscape (http://www.inkscape.org/) -->

<svg
   width="34.131207mm"
   height="13.758316mm"
   viewBox="0 0 34.131207 13.758316"
   version="1.1"
   id="svg13398"
   xml:space="preserve"
   xmlns="http://www.w3.org/2000/svg"
   xmlns:svg="http://www.w3.org/2000/svg"><defs
     id="defs13395"><filter
       id="a-18"
       width="129"
       height="52"
       x="0"
       y="0"
       color-interpolation-filters="sRGB"
       filterUnits="userSpaceOnUse"><feFlood
         flood-opacity="0"
         result="BackgroundImageFix"
         id="feFlood19269" /><feColorMatrix
         in="SourceAlpha"
         result="hardAlpha"
         values="0 0 0 0 0 0 0 0 0 0 0 0 0 0 0 0 0 0 127 0"
         id="feColorMatrix19271" /><feOffset
         dy="1"
         id="feOffset19273" /><feGaussianBlur
         stdDeviation="2.5"
         id="feGaussianBlur19275" /><feComposite
         in2="hardAlpha"
         operator="out"
         id="feComposite19277" /><feColorMatrix
         values="0 0 0 0 0 0 0 0 0 0 0 0 0 0 0 0 0 0 0.12 0"
         id="feColorMatrix19279" /><feBlend
         in2="BackgroundImageFix"
         result="effect1_dropShadow_4844_16328"
         id="feBlend19281"
         mode="normal" /><feColorMatrix
         in="SourceAlpha"
         result="hardAlpha"
         values="0 0 0 0 0 0 0 0 0 0 0 0 0 0 0 0 0 0 127 0"
         id="feColorMatrix19283" /><feOffset
         dy="2"
         id="feOffset19285" /><feGaussianBlur
         stdDeviation="1"
         id="feGaussianBlur19287" /><feComposite
         in2="hardAlpha"
         operator="out"
         id="feComposite19289" /><feColorMatrix
         values="0 0 0 0 0 0 0 0 0 0 0 0 0 0 0 0 0 0 0.14 0"
         id="feColorMatrix19291" /><feBlend
         in2="effect1_dropShadow_4844_16328"
         result="effect2_dropShadow_4844_16328"
         id="feBlend19293"
         mode="normal" /><feColorMatrix
         in="SourceAlpha"
         result="hardAlpha"
         values="0 0 0 0 0 0 0 0 0 0 0 0 0 0 0 0 0 0 127 0"
         id="feColorMatrix19295" /><feMorphology
         in="SourceAlpha"
         radius="2"
         result="effect3_dropShadow_4844_16328"
         id="feMorphology19297" /><feOffset
         dy="3"
         id="feOffset19299" /><feGaussianBlur
         stdDeviation=".5"
         id="feGaussianBlur19301" /><feComposite
         in2="hardAlpha"
         operator="out"
         id="feComposite19303" /><feColorMatrix
         values="0 0 0 0 0 0 0 0 0 0 0 0 0 0 0 0 0 0 0.2 0"
         id="feColorMatrix19305" /><feBlend
         in2="effect2_dropShadow_4844_16328"
         result="effect3_dropShadow_4844_16328"
         id="feBlend19307"
         mode="normal" /><feBlend
         in="SourceGraphic"
         in2="effect3_dropShadow_4844_16328"
         result="shape"
         id="feBlend19309"
         mode="normal" /></filter></defs><g
     id="New_Layer_1652821995.4700692"
     style="display:inline"
     transform="translate(-138.377,-309.223)"><g
       filter="url(#a)"
       id="g19267"
       style="filter:url(#a-18)"
       transform="matrix(0.264583,0,0,0.264583,138.377,309.223)"><path
         fill="#0288d1"
         d="M 5,8 A 4,4 0 0 1 9,4 h 111 a 4,4 0 0 1 4,4 v 34 a 4,4 0 0 1 -4,4 H 9 A 4,4 0 0 1 5,42 Z"
         id="path19263" /><path
         fill="#ffffff"
         d="M 41,24 H 28.83 L 34.42,18.41 33,17 25,25 33,33 34.41,31.59 28.83,26 H 41 Z m 19.764,4.543 V 30 H 55.41 V 28.543 Z M 55.922,19.336 V 30 H 54.084 V 19.336 Z M 66.944,20.756 63.758,30 h -1.926 l 4.013,-10.664 h 1.23 z M 69.61,30 66.416,20.757 66.277,19.336 h 1.238 L 71.543,30 Z m -0.154,-3.955 v 1.457 h -5.8 v -1.457 z m 3.741,-6.71 h 3.772 c 0.81,0 1.502,0.123 2.073,0.367 0.571,0.244 1.008,0.606 1.311,1.084 0.308,0.474 0.462,1.06 0.462,1.758 0,0.532 -0.098,1 -0.293,1.406 a 2.86,2.86 0 0 1 -0.828,1.026 4,4 0 0 1 -1.275,0.637 l -0.556,0.27 H 74.472 L 74.457,24.426 H 77 c 0.44,0 0.805,-0.078 1.098,-0.234 0.293,-0.156 0.513,-0.369 0.66,-0.637 a 1.89,1.89 0 0 0 0.227,-0.923 2.02,2.02 0 0 0 -0.22,-0.967 1.416,1.416 0 0 0 -0.66,-0.637 C 77.808,20.877 77.429,20.801 76.97,20.801 H 75.037 V 30 H 73.198 V 19.336 Z M 79.284,30 l -2.505,-4.79 1.926,-0.007 2.542,4.702 V 30 Z m 12.01,-5.45 v 4.073 c -0.151,0.2 -0.388,0.42 -0.71,0.66 -0.318,0.234 -0.74,0.436 -1.267,0.607 -0.528,0.171 -1.185,0.256 -1.97,0.256 a 4.87,4.87 0 0 1 -1.84,-0.336 4.027,4.027 0 0 1 -1.442,-1.004 c -0.4,-0.44 -0.71,-0.974 -0.93,-1.604 -0.22,-0.635 -0.33,-1.357 -0.33,-2.168 v -0.74 c 0,-0.805 0.1,-1.523 0.3,-2.153 0.206,-0.635 0.499,-1.172 0.88,-1.611 0.38,-0.44 0.84,-0.772 1.376,-0.996 0.542,-0.23 1.155,-0.345 1.839,-0.345 0.874,0 1.596,0.147 2.168,0.44 a 3.19,3.19 0 0 1 1.333,1.201 c 0.312,0.513 0.51,1.099 0.593,1.758 H 89.492 A 2.835,2.835 0 0 0 89.148,21.592 1.745,1.745 0 0 0 88.43,20.903 c -0.307,-0.17 -0.708,-0.256 -1.2,-0.256 -0.426,0 -0.8,0.08 -1.121,0.242 -0.323,0.16 -0.591,0.398 -0.806,0.71 -0.21,0.313 -0.369,0.694 -0.476,1.143 a 6.61,6.61 0 0 0 -0.161,1.538 v 0.754 c 0,0.586 0.06,1.106 0.183,1.56 0.127,0.454 0.307,0.838 0.542,1.15 0.239,0.313 0.53,0.55 0.871,0.71 0.342,0.157 0.728,0.235 1.157,0.235 0.42,0 0.765,-0.034 1.033,-0.103 0.269,-0.073 0.481,-0.158 0.638,-0.256 0.16,-0.102 0.285,-0.2 0.373,-0.293 V 25.92 h -2.22 v -1.37 z m 9.476,3.992 V 30 h -5.661 v -1.457 h 5.661 z M 95.629,19.336 V 30 H 93.79 V 19.336 Z m 4.401,4.453 v 1.436 h -4.921 v -1.436 z m 0.704,-4.453 V 20.8 h -5.625 v -1.465 h 5.625 z"
         id="path19265" /></g></g></svg>
