<?xml version="1.0" encoding="UTF-8" standalone="no"?>
<svg
   width="90"
   height="38"
   fill="none"
   version="1.1"
   id="svg5780"
   xmlns="http://www.w3.org/2000/svg"
   xmlns:svg="http://www.w3.org/2000/svg">
  <defs
     id="defs5778" />
  <g
     id="New_Layer_1653067966.2820168"
     style="display:inline"
     transform="translate(-1424,-1201)">
    <text
       fill="#ffffff"
       xml:space="preserve"
       style="white-space:pre;display:inline"
       font-family="Roboto"
       font-size="14px"
       font-weight="500"
       letter-spacing="0.4"
       id="text3850"
       x="1441"
       y="1224.79"><tspan
         x="1441"
         y="1224.79"
         id="tspan3848">INHERIT</tspan></text>
    <path
       d="m 1429,1203 h 80 v -2 h -80 z m 83,3 v 28 h 2 v -28 z m -3,31 h -80 v 2 h 80 z m -83,-3 v -28 h -2 v 28 z m 3,3 c -1.66,0 -3,-1.34 -3,-3 h -2 c 0,2.76 2.24,5 5,5 z m 83,-3 c 0,1.66 -1.34,3 -3,3 v 2 c 2.76,0 5,-2.24 5,-5 z m -3,-31 c 1.66,0 3,1.34 3,3 h 2 c 0,-2.76 -2.24,-5 -5,-5 z m -80,-2 c -2.76,0 -5,2.24 -5,5 h 2 c 0,-1.66 1.34,-3 3,-3 z"
       fill="#ffffff"
       id="path3852"
       style="display:inline" />
  </g>
</svg>
