<?xml version="1.0" encoding="UTF-8" standalone="no"?>
<svg
   width="95"
   height="44"
   fill="none"
   version="1.1"
   id="svg5780"
   xmlns="http://www.w3.org/2000/svg"
   xmlns:svg="http://www.w3.org/2000/svg">
  <defs
     id="defs5778" />
  <g
     id="New_Layer_1653067966.2852857"
     style="display:inline"
     transform="translate(-1304,-1519)">
    <text
       fill="#90caf9"
       xml:space="preserve"
       style="white-space:pre;display:inline"
       font-family="Roboto"
       font-size="15px"
       font-weight="500"
       letter-spacing="0.46"
       id="text3888"
       x="1327"
       y="1546.13"><tspan
         x="1327"
         y="1546.13"
         id="tspan3886">LARGE</tspan></text>
    <path
       d="m 1309,1521 h 85 v -2 h -85 z m 88,3 v 34 h 2 v -34 z m -3,37 h -85 v 2 h 85 z m -88,-3 v -34 h -2 v 34 z m 3,3 c -1.66,0 -3,-1.34 -3,-3 h -2 c 0,2.76 2.24,5 5,5 z m 88,-3 c 0,1.66 -1.34,3 -3,3 v 2 c 2.76,0 5,-2.24 5,-5 z m -3,-37 c 1.66,0 3,1.34 3,3 h 2 c 0,-2.76 -2.24,-5 -5,-5 z m -85,-2 c -2.76,0 -5,2.24 -5,5 h 2 c 0,-1.66 1.34,-3 3,-3 z"
       fill="#90caf9"
       fill-opacity="0.5"
       id="path3890"
       style="display:inline" />
  </g>
</svg>
