<?xml version="1.0" encoding="UTF-8" standalone="no"?>
<!-- Created with Inkscape (http://www.inkscape.org/) -->

<svg
   width="17.602707mm"
   height="3.1749959mm"
   viewBox="0 0 17.602707 3.1749959"
   version="1.1"
   id="svg13398"
   xml:space="preserve"
   xmlns="http://www.w3.org/2000/svg"
   xmlns:svg="http://www.w3.org/2000/svg"><defs
     id="defs13395" /><g
     id="New_Layer_1652821995.4058113"
     style="display:inline"
     transform="translate(-66.211369)"><path
       fill="#000000"
       fill-opacity="0.87"
       d="m 10.77,16.62 c 0,-0.407 -0.144,-0.72 -0.432,-0.94 C 10.055,15.46 9.541,15.238 8.796,15.014 8.051,14.789 7.459,14.54 7.019,14.264 6.176,13.736 5.755,13.046 5.755,12.195 c 0,-0.745 0.303,-1.358 0.908,-1.84 0.61,-0.483 1.399,-0.724 2.368,-0.724 0.643,0 1.216,0.118 1.72,0.355 0.504,0.237 0.9,0.576 1.187,1.016 0.288,0.436 0.432,0.92 0.432,1.454 h -1.6 c 0,-0.483 -0.152,-0.86 -0.457,-1.13 -0.3,-0.275 -0.732,-0.413 -1.295,-0.413 -0.525,0 -0.933,0.112 -1.225,0.336 -0.288,0.225 -0.432,0.538 -0.432,0.94 0,0.338 0.157,0.622 0.47,0.85 0.313,0.225 0.83,0.445 1.549,0.66 0.72,0.212 1.297,0.456 1.733,0.73 0.436,0.271 0.755,0.585 0.958,0.94 0.203,0.351 0.305,0.764 0.305,1.238 0,0.77 -0.296,1.384 -0.889,1.84 -0.588,0.454 -1.388,0.68 -2.4,0.68 A 4.572,4.572 0 0 1 7.241,18.759 C 6.682,18.509 6.246,18.166 5.933,17.73 5.624,17.295 5.47,16.787 5.47,16.207 h 1.606 c 0,0.525 0.173,0.931 0.52,1.219 0.347,0.288 0.844,0.431 1.492,0.431 0.558,0 0.977,-0.112 1.257,-0.336 0.283,-0.229 0.425,-0.529 0.425,-0.901 z m 5.557,-6.862 2.666,7.084 2.66,-7.084 h 2.076 V 19 h -1.6 V 15.953 L 22.288,11.878 19.558,19 H 18.41 l -2.723,-7.116 0.159,4.07 V 19 h -1.6 V 9.758 h 2.082 z m 15.053,7.09 H 27.8 L 27.051,19 h -1.67 l 3.492,-9.242 h 1.441 L 33.812,19 h -1.676 z m -3.129,-1.295 h 2.679 l -1.34,-3.834 z m 8.68,2.165 h 4.196 V 19 H 35.325 V 9.758 h 1.606 z m 7.494,0 H 48.62 V 19 h -5.8 V 9.758 h 1.605 z M 66,9 64.942,10.057 69.128,14.25 H 60 v 1.5 h 9.127 L 64.943,19.942 66,21 72,15 Z"
       id="path13552"
       transform="matrix(0.264583,0,0,0.264583,64.7641,-2.38125)" /></g></svg>
