<?xml version="1.0" encoding="UTF-8" standalone="no"?>
<!-- Created with Inkscape (http://www.inkscape.org/) -->

<svg
   width="23.283304mm"
   height="7.93749mm"
   viewBox="0 0 23.283304 7.9374899"
   version="1.1"
   id="svg13398"
   xml:space="preserve"
   xmlns="http://www.w3.org/2000/svg"
   xmlns:svg="http://www.w3.org/2000/svg"><defs
     id="defs13395" /><g
     id="New_Layer_1652821995.483244"
     style="display:inline"
     transform="translate(-98.8219,-1001.11)"><path
       fill="#000000"
       fill-opacity="0.12"
       d="M 0,4 A 4,4 0 0 1 4,0 h 80 a 4,4 0 0 1 4,4 v 22 a 4,4 0 0 1 -4,4 H 4 A 4,4 0 0 1 0,26 Z"
       id="path20413"
       transform="matrix(0.264583,0,0,0.264583,98.8219,1001.11)" /><path
       fill="#000000"
       fill-opacity="0.26"
       d="m 15.802,16.62 c 0,-0.19 -0.03,-0.36 -0.09,-0.508 a 0.992,0.992 0 0 0 -0.297,-0.406 2.462,2.462 0 0 0 -0.61,-0.356 8.087,8.087 0 0 0 -0.99,-0.362 10.96,10.96 0 0 1 -1.219,-0.45 4.637,4.637 0 0 1 -0.965,-0.584 2.5,2.5 0 0 1 -0.64,-0.769 2.15,2.15 0 0 1 -0.23,-1.009 c 0,-0.376 0.079,-0.72 0.236,-1.028 a 2.4,2.4 0 0 1 0.679,-0.8 3.249,3.249 0 0 1 1.047,-0.527 c 0.402,-0.127 0.846,-0.19 1.333,-0.19 0.686,0 1.276,0.127 1.771,0.38 0.5,0.255 0.882,0.595 1.15,1.023 0.27,0.427 0.405,0.899 0.405,1.415 h -1.58 c 0,-0.304 -0.066,-0.573 -0.197,-0.806 a 1.334,1.334 0 0 0 -0.584,-0.559 c -0.258,-0.135 -0.586,-0.203 -0.984,-0.203 -0.377,0 -0.69,0.057 -0.94,0.172 a 1.251,1.251 0 0 0 -0.558,0.463 1.211,1.211 0 0 0 -0.184,0.66 c 0,0.174 0.04,0.332 0.12,0.476 0.081,0.14 0.204,0.271 0.369,0.394 0.165,0.118 0.372,0.23 0.622,0.336 0.25,0.106 0.544,0.208 0.882,0.305 0.512,0.152 0.959,0.322 1.34,0.508 0.38,0.182 0.698,0.39 0.952,0.622 0.254,0.233 0.444,0.497 0.57,0.793 0.128,0.292 0.191,0.625 0.191,0.997 0,0.39 -0.078,0.74 -0.235,1.054 -0.156,0.309 -0.38,0.573 -0.672,0.793 a 3.22,3.22 0 0 1 -1.041,0.502 4.92,4.92 0 0 1 -1.346,0.171 c -0.444,0 -0.882,-0.06 -1.314,-0.178 a 3.876,3.876 0 0 1 -1.168,-0.54 2.79,2.79 0 0 1 -0.838,-0.913 c -0.207,-0.369 -0.31,-0.798 -0.31,-1.289 h 1.592 c 0,0.3 0.051,0.556 0.153,0.768 0.106,0.212 0.252,0.385 0.438,0.52 0.186,0.132 0.402,0.23 0.647,0.293 0.25,0.063 0.516,0.095 0.8,0.095 0.372,0 0.683,-0.053 0.933,-0.159 a 1.23,1.23 0 0 0 0.571,-0.444 c 0.127,-0.19 0.19,-0.41 0.19,-0.66 z m 4.116,-6.862 h 1.422 l 2.672,7.128 2.666,-7.128 H 28.1 L 24.57,19 h -1.129 z m -0.648,0 h 1.353 l 0.235,6.17 V 19 H 19.27 Z m 8.125,0 h 1.359 V 19 H 27.16 v -3.072 l 0.234,-6.17 z M 34.819,10.989 32.058,19 h -1.67 l 3.479,-9.242 h 1.066 z M 37.129,19 34.362,10.99 34.242,9.758 h 1.072 L 38.805,19 H 37.13 Z m -0.133,-3.428 v 1.263 H 31.97 v -1.263 h 5.027 z m 9.093,2.165 V 19 h -4.64 V 17.737 Z M 41.893,9.757 V 19 H 40.3 V 9.758 h 1.593 z m 11.676,7.98 V 19 h -4.64 V 17.737 Z M 49.374,9.757 V 19 H 47.78 V 9.758 h 1.594 z M 71,9 69.942,10.057 74.128,14.25 H 65 v 1.5 h 9.127 L 69.943,19.942 71,21 77,15 Z"
       id="path20415"
       transform="matrix(0.264583,0,0,0.264583,98.8217,1001.11)" /></g></svg>
