<?xml version="1.0" encoding="UTF-8" standalone="no"?>
<!-- Created with Inkscape (http://www.inkscape.org/) -->

<svg
   width="21.246544mm"
   height="3.5279498mm"
   viewBox="0 0 21.246544 3.5279498"
   version="1.1"
   id="svg13398"
   xml:space="preserve"
   xmlns="http://www.w3.org/2000/svg"
   xmlns:svg="http://www.w3.org/2000/svg"><defs
     id="defs13395" /><g
     id="New_Layer_1652821995.4069002"
     style="display:inline"
     transform="translate(-129.11219,-14.945219)"><path
       fill="#000000"
       fill-opacity="0.87"
       d="M 20.667,17.167 H 10.525 L 15.183,12.508 14,11.333 7.333,18 14,24.667 l 1.175,-1.175 -4.65,-4.659 h 10.142 z m 14.587,-4.12 2.871,7.629 2.864,-7.63 h 2.236 V 23 H 41.502 V 19.719 L 41.672,15.33 38.734,23 h -1.237 l -2.933,-7.663 0.171,4.382 V 23 h -1.722 v -9.953 h 2.242 z m 16.239,5.51 h -4.088 v 3.062 h 4.778 V 23 h -6.508 v -9.953 h 6.46 v 1.394 h -4.73 v 2.748 h 4.088 z M 53.99,23 v -9.953 h 2.94 c 0.88,0 1.659,0.196 2.338,0.588 a 4.002,4.002 0 0 1 1.586,1.668 c 0.373,0.72 0.56,1.545 0.56,2.474 v 0.5 c 0,0.943 -0.189,1.772 -0.567,2.488 A 3.933,3.933 0 0 1 59.24,22.419 C 58.548,22.806 57.752,23 56.855,23 Z m 1.73,-8.559 v 7.178 h 1.128 c 0.907,0 1.602,-0.282 2.085,-0.848 0.487,-0.57 0.736,-1.385 0.745,-2.447 V 17.77 c 0,-1.08 -0.235,-1.904 -0.704,-2.474 -0.47,-0.57 -1.15,-0.855 -2.044,-0.855 z M 65.363,23 H 63.64 v -9.953 h 1.723 z m 9.806,-9.953 v 6.651 c 0,1.058 -0.34,1.896 -1.018,2.516 -0.675,0.615 -1.575,0.923 -2.7,0.923 -1.14,0 -2.044,-0.303 -2.714,-0.91 -0.67,-0.61 -1.005,-1.456 -1.005,-2.536 v -6.644 h 1.722 v 6.658 c 0,0.665 0.17,1.174 0.506,1.525 0.338,0.35 0.834,0.526 1.49,0.526 1.331,0 1.997,-0.702 1.997,-2.106 v -6.603 z m 4.495,0 2.871,7.629 2.864,-7.63 h 2.236 V 23 H 85.912 V 19.719 L 86.083,15.33 83.143,23 h -1.237 l -2.932,-7.663 0.17,4.382 V 23 h -1.722 v -9.953 z"
       id="path13574"
       transform="matrix(0.264583,0,0,0.264583,127.172,11.9467)" /></g></svg>
