<?xml version="1.0" encoding="UTF-8" standalone="no"?>
<svg
   width="99"
   height="38"
   fill="none"
   version="1.1"
   id="svg5780"
   xmlns="http://www.w3.org/2000/svg"
   xmlns:svg="http://www.w3.org/2000/svg">
  <defs
     id="defs5778" />
  <g
     id="New_Layer_1652918630.4176688"
     style="display:inline"
     transform="translate(-713,-583)">
    <path
       d="m 714,588 a 4,4 0 0 1 4,-4 h 89 a 4,4 0 0 1 4,4 v 28 a 4,4 0 0 1 -4,4 h -89 a 4,4 0 0 1 -4,-4 z"
       fill="#1976d2"
       fill-opacity="0.04"
       id="path3166" />
    <text
       fill="#1976d2"
       xml:space="preserve"
       style="white-space:pre"
       font-family="Roboto"
       font-size="14px"
       font-weight="500"
       letter-spacing="0.4"
       id="text3170"
       x="730"
       y="606.78497"><tspan
         x="730"
         y="606.78497"
         id="tspan3168">HOVERED</tspan></text>
    <path
       d="m 718,585 h 89 v -2 h -89 z m 92,3 v 28 h 2 v -28 z m -3,31 h -89 v 2 h 89 z m -92,-3 v -28 h -2 v 28 z m 3,3 a 3,3 0 0 1 -3,-3 h -2 a 5,5 0 0 0 5,5 z m 92,-3 a 3,3 0 0 1 -3,3 v 2 a 5,5 0 0 0 5,-5 z m -3,-31 a 3,3 0 0 1 3,3 h 2 a 5,5 0 0 0 -5,-5 z m -89,-2 a 5,5 0 0 0 -5,5 h 2 a 3,3 0 0 1 3,-3 z"
       fill="#1976d2"
       fill-opacity="0.5"
       id="path3172" />
  </g>
</svg>
