<?xml version="1.0" encoding="UTF-8" standalone="no"?>
<svg
   width="123"
   height="38"
   fill="none"
   version="1.1"
   id="svg5780"
   xmlns="http://www.w3.org/2000/svg"
   xmlns:svg="http://www.w3.org/2000/svg">
  <defs
     id="defs5778" />
  <g
     id="New_Layer_1652918630.419622"
     style="display:inline"
     transform="translate(-737,-703)">
    <path
       d="m 738,708 a 4,4 0 0 1 4,-4 h 113 a 4,4 0 0 1 4,4 v 28 a 4,4 0 0 1 -4,4 H 742 a 4,4 0 0 1 -4,-4 z"
       fill="#1976d2"
       fill-opacity="0.04"
       id="path3184" />
    <text
       fill="#1976d2"
       xml:space="preserve"
       style="white-space:pre"
       font-family="Roboto"
       font-size="14px"
       font-weight="500"
       letter-spacing="0.4"
       id="text3188"
       x="754"
       y="726.78497"><tspan
         x="754"
         y="726.78497"
         id="tspan3186">HOVERED</tspan></text>
    <path
       d="m 837,715.333 -1.175,1.175 4.65,4.659 h -10.142 v 1.666 h 10.142 l -4.65,4.659 1.175,1.175 6.667,-6.667 z"
       fill="#1976d2"
       id="path3190" />
    <path
       d="m 742,705 h 113 v -2 H 742 Z m 116,3 v 28 h 2 v -28 z m -3,31 H 742 v 2 h 113 z m -116,-3 v -28 h -2 v 28 z m 3,3 a 3,3 0 0 1 -3,-3 h -2 a 5,5 0 0 0 5,5 z m 116,-3 a 3,3 0 0 1 -3,3 v 2 a 5,5 0 0 0 5,-5 z m -3,-31 a 3,3 0 0 1 3,3 h 2 a 5,5 0 0 0 -5,-5 z m -113,-2 a 5,5 0 0 0 -5,5 h 2 a 3,3 0 0 1 3,-3 z"
       fill="#1976d2"
       fill-opacity="0.5"
       id="path3192" />
  </g>
</svg>
