<?xml version="1.0" encoding="UTF-8" standalone="no"?>
<!-- Created with Inkscape (http://www.inkscape.org/) -->

<svg
   width="41.010365mm"
   height="20.637474mm"
   viewBox="0 0 41.010365 20.637474"
   version="1.1"
   id="svg13398"
   xml:space="preserve"
   xmlns="http://www.w3.org/2000/svg"
   xmlns:svg="http://www.w3.org/2000/svg"><defs
     id="defs13395"><radialGradient
       id="b-02"
       cx="0"
       cy="0"
       r="1"
       gradientTransform="matrix(0,42.338,-43.5422,0,59.5,21)"
       gradientUnits="userSpaceOnUse"><stop
         offset=".995"
         stop-color="#fff"
         stop-opacity=".3"
         id="stop24579" /><stop
         offset="1"
         stop-color="#fff"
         stop-opacity="0"
         id="stop24581" /></radialGradient><filter
       id="a-943"
       width="155"
       height="78"
       x="0"
       y="0"
       color-interpolation-filters="sRGB"
       filterUnits="userSpaceOnUse"><feFlood
         flood-opacity="0"
         result="BackgroundImageFix"
         id="feFlood24584" /><feColorMatrix
         in="SourceAlpha"
         result="hardAlpha"
         values="0 0 0 0 0 0 0 0 0 0 0 0 0 0 0 0 0 0 127 0"
         id="feColorMatrix24586" /><feOffset
         dy="1"
         id="feOffset24588" /><feGaussianBlur
         stdDeviation="9"
         id="feGaussianBlur24590" /><feComposite
         in2="hardAlpha"
         operator="out"
         id="feComposite24592" /><feColorMatrix
         values="0 0 0 0 0 0 0 0 0 0 0 0 0 0 0 0 0 0 0.12 0"
         id="feColorMatrix24594" /><feBlend
         in2="BackgroundImageFix"
         result="effect1_dropShadow_4844_16168"
         id="feBlend24596"
         mode="normal" /><feColorMatrix
         in="SourceAlpha"
         result="hardAlpha"
         values="0 0 0 0 0 0 0 0 0 0 0 0 0 0 0 0 0 0 127 0"
         id="feColorMatrix24598" /><feOffset
         dy="6"
         id="feOffset24600" /><feGaussianBlur
         stdDeviation="5"
         id="feGaussianBlur24602" /><feComposite
         in2="hardAlpha"
         operator="out"
         id="feComposite24604" /><feColorMatrix
         values="0 0 0 0 0 0 0 0 0 0 0 0 0 0 0 0 0 0 0.14 0"
         id="feColorMatrix24606" /><feBlend
         in2="effect1_dropShadow_4844_16168"
         result="effect2_dropShadow_4844_16168"
         id="feBlend24608"
         mode="normal" /><feColorMatrix
         in="SourceAlpha"
         result="hardAlpha"
         values="0 0 0 0 0 0 0 0 0 0 0 0 0 0 0 0 0 0 127 0"
         id="feColorMatrix24610" /><feMorphology
         in="SourceAlpha"
         radius="1"
         result="effect3_dropShadow_4844_16168"
         id="feMorphology24612" /><feOffset
         dy="3"
         id="feOffset24614" /><feGaussianBlur
         stdDeviation="2.5"
         id="feGaussianBlur24616" /><feComposite
         in2="hardAlpha"
         operator="out"
         id="feComposite24618" /><feColorMatrix
         values="0 0 0 0 0 0 0 0 0 0 0 0 0 0 0 0 0 0 0.2 0"
         id="feColorMatrix24620" /><feBlend
         in2="effect2_dropShadow_4844_16168"
         result="effect3_dropShadow_4844_16168"
         id="feBlend24622"
         mode="normal" /><feBlend
         in="SourceGraphic"
         in2="effect3_dropShadow_4844_16168"
         result="shape"
         id="feBlend24624"
         mode="normal" /></filter></defs><g
     id="New_Layer_1652821995.5234282"
     style="display:inline"
     transform="translate(-4.3e-6,-108.934)"><g
       filter="url(#a)"
       id="g24577"
       style="filter:url(#a-943)"
       transform="matrix(0.264583,0,0,0.264583,4.3e-6,108.934)"><path
         fill="#ed6c02"
         d="m 18,21 a 4,4 0 0 1 4,-4 h 111 a 4,4 0 0 1 4,4 v 34 a 4,4 0 0 1 -4,4 H 22 a 4,4 0 0 1 -4,-4 z"
         id="path24571" /><path
         fill="url(#b)"
         d="M 0,0 H 119 V 42 H 0 Z"
         transform="translate(18,17)"
         id="path24573"
         style="fill:url(#b-02)" /><path
         fill="#ffffff"
         d="M 47.764,41.542 V 43 H 42.41 V 41.542 Z M 42.922,32.336 V 43 H 41.084 V 32.336 Z M 53.944,33.756 50.758,43 h -1.926 l 4.013,-10.664 h 1.23 z M 56.61,43 53.416,33.757 53.277,32.336 h 1.238 L 58.544,43 Z m -0.154,-3.955 v 1.457 h -5.8 v -1.457 z m 3.741,-6.71 h 3.772 c 0.81,0 1.502,0.123 2.073,0.367 0.571,0.244 1.008,0.606 1.311,1.084 0.308,0.474 0.462,1.06 0.462,1.758 0,0.532 -0.098,1 -0.293,1.406 a 2.86,2.86 0 0 1 -0.828,1.026 4,4 0 0 1 -1.275,0.637 l -0.556,0.27 H 61.472 L 61.457,37.426 H 64 c 0.44,0 0.805,-0.078 1.098,-0.234 0.293,-0.156 0.513,-0.369 0.66,-0.637 a 1.89,1.89 0 0 0 0.227,-0.923 2.02,2.02 0 0 0 -0.22,-0.967 1.416,1.416 0 0 0 -0.66,-0.637 C 64.808,33.877 64.429,33.801 63.97,33.801 H 62.037 V 43 H 60.198 V 32.336 Z M 66.284,43 l -2.505,-4.79 1.926,-0.007 2.542,4.702 V 43 Z m 12.01,-5.45 v 4.073 c -0.151,0.2 -0.388,0.42 -0.71,0.66 -0.318,0.234 -0.74,0.436 -1.267,0.607 -0.528,0.171 -1.185,0.257 -1.97,0.257 a 4.87,4.87 0 0 1 -1.84,-0.337 4.027,4.027 0 0 1 -1.442,-1.004 c -0.4,-0.44 -0.71,-0.974 -0.93,-1.604 -0.22,-0.635 -0.33,-1.357 -0.33,-2.168 v -0.74 c 0,-0.805 0.1,-1.523 0.3,-2.153 0.206,-0.635 0.499,-1.172 0.88,-1.611 0.38,-0.44 0.84,-0.772 1.376,-0.996 0.542,-0.23 1.155,-0.344 1.839,-0.344 0.874,0 1.596,0.146 2.168,0.439 a 3.19,3.19 0 0 1 1.333,1.201 c 0.312,0.513 0.51,1.099 0.593,1.758 H 76.492 A 2.835,2.835 0 0 0 76.148,34.592 1.745,1.745 0 0 0 75.43,33.903 c -0.307,-0.17 -0.708,-0.256 -1.2,-0.256 -0.426,0 -0.8,0.08 -1.121,0.242 -0.323,0.16 -0.591,0.398 -0.806,0.71 -0.21,0.313 -0.369,0.694 -0.476,1.143 a 6.61,6.61 0 0 0 -0.161,1.538 v 0.754 c 0,0.586 0.06,1.106 0.183,1.56 0.127,0.454 0.307,0.838 0.542,1.15 0.239,0.313 0.53,0.55 0.871,0.71 0.342,0.157 0.728,0.235 1.157,0.235 0.42,0 0.765,-0.034 1.033,-0.103 0.269,-0.073 0.481,-0.158 0.638,-0.256 0.16,-0.102 0.285,-0.2 0.373,-0.293 V 38.92 h -2.22 v -1.37 z m 9.476,3.992 V 43 h -5.66 v -1.458 h 5.661 z M 82.629,32.336 V 43 H 80.79 V 32.336 Z m 4.401,4.453 v 1.436 h -4.92 v -1.436 h 4.921 z m 0.704,-4.453 V 33.8 h -5.625 v -1.465 h 5.625 z M 109,30 107.59,31.41 113.17,37 H 101 v 2 h 12.17 l -5.58,5.59 1.41,1.41 8,-8 z"
         id="path24575" /></g></g></svg>
