<?xml version="1.0" encoding="UTF-8" standalone="no"?>
<svg
   width="179"
   height="38"
   fill="none"
   version="1.1"
   id="svg5780"
   xmlns="http://www.w3.org/2000/svg"
   xmlns:svg="http://www.w3.org/2000/svg">
  <defs
     id="defs5778">
    <radialGradient
       id="Button__p"
       cx="0"
       cy="0"
       r="1"
       gradientUnits="userSpaceOnUse"
       gradientTransform="matrix(0,36.2897,-64.7644,0,971.5,662)">
      <stop
         offset=".995"
         stop-color="#1976D2"
         stop-opacity=".3"
         id="stop5705" />
      <stop
         offset="1"
         stop-color="#fff"
         stop-opacity="0"
         id="stop5707" />
    </radialGradient>
  </defs>
  <g
     id="New_Layer_1652918630.421586"
     style="display:inline"
     transform="translate(-882,-643)">
    <path
       fill="url(#Button__p)"
       d="m 883,644 h 177 v 36 H 883 Z"
       id="path3202"
       style="fill:url(#Button__p)" />
    <path
       d="m 911.667,661.167 h -10.142 l 4.658,-4.659 -1.183,-1.175 -6.667,6.667 6.667,6.667 1.175,-1.175 -4.65,-4.659 h 10.142 z"
       fill="#1976d2"
       id="path3204" />
    <text
       fill="#1976d2"
       xml:space="preserve"
       style="white-space:pre"
       font-family="Roboto"
       font-size="14px"
       font-weight="500"
       letter-spacing="0.4"
       id="text3208"
       x="923"
       y="666.78497"><tspan
         x="923"
         y="666.78497"
         id="tspan3206">FOCUSED VISIBLE</tspan></text>
    <path
       d="m 887,645 h 169 v -2 H 887 Z m 172,3 v 28 h 2 v -28 z m -3,31 H 887 v 2 h 169 z m -172,-3 v -28 h -2 v 28 z m 3,3 a 3,3 0 0 1 -3,-3 h -2 a 5,5 0 0 0 5,5 z m 172,-3 c 0,1.657 -1.34,3 -3,3 v 2 c 2.76,0 5,-2.239 5,-5 z m -3,-31 c 1.66,0 3,1.343 3,3 h 2 c 0,-2.761 -2.24,-5 -5,-5 z m -169,-2 a 5,5 0 0 0 -5,5 h 2 a 3,3 0 0 1 3,-3 z"
       fill="#1976d2"
       fill-opacity="0.5"
       id="path3210" />
  </g>
</svg>
