<?xml version="1.0" encoding="UTF-8" standalone="no"?>
<svg
   width="126"
   height="38"
   fill="none"
   version="1.1"
   id="svg5780"
   xmlns="http://www.w3.org/2000/svg"
   xmlns:svg="http://www.w3.org/2000/svg">
  <defs
     id="defs5778" />
  <g
     id="New_Layer_1652918630.4252467"
     style="display:inline"
     transform="translate(-1082,-703)">
    <text
       fill="#000000"
       fill-opacity="0.26"
       xml:space="preserve"
       style="white-space:pre"
       font-family="Roboto"
       font-size="14px"
       font-weight="500"
       letter-spacing="0.4"
       id="text3238"
       x="1099"
       y="726.78497"><tspan
         x="1099"
         y="726.78497"
         id="tspan3236">DISALBED</tspan></text>
    <path
       d="m 1185,715.333 -1.17,1.175 4.65,4.659 h -10.15 v 1.666 h 10.15 l -4.65,4.659 1.17,1.175 6.67,-6.667 z"
       fill="#000000"
       fill-opacity="0.26"
       id="path3240" />
    <path
       d="m 1087,705 h 116 v -2 h -116 z m 119,3 v 28 h 2 v -28 z m -3,31 h -116 v 2 h 116 z m -119,-3 v -28 h -2 v 28 z m 3,3 c -1.66,0 -3,-1.343 -3,-3 h -2 c 0,2.761 2.24,5 5,5 z m 119,-3 c 0,1.657 -1.34,3 -3,3 v 2 c 2.76,0 5,-2.239 5,-5 z m -3,-31 c 1.66,0 3,1.343 3,3 h 2 c 0,-2.761 -2.24,-5 -5,-5 z m -116,-2 c -2.76,0 -5,2.239 -5,5 h 2 c 0,-1.657 1.34,-3 3,-3 z"
       fill="#000000"
       fill-opacity="0.12"
       id="path3242" />
  </g>
</svg>
