<?xml version="1.0" encoding="UTF-8" standalone="no"?>
<svg
   width="98"
   height="38"
   fill="none"
   version="1.1"
   id="svg5780"
   xmlns="http://www.w3.org/2000/svg"
   xmlns:svg="http://www.w3.org/2000/svg">
  <defs
     id="defs5778" />
  <g
     id="New_Layer_1652918630.4261034"
     style="display:inline"
     transform="translate(-593,-583)">
    <text
       fill="#1976d2"
       xml:space="preserve"
       style="white-space:pre"
       font-family="Roboto"
       font-size="14px"
       font-weight="500"
       letter-spacing="0.4"
       id="text3246"
       x="610"
       y="606.78497"><tspan
         x="610"
         y="606.78497"
         id="tspan3244">ENABLED</tspan></text>
    <path
       d="m 598,585 h 88 v -2 h -88 z m 91,3 v 28 h 2 v -28 z m -3,31 h -88 v 2 h 88 z m -91,-3 v -28 h -2 v 28 z m 3,3 a 3,3 0 0 1 -3,-3 h -2 a 5,5 0 0 0 5,5 z m 91,-3 a 3,3 0 0 1 -3,3 v 2 a 5,5 0 0 0 5,-5 z m -3,-31 a 3,3 0 0 1 3,3 h 2 a 5,5 0 0 0 -5,-5 z m -88,-2 a 5,5 0 0 0 -5,5 h 2 a 3,3 0 0 1 3,-3 z"
       fill="#1976d2"
       fill-opacity="0.5"
       id="path3248" />
  </g>
</svg>
