<?xml version="1.0" encoding="UTF-8" standalone="no"?>
<!-- Created with Inkscape (http://www.inkscape.org/) -->

<svg
   width="24.606218mm"
   height="11.112486mm"
   viewBox="0 0 24.606218 11.112486"
   version="1.1"
   id="svg13398"
   xml:space="preserve"
   xmlns="http://www.w3.org/2000/svg"
   xmlns:svg="http://www.w3.org/2000/svg"><defs
     id="defs13395" /><g
     id="New_Layer_1652821995.5700293"
     style="display:inline"
     transform="translate(-98.1604,-901.096)"><path
       fill="#000000"
       fill-opacity="0.12"
       d="M 0,4 A 4,4 0 0 1 4,0 h 85 a 4,4 0 0 1 4,4 v 34 a 4,4 0 0 1 -4,4 H 4 A 4,4 0 0 1 0,38 Z"
       id="path29296"
       transform="matrix(0.264583,0,0,0.264583,98.1604,901.096)" /><path
       fill="#000000"
       fill-opacity="0.26"
       d="M 29.764,24.543 V 26 H 24.41 V 24.543 Z M 24.922,15.336 V 26 H 23.084 V 15.336 Z M 35.944,16.756 32.758,26 h -1.926 l 4.013,-10.664 h 1.23 z M 38.61,26 35.416,16.757 35.277,15.336 h 1.238 L 40.544,26 Z m -0.154,-3.955 v 1.457 h -5.8 v -1.457 z m 3.741,-6.71 h 3.772 c 0.81,0 1.502,0.123 2.073,0.367 0.571,0.244 1.008,0.606 1.311,1.084 0.308,0.474 0.462,1.06 0.462,1.758 0,0.532 -0.098,1 -0.293,1.406 a 2.86,2.86 0 0 1 -0.828,1.026 4,4 0 0 1 -1.275,0.637 l -0.556,0.27 H 43.472 L 43.457,20.426 H 46 c 0.44,0 0.805,-0.078 1.098,-0.234 0.293,-0.156 0.513,-0.369 0.66,-0.637 a 1.89,1.89 0 0 0 0.227,-0.923 2.02,2.02 0 0 0 -0.22,-0.967 1.416,1.416 0 0 0 -0.66,-0.637 C 46.808,16.877 46.429,16.801 45.97,16.801 H 44.037 V 26 H 42.198 V 15.336 Z M 48.284,26 l -2.505,-4.79 1.926,-0.007 2.542,4.702 V 26 Z m 12.01,-5.45 v 4.073 c -0.151,0.2 -0.388,0.42 -0.71,0.66 -0.318,0.234 -0.74,0.436 -1.268,0.607 -0.527,0.171 -1.184,0.256 -1.97,0.256 A 4.87,4.87 0 0 1 54.508,25.81 4.027,4.027 0 0 1 53.065,24.806 c -0.4,-0.44 -0.71,-0.974 -0.93,-1.604 -0.22,-0.635 -0.33,-1.357 -0.33,-2.168 v -0.74 c 0,-0.805 0.1,-1.523 0.3,-2.153 0.206,-0.635 0.499,-1.172 0.88,-1.611 0.38,-0.44 0.84,-0.772 1.376,-0.996 0.542,-0.23 1.155,-0.345 1.839,-0.345 0.874,0 1.596,0.147 2.168,0.44 a 3.19,3.19 0 0 1 1.333,1.201 c 0.312,0.513 0.51,1.099 0.593,1.758 H 58.492 A 2.835,2.835 0 0 0 58.148,17.592 1.745,1.745 0 0 0 57.43,16.903 c -0.307,-0.17 -0.708,-0.256 -1.2,-0.256 -0.426,0 -0.8,0.08 -1.121,0.242 -0.323,0.16 -0.591,0.398 -0.806,0.71 -0.21,0.313 -0.369,0.694 -0.476,1.143 a 6.61,6.61 0 0 0 -0.161,1.538 v 0.754 c 0,0.586 0.06,1.106 0.183,1.56 0.127,0.454 0.307,0.838 0.542,1.15 0.239,0.313 0.53,0.55 0.871,0.71 0.342,0.157 0.728,0.235 1.157,0.235 0.42,0 0.765,-0.034 1.033,-0.103 0.269,-0.073 0.481,-0.158 0.638,-0.256 0.16,-0.102 0.285,-0.2 0.373,-0.293 V 21.92 h -2.22 v -1.37 z m 9.476,3.992 V 26 h -5.66 v -1.457 h 5.661 z M 64.629,15.336 V 26 H 62.79 V 15.336 Z m 4.401,4.453 v 1.436 h -4.92 v -1.436 h 4.921 z m 0.704,-4.453 V 16.8 h -5.625 v -1.465 h 5.625 z"
       id="path29298"
       transform="matrix(0.264583,0,0,0.264583,98.1607,901.097)" /></g></svg>
