<?xml version="1.0" encoding="UTF-8" standalone="no"?>
<!-- Created with Inkscape (http://www.inkscape.org/) -->

<svg
   width="20.03396mm"
   height="4.2333279mm"
   viewBox="0 0 20.03396 4.2333278"
   version="1.1"
   id="svg13398"
   xml:space="preserve"
   xmlns="http://www.w3.org/2000/svg"
   xmlns:svg="http://www.w3.org/2000/svg"><defs
     id="defs13395" /><g
     id="New_Layer_1652821995.4134285"
     style="display:inline"
     transform="translate(-167.23966,-32.063279)"><path
       fill="#000000"
       fill-opacity="0.87"
       d="M 36,20 H 23.83 L 29.42,14.41 28,13 20,21 28,29 29.41,27.59 23.83,22 H 36 Z m 14.937,4.52 h 4.841 V 26 H 49.084 V 15.336 h 1.853 z m 12.838,-1.003 h -4.13 L 58.78,26 h -1.926 l 4.028,-10.664 h 1.663 L 66.58,26 h -1.933 z m -3.61,-1.494 h 3.09 l -1.546,-4.424 -1.545,4.424 z m 12.01,-0.132 H 70.109 V 26 H 68.256 V 15.336 h 3.75 c 1.23,0 2.18,0.276 2.85,0.828 0.668,0.551 1.003,1.35 1.003,2.395 0,0.712 -0.174,1.31 -0.52,1.794 -0.342,0.478 -0.82,0.847 -1.436,1.106 l 2.395,4.446 V 26 h -1.985 l -2.139,-4.109 z m -2.066,-1.487 h 1.904 c 0.625,0 1.113,-0.156 1.465,-0.468 0.352,-0.318 0.527,-0.75 0.527,-1.297 0,-0.571 -0.163,-1.013 -0.49,-1.325 -0.323,-0.313 -0.806,-0.474 -1.45,-0.484 h -1.956 z m 16.141,4.212 c -0.386,0.503 -0.92,0.884 -1.604,1.142 -0.683,0.26 -1.46,0.389 -2.329,0.389 -0.893,0 -1.685,-0.203 -2.373,-0.608 a 4.077,4.077 0 0 1 -1.597,-1.736 c -0.37,-0.757 -0.564,-1.638 -0.578,-2.644 v -0.835 c 0,-1.612 0.385,-2.869 1.157,-3.772 0.771,-0.908 1.848,-1.362 3.23,-1.362 1.186,0 2.129,0.292 2.827,0.878 0.698,0.586 1.118,1.431 1.26,2.534 h -1.817 c -0.205,-1.284 -0.95,-1.926 -2.234,-1.926 -0.83,0 -1.462,0.3 -1.896,0.901 -0.43,0.596 -0.652,1.472 -0.667,2.63 v 0.82 c 0,1.152 0.242,2.048 0.725,2.688 0.488,0.635 1.165,0.952 2.029,0.952 0.947,0 1.621,-0.215 2.021,-0.645 V 21.935 H 82.207 V 20.53 h 4.043 v 4.087 z m 8.73,-3.377 H 90.6 v 3.281 h 5.119 V 26 H 88.746 V 15.336 h 6.922 v 1.494 h -5.069 v 2.944 h 4.38 v 1.465 z"
       id="path13706"
       transform="matrix(0.264583,0,0,0.264583,161.948,28.6237)" /></g></svg>
