<?xml version="1.0" encoding="UTF-8" standalone="no"?>
<svg
   width="122"
   height="38"
   fill="none"
   version="1.1"
   id="svg5780"
   xmlns="http://www.w3.org/2000/svg"
   xmlns:svg="http://www.w3.org/2000/svg">
  <defs
     id="defs5778" />
  <g
     id="New_Layer_1652918630.427542"
     style="display:inline"
     transform="translate(-593,-703)">
    <text
       fill="#1976d2"
       xml:space="preserve"
       style="white-space:pre"
       font-family="Roboto"
       font-size="14px"
       font-weight="500"
       letter-spacing="0.4"
       id="text3260"
       x="610"
       y="726.78497"><tspan
         x="610"
         y="726.78497"
         id="tspan3258">ENABLED</tspan></text>
    <path
       d="m 692,715.333 -1.175,1.175 4.65,4.659 h -10.142 v 1.666 h 10.142 l -4.65,4.659 1.175,1.175 6.667,-6.667 z"
       fill="#1976d2"
       id="path3262" />
    <path
       d="m 598,705 h 112 v -2 H 598 Z m 115,3 v 28 h 2 v -28 z m -3,31 H 598 v 2 h 112 z m -115,-3 v -28 h -2 v 28 z m 3,3 a 3,3 0 0 1 -3,-3 h -2 a 5,5 0 0 0 5,5 z m 115,-3 a 3,3 0 0 1 -3,3 v 2 a 5,5 0 0 0 5,-5 z m -3,-31 a 3,3 0 0 1 3,3 h 2 a 5,5 0 0 0 -5,-5 z m -112,-2 a 5,5 0 0 0 -5,5 h 2 a 3,3 0 0 1 3,-3 z"
       fill="#1976d2"
       fill-opacity="0.5"
       id="path3264" />
  </g>
</svg>
