<?xml version="1.0" encoding="UTF-8" standalone="no"?>
<!-- Created with Inkscape (http://www.inkscape.org/) -->

<svg
   width="27.252048mm"
   height="13.758316mm"
   viewBox="0 0 27.252048 13.758316"
   version="1.1"
   id="svg13398"
   xml:space="preserve"
   xmlns="http://www.w3.org/2000/svg"
   xmlns:svg="http://www.w3.org/2000/svg"><defs
     id="defs13395"><filter
       id="a-741"
       width="103"
       height="52"
       x="0"
       y="0"
       color-interpolation-filters="sRGB"
       filterUnits="userSpaceOnUse"><feFlood
         flood-opacity="0"
         result="BackgroundImageFix"
         id="feFlood30536" /><feColorMatrix
         in="SourceAlpha"
         result="hardAlpha"
         values="0 0 0 0 0 0 0 0 0 0 0 0 0 0 0 0 0 0 127 0"
         id="feColorMatrix30538" /><feOffset
         dy="1"
         id="feOffset30540" /><feGaussianBlur
         stdDeviation="2.5"
         id="feGaussianBlur30542" /><feComposite
         in2="hardAlpha"
         operator="out"
         id="feComposite30544" /><feColorMatrix
         values="0 0 0 0 0 0 0 0 0 0 0 0 0 0 0 0 0 0 0.12 0"
         id="feColorMatrix30546" /><feBlend
         in2="BackgroundImageFix"
         result="effect1_dropShadow_4844_15994"
         id="feBlend30548"
         mode="normal" /><feColorMatrix
         in="SourceAlpha"
         result="hardAlpha"
         values="0 0 0 0 0 0 0 0 0 0 0 0 0 0 0 0 0 0 127 0"
         id="feColorMatrix30550" /><feOffset
         dy="2"
         id="feOffset30552" /><feGaussianBlur
         stdDeviation="1"
         id="feGaussianBlur30554" /><feComposite
         in2="hardAlpha"
         operator="out"
         id="feComposite30556" /><feColorMatrix
         values="0 0 0 0 0 0 0 0 0 0 0 0 0 0 0 0 0 0 0.14 0"
         id="feColorMatrix30558" /><feBlend
         in2="effect1_dropShadow_4844_15994"
         result="effect2_dropShadow_4844_15994"
         id="feBlend30560"
         mode="normal" /><feColorMatrix
         in="SourceAlpha"
         result="hardAlpha"
         values="0 0 0 0 0 0 0 0 0 0 0 0 0 0 0 0 0 0 127 0"
         id="feColorMatrix30562" /><feMorphology
         in="SourceAlpha"
         radius="2"
         result="effect3_dropShadow_4844_15994"
         id="feMorphology30564" /><feOffset
         dy="3"
         id="feOffset30566" /><feGaussianBlur
         stdDeviation=".5"
         id="feGaussianBlur30568" /><feComposite
         in2="hardAlpha"
         operator="out"
         id="feComposite30570" /><feColorMatrix
         values="0 0 0 0 0 0 0 0 0 0 0 0 0 0 0 0 0 0 0.2 0"
         id="feColorMatrix30572" /><feBlend
         in2="effect2_dropShadow_4844_15994"
         result="effect3_dropShadow_4844_15994"
         id="feBlend30574"
         mode="normal" /><feBlend
         in="SourceGraphic"
         in2="effect3_dropShadow_4844_15994"
         result="shape"
         id="feBlend30576"
         mode="normal" /></filter></defs><g
     id="New_Layer_1652821995.5806348"
     style="display:inline"
     transform="translate(-141.817,-752.136)"><g
       filter="url(#a)"
       id="g30534"
       style="filter:url(#a-741)"
       transform="matrix(0.264583,0,0,0.264583,141.817,752.136)"><path
         fill="#d32f2f"
         d="M 5,8 A 4,4 0 0 1 9,4 h 85 a 4,4 0 0 1 4,4 v 34 a 4,4 0 0 1 -4,4 H 9 A 4,4 0 0 1 5,42 Z"
         id="path30530" /><path
         fill="#ffffff"
         d="M 34.764,28.543 V 30 H 29.41 V 28.543 Z M 29.922,19.336 V 30 H 28.084 V 19.336 Z M 40.944,20.756 37.758,30 h -1.926 l 4.013,-10.664 h 1.23 z M 43.61,30 40.416,20.757 40.277,19.336 h 1.238 L 45.544,30 Z m -0.154,-3.955 v 1.457 h -5.8 v -1.457 z m 3.741,-6.71 h 3.772 c 0.81,0 1.502,0.123 2.073,0.367 0.571,0.244 1.008,0.606 1.311,1.084 0.308,0.474 0.462,1.06 0.462,1.758 0,0.532 -0.098,1 -0.293,1.406 a 2.86,2.86 0 0 1 -0.828,1.026 4,4 0 0 1 -1.275,0.637 l -0.556,0.27 H 48.472 L 48.457,24.426 H 51 c 0.44,0 0.805,-0.078 1.098,-0.234 0.293,-0.156 0.513,-0.369 0.66,-0.637 a 1.89,1.89 0 0 0 0.227,-0.923 2.02,2.02 0 0 0 -0.22,-0.967 1.416,1.416 0 0 0 -0.66,-0.637 C 51.808,20.877 51.429,20.801 50.97,20.801 H 49.037 V 30 H 47.198 V 19.336 Z M 53.284,30 l -2.505,-4.79 1.926,-0.007 2.542,4.702 V 30 Z m 12.01,-5.45 v 4.073 c -0.151,0.2 -0.388,0.42 -0.71,0.66 -0.318,0.234 -0.74,0.436 -1.268,0.607 -0.527,0.171 -1.184,0.256 -1.97,0.256 A 4.87,4.87 0 0 1 59.508,29.81 4.027,4.027 0 0 1 58.065,28.806 c -0.4,-0.44 -0.71,-0.974 -0.93,-1.604 -0.22,-0.635 -0.33,-1.357 -0.33,-2.168 v -0.74 c 0,-0.805 0.1,-1.523 0.3,-2.153 0.206,-0.635 0.499,-1.172 0.88,-1.611 0.38,-0.44 0.84,-0.772 1.376,-0.996 0.542,-0.23 1.155,-0.345 1.839,-0.345 0.874,0 1.596,0.147 2.168,0.44 a 3.19,3.19 0 0 1 1.333,1.201 c 0.312,0.513 0.51,1.099 0.593,1.758 H 63.492 A 2.835,2.835 0 0 0 63.148,21.592 1.745,1.745 0 0 0 62.43,20.903 c -0.307,-0.17 -0.708,-0.256 -1.2,-0.256 -0.426,0 -0.8,0.08 -1.121,0.242 -0.323,0.16 -0.591,0.398 -0.806,0.71 -0.21,0.313 -0.369,0.694 -0.476,1.143 a 6.61,6.61 0 0 0 -0.161,1.538 v 0.754 c 0,0.586 0.06,1.106 0.183,1.56 0.127,0.454 0.307,0.838 0.542,1.15 0.239,0.313 0.53,0.55 0.871,0.71 0.342,0.157 0.728,0.235 1.157,0.235 0.42,0 0.765,-0.034 1.033,-0.103 0.269,-0.073 0.481,-0.158 0.638,-0.256 0.16,-0.102 0.285,-0.2 0.373,-0.293 V 25.92 h -2.22 v -1.37 z m 9.476,3.992 V 30 h -5.66 v -1.457 h 5.661 z M 69.629,19.336 V 30 H 67.79 V 19.336 Z m 4.401,4.453 v 1.436 h -4.92 v -1.436 h 4.921 z m 0.704,-4.453 V 20.8 h -5.625 v -1.465 h 5.625 z"
         id="path30532" /></g></g></svg>
