<?xml version="1.0" encoding="UTF-8" standalone="no"?>
<!-- Created with Inkscape (http://www.inkscape.org/) -->

<svg
   width="11.416757mm"
   height="2.5125477mm"
   viewBox="0 0 11.416757 2.5125477"
   version="1.1"
   id="svg13398"
   xml:space="preserve"
   xmlns="http://www.w3.org/2000/svg"
   xmlns:svg="http://www.w3.org/2000/svg"><defs
     id="defs13395" /><g
     id="New_Layer_1652821995.401431"
     style="display:inline"
     transform="translate(-112.49518,-0.33121887)"><path
       fill="#000000"
       fill-opacity="0.87"
       d="m 15.77,16.62 c 0,-0.407 -0.144,-0.72 -0.432,-0.94 -0.283,-0.22 -0.797,-0.442 -1.542,-0.666 -0.745,-0.225 -1.337,-0.474 -1.777,-0.75 -0.843,-0.528 -1.264,-1.218 -1.264,-2.069 0,-0.745 0.303,-1.358 0.908,-1.84 0.61,-0.483 1.399,-0.724 2.368,-0.724 0.643,0 1.216,0.118 1.72,0.355 0.504,0.237 0.9,0.576 1.187,1.016 0.288,0.436 0.432,0.92 0.432,1.454 h -1.6 c 0,-0.483 -0.152,-0.86 -0.457,-1.13 -0.3,-0.275 -0.732,-0.413 -1.295,-0.413 -0.525,0 -0.933,0.112 -1.225,0.336 -0.288,0.225 -0.432,0.538 -0.432,0.94 0,0.338 0.157,0.622 0.47,0.85 0.313,0.225 0.83,0.445 1.549,0.66 0.72,0.212 1.297,0.456 1.733,0.73 0.436,0.271 0.755,0.585 0.958,0.94 0.203,0.351 0.305,0.764 0.305,1.238 0,0.77 -0.296,1.384 -0.889,1.84 -0.588,0.454 -1.388,0.68 -2.4,0.68 A 4.572,4.572 0 0 1 12.241,18.759 C 11.682,18.509 11.246,18.166 10.933,17.73 10.624,17.295 10.47,16.787 10.47,16.207 h 1.606 c 0,0.525 0.173,0.931 0.52,1.219 0.347,0.288 0.844,0.431 1.492,0.431 0.559,0 0.977,-0.112 1.257,-0.336 0.283,-0.229 0.425,-0.529 0.425,-0.901 z m 5.557,-6.862 2.666,7.084 2.66,-7.084 h 2.076 V 19 h -1.6 V 15.953 L 27.288,11.878 24.558,19 H 23.41 l -2.723,-7.116 0.159,4.07 V 19 h -1.6 V 9.758 h 2.082 z m 15.053,7.09 H 32.8 L 32.051,19 h -1.67 l 3.492,-9.242 h 1.441 L 38.812,19 h -1.676 z m -3.129,-1.295 h 2.679 l -1.34,-3.834 z m 8.68,2.165 h 4.196 V 19 H 40.325 V 9.758 h 1.606 z m 7.494,0 H 53.62 V 19 h -5.8 V 9.758 h 1.605 z"
       id="path13464"
       transform="matrix(0.264583,0,0,0.264583,109.725,-2.21698)" /></g></svg>
