<?xml version="1.0" encoding="UTF-8" standalone="no"?>
<svg
   width="118"
   height="38"
   fill="none"
   version="1.1"
   id="svg5780"
   xmlns="http://www.w3.org/2000/svg"
   xmlns:svg="http://www.w3.org/2000/svg">
  <defs
     id="defs5778" />
  <g
     id="New_Layer_1652918630.4406903"
     style="display:inline"
     transform="translate(-713,-1141)">
    <text
       fill="#9c27b0"
       xml:space="preserve"
       style="white-space:pre"
       font-family="Roboto"
       font-size="14px"
       font-weight="500"
       letter-spacing="0.4"
       id="text3406"
       x="730"
       y="1164.79"><tspan
         x="730"
         y="1164.79"
         id="tspan3404">SECONDARY</tspan></text>
    <path
       d="m 718,1143 h 108 v -2 H 718 Z m 111,3 v 28 h 2 v -28 z m -3,31 H 718 v 2 h 108 z m -111,-3 v -28 h -2 v 28 z m 3,3 c -1.657,0 -3,-1.34 -3,-3 h -2 c 0,2.76 2.239,5 5,5 z m 111,-3 c 0,1.66 -1.343,3 -3,3 v 2 c 2.761,0 5,-2.24 5,-5 z m -3,-31 c 1.657,0 3,1.34 3,3 h 2 c 0,-2.76 -2.239,-5 -5,-5 z m -108,-2 c -2.761,0 -5,2.24 -5,5 h 2 c 0,-1.66 1.343,-3 3,-3 z"
       fill="#9c27b0"
       fill-opacity="0.5"
       id="path3408" />
  </g>
</svg>
