<?xml version="1.0" encoding="UTF-8" standalone="no"?>
<!-- Created with Inkscape (http://www.inkscape.org/) -->

<svg
   width="25.929134mm"
   height="10.58332mm"
   viewBox="0 0 25.929134 10.58332"
   version="1.1"
   id="svg13398"
   xml:space="preserve"
   xmlns="http://www.w3.org/2000/svg"
   xmlns:svg="http://www.w3.org/2000/svg"><defs
     id="defs13395"><filter
       id="a-9"
       width="98"
       height="40"
       x="0"
       y="0"
       color-interpolation-filters="sRGB"
       filterUnits="userSpaceOnUse"><feFlood
         flood-opacity="0"
         result="BackgroundImageFix"
         id="feFlood15185" /><feColorMatrix
         in="SourceAlpha"
         result="hardAlpha"
         values="0 0 0 0 0 0 0 0 0 0 0 0 0 0 0 0 0 0 127 0"
         id="feColorMatrix15187" /><feOffset
         dy="1"
         id="feOffset15189" /><feGaussianBlur
         stdDeviation="2.5"
         id="feGaussianBlur15191" /><feComposite
         in2="hardAlpha"
         operator="out"
         id="feComposite15193" /><feColorMatrix
         values="0 0 0 0 0 0 0 0 0 0 0 0 0 0 0 0 0 0 0.12 0"
         id="feColorMatrix15195" /><feBlend
         in2="BackgroundImageFix"
         result="effect1_dropShadow_4844_16446"
         id="feBlend15197"
         mode="normal" /><feColorMatrix
         in="SourceAlpha"
         result="hardAlpha"
         values="0 0 0 0 0 0 0 0 0 0 0 0 0 0 0 0 0 0 127 0"
         id="feColorMatrix15199" /><feOffset
         dy="2"
         id="feOffset15201" /><feGaussianBlur
         stdDeviation="1"
         id="feGaussianBlur15203" /><feComposite
         in2="hardAlpha"
         operator="out"
         id="feComposite15205" /><feColorMatrix
         values="0 0 0 0 0 0 0 0 0 0 0 0 0 0 0 0 0 0 0.14 0"
         id="feColorMatrix15207" /><feBlend
         in2="effect1_dropShadow_4844_16446"
         result="effect2_dropShadow_4844_16446"
         id="feBlend15209"
         mode="normal" /><feColorMatrix
         in="SourceAlpha"
         result="hardAlpha"
         values="0 0 0 0 0 0 0 0 0 0 0 0 0 0 0 0 0 0 127 0"
         id="feColorMatrix15211" /><feMorphology
         in="SourceAlpha"
         radius="2"
         result="effect3_dropShadow_4844_16446"
         id="feMorphology15213" /><feOffset
         dy="3"
         id="feOffset15215" /><feGaussianBlur
         stdDeviation=".5"
         id="feGaussianBlur15217" /><feComposite
         in2="hardAlpha"
         operator="out"
         id="feComposite15219" /><feColorMatrix
         values="0 0 0 0 0 0 0 0 0 0 0 0 0 0 0 0 0 0 0.2 0"
         id="feColorMatrix15221" /><feBlend
         in2="effect2_dropShadow_4844_16446"
         result="effect3_dropShadow_4844_16446"
         id="feBlend15223"
         mode="normal" /><feBlend
         in="SourceGraphic"
         in2="effect3_dropShadow_4844_16446"
         result="shape"
         id="feBlend15225"
         mode="normal" /></filter></defs><g
     id="New_Layer_1652821995.430095"
     style="display:inline"
     transform="translate(-52.5198,-852.148)"><g
       filter="url(#a)"
       id="g15183"
       style="filter:url(#a-9)"
       transform="matrix(0.264583,0,0,0.264583,52.5198,852.148)"><path
         fill="#ed6c02"
         d="M 5,8 A 4,4 0 0 1 9,4 h 80 a 4,4 0 0 1 4,4 v 22 a 4,4 0 0 1 -4,4 H 9 A 4,4 0 0 1 5,30 Z"
         id="path15179" /><path
         fill="#ffffff"
         d="M 28,18.25 H 18.872 L 23.065,14.057 22,13 l -6,6 6,6 1.058,-1.058 -4.186,-4.192 H 28 Z m 16.802,2.37 c 0,-0.19 -0.03,-0.36 -0.09,-0.508 a 0.992,0.992 0 0 0 -0.297,-0.406 2.462,2.462 0 0 0 -0.61,-0.356 8.087,8.087 0 0 0 -0.99,-0.362 10.96,10.96 0 0 1 -1.219,-0.45 4.637,4.637 0 0 1 -0.965,-0.584 2.5,2.5 0 0 1 -0.64,-0.768 2.15,2.15 0 0 1 -0.23,-1.01 c 0,-0.376 0.079,-0.72 0.236,-1.028 a 2.4,2.4 0 0 1 0.679,-0.8 3.249,3.249 0 0 1 1.047,-0.527 4.41,4.41 0 0 1 1.333,-0.19 c 0.686,0 1.276,0.127 1.771,0.38 0.5,0.255 0.883,0.595 1.15,1.023 0.27,0.427 0.405,0.899 0.405,1.415 h -1.58 c 0,-0.305 -0.066,-0.573 -0.197,-0.806 a 1.334,1.334 0 0 0 -0.584,-0.559 c -0.258,-0.135 -0.586,-0.203 -0.984,-0.203 -0.377,0 -0.69,0.057 -0.94,0.172 a 1.251,1.251 0 0 0 -0.558,0.463 1.211,1.211 0 0 0 -0.184,0.66 c 0,0.174 0.04,0.333 0.12,0.476 0.081,0.14 0.204,0.271 0.369,0.394 0.165,0.118 0.372,0.23 0.622,0.336 0.25,0.106 0.544,0.208 0.882,0.305 0.512,0.152 0.959,0.322 1.34,0.508 0.38,0.182 0.698,0.39 0.952,0.622 0.254,0.233 0.444,0.497 0.57,0.793 0.128,0.292 0.191,0.625 0.191,0.997 0,0.39 -0.078,0.74 -0.235,1.054 -0.156,0.309 -0.38,0.573 -0.672,0.793 a 3.22,3.22 0 0 1 -1.041,0.502 4.92,4.92 0 0 1 -1.346,0.171 c -0.444,0 -0.882,-0.06 -1.314,-0.178 a 3.876,3.876 0 0 1 -1.168,-0.54 2.79,2.79 0 0 1 -0.838,-0.913 c -0.207,-0.369 -0.31,-0.798 -0.31,-1.289 h 1.592 c 0,0.3 0.051,0.556 0.153,0.768 0.105,0.212 0.252,0.385 0.438,0.52 0.186,0.132 0.402,0.23 0.647,0.293 0.25,0.063 0.516,0.095 0.8,0.095 0.372,0 0.683,-0.053 0.933,-0.159 a 1.23,1.23 0 0 0 0.571,-0.444 c 0.127,-0.19 0.19,-0.41 0.19,-0.66 z m 4.116,-6.862 h 1.422 l 2.672,7.128 2.666,-7.128 H 57.1 L 53.57,23 h -1.129 z m -0.648,0 h 1.353 l 0.235,6.17 V 23 H 48.27 Z m 8.125,0 h 1.359 V 23 H 56.16 v -3.072 l 0.234,-6.17 z M 63.819,14.989 61.058,23 h -1.67 l 3.479,-9.242 h 1.066 z m 2.31,8.011 -2.767,-8.01 -0.12,-1.232 h 1.072 L 67.805,23 H 66.13 Z m -0.133,-3.428 v 1.263 H 60.97 v -1.263 h 5.027 z m 9.093,2.165 V 23 h -4.64 v -1.263 z m -4.196,-7.98 V 23 H 69.3 v -9.242 h 1.593 z m 11.677,7.98 V 23 h -4.64 v -1.263 z m -4.196,-7.98 V 23 H 76.78 v -9.242 h 1.594 z"
         id="path15181" /></g></g></svg>
