<?xml version="1.0" encoding="UTF-8" standalone="no"?>
<svg
   width="100"
   height="38"
   fill="none"
   version="1.1"
   id="svg5780"
   xmlns="http://www.w3.org/2000/svg"
   xmlns:svg="http://www.w3.org/2000/svg">
  <defs
     id="defs5778" />
  <g
     id="New_Layer_1652918630.4418666"
     style="display:inline"
     transform="translate(-955,-1141)">
    <text
       fill="#ed6c02"
       xml:space="preserve"
       style="white-space:pre"
       font-family="Roboto"
       font-size="14px"
       font-weight="500"
       letter-spacing="0.4"
       id="text3418"
       x="972"
       y="1164.79"><tspan
         x="972"
         y="1164.79"
         id="tspan3416">WARNING</tspan></text>
    <path
       d="m 960,1143 h 90 v -2 h -90 z m 93,3 v 28 h 2 v -28 z m -3,31 h -90 v 2 h 90 z m -93,-3 v -28 h -2 v 28 z m 3,3 c -1.657,0 -3,-1.34 -3,-3 h -2 c 0,2.76 2.239,5 5,5 z m 93,-3 c 0,1.66 -1.34,3 -3,3 v 2 c 2.76,0 5,-2.24 5,-5 z m -3,-31 c 1.66,0 3,1.34 3,3 h 2 c 0,-2.76 -2.24,-5 -5,-5 z m -90,-2 c -2.761,0 -5,2.24 -5,5 h 2 c 0,-1.66 1.343,-3 3,-3 z"
       fill="#ed6c02"
       fill-opacity="0.5"
       id="path3420" />
  </g>
</svg>
