<?xml version="1.0" encoding="UTF-8" standalone="no"?>
<svg
   width="98"
   height="38"
   fill="none"
   version="1.1"
   id="svg5780"
   xmlns="http://www.w3.org/2000/svg"
   xmlns:svg="http://www.w3.org/2000/svg">
  <defs
     id="defs5778" />
  <g
     id="New_Layer_1652918630.4430306"
     style="display:inline"
     transform="translate(-593,-1201)">
    <text
       fill="#2e7d32"
       xml:space="preserve"
       style="white-space:pre"
       font-family="Roboto"
       font-size="14px"
       font-weight="500"
       letter-spacing="0.4"
       id="text3430"
       x="610"
       y="1224.79"><tspan
         x="610"
         y="1224.79"
         id="tspan3428">SUCCESS</tspan></text>
    <path
       d="m 598,1203 h 88 v -2 h -88 z m 91,3 v 28 h 2 v -28 z m -3,31 h -88 v 2 h 88 z m -91,-3 v -28 h -2 v 28 z m 3,3 c -1.657,0 -3,-1.34 -3,-3 h -2 c 0,2.76 2.239,5 5,5 z m 91,-3 c 0,1.66 -1.343,3 -3,3 v 2 c 2.761,0 5,-2.24 5,-5 z m -3,-31 c 1.657,0 3,1.34 3,3 h 2 c 0,-2.76 -2.239,-5 -5,-5 z m -88,-2 c -2.761,0 -5,2.24 -5,5 h 2 c 0,-1.66 1.343,-3 3,-3 z"
       fill="#2e7d32"
       fill-opacity="0.5"
       id="path3432" />
  </g>
</svg>
