<?xml version="1.0" encoding="UTF-8" standalone="no"?>
<svg
   width="95"
   height="44"
   fill="none"
   version="1.1"
   id="svg5780"
   xmlns="http://www.w3.org/2000/svg"
   xmlns:svg="http://www.w3.org/2000/svg">
  <defs
     id="defs5778" />
  <g
     id="New_Layer_1652918630.446804"
     style="display:inline"
     transform="translate(-593,-1519)">
    <text
       fill="#1976d2"
       xml:space="preserve"
       style="white-space:pre"
       font-family="Roboto"
       font-size="15px"
       font-weight="500"
       letter-spacing="0.46"
       id="text3474"
       x="616"
       y="1546.13"><tspan
         x="616"
         y="1546.13"
         id="tspan3472">LARGE</tspan></text>
    <path
       d="m 598,1521 h 85 v -2 h -85 z m 88,3 v 34 h 2 v -34 z m -3,37 h -85 v 2 h 85 z m -88,-3 v -34 h -2 v 34 z m 3,3 c -1.657,0 -3,-1.34 -3,-3 h -2 c 0,2.76 2.239,5 5,5 z m 88,-3 c 0,1.66 -1.343,3 -3,3 v 2 c 2.761,0 5,-2.24 5,-5 z m -3,-37 c 1.657,0 3,1.34 3,3 h 2 c 0,-2.76 -2.239,-5 -5,-5 z m -85,-2 c -2.761,0 -5,2.24 -5,5 h 2 c 0,-1.66 1.343,-3 3,-3 z"
       fill="#1976d2"
       fill-opacity="0.5"
       id="path3476" />
  </g>
</svg>
