<?xml version="1.0" encoding="UTF-8" standalone="no"?>
<!-- Created with Inkscape (http://www.inkscape.org/) -->

<svg
   width="35.189541mm"
   height="14.816648mm"
   viewBox="0 0 35.189541 14.816647"
   version="1.1"
   id="svg13398"
   xml:space="preserve"
   xmlns="http://www.w3.org/2000/svg"
   xmlns:svg="http://www.w3.org/2000/svg"><defs
     id="defs13395"><filter
       id="a-95"
       width="133"
       height="56"
       x="0"
       y="0"
       color-interpolation-filters="sRGB"
       filterUnits="userSpaceOnUse"><feFlood
         flood-opacity="0"
         result="BackgroundImageFix"
         id="feFlood16295" /><feColorMatrix
         in="SourceAlpha"
         result="hardAlpha"
         values="0 0 0 0 0 0 0 0 0 0 0 0 0 0 0 0 0 0 127 0"
         id="feColorMatrix16297" /><feOffset
         dy="1"
         id="feOffset16299" /><feGaussianBlur
         stdDeviation="5"
         id="feGaussianBlur16301" /><feComposite
         in2="hardAlpha"
         operator="out"
         id="feComposite16303" /><feColorMatrix
         values="0 0 0 0 0 0 0 0 0 0 0 0 0 0 0 0 0 0 0.12 0"
         id="feColorMatrix16305" /><feBlend
         in2="BackgroundImageFix"
         result="effect1_dropShadow_4844_16420"
         id="feBlend16307"
         mode="normal" /><feColorMatrix
         in="SourceAlpha"
         result="hardAlpha"
         values="0 0 0 0 0 0 0 0 0 0 0 0 0 0 0 0 0 0 127 0"
         id="feColorMatrix16309" /><feOffset
         dy="4"
         id="feOffset16311" /><feGaussianBlur
         stdDeviation="2.5"
         id="feGaussianBlur16313" /><feComposite
         in2="hardAlpha"
         operator="out"
         id="feComposite16315" /><feColorMatrix
         values="0 0 0 0 0 0 0 0 0 0 0 0 0 0 0 0 0 0 0.14 0"
         id="feColorMatrix16317" /><feBlend
         in2="effect1_dropShadow_4844_16420"
         result="effect2_dropShadow_4844_16420"
         id="feBlend16319"
         mode="normal" /><feColorMatrix
         in="SourceAlpha"
         result="hardAlpha"
         values="0 0 0 0 0 0 0 0 0 0 0 0 0 0 0 0 0 0 127 0"
         id="feColorMatrix16321" /><feMorphology
         in="SourceAlpha"
         radius="1"
         result="effect3_dropShadow_4844_16420"
         id="feMorphology16323" /><feOffset
         dy="2"
         id="feOffset16325" /><feGaussianBlur
         stdDeviation="2"
         id="feGaussianBlur16327" /><feComposite
         in2="hardAlpha"
         operator="out"
         id="feComposite16329" /><feColorMatrix
         values="0 0 0 0 0 0 0 0 0 0 0 0 0 0 0 0 0 0 0.2 0"
         id="feColorMatrix16331" /><feBlend
         in2="effect2_dropShadow_4844_16420"
         result="effect3_dropShadow_4844_16420"
         id="feBlend16333"
         mode="normal" /><feBlend
         in="SourceGraphic"
         in2="effect3_dropShadow_4844_16420"
         result="shape"
         id="feBlend16335"
         mode="normal" /></filter></defs><g
     id="New_Layer_1652821995.4384415"
     style="display:inline"
     transform="translate(-182.827,-259.482)"><g
       filter="url(#a)"
       id="g16293"
       style="filter:url(#a-95)"
       transform="matrix(0.264583,0,0,0.264583,182.827,259.482)"><path
         fill="#7b1fa2"
         d="m 10,13 a 4,4 0 0 1 4,-4 h 105 a 4,4 0 0 1 4,4 v 28 a 4,4 0 0 1 -4,4 H 14 a 4,4 0 0 1 -4,-4 z"
         id="path16289" /><path
         fill="#ffffff"
         d="M 38.667,26.167 H 28.525 L 33.183,21.508 32,20.335 25.333,27 32,33.667 l 1.175,-1.175 -4.65,-4.658 h 10.142 z m 13.042,-4.12 h 1.531 l 2.878,7.677 2.871,-7.677 h 1.532 L 56.72,32 h -1.217 z m -0.697,0 h 1.456 l 0.253,6.644 V 32 h -1.71 v -9.953 z m 8.75,0 h 1.463 V 32 H 59.509 V 28.691 Z M 70.176,30.64 V 32 H 64.892 V 30.64 Z M 65.377,22.047 V 32 h -1.715 v -9.953 z m 4.109,4.156 v 1.34 h -4.594 v -1.34 z m 0.656,-4.156 v 1.367 h -5.25 V 22.047 Z M 74.87,32 h -2.126 l 0.014,-1.36 h 2.112 c 0.616,0 1.13,-0.135 1.545,-0.404 0.42,-0.269 0.734,-0.654 0.944,-1.155 0.214,-0.501 0.32,-1.098 0.32,-1.791 v -0.54 a 5,5 0 0 0 -0.184,-1.429 2.8,2.8 0 0 0 -0.533,-1.046 2.232,2.232 0 0 0 -0.861,-0.642 2.923,2.923 0 0 0 -1.17,-0.219 h -2.228 v -1.367 h 2.229 c 0.66,0 1.264,0.111 1.811,0.335 a 3.975,3.975 0 0 1 1.415,0.95 c 0.401,0.415 0.71,0.912 0.923,1.49 0.215,0.579 0.322,1.226 0.322,1.942 v 0.526 c 0,0.716 -0.108,1.363 -0.322,1.941 a 4.22,4.22 0 0 1 -0.923,1.49 c -0.4,0.41 -0.88,0.728 -1.435,0.95 C 76.171,31.891 75.553,32 74.87,32 Z M 73.695,22.047 V 32 h -1.716 v -9.953 z m 9.662,0 V 32 H 81.64 v -9.953 h 1.716 z m 8.118,0 h 1.709 v 6.651 c 0,0.757 -0.164,1.39 -0.492,1.9 a 3.092,3.092 0 0 1 -1.34,1.156 c -0.56,0.255 -1.187,0.383 -1.88,0.383 -0.715,0 -1.353,-0.128 -1.914,-0.383 a 3.056,3.056 0 0 1 -1.326,-1.155 c -0.32,-0.51 -0.479,-1.144 -0.479,-1.9 v -6.652 h 1.71 v 6.651 c 0,0.479 0.081,0.873 0.245,1.183 0.165,0.305 0.397,0.53 0.698,0.677 0.3,0.145 0.656,0.218 1.066,0.218 0.41,0 0.763,-0.073 1.06,-0.218 0.3,-0.146 0.533,-0.372 0.697,-0.677 0.164,-0.31 0.246,-0.704 0.246,-1.183 z m 4.672,0 h 1.532 l 2.878,7.677 2.871,-7.677 h 1.531 L 101.157,32 H 99.94 Z m -0.697,0 h 1.456 l 0.253,6.644 V 32 H 95.45 Z m 8.75,0 h 1.463 V 32 h -1.716 v -3.309 z"
         id="path16291" /></g></g></svg>
