<?xml version="1.0" encoding="UTF-8" standalone="no"?>
<svg
   width="91"
   height="38"
   fill="none"
   version="1.1"
   id="svg5780"
   xmlns="http://www.w3.org/2000/svg"
   xmlns:svg="http://www.w3.org/2000/svg">
  <defs
     id="defs5778" />
  <g
     id="New_Layer_1652918630.4483025"
     style="display:inline"
     transform="translate(-710,-1525)">
    <text
       fill="#1976d2"
       xml:space="preserve"
       style="white-space:pre"
       font-family="Roboto"
       font-size="14px"
       font-weight="500"
       letter-spacing="0.4"
       id="text3492"
       x="727"
       y="1548.79"><tspan
         x="727"
         y="1548.79"
         id="tspan3490">MEDIUM</tspan></text>
    <path
       d="m 715,1527 h 81 v -2 h -81 z m 84,3 v 28 h 2 v -28 z m -3,31 h -81 v 2 h 81 z m -84,-3 v -28 h -2 v 28 z m 3,3 c -1.657,0 -3,-1.34 -3,-3 h -2 c 0,2.76 2.239,5 5,5 z m 84,-3 c 0,1.66 -1.343,3 -3,3 v 2 c 2.761,0 5,-2.24 5,-5 z m -3,-31 c 1.657,0 3,1.34 3,3 h 2 c 0,-2.76 -2.239,-5 -5,-5 z m -81,-2 c -2.761,0 -5,2.24 -5,5 h 2 c 0,-1.66 1.343,-3 3,-3 z"
       fill="#1976d2"
       fill-opacity="0.5"
       id="path3494" />
  </g>
</svg>
