<?xml version="1.0" encoding="UTF-8" standalone="no"?>
<svg
   width="66"
   height="32"
   fill="none"
   version="1.1"
   id="svg5780"
   xmlns="http://www.w3.org/2000/svg"
   xmlns:svg="http://www.w3.org/2000/svg">
  <defs
     id="defs5778" />
  <g
     id="New_Layer_1652918630.4498177"
     style="display:inline"
     transform="translate(-823,-1531)">
    <text
       fill="#1976d2"
       xml:space="preserve"
       style="white-space:pre"
       font-family="Roboto"
       font-size="13px"
       font-weight="500"
       letter-spacing="0.46"
       id="text3510"
       x="834"
       y="1551.4399"><tspan
         x="834"
         y="1551.4399"
         id="tspan3508">SMALL</tspan></text>
    <path
       d="m 828,1533 h 56 v -2 h -56 z m 59,3 v 22 h 2 v -22 z m -3,25 h -56 v 2 h 56 z m -59,-3 v -22 h -2 v 22 z m 3,3 c -1.657,0 -3,-1.34 -3,-3 h -2 c 0,2.76 2.239,5 5,5 z m 59,-3 c 0,1.66 -1.343,3 -3,3 v 2 c 2.761,0 5,-2.24 5,-5 z m -3,-25 c 1.657,0 3,1.34 3,3 h 2 c 0,-2.76 -2.239,-5 -5,-5 z m -56,-2 c -2.761,0 -5,2.24 -5,5 h 2 c 0,-1.66 1.343,-3 3,-3 z"
       fill="#1976d2"
       fill-opacity="0.5"
       id="path3512" />
  </g>
</svg>
