<?xml version="1.0" encoding="UTF-8" standalone="no"?>
<!-- Created with Inkscape (http://www.inkscape.org/) -->

<svg
   width="14.452053mm"
   height="2.6699071mm"
   viewBox="0 0 14.452053 2.6699071"
   version="1.1"
   id="svg13398"
   xml:space="preserve"
   xmlns="http://www.w3.org/2000/svg"
   xmlns:svg="http://www.w3.org/2000/svg"><defs
     id="defs13395" /><g
     id="New_Layer_1652821995.4030643"
     style="display:inline"
     transform="translate(-208.43635,-15.37425)"><path
       fill="#000000"
       fill-opacity="0.87"
       d="m 19.254,13.047 2.871,7.629 2.864,-7.63 h 2.236 V 23 H 25.502 V 19.719 L 25.672,15.33 22.734,23 h -1.237 l -2.932,-7.663 0.17,4.382 V 23 h -1.722 v -9.953 h 2.242 z m 16.239,5.51 h -4.088 v 3.062 h 4.778 V 23 h -6.508 v -9.953 h 6.46 v 1.394 h -4.73 v 2.748 h 4.088 z M 37.99,23 v -9.953 h 2.94 c 0.88,0 1.659,0.196 2.338,0.588 a 4.002,4.002 0 0 1 1.586,1.668 c 0.373,0.72 0.56,1.545 0.56,2.474 v 0.5 c 0,0.943 -0.189,1.772 -0.567,2.488 A 3.933,3.933 0 0 1 43.24,22.419 C 42.548,22.806 41.752,23 40.855,23 Z m 1.73,-8.559 v 7.178 h 1.128 c 0.907,0 1.602,-0.282 2.085,-0.848 0.487,-0.57 0.736,-1.385 0.745,-2.447 V 17.77 c 0,-1.08 -0.235,-1.904 -0.704,-2.474 -0.47,-0.57 -1.15,-0.855 -2.044,-0.855 z M 49.363,23 H 47.64 v -9.953 h 1.723 z m 9.806,-9.953 v 6.651 c 0,1.058 -0.34,1.896 -1.018,2.516 -0.675,0.615 -1.575,0.923 -2.7,0.923 -1.14,0 -2.044,-0.303 -2.714,-0.91 -0.67,-0.61 -1.005,-1.456 -1.005,-2.536 v -6.644 h 1.723 v 6.658 c 0,0.665 0.168,1.174 0.505,1.525 0.338,0.35 0.834,0.526 1.49,0.526 1.331,0 1.997,-0.702 1.997,-2.106 v -6.603 z m 4.495,0 2.871,7.629 2.864,-7.63 h 2.236 V 23 H 69.912 V 19.719 L 70.083,15.33 67.143,23 h -1.237 l -2.932,-7.663 0.17,4.382 V 23 h -1.722 v -9.953 z"
       id="path13497"
       transform="matrix(0.264583,0,0,0.264583,203.935,11.9225)" /></g></svg>
