<?xml version="1.0" encoding="UTF-8" standalone="no"?>
<svg
   width="177"
   height="36"
   fill="none"
   version="1.1"
   id="svg5780"
   xmlns="http://www.w3.org/2000/svg"
   xmlns:svg="http://www.w3.org/2000/svg">
  <defs
     id="defs5778">
    <radialGradient
       id="Button__K"
       cx="0"
       cy="0"
       r="1"
       gradientUnits="userSpaceOnUse"
       gradientTransform="matrix(0,36.2897,-64.7644,0,88.5,18)">
      <stop
         offset=".995"
         stop-opacity=".3"
         id="stop5735" />
      <stop
         offset="1"
         stop-color="#fff"
         stop-opacity="0"
         id="stop5737" />
    </radialGradient>
  </defs>
  <g
     id="New_Layer_1653067966.2535563"
     style="display:inline"
     transform="translate(-1594,-438)">
    <path
       d="m 1594,442 a 4,4 0 0 1 4,-4 h 169 a 4,4 0 0 1 4,4 v 28 a 4,4 0 0 1 -4,4 h -169 a 4,4 0 0 1 -4,-4 z"
       fill="#90caf9"
       id="path3560" />
    <path
       transform="translate(1594,438)"
       fill="url(#Button__K)"
       d="M 0,0 H 177 V 36 H 0 Z"
       id="path3562"
       style="fill:url(#Button__K)" />
    <path
       d="m 1622.67,455.167 h -10.14 l 4.65,-4.659 -1.18,-1.175 -6.67,6.667 6.67,6.667 1.18,-1.175 -4.65,-4.659 h 10.14 z"
       fill="#000000"
       fill-opacity="0.87"
       id="path3564" />
    <text
       fill="#000000"
       fill-opacity="0.87"
       xml:space="preserve"
       style="white-space:pre"
       font-family="Roboto"
       font-size="14px"
       font-weight="500"
       letter-spacing="0.4"
       id="text3568"
       x="1634"
       y="460.785"><tspan
         x="1634"
         y="460.785"
         id="tspan3566">FOCUSED VISIBLE</tspan></text>
  </g>
</svg>
