<?xml version="1.0" encoding="UTF-8" standalone="no"?>
<!-- Created with Inkscape (http://www.inkscape.org/) -->

<svg
   width="39.422867mm"
   height="19.049976mm"
   viewBox="0 0 39.422867 19.049976"
   version="1.1"
   id="svg13398"
   xml:space="preserve"
   xmlns="http://www.w3.org/2000/svg"
   xmlns:svg="http://www.w3.org/2000/svg"><defs
     id="defs13395"><radialGradient
       id="b-9"
       cx="0"
       cy="0"
       r="1"
       gradientTransform="matrix(0,36.2897,-41.3468,0,56.5,18)"
       gradientUnits="userSpaceOnUse"><stop
         offset=".995"
         stop-color="#fff"
         stop-opacity=".3"
         id="stop16991" /><stop
         offset="1"
         stop-color="#fff"
         stop-opacity="0"
         id="stop16993" /></radialGradient><filter
       id="a-09"
       width="149"
       height="72"
       x="0"
       y="0"
       color-interpolation-filters="sRGB"
       filterUnits="userSpaceOnUse"><feFlood
         flood-opacity="0"
         result="BackgroundImageFix"
         id="feFlood16996" /><feColorMatrix
         in="SourceAlpha"
         result="hardAlpha"
         values="0 0 0 0 0 0 0 0 0 0 0 0 0 0 0 0 0 0 127 0"
         id="feColorMatrix16998" /><feOffset
         dy="1"
         id="feOffset17000" /><feGaussianBlur
         stdDeviation="9"
         id="feGaussianBlur17002" /><feComposite
         in2="hardAlpha"
         operator="out"
         id="feComposite17004" /><feColorMatrix
         values="0 0 0 0 0 0 0 0 0 0 0 0 0 0 0 0 0 0 0.12 0"
         id="feColorMatrix17006" /><feBlend
         in2="BackgroundImageFix"
         result="effect1_dropShadow_4844_16392"
         id="feBlend17008"
         mode="normal" /><feColorMatrix
         in="SourceAlpha"
         result="hardAlpha"
         values="0 0 0 0 0 0 0 0 0 0 0 0 0 0 0 0 0 0 127 0"
         id="feColorMatrix17010" /><feOffset
         dy="6"
         id="feOffset17012" /><feGaussianBlur
         stdDeviation="5"
         id="feGaussianBlur17014" /><feComposite
         in2="hardAlpha"
         operator="out"
         id="feComposite17016" /><feColorMatrix
         values="0 0 0 0 0 0 0 0 0 0 0 0 0 0 0 0 0 0 0.14 0"
         id="feColorMatrix17018" /><feBlend
         in2="effect1_dropShadow_4844_16392"
         result="effect2_dropShadow_4844_16392"
         id="feBlend17020"
         mode="normal" /><feColorMatrix
         in="SourceAlpha"
         result="hardAlpha"
         values="0 0 0 0 0 0 0 0 0 0 0 0 0 0 0 0 0 0 127 0"
         id="feColorMatrix17022" /><feMorphology
         in="SourceAlpha"
         radius="1"
         result="effect3_dropShadow_4844_16392"
         id="feMorphology17024" /><feOffset
         dy="3"
         id="feOffset17026" /><feGaussianBlur
         stdDeviation="2.5"
         id="feGaussianBlur17028" /><feComposite
         in2="hardAlpha"
         operator="out"
         id="feComposite17030" /><feColorMatrix
         values="0 0 0 0 0 0 0 0 0 0 0 0 0 0 0 0 0 0 0.2 0"
         id="feColorMatrix17032" /><feBlend
         in2="effect2_dropShadow_4844_16392"
         result="effect3_dropShadow_4844_16392"
         id="feBlend17034"
         mode="normal" /><feBlend
         in="SourceGraphic"
         in2="effect3_dropShadow_4844_16392"
         result="shape"
         id="feBlend17036"
         mode="normal" /></filter></defs><g
     id="New_Layer_1652821995.4493325"
     style="display:inline"
     transform="translate(-45.7729,-134.334)"><g
       filter="url(#a)"
       id="g16989"
       style="filter:url(#a-09)"
       transform="matrix(0.264583,0,0,0.264583,45.7729,134.334)"><path
         fill="#ed6c02"
         d="m 18,21 a 4,4 0 0 1 4,-4 h 105 a 4,4 0 0 1 4,4 v 28 a 4,4 0 0 1 -4,4 H 22 a 4,4 0 0 1 -4,-4 z"
         id="path16983" /><path
         fill="url(#b)"
         d="M 0,0 H 113 V 36 H 0 Z"
         transform="translate(18,17)"
         id="path16985"
         style="fill:url(#b-9)" /><path
         fill="#ffffff"
         d="M 46.667,34.167 H 36.525 L 41.183,29.508 40,28.335 33.333,35 40,41.667 l 1.175,-1.175 -4.65,-4.658 h 10.142 z m 13.042,-4.12 h 1.531 l 2.878,7.677 2.871,-7.677 H 68.52 L 64.72,40 h -1.217 z m -0.697,0 h 1.456 l 0.253,6.644 V 40 h -1.71 v -9.953 z m 8.75,0 h 1.463 V 40 H 67.509 V 36.691 Z M 78.176,38.64 V 40 H 72.892 V 38.64 Z M 73.377,30.047 V 40 h -1.715 v -9.953 z m 4.109,4.156 v 1.34 h -4.594 v -1.34 z m 0.656,-4.156 v 1.367 h -5.25 V 30.047 Z M 82.87,40 h -2.126 l 0.014,-1.36 h 2.112 c 0.616,0 1.13,-0.135 1.545,-0.404 0.42,-0.269 0.734,-0.654 0.944,-1.155 0.214,-0.501 0.32,-1.098 0.32,-1.791 v -0.54 a 5,5 0 0 0 -0.184,-1.429 2.8,2.8 0 0 0 -0.533,-1.046 2.232,2.232 0 0 0 -0.861,-0.642 2.923,2.923 0 0 0 -1.17,-0.219 h -2.228 v -1.367 h 2.229 c 0.66,0 1.264,0.111 1.811,0.335 a 3.975,3.975 0 0 1 1.415,0.95 c 0.401,0.415 0.71,0.911 0.923,1.49 0.215,0.579 0.322,1.226 0.322,1.942 v 0.526 c 0,0.715 -0.108,1.363 -0.322,1.941 a 4.22,4.22 0 0 1 -0.923,1.49 c -0.4,0.41 -0.88,0.728 -1.435,0.95 C 84.171,39.891 83.553,40 82.87,40 Z M 81.695,30.047 V 40 h -1.716 v -9.953 z m 9.662,0 V 40 H 89.64 v -9.953 h 1.716 z m 8.118,0 h 1.709 v 6.651 c 0,0.757 -0.164,1.39 -0.492,1.9 a 3.092,3.092 0 0 1 -1.34,1.156 c -0.56,0.255 -1.187,0.383 -1.88,0.383 -0.715,0 -1.353,-0.128 -1.914,-0.383 a 3.056,3.056 0 0 1 -1.326,-1.155 c -0.32,-0.51 -0.479,-1.144 -0.479,-1.9 v -6.652 h 1.71 v 6.651 c 0,0.479 0.081,0.873 0.245,1.183 0.165,0.305 0.397,0.53 0.698,0.677 0.3,0.145 0.656,0.218 1.066,0.218 0.41,0 0.763,-0.073 1.06,-0.218 0.3,-0.146 0.533,-0.372 0.697,-0.677 0.164,-0.31 0.246,-0.704 0.246,-1.183 z m 4.672,0 h 1.532 l 2.878,7.677 2.871,-7.677 h 1.531 L 109.157,40 h -1.217 l -3.794,-9.953 z m -0.697,0 h 1.456 l 0.253,6.644 V 40 h -1.709 z m 8.75,0 h 1.463 V 40 h -1.716 v -3.309 z"
         id="path16987" /></g></g></svg>
