<?xml version="1.0" encoding="UTF-8" standalone="no"?>
<svg
   width="177"
   height="36"
   fill="none"
   version="1.1"
   id="svg5780"
   xmlns="http://www.w3.org/2000/svg"
   xmlns:svg="http://www.w3.org/2000/svg">
  <defs
     id="defs5778">
    <radialGradient
       id="Button__k"
       cx="0"
       cy="0"
       r="1"
       gradientUnits="userSpaceOnUse"
       gradientTransform="matrix(0,36.2897,-64.7644,0,88.5,18)">
      <stop
         offset=".995"
         stop-color="#fff"
         stop-opacity=".3"
         id="stop5695" />
      <stop
         offset="1"
         stop-color="#fff"
         stop-opacity="0"
         id="stop5697" />
    </radialGradient>
  </defs>
  <g
     id="New_Layer_1652918630.4118538"
     style="display:inline"
     transform="translate(-883,-498)">
    <path
       d="m 883,502 a 4,4 0 0 1 4,-4 h 169 a 4,4 0 0 1 4,4 v 28 a 4,4 0 0 1 -4,4 H 887 a 4,4 0 0 1 -4,-4 z"
       fill="#1976d2"
       id="path3104" />
    <path
       transform="translate(883,498)"
       fill="url(#Button__k)"
       d="M 0,0 H 177 V 36 H 0 Z"
       id="path3106"
       style="fill:url(#Button__k)" />
    <text
       fill="#ffffff"
       xml:space="preserve"
       style="white-space:pre"
       font-family="Roboto"
       font-size="14px"
       font-weight="500"
       letter-spacing="0.4"
       id="text3110"
       x="899"
       y="520.78497"><tspan
         x="899"
         y="520.78497"
         id="tspan3108">FOCUSED VISIBLE</tspan></text>
    <path
       d="m 1038,509.333 -1.17,1.175 4.65,4.659 h -10.15 v 1.666 h 10.15 l -4.65,4.659 1.17,1.175 6.67,-6.667 z"
       fill="#ffffff"
       id="path3112" />
  </g>
</svg>
