<?xml version="1.0" encoding="UTF-8" standalone="no"?>
<svg
   width="123"
   height="38"
   fill="none"
   version="1.1"
   id="svg5780"
   xmlns="http://www.w3.org/2000/svg"
   xmlns:svg="http://www.w3.org/2000/svg">
  <defs
     id="defs5778" />
  <g
     id="New_Layer_1653067966.2616606"
     style="display:inline"
     transform="translate(-1448,-643)">
    <path
       d="m 1449,648 a 4,4 0 0 1 4,-4 h 113 a 4,4 0 0 1 4,4 v 28 a 4,4 0 0 1 -4,4 h -113 a 4,4 0 0 1 -4,-4 z"
       fill="#90caf9"
       fill-opacity="0.08"
       id="path3642"
       style="display:inline" />
    <path
       d="m 1477.67,661.167 h -10.14 l 4.65,-4.659 -1.18,-1.175 -6.67,6.667 6.67,6.667 1.18,-1.175 -4.65,-4.659 h 10.14 z"
       fill="#90caf9"
       id="path3644"
       style="display:inline" />
    <text
       fill="#90caf9"
       xml:space="preserve"
       style="white-space:pre;display:inline"
       font-family="Roboto"
       font-size="14px"
       font-weight="500"
       letter-spacing="0.4"
       id="text3648"
       x="1489"
       y="666.78497"><tspan
         x="1489"
         y="666.78497"
         id="tspan3646">HOVERED</tspan></text>
    <path
       d="m 1453,645 h 113 v -2 h -113 z m 116,3 v 28 h 2 v -28 z m -3,31 h -113 v 2 h 113 z m -116,-3 v -28 h -2 v 28 z m 3,3 c -1.66,0 -3,-1.343 -3,-3 h -2 c 0,2.761 2.24,5 5,5 z m 116,-3 c 0,1.657 -1.34,3 -3,3 v 2 c 2.76,0 5,-2.239 5,-5 z m -3,-31 c 1.66,0 3,1.343 3,3 h 2 c 0,-2.761 -2.24,-5 -5,-5 z m -113,-2 c -2.76,0 -5,2.239 -5,5 h 2 c 0,-1.657 1.34,-3 3,-3 z"
       fill="#90caf9"
       fill-opacity="0.5"
       id="path3650"
       style="display:inline" />
  </g>
</svg>
