<?xml version="1.0" encoding="UTF-8" standalone="no"?>
<svg
   width="155"
   height="38"
   fill="none"
   version="1.1"
   id="svg5780"
   xmlns="http://www.w3.org/2000/svg"
   xmlns:svg="http://www.w3.org/2000/svg">
  <defs
     id="defs5778">
    <radialGradient
       id="Button__Q"
       cx="0"
       cy="0"
       r="1"
       gradientUnits="userSpaceOnUse"
       gradientTransform="matrix(0,36.2897,-55.9828,0,1622.5,602)">
      <stop
         offset=".995"
         stop-color="#90CAF9"
         stop-opacity=".3"
         id="stop5745" />
      <stop
         offset="1"
         stop-color="#fff"
         stop-opacity="0"
         id="stop5747" />
    </radialGradient>
  </defs>
  <g
     id="New_Layer_1653067966.263946"
     style="display:inline"
     transform="translate(-1545,-583)">
    <path
       fill="url(#Button__Q)"
       d="m 1546,584 h 153 v 36 h -153 z"
       id="path3662"
       style="display:inline;fill:url(#Button__Q)" />
    <text
       fill="#90caf9"
       xml:space="preserve"
       style="white-space:pre;display:inline"
       font-family="Roboto"
       font-size="14px"
       font-weight="500"
       letter-spacing="0.4"
       id="text3666"
       x="1562"
       y="606.78497"><tspan
         x="1562"
         y="606.78497"
         id="tspan3664">FOCUSED VISIBLE</tspan></text>
    <path
       d="m 1550,585 h 145 v -2 h -145 z m 148,3 v 28 h 2 v -28 z m -3,31 h -145 v 2 h 145 z m -148,-3 v -28 h -2 v 28 z m 3,3 c -1.66,0 -3,-1.343 -3,-3 h -2 c 0,2.761 2.24,5 5,5 z m 148,-3 c 0,1.657 -1.34,3 -3,3 v 2 c 2.76,0 5,-2.239 5,-5 z m -3,-31 c 1.66,0 3,1.343 3,3 h 2 c 0,-2.761 -2.24,-5 -5,-5 z m -145,-2 c -2.76,0 -5,2.239 -5,5 h 2 c 0,-1.657 1.34,-3 3,-3 z"
       fill="#90caf9"
       fill-opacity="0.5"
       id="path3668"
       style="display:inline" />
  </g>
</svg>
