<?xml version="1.0" encoding="UTF-8" standalone="no"?>
<!-- Created with Inkscape (http://www.inkscape.org/) -->

<svg
   width="32.543709mm"
   height="12.170818mm"
   viewBox="0 0 32.543709 12.170818"
   version="1.1"
   id="svg13398"
   xml:space="preserve"
   xmlns="http://www.w3.org/2000/svg"
   xmlns:svg="http://www.w3.org/2000/svg"><defs
     id="defs13395"><filter
       id="a-88"
       width="123"
       height="46"
       x="0"
       y="0"
       color-interpolation-filters="sRGB"
       filterUnits="userSpaceOnUse"><feFlood
         flood-opacity="0"
         result="BackgroundImageFix"
         id="feFlood17782" /><feColorMatrix
         in="SourceAlpha"
         result="hardAlpha"
         values="0 0 0 0 0 0 0 0 0 0 0 0 0 0 0 0 0 0 127 0"
         id="feColorMatrix17784" /><feOffset
         dy="1"
         id="feOffset17786" /><feGaussianBlur
         stdDeviation="2.5"
         id="feGaussianBlur17788" /><feComposite
         in2="hardAlpha"
         operator="out"
         id="feComposite17790" /><feColorMatrix
         values="0 0 0 0 0 0 0 0 0 0 0 0 0 0 0 0 0 0 0.12 0"
         id="feColorMatrix17792" /><feBlend
         in2="BackgroundImageFix"
         result="effect1_dropShadow_4844_16374"
         id="feBlend17794"
         mode="normal" /><feColorMatrix
         in="SourceAlpha"
         result="hardAlpha"
         values="0 0 0 0 0 0 0 0 0 0 0 0 0 0 0 0 0 0 127 0"
         id="feColorMatrix17796" /><feOffset
         dy="2"
         id="feOffset17798" /><feGaussianBlur
         stdDeviation="1"
         id="feGaussianBlur17800" /><feComposite
         in2="hardAlpha"
         operator="out"
         id="feComposite17802" /><feColorMatrix
         values="0 0 0 0 0 0 0 0 0 0 0 0 0 0 0 0 0 0 0.14 0"
         id="feColorMatrix17804" /><feBlend
         in2="effect1_dropShadow_4844_16374"
         result="effect2_dropShadow_4844_16374"
         id="feBlend17806"
         mode="normal" /><feColorMatrix
         in="SourceAlpha"
         result="hardAlpha"
         values="0 0 0 0 0 0 0 0 0 0 0 0 0 0 0 0 0 0 127 0"
         id="feColorMatrix17808" /><feMorphology
         in="SourceAlpha"
         radius="2"
         result="effect3_dropShadow_4844_16374"
         id="feMorphology17810" /><feOffset
         dy="3"
         id="feOffset17812" /><feGaussianBlur
         stdDeviation=".5"
         id="feGaussianBlur17814" /><feComposite
         in2="hardAlpha"
         operator="out"
         id="feComposite17816" /><feColorMatrix
         values="0 0 0 0 0 0 0 0 0 0 0 0 0 0 0 0 0 0 0.2 0"
         id="feColorMatrix17818" /><feBlend
         in2="effect2_dropShadow_4844_16374"
         result="effect3_dropShadow_4844_16374"
         id="feBlend17820"
         mode="normal" /><feBlend
         in="SourceGraphic"
         in2="effect3_dropShadow_4844_16374"
         result="shape"
         id="feBlend17822"
         mode="normal" /></filter></defs><g
     id="New_Layer_1652821995.4542735"
     style="display:inline"
     transform="translate(-229.129,-457.655)"><g
       filter="url(#a)"
       id="g17780"
       style="filter:url(#a-88)"
       transform="matrix(0.264583,0,0,0.264583,229.129,457.655)"><path
         fill="#1976d2"
         d="M 5,8 A 4,4 0 0 1 9,4 h 105 a 4,4 0 0 1 4,4 v 28 a 4,4 0 0 1 -4,4 H 9 A 4,4 0 0 1 5,36 Z"
         id="path17776" /><path
         fill="#ffffff"
         d="M 33.667,21.167 H 23.525 L 28.183,16.508 27,15.335 20.333,22 27,28.667 l 1.175,-1.175 -4.65,-4.659 h 10.142 z m 13.042,-4.12 h 1.531 l 2.878,7.677 2.871,-7.677 h 1.532 L 51.72,27 h -1.217 z m -0.697,0 h 1.456 l 0.253,6.644 V 27 h -1.71 v -9.953 z m 8.75,0 h 1.463 V 27 H 54.509 V 23.691 Z M 65.176,25.64 V 27 H 59.892 V 25.64 Z M 60.377,17.047 V 27 h -1.715 v -9.953 z m 4.109,4.156 v 1.34 h -4.594 v -1.34 z m 0.656,-4.156 v 1.367 h -5.25 V 17.047 Z M 69.87,27 h -2.126 l 0.014,-1.36 h 2.112 c 0.616,0 1.13,-0.135 1.545,-0.404 0.42,-0.269 0.734,-0.654 0.944,-1.155 0.214,-0.501 0.32,-1.098 0.32,-1.791 v -0.54 a 5,5 0 0 0 -0.184,-1.429 2.8,2.8 0 0 0 -0.533,-1.046 2.232,2.232 0 0 0 -0.861,-0.642 2.923,2.923 0 0 0 -1.17,-0.219 h -2.228 v -1.367 h 2.229 c 0.66,0 1.264,0.111 1.811,0.335 a 3.975,3.975 0 0 1 1.415,0.95 c 0.401,0.415 0.71,0.912 0.923,1.49 0.215,0.579 0.322,1.226 0.322,1.942 v 0.526 c 0,0.716 -0.108,1.363 -0.322,1.941 a 4.22,4.22 0 0 1 -0.923,1.49 c -0.4,0.41 -0.88,0.728 -1.435,0.95 C 71.171,26.891 70.553,27 69.87,27 Z M 68.695,17.047 V 27 h -1.716 v -9.953 z m 9.662,0 V 27 H 76.64 v -9.953 h 1.716 z m 8.118,0 h 1.709 v 6.651 c 0,0.757 -0.164,1.39 -0.492,1.9 a 3.092,3.092 0 0 1 -1.34,1.156 c -0.56,0.255 -1.187,0.383 -1.88,0.383 -0.715,0 -1.353,-0.128 -1.914,-0.383 a 3.056,3.056 0 0 1 -1.326,-1.155 c -0.32,-0.51 -0.479,-1.144 -0.479,-1.9 v -6.652 h 1.71 v 6.651 c 0,0.479 0.081,0.873 0.245,1.183 0.165,0.305 0.397,0.53 0.698,0.677 0.3,0.145 0.656,0.218 1.066,0.218 0.41,0 0.763,-0.073 1.06,-0.218 0.3,-0.146 0.533,-0.372 0.697,-0.677 0.164,-0.31 0.246,-0.704 0.246,-1.183 z m 4.672,0 h 1.532 l 2.878,7.677 2.87,-7.677 h 1.532 L 96.158,27 H 94.94 Z m -0.697,0 h 1.456 l 0.253,6.644 V 27 H 90.45 Z m 8.75,0 h 1.463 V 27 h -1.716 v -3.309 z"
         id="path17778" /></g></g></svg>
