<?xml version="1.0" encoding="UTF-8" standalone="no"?>
<svg
   width="179"
   height="38"
   fill="none"
   version="1.1"
   id="svg5780"
   xmlns="http://www.w3.org/2000/svg"
   xmlns:svg="http://www.w3.org/2000/svg">
  <defs
     id="defs5778">
    <radialGradient
       id="Button__R"
       cx="0"
       cy="0"
       r="1"
       gradientUnits="userSpaceOnUse"
       gradientTransform="matrix(0,36.2897,-64.7644,0,1682.5,662)">
      <stop
         offset=".995"
         stop-color="#90CAF9"
         stop-opacity=".3"
         id="stop5750" />
      <stop
         offset="1"
         stop-color="#fff"
         stop-opacity="0"
         id="stop5752" />
    </radialGradient>
  </defs>
  <g
     id="New_Layer_1653067966.2648213"
     style="display:inline"
     transform="translate(-1593,-643)">
    <path
       fill="url(#Button__R)"
       d="m 1594,644 h 177 v 36 h -177 z"
       id="path3670"
       style="display:inline;fill:url(#Button__R)" />
    <path
       d="m 1622.67,661.167 h -10.14 l 4.65,-4.659 -1.18,-1.175 -6.67,6.667 6.67,6.667 1.18,-1.175 -4.65,-4.659 h 10.14 z"
       fill="#90caf9"
       id="path3672"
       style="display:inline" />
    <text
       fill="#90caf9"
       xml:space="preserve"
       style="white-space:pre;display:inline"
       font-family="Roboto"
       font-size="14px"
       font-weight="500"
       letter-spacing="0.4"
       id="text3676"
       x="1634"
       y="666.78497"><tspan
         x="1634"
         y="666.78497"
         id="tspan3674">FOCUSED VISIBLE</tspan></text>
    <path
       d="m 1598,645 h 169 v -2 h -169 z m 172,3 v 28 h 2 v -28 z m -3,31 h -169 v 2 h 169 z m -172,-3 v -28 h -2 v 28 z m 3,3 c -1.66,0 -3,-1.343 -3,-3 h -2 c 0,2.761 2.24,5 5,5 z m 172,-3 c 0,1.657 -1.34,3 -3,3 v 2 c 2.76,0 5,-2.239 5,-5 z m -3,-31 c 1.66,0 3,1.343 3,3 h 2 c 0,-2.761 -2.24,-5 -5,-5 z m -169,-2 c -2.76,0 -5,2.239 -5,5 h 2 c 0,-1.657 1.34,-3 3,-3 z"
       fill="#90caf9"
       fill-opacity="0.5"
       id="path3678"
       style="display:inline" />
  </g>
</svg>
