<?xml version="1.0" encoding="UTF-8" standalone="no"?>
<svg
   width="179"
   height="38"
   fill="none"
   version="1.1"
   id="svg5780"
   xmlns="http://www.w3.org/2000/svg"
   xmlns:svg="http://www.w3.org/2000/svg">
  <defs
     id="defs5778">
    <radialGradient
       id="Button__S"
       cx="0"
       cy="0"
       r="1"
       gradientUnits="userSpaceOnUse"
       gradientTransform="matrix(0,36.2897,-64.7644,0,1682.5,722)">
      <stop
         offset=".995"
         stop-color="#90CAF9"
         stop-opacity=".3"
         id="stop5755" />
      <stop
         offset="1"
         stop-color="#fff"
         stop-opacity="0"
         id="stop5757" />
    </radialGradient>
  </defs>
  <g
     id="New_Layer_1653067966.2659528"
     style="display:inline"
     transform="translate(-1593,-703)">
    <path
       fill="url(#Button__S)"
       d="m 1594,704 h 177 v 36 h -177 z"
       id="path3680"
       style="display:inline;fill:url(#Button__S)" />
    <text
       fill="#90caf9"
       xml:space="preserve"
       style="white-space:pre;display:inline"
       font-family="Roboto"
       font-size="14px"
       font-weight="500"
       letter-spacing="0.4"
       id="text3684"
       x="1610"
       y="726.78497"><tspan
         x="1610"
         y="726.78497"
         id="tspan3682">FOCUSED VISIBLE</tspan></text>
    <path
       d="m 1749,715.333 -1.17,1.175 4.65,4.659 h -10.15 v 1.666 h 10.15 l -4.65,4.659 1.17,1.175 6.67,-6.667 z"
       fill="#90caf9"
       id="path3686"
       style="display:inline" />
    <path
       d="m 1598,705 h 169 v -2 h -169 z m 172,3 v 28 h 2 v -28 z m -3,31 h -169 v 2 h 169 z m -172,-3 v -28 h -2 v 28 z m 3,3 c -1.66,0 -3,-1.343 -3,-3 h -2 c 0,2.761 2.24,5 5,5 z m 172,-3 c 0,1.657 -1.34,3 -3,3 v 2 c 2.76,0 5,-2.239 5,-5 z m -3,-31 c 1.66,0 3,1.343 3,3 h 2 c 0,-2.761 -2.24,-5 -5,-5 z m -169,-2 c -2.76,0 -5,2.239 -5,5 h 2 c 0,-1.657 1.34,-3 3,-3 z"
       fill="#90caf9"
       fill-opacity="0.5"
       id="path3688"
       style="display:inline" />
  </g>
</svg>
