<?xml version="1.0" encoding="UTF-8" standalone="no"?>
<!-- Created with Inkscape (http://www.inkscape.org/) -->

<svg
   width="41.010365mm"
   height="20.637474mm"
   viewBox="0 0 41.010365 20.637474"
   version="1.1"
   id="svg13398"
   xml:space="preserve"
   xmlns="http://www.w3.org/2000/svg"
   xmlns:svg="http://www.w3.org/2000/svg"><defs
     id="defs13395"><radialGradient
       id="b-15"
       cx="0"
       cy="0"
       r="1"
       gradientTransform="matrix(0,42.338,-43.5422,0,59.5,21)"
       gradientUnits="userSpaceOnUse"><stop
         offset=".995"
         stop-color="#fff"
         stop-opacity=".3"
         id="stop18080" /><stop
         offset="1"
         stop-color="#fff"
         stop-opacity="0"
         id="stop18082" /></radialGradient><filter
       id="a-98"
       width="155"
       height="78"
       x="0"
       y="0"
       color-interpolation-filters="sRGB"
       filterUnits="userSpaceOnUse"><feFlood
         flood-opacity="0"
         result="BackgroundImageFix"
         id="feFlood18085" /><feColorMatrix
         in="SourceAlpha"
         result="hardAlpha"
         values="0 0 0 0 0 0 0 0 0 0 0 0 0 0 0 0 0 0 127 0"
         id="feColorMatrix18087" /><feOffset
         dy="1"
         id="feOffset18089" /><feGaussianBlur
         stdDeviation="9"
         id="feGaussianBlur18091" /><feComposite
         in2="hardAlpha"
         operator="out"
         id="feComposite18093" /><feColorMatrix
         values="0 0 0 0 0 0 0 0 0 0 0 0 0 0 0 0 0 0 0.12 0"
         id="feColorMatrix18095" /><feBlend
         in2="BackgroundImageFix"
         result="effect1_dropShadow_4844_16364"
         id="feBlend18097"
         mode="normal" /><feColorMatrix
         in="SourceAlpha"
         result="hardAlpha"
         values="0 0 0 0 0 0 0 0 0 0 0 0 0 0 0 0 0 0 127 0"
         id="feColorMatrix18099" /><feOffset
         dy="6"
         id="feOffset18101" /><feGaussianBlur
         stdDeviation="5"
         id="feGaussianBlur18103" /><feComposite
         in2="hardAlpha"
         operator="out"
         id="feComposite18105" /><feColorMatrix
         values="0 0 0 0 0 0 0 0 0 0 0 0 0 0 0 0 0 0 0.14 0"
         id="feColorMatrix18107" /><feBlend
         in2="effect1_dropShadow_4844_16364"
         result="effect2_dropShadow_4844_16364"
         id="feBlend18109"
         mode="normal" /><feColorMatrix
         in="SourceAlpha"
         result="hardAlpha"
         values="0 0 0 0 0 0 0 0 0 0 0 0 0 0 0 0 0 0 127 0"
         id="feColorMatrix18111" /><feMorphology
         in="SourceAlpha"
         radius="1"
         result="effect3_dropShadow_4844_16364"
         id="feMorphology18113" /><feOffset
         dy="3"
         id="feOffset18115" /><feGaussianBlur
         stdDeviation="2.5"
         id="feGaussianBlur18117" /><feComposite
         in2="hardAlpha"
         operator="out"
         id="feComposite18119" /><feColorMatrix
         values="0 0 0 0 0 0 0 0 0 0 0 0 0 0 0 0 0 0 0.2 0"
         id="feColorMatrix18121" /><feBlend
         in2="effect2_dropShadow_4844_16364"
         result="effect3_dropShadow_4844_16364"
         id="feBlend18123"
         mode="normal" /><feBlend
         in="SourceGraphic"
         in2="effect3_dropShadow_4844_16364"
         result="shape"
         id="feBlend18125"
         mode="normal" /></filter></defs><g
     id="New_Layer_1652821995.457914"
     style="display:inline"
     transform="translate(-224.896,-59.7213)"><g
       filter="url(#a)"
       id="g18078"
       style="filter:url(#a-98)"
       transform="matrix(0.264583,0,0,0.264583,224.896,59.7213)"><path
         fill="#ed6c02"
         d="m 18,21 a 4,4 0 0 1 4,-4 h 111 a 4,4 0 0 1 4,4 v 34 a 4,4 0 0 1 -4,4 H 22 a 4,4 0 0 1 -4,-4 z"
         id="path18072" /><path
         fill="url(#b)"
         d="M 0,0 H 119 V 42 H 0 Z"
         transform="translate(18,17)"
         id="path18074"
         style="fill:url(#b-15)" /><path
         fill="#ffffff"
         d="M 54,37 H 41.83 L 47.42,31.41 46,30 38,38 46,46 47.41,44.59 41.83,39 H 54 Z m 19.764,4.542 V 43 H 68.41 V 41.542 Z M 68.922,32.336 V 43 H 67.084 V 32.336 Z M 79.944,33.756 76.758,43 h -1.926 l 4.013,-10.664 h 1.23 z M 82.61,43 79.416,33.757 79.277,32.336 h 1.238 L 84.543,43 Z m -0.154,-3.955 v 1.457 h -5.8 v -1.457 z m 3.741,-6.71 h 3.772 c 0.81,0 1.502,0.123 2.073,0.367 0.571,0.244 1.008,0.606 1.311,1.084 0.308,0.474 0.462,1.06 0.462,1.758 0,0.532 -0.098,1 -0.293,1.406 a 2.86,2.86 0 0 1 -0.828,1.026 4,4 0 0 1 -1.275,0.637 l -0.556,0.27 H 87.472 L 87.457,37.426 H 90 c 0.44,0 0.805,-0.078 1.098,-0.234 0.293,-0.156 0.513,-0.369 0.66,-0.637 a 1.89,1.89 0 0 0 0.227,-0.923 2.02,2.02 0 0 0 -0.22,-0.967 1.416,1.416 0 0 0 -0.66,-0.637 C 90.808,33.877 90.429,33.801 89.97,33.801 H 88.037 V 43 H 86.198 V 32.336 Z M 92.284,43 l -2.505,-4.79 1.926,-0.007 2.542,4.702 V 43 Z m 12.01,-5.45 v 4.073 c -0.151,0.2 -0.388,0.42 -0.71,0.66 -0.318,0.234 -0.74,0.436 -1.267,0.607 -0.528,0.171 -1.185,0.257 -1.971,0.257 A 4.87,4.87 0 0 1 98.508,42.81 4.027,4.027 0 0 1 97.065,41.806 c -0.4,-0.44 -0.71,-0.974 -0.93,-1.604 -0.22,-0.635 -0.33,-1.357 -0.33,-2.168 v -0.74 c 0,-0.805 0.1,-1.523 0.3,-2.153 0.206,-0.635 0.499,-1.172 0.88,-1.611 0.38,-0.44 0.84,-0.772 1.376,-0.996 0.542,-0.23 1.155,-0.344 1.839,-0.344 0.874,0 1.597,0.146 2.168,0.439 a 3.19,3.19 0 0 1 1.333,1.201 c 0.312,0.513 0.51,1.099 0.593,1.758 h -1.802 a 2.82,2.82 0 0 0 -0.344,-0.996 1.741,1.741 0 0 0 -0.718,-0.689 c -0.307,-0.17 -0.708,-0.256 -1.201,-0.256 -0.425,0 -0.798,0.08 -1.12,0.242 -0.323,0.16 -0.591,0.398 -0.806,0.71 -0.21,0.313 -0.369,0.694 -0.476,1.143 a 6.61,6.61 0 0 0 -0.161,1.538 v 0.754 c 0,0.586 0.06,1.106 0.183,1.56 0.127,0.454 0.307,0.838 0.542,1.15 0.239,0.313 0.53,0.55 0.871,0.71 0.342,0.157 0.728,0.235 1.158,0.235 0.419,0 0.764,-0.034 1.032,-0.103 a 2.41,2.41 0 0 0 0.637,-0.256 c 0.162,-0.102 0.286,-0.2 0.374,-0.293 V 38.92 h -2.219 v -1.37 z m 9.476,3.992 V 43 h -5.661 v -1.458 z m -5.141,-9.206 V 43 H 106.79 V 32.336 Z m 4.401,4.453 v 1.436 h -4.921 v -1.436 z m 0.704,-4.453 V 33.8 h -5.625 v -1.465 h 5.625 z"
         id="path18076" /></g></g></svg>
