<?xml version="1.0" encoding="UTF-8" standalone="no"?>
<svg
   width="98"
   height="38"
   fill="none"
   version="1.1"
   id="svg5780"
   xmlns="http://www.w3.org/2000/svg"
   xmlns:svg="http://www.w3.org/2000/svg">
  <defs
     id="defs5778" />
  <g
     id="New_Layer_1653067966.2694457"
     style="display:inline"
     transform="translate(-1304,-583)">
    <text
       fill="#90caf9"
       xml:space="preserve"
       style="white-space:pre;display:inline"
       font-family="Roboto"
       font-size="14px"
       font-weight="500"
       letter-spacing="0.4"
       id="text3714"
       x="1321"
       y="606.78497"><tspan
         x="1321"
         y="606.78497"
         id="tspan3712">ENABLED</tspan></text>
    <path
       d="m 1309,585 h 88 v -2 h -88 z m 91,3 v 28 h 2 v -28 z m -3,31 h -88 v 2 h 88 z m -91,-3 v -28 h -2 v 28 z m 3,3 c -1.66,0 -3,-1.343 -3,-3 h -2 c 0,2.761 2.24,5 5,5 z m 91,-3 c 0,1.657 -1.34,3 -3,3 v 2 c 2.76,0 5,-2.239 5,-5 z m -3,-31 c 1.66,0 3,1.343 3,3 h 2 c 0,-2.761 -2.24,-5 -5,-5 z m -88,-2 c -2.76,0 -5,2.239 -5,5 h 2 c 0,-1.657 1.34,-3 3,-3 z"
       fill="#90caf9"
       fill-opacity="0.5"
       id="path3716"
       style="display:inline" />
  </g>
</svg>
