<?xml version="1.0" encoding="UTF-8" standalone="no"?>
<!-- Created with Inkscape (http://www.inkscape.org/) -->

<svg
   width="28.044798mm"
   height="11.641652mm"
   viewBox="0 0 28.044797 11.641652"
   version="1.1"
   id="svg5"
   xml:space="preserve"
   xmlns="http://www.w3.org/2000/svg"
   xmlns:svg="http://www.w3.org/2000/svg"><defs
     id="defs2" /><g
     id="New_Layer_1652821306.9954317"
     style="display:inline"
     transform="translate(-122.238,-467.445)"><path
       fill="#757575"
       d="M 66,22 C 66,10.954 74.954,2 86,2 97.046,2 106,10.954 106,22 106,33.046 97.046,42 86,42 74.954,42 66,33.046 66,22 Z"
       id="path6510"
       transform="matrix(0.264583,0,0,0.264583,122.237,467.445)" /><path
       fill="#121212"
       d="m 85.139,21.373 v 1.7 h -9.746 v -1.7 z m -3.965,-4.15 V 27.574 H 79.368 V 17.223 Z m 8.763,3.779 h 1.29 c 0.63,0 1.152,-0.104 1.562,-0.313 0.416,-0.214 0.726,-0.504 0.927,-0.869 a 2.51,2.51 0 0 0 0.313,-1.25 c 0,-0.547 -0.091,-1.006 -0.273,-1.377 a 1.83,1.83 0 0 0 -0.82,-0.84 c -0.365,-0.188 -0.828,-0.283 -1.388,-0.283 -0.507,0 -0.957,0.101 -1.347,0.303 a 2.216,2.216 0 0 0 -0.908,0.84 c -0.215,0.364 -0.323,0.794 -0.323,1.289 h -1.806 c 0,-0.723 0.182,-1.38 0.547,-1.973 a 3.933,3.933 0 0 1 1.533,-1.416 c 0.664,-0.351 1.432,-0.527 2.305,-0.527 0.859,0 1.61,0.153 2.255,0.459 a 3.36,3.36 0 0 1 1.504,1.348 c 0.358,0.592 0.537,1.331 0.537,2.216 0,0.358 -0.084,0.743 -0.254,1.153 -0.162,0.403 -0.42,0.781 -0.771,1.133 -0.345,0.351 -0.794,0.64 -1.348,0.869 -0.553,0.221 -1.217,0.332 -1.992,0.332 h -1.543 z m 0,1.484 v -1.084 h 1.543 c 0.905,0 1.654,0.108 2.246,0.323 0.593,0.214 1.058,0.5 1.397,0.859 a 3,3 0 0 1 0.722,1.182 c 0.144,0.423 0.215,0.846 0.215,1.27 0,0.663 -0.114,1.252 -0.342,1.767 -0.22,0.514 -0.537,0.95 -0.947,1.308 a 4.05,4.05 0 0 1 -1.426,0.81 5.62,5.62 0 0 1 -1.787,0.274 5.679,5.679 0 0 1 -1.748,-0.263 4.525,4.525 0 0 1 -1.435,-0.762 3.565,3.565 0 0 1 -0.977,-1.24 c -0.234,-0.495 -0.351,-1.058 -0.351,-1.69 h 1.806 c 0,0.495 0.108,0.928 0.323,1.3 0.22,0.37 0.533,0.66 0.937,0.868 0.41,0.202 0.892,0.303 1.445,0.303 0.554,0 1.029,-0.095 1.426,-0.283 0.404,-0.196 0.713,-0.489 0.928,-0.88 0.221,-0.39 0.332,-0.881 0.332,-1.474 0,-0.592 -0.124,-1.077 -0.371,-1.455 a 2.177,2.177 0 0 0 -1.055,-0.85 c -0.45,-0.188 -0.98,-0.283 -1.592,-0.283 z"
       id="path6512"
       transform="matrix(0.264583,0,0,0.264583,122.238,467.445)" /><path
       fill="#757575"
       d="M 34,22 C 34,10.954 42.954,2 54,2 65.046,2 74,10.954 74,22 74,33.046 65.046,42 54,42 42.954,42 34,33.046 34,22 Z"
       id="path6514"
       transform="matrix(0.264583,0,0,0.264583,122.238,467.445)" /><path
       fill="#121212"
       d="m 54,22 c 2.21,0 4,-1.79 4,-4 0,-2.21 -1.79,-4 -4,-4 -2.21,0 -4,1.79 -4,4 0,2.21 1.79,4 4,4 z m 0,2 c -2.67,0 -8,1.34 -8,4 v 2 h 16 v -2 c 0,-2.66 -5.33,-4 -8,-4 z m 0,16 C 44.059,40 36,31.941 36,22 h -4 c 0,12.15 9.85,22 22,22 z M 72,22 c 0,9.941 -8.059,18 -18,18 v 4 C 66.15,44 76,34.15 76,22 Z M 54,4 c 9.941,0 18,8.059 18,18 h 4 C 76,9.85 66.15,0 54,0 Z M 54,0 C 41.85,0 32,9.85 32,22 h 4 C 36,12.059 44.059,4 54,4 Z"
       id="path6516"
       transform="matrix(0.264583,0,0,0.264583,122.238,467.445)" /><path
       fill="#757575"
       d="M 2,22 C 2,10.954 10.954,2 22,2 33.046,2 42,10.954 42,22 42,33.046 33.046,42 22,42 10.954,42 2,33.046 2,22 Z"
       id="path6518"
       transform="matrix(0.264583,0,0,0.264583,122.238,467.445)" /><path
       fill="#121212"
       d="m 22,22 c 2.21,0 4,-1.79 4,-4 0,-2.21 -1.79,-4 -4,-4 -2.21,0 -4,1.79 -4,4 0,2.21 1.79,4 4,4 z m 0,2 c -2.67,0 -8,1.34 -8,4 v 2 h 16 v -2 c 0,-2.66 -5.33,-4 -8,-4 z m 0,16 C 12.059,40 4,31.941 4,22 H 0 C 0,34.15 9.85,44 22,44 Z M 40,22 c 0,9.941 -8.059,18 -18,18 v 4 C 34.15,44 44,34.15 44,22 Z M 22,4 c 9.941,0 18,8.059 18,18 h 4 C 44,9.85 34.15,0 22,0 Z M 22,0 C 9.85,0 0,9.85 0,22 H 4 C 4,12.059 12.059,4 22,4 Z"
       id="path6520"
       transform="matrix(0.264583,0,0,0.264583,122.238,467.445)" /></g></svg>
