<?xml version="1.0" encoding="UTF-8" standalone="no"?>
<!-- Created with Inkscape (http://www.inkscape.org/) -->

<svg
   width="30.162462mm"
   height="11.641652mm"
   viewBox="0 0 30.162462 11.641652"
   version="1.1"
   id="svg5"
   xml:space="preserve"
   xmlns="http://www.w3.org/2000/svg"
   xmlns:svg="http://www.w3.org/2000/svg"><defs
     id="defs2" /><g
     id="New_Layer_1652821307.0156658"
     style="display:inline"
     transform="translate(-10.5833,-451.834)"><path
       fill="#757575"
       d="M 74,22 C 74,10.954 82.954,2 94,2 c 11.046,0 20,8.954 20,20 0,11.046 -8.954,20 -20,20 C 82.954,42 74,33.046 74,22 Z"
       id="path6682"
       transform="matrix(0.264583,0,0,0.264583,10.5833,451.834)" /><path
       fill="#121212"
       d="m 93.139,21.373 v 1.7 h -9.746 v -1.7 z m -3.965,-4.15 V 27.574 H 87.368 V 17.223 Z m 8.763,3.779 h 1.29 c 0.63,0 1.152,-0.104 1.562,-0.313 0.416,-0.214 0.726,-0.504 0.927,-0.869 0.209,-0.37 0.313,-0.787 0.313,-1.25 0,-0.547 -0.091,-1.006 -0.273,-1.377 a 1.833,1.833 0 0 0 -0.821,-0.84 c -0.364,-0.188 -0.827,-0.283 -1.386,-0.283 -0.508,0 -0.958,0.101 -1.348,0.303 a 2.216,2.216 0 0 0 -0.908,0.84 c -0.215,0.364 -0.323,0.794 -0.323,1.289 h -1.806 c 0,-0.723 0.182,-1.38 0.547,-1.973 a 3.933,3.933 0 0 1 1.533,-1.416 c 0.664,-0.351 1.432,-0.527 2.305,-0.527 0.859,0 1.611,0.153 2.255,0.459 a 3.36,3.36 0 0 1 1.504,1.348 c 0.358,0.592 0.537,1.331 0.537,2.216 0,0.358 -0.084,0.743 -0.254,1.153 a 3.388,3.388 0 0 1 -0.771,1.133 c -0.345,0.351 -0.794,0.64 -1.348,0.869 -0.553,0.221 -1.217,0.332 -1.992,0.332 h -1.543 z m 0,1.484 v -1.084 h 1.543 c 0.905,0 1.654,0.108 2.246,0.323 0.593,0.214 1.058,0.5 1.397,0.859 a 3,3 0 0 1 0.722,1.182 c 0.144,0.423 0.215,0.846 0.215,1.27 0,0.663 -0.114,1.252 -0.342,1.767 a 3.6,3.6 0 0 1 -0.947,1.308 4.045,4.045 0 0 1 -1.426,0.81 5.613,5.613 0 0 1 -1.787,0.274 5.679,5.679 0 0 1 -1.748,-0.263 4.525,4.525 0 0 1 -1.435,-0.762 3.565,3.565 0 0 1 -0.977,-1.24 c -0.234,-0.495 -0.351,-1.058 -0.351,-1.69 h 1.806 c 0,0.495 0.108,0.928 0.323,1.3 0.22,0.37 0.533,0.66 0.937,0.868 0.41,0.202 0.892,0.303 1.445,0.303 0.554,0 1.029,-0.095 1.426,-0.283 0.404,-0.196 0.713,-0.489 0.928,-0.88 0.221,-0.39 0.332,-0.881 0.332,-1.474 0,-0.592 -0.124,-1.077 -0.371,-1.455 a 2.18,2.18 0 0 0 -1.055,-0.85 c -0.449,-0.188 -0.98,-0.283 -1.592,-0.283 z"
       id="path6684"
       transform="matrix(0.264583,0,0,0.264583,10.5833,451.834)" /><path
       fill="#757575"
       d="M 50,22 C 50,10.954 58.954,2 70,2 81.046,2 90,10.954 90,22 90,33.046 81.046,42 70,42 58.954,42 50,33.046 50,22 Z"
       id="path6686"
       transform="matrix(0.264583,0,0,0.264583,10.5833,451.834)" /><path
       fill="#121212"
       d="m 70,22 c 2.21,0 4,-1.79 4,-4 0,-2.21 -1.79,-4 -4,-4 -2.21,0 -4,1.79 -4,4 0,2.21 1.79,4 4,4 z m 0,2 c -2.67,0 -8,1.34 -8,4 v 2 h 16 v -2 c 0,-2.66 -5.33,-4 -8,-4 z m 0,16 C 60.059,40 52,31.941 52,22 h -4 c 0,12.15 9.85,22 22,22 z M 88,22 c 0,9.941 -8.059,18 -18,18 v 4 C 82.15,44 92,34.15 92,22 Z M 70,4 c 9.941,0 18,8.059 18,18 h 4 C 92,9.85 82.15,0 70,0 Z M 70,0 C 57.85,0 48,9.85 48,22 h 4 C 52,12.059 60.059,4 70,4 Z"
       id="path6688"
       transform="matrix(0.264583,0,0,0.264583,10.5833,451.834)" /><path
       fill="#757575"
       d="M 26,22 C 26,10.954 34.954,2 46,2 57.046,2 66,10.954 66,22 66,33.046 57.046,42 46,42 34.954,42 26,33.046 26,22 Z"
       id="path6690"
       transform="matrix(0.264583,0,0,0.264583,10.5833,451.834)" /><path
       fill="#121212"
       d="m 46,22 c 2.21,0 4,-1.79 4,-4 0,-2.21 -1.79,-4 -4,-4 -2.21,0 -4,1.79 -4,4 0,2.21 1.79,4 4,4 z m 0,2 c -2.67,0 -8,1.34 -8,4 v 2 h 16 v -2 c 0,-2.66 -5.33,-4 -8,-4 z m 0,16 C 36.059,40 28,31.941 28,22 h -4 c 0,12.15 9.85,22 22,22 z M 64,22 c 0,9.941 -8.059,18 -18,18 v 4 C 58.15,44 68,34.15 68,22 Z M 46,4 c 9.941,0 18,8.059 18,18 h 4 C 68,9.85 58.15,0 46,0 Z M 46,0 C 33.85,0 24,9.85 24,22 h 4 C 28,12.059 36.059,4 46,4 Z"
       id="path6692"
       transform="matrix(0.264583,0,0,0.264583,10.5833,451.834)" /><path
       fill="#757575"
       d="M 2,22 C 2,10.954 10.954,2 22,2 33.046,2 42,10.954 42,22 42,33.046 33.046,42 22,42 10.954,42 2,33.046 2,22 Z"
       id="path6694"
       transform="matrix(0.264583,0,0,0.264583,10.5833,451.834)" /><path
       fill="#121212"
       d="m 22,22 c 2.21,0 4,-1.79 4,-4 0,-2.21 -1.79,-4 -4,-4 -2.21,0 -4,1.79 -4,4 0,2.21 1.79,4 4,4 z m 0,2 c -2.67,0 -8,1.34 -8,4 v 2 h 16 v -2 c 0,-2.66 -5.33,-4 -8,-4 z m 0,16 C 12.059,40 4,31.941 4,22 H 0 C 0,34.15 9.85,44 22,44 Z M 40,22 c 0,9.941 -8.059,18 -18,18 v 4 C 34.15,44 44,34.15 44,22 Z M 22,4 c 9.941,0 18,8.059 18,18 h 4 C 44,9.85 34.15,0 22,0 Z M 22,0 C 9.85,0 0,9.85 0,22 H 4 C 4,12.059 12.059,4 22,4 Z"
       id="path6696"
       transform="matrix(0.264583,0,0,0.264583,10.5833,451.834)" /></g></svg>
