<?xml version="1.0" encoding="UTF-8" standalone="no"?>
<!-- Created with Inkscape (http://www.inkscape.org/) -->

<svg
   width="10.58332mm"
   height="10.58332mm"
   viewBox="0 0 10.583319 10.58332"
   version="1.1"
   id="svg5"
   xml:space="preserve"
   xmlns="http://www.w3.org/2000/svg"
   xmlns:svg="http://www.w3.org/2000/svg"><defs
     id="defs2" /><g
     id="New_Layer_1652821306.7564652"
     style="display:inline"
     transform="translate(-78.5812,-51.0754)"><path
       fill="#bdbdbd"
       d="M 0,0 H 40 V 40 H 0 Z"
       id="path2727"
       transform="matrix(0.264583,0,0,0.264583,78.5812,51.0754)" /><path
       fill="#ffffff"
       d="m 19.334,20.35 c 0,1.393 -0.234,2.61 -0.703,3.652 -0.469,1.035 -1.133,1.826 -1.992,2.373 -0.86,0.547 -1.862,0.82 -3.008,0.82 -1.12,0 -2.113,-0.273 -2.978,-0.82 C 9.787,25.822 9.113,25.037 8.631,24.021 8.156,22.999 7.911,21.818 7.899,20.477 V 19.45 c 0,-1.367 0.237,-2.575 0.713,-3.623 0.475,-1.048 1.145,-1.849 2.011,-2.402 0.873,-0.56 1.869,-0.84 2.989,-0.84 1.139,0 2.142,0.277 3.007,0.83 0.873,0.547 1.543,1.344 2.012,2.393 0.469,1.041 0.703,2.255 0.703,3.642 v 0.899 z m -1.865,-0.918 c 0,-1.687 -0.338,-2.979 -1.016,-3.877 -0.677,-0.905 -1.624,-1.358 -2.841,-1.358 -1.185,0 -2.12,0.453 -2.803,1.358 -0.677,0.898 -1.025,2.148 -1.045,3.75 v 1.045 c 0,1.634 0.342,2.92 1.025,3.857 0.69,0.931 1.638,1.396 2.842,1.396 1.211,0 2.149,-0.439 2.813,-1.318 0.664,-0.885 1.006,-2.151 1.025,-3.799 z m 6.693,2.002 V 27 H 22.287 V 12.781 h 5.244 c 1.556,0 2.773,0.397 3.652,1.192 0.886,0.794 1.328,1.845 1.328,3.154 0,1.38 -0.433,2.445 -1.298,3.193 -0.86,0.742 -2.094,1.114 -3.702,1.114 h -3.35 z m 0,-1.534 h 3.369 c 1.003,0 1.77,-0.234 2.305,-0.703 0.534,-0.475 0.8,-1.159 0.8,-2.05 0,-0.847 -0.267,-1.524 -0.8,-2.032 -0.534,-0.508 -1.267,-0.771 -2.198,-0.79 h -3.476 z"
       id="path2729"
       transform="matrix(0.264583,0,0,0.264583,78.5812,51.0754)" /></g></svg>
