<?xml version="1.0" encoding="UTF-8" standalone="no"?>
<svg
   width="1320"
   height="982.5"
   fill="none"
   version="1.1"
   id="svg214"
   xmlns="http://www.w3.org/2000/svg"
   xmlns:svg="http://www.w3.org/2000/svg">
  <defs
     id="defs212">
    <filter
       id="Avatar__b"
       x="569"
       y="353"
       width="330"
       height="406"
       filterUnits="userSpaceOnUse"
       color-interpolation-filters="sRGB">
      <feFlood
         flood-opacity="0"
         result="BackgroundImageFix"
         id="feFlood178" />
      <feColorMatrix
         in="SourceAlpha"
         values="0 0 0 0 0 0 0 0 0 0 0 0 0 0 0 0 0 0 127 0"
         result="hardAlpha"
         id="feColorMatrix180" />
      <feMorphology
         radius="1"
         operator="dilate"
         in="SourceAlpha"
         result="effect1_dropShadow_4863_38142"
         id="feMorphology182" />
      <feOffset
         id="feOffset184" />
      <feColorMatrix
         values="0 0 0 0 0.878431 0 0 0 0 0.878431 0 0 0 0 0.878431 0 0 0 1 0"
         id="feColorMatrix186" />
      <feBlend
         in2="BackgroundImageFix"
         result="effect1_dropShadow_4863_38142"
         id="feBlend188"
         mode="normal" />
      <feBlend
         in="SourceGraphic"
         in2="effect1_dropShadow_4863_38142"
         result="shape"
         id="feBlend190"
         mode="normal" />
    </filter>
    <filter
       id="Avatar__d"
       x="947"
       y="353"
       width="330"
       height="406"
       filterUnits="userSpaceOnUse"
       color-interpolation-filters="sRGB">
      <feFlood
         flood-opacity="0"
         result="BackgroundImageFix"
         id="feFlood193" />
      <feColorMatrix
         in="SourceAlpha"
         values="0 0 0 0 0 0 0 0 0 0 0 0 0 0 0 0 0 0 127 0"
         result="hardAlpha"
         id="feColorMatrix195" />
      <feMorphology
         radius="1"
         operator="dilate"
         in="SourceAlpha"
         result="effect1_dropShadow_4863_38142"
         id="feMorphology197" />
      <feOffset
         id="feOffset199" />
      <feColorMatrix
         values="0 0 0 0 1 0 0 0 0 1 0 0 0 0 1 0 0 0 0.12 0"
         id="feColorMatrix201" />
      <feBlend
         in2="BackgroundImageFix"
         result="effect1_dropShadow_4863_38142"
         id="feBlend203"
         mode="normal" />
      <feBlend
         in="SourceGraphic"
         in2="effect1_dropShadow_4863_38142"
         result="shape"
         id="feBlend205"
         mode="normal" />
    </filter>
  </defs>
  <g
     id="layer1"
     style="display:inline"
     transform="translate(-1,-1.5)">
    <text
       fill="#000000"
       fill-opacity="0.87"
       xml:space="preserve"
       style="white-space:pre"
       font-family="'Roboto Mono'"
       font-size="64px"
       font-weight="500"
       letter-spacing="-1.5"
       id="text6"
       x="1192"
       y="550.78497"><tspan
         x="120"
         y="182.35899"
         id="tspan4">Avatar</tspan></text>
    <path
       d="m 120,259 v -1 h -1 v 1 z m 1200,0 h 1 v -1 h -1 z m 0,1 v 1 h 1 v -1 z m -1200,0 h -1 v 1 h 1 z m 0,0 h 1200 v -2 H 120 Z m 1199,-1 v 1 h 2 v -1 z m 1,0 H 120 v 2 h 1200 z m -1199,1 v -1 h -2 v 1 z"
       fill="#000000"
       fill-opacity="0.12"
       id="path8" />
    <rect
       x="120"
       y="860"
       width="1200"
       height="124"
       rx="10"
       fill="#f5f5f5"
       id="rect10" />
    <path
       fill-rule="evenodd"
       clip-rule="evenodd"
       d="m 194.972,905.312 a 0.886,0.886 0 0 0 0.446,-0.768 l 0.016,-5.144 a 0.888,0.888 0 0 1 0.446,-0.768 l 2.788,-1.602 a 0.887,0.887 0 0 1 1.332,0.771 v 9.352 a 0.894,0.894 0 0 1 -0.446,0.771 l -10.524,6.044 a 0.885,0.885 0 0 1 -0.883,0.001 l -8.259,-4.724 a 0.89,0.89 0 0 1 -0.448,-0.771 v -4.716 c 0,-0.005 0.006,-0.009 0.012,-0.006 0.004,0.003 0.01,0 0.01,-0.006 v -0.006 c 0,-0.003 0.002,-0.007 0.006,-0.008 l 6.801,-3.908 c 0.007,-0.004 0.004,-0.013 -0.003,-0.013 a 0.008,0.008 0 0 1 -0.005,-0.002 c -0.002,-0.002 -0.002,-0.004 -0.002,-0.005 l 0.013,-4.624 a 0.887,0.887 0 0 0 -1.333,-0.773 l -5.055,2.913 a 0.887,0.887 0 0 1 -0.888,0 l -5.071,-2.92 a 0.887,0.887 0 0 0 -1.332,0.77 v 8.355 a 0.896,0.896 0 0 1 -0.443,0.77 0.892,0.892 0 0 1 -0.887,0.003 l -2.814,-1.609 a 0.892,0.892 0 0 1 -0.448,-0.773 l 0.025,-14.605 a 0.883,0.883 0 0 1 0.444,-0.768 0.887,0.887 0 0 1 0.887,-10e-4 l 9.64,5.537 a 0.896,0.896 0 0 0 0.886,0 l 9.637,-5.537 a 0.896,0.896 0 0 1 0.888,0.002 0.889,0.889 0 0 1 0.444,0.77 v 14.608 a 0.892,0.892 0 0 1 -0.446,0.77 l -5.047,2.907 a 0.894,0.894 0 0 0 -0.445,0.772 0.887,0.887 0 0 0 0.449,0.77 l 2.784,1.585 a 0.884,0.884 0 0 0 0.882,-0.002 z m 0.584,-13.104 a 0.89,0.89 0 0 0 1.345,0.762 l 2.667,-1.6 A 0.884,0.884 0 0 0 200,890.608 v -3.26 a 0.895,0.895 0 0 0 -0.451,-0.773 0.894,0.894 0 0 0 -0.895,0.012 l -2.666,1.6 a 0.887,0.887 0 0 0 -0.432,0.761 v 3.261 z"
       fill="#007fff"
       id="path12" />
    <text
       fill="#000000"
       fill-opacity="0.6"
       xml:space="preserve"
       style="white-space:pre"
       font-family="'Roboto Mono'"
       font-size="16px"
       letter-spacing="0.15"
       id="text16"
       x="1192"
       y="550.78497"><tspan
         x="168"
         y="952.21503"
         id="tspan14">Visit mui.com for extended documentation.</tspan></text>
    <text
       fill="#000000"
       fill-opacity="0.6"
       xml:space="preserve"
       style="white-space:pre"
       font-family="'Roboto Mono'"
       font-size="16px"
       letter-spacing="0.15"
       id="text20"
       x="1192"
       y="550.78497"><tspan
         x="1213"
         y="952.21503"
         id="tspan18">v5.4.0</tspan></text>
    <text
       fill="#000000"
       fill-opacity="0.6"
       xml:space="preserve"
       style="white-space:pre"
       font-family="Roboto"
       font-size="16px"
       font-weight="500"
       letter-spacing="0.15"
       id="text24"
       x="1192"
       y="550.78497"><tspan
         x="120"
         y="401.46899"
         id="tspan22">Variant</tspan></text>
    <text
       fill="#000000"
       fill-opacity="0.6"
       xml:space="preserve"
       style="white-space:pre"
       font-family="Roboto"
       font-size="16px"
       font-weight="500"
       letter-spacing="0.15"
       id="text28"
       x="1192"
       y="550.78497"><tspan
         x="120"
         y="551.46899"
         id="tspan26">Content</tspan></text>
    <text
       fill="#000000"
       fill-opacity="0.6"
       xml:space="preserve"
       style="white-space:pre"
       font-family="Roboto"
       font-size="16px"
       font-weight="500"
       letter-spacing="0.15"
       id="text32"
       x="1192"
       y="550.78497"><tspan
         x="120"
         y="701.46899"
         id="tspan30">Badge: True</tspan></text>
    <rect
       x="570"
       y="354"
       width="328"
       height="404"
       rx="10"
       fill="#ffffff"
       id="rect34"
       style="filter:url(#Avatar__b)" />
    <text
       fill="#000000"
       fill-opacity="0.6"
       xml:space="preserve"
       style="white-space:pre;filter:url(#Avatar__b)"
       font-family="Roboto"
       font-size="14px"
       letter-spacing="0.15"
       id="text38"
       x="1192"
       y="550.78497"><tspan
         x="594"
         y="400.785"
         id="tspan36">Circle</tspan></text>
    <text
       fill="#000000"
       fill-opacity="0.6"
       xml:space="preserve"
       style="white-space:pre;filter:url(#Avatar__b)"
       font-family="Roboto"
       font-size="14px"
       letter-spacing="0.15"
       id="text42"
       x="1192"
       y="550.78497"><tspan
         x="594"
         y="550.78497"
         id="tspan40">Initials</tspan></text>
    <text
       fill="#000000"
       fill-opacity="0.6"
       xml:space="preserve"
       style="white-space:pre;filter:url(#Avatar__b)"
       font-family="Roboto"
       font-size="14px"
       letter-spacing="0.15"
       id="text46"
       x="1192"
       y="550.78497"><tspan
         x="704"
         y="400.785"
         id="tspan44">Rounded</tspan></text>
    <text
       fill="#000000"
       fill-opacity="0.6"
       xml:space="preserve"
       style="white-space:pre;filter:url(#Avatar__b)"
       font-family="Roboto"
       font-size="14px"
       letter-spacing="0.15"
       id="text50"
       x="1192"
       y="550.78497"><tspan
         x="704"
         y="550.78497"
         id="tspan48">Icon</tspan></text>
    <text
       fill="#000000"
       fill-opacity="0.6"
       xml:space="preserve"
       style="white-space:pre;filter:url(#Avatar__b)"
       font-family="Roboto"
       font-size="14px"
       letter-spacing="0.15"
       id="text54"
       x="1192"
       y="550.78497"><tspan
         x="814"
         y="400.785"
         id="tspan52">Square</tspan></text>
    <text
       fill="#000000"
       fill-opacity="0.6"
       xml:space="preserve"
       style="white-space:pre;filter:url(#Avatar__b)"
       font-family="Roboto"
       font-size="14px"
       letter-spacing="0.15"
       id="text58"
       x="1192"
       y="550.78497"><tspan
         x="814"
         y="550.78497"
         id="tspan56">Image</tspan></text>
    <rect
       x="948"
       y="354"
       width="328"
       height="404"
       rx="10"
       fill="#121212"
       id="rect102"
       style="filter:url(#Avatar__d)" />
    <text
       fill="#ffffff"
       fill-opacity="0.7"
       xml:space="preserve"
       style="white-space:pre;filter:url(#Avatar__d)"
       font-family="Roboto"
       font-size="14px"
       letter-spacing="0.15"
       id="text106"
       x="1192"
       y="550.78497"><tspan
         x="972"
         y="400.785"
         id="tspan104">Circle</tspan></text>
    <text
       fill="#ffffff"
       fill-opacity="0.7"
       xml:space="preserve"
       style="white-space:pre;filter:url(#Avatar__d)"
       font-family="Roboto"
       font-size="14px"
       letter-spacing="0.15"
       id="text110"
       x="1192"
       y="550.78497"><tspan
         x="972"
         y="550.78497"
         id="tspan108">Initials</tspan></text>
    <text
       fill="#ffffff"
       fill-opacity="0.7"
       xml:space="preserve"
       style="white-space:pre;filter:url(#Avatar__d)"
       font-family="Roboto"
       font-size="14px"
       letter-spacing="0.15"
       id="text114"
       x="1192"
       y="550.78497"><tspan
         x="1082"
         y="400.785"
         id="tspan112">Rounded</tspan></text>
    <text
       fill="#ffffff"
       fill-opacity="0.7"
       xml:space="preserve"
       style="white-space:pre;filter:url(#Avatar__d)"
       font-family="Roboto"
       font-size="14px"
       letter-spacing="0.15"
       id="text118"
       x="1192"
       y="550.78497"><tspan
         x="1082"
         y="550.78497"
         id="tspan116">Icon</tspan></text>
    <text
       fill="#ffffff"
       fill-opacity="0.7"
       xml:space="preserve"
       style="white-space:pre;filter:url(#Avatar__d)"
       font-family="Roboto"
       font-size="14px"
       letter-spacing="0.15"
       id="text122"
       x="1192"
       y="550.78497"><tspan
         x="1192"
         y="400.785"
         id="tspan120">Square</tspan></text>
    <text
       fill="#ffffff"
       fill-opacity="0.7"
       xml:space="preserve"
       style="white-space:pre;filter:url(#Avatar__d)"
       font-family="Roboto"
       font-size="14px"
       letter-spacing="0.15"
       id="text126"
       x="1192"
       y="550.78497"><tspan
         x="1192"
         y="550.78497"
         id="tspan124">Image</tspan></text>
    <path
       style="fill:none;stroke:#000000;stroke-width:1"
       d="M 1,2 V 2"
       id="path70" />
  </g>
</svg>
