<?xml version="1.0" encoding="UTF-8" standalone="no"?>
<!-- Created with Inkscape (http://www.inkscape.org/) -->

<svg
   width="10.58332mm"
   height="10.58332mm"
   viewBox="0 0 10.583319 10.58332"
   version="1.1"
   id="svg5"
   xml:space="preserve"
   xmlns="http://www.w3.org/2000/svg"
   xmlns:svg="http://www.w3.org/2000/svg"><defs
     id="defs2" /><g
     id="New_Layer_1652821306.7737465"
     style="display:inline"
     transform="translate(-16.139564,-304.36166)"><path
       fill="#757575"
       d="M 8,28 C 8,16.954 16.954,8 28,8 39.046,8 48,16.954 48,28 48,39.046 39.046,48 28,48 16.954,48 8,39.046 8,28 Z"
       id="path3246"
       transform="matrix(0.264583,0,0,0.264583,14.0229,302.245)" /><path
       fill="#121212"
       d="m 27.334,27.441 v 0.899 c 0,1.068 -0.133,2.025 -0.4,2.87 -0.267,0.847 -0.651,1.567 -1.152,2.16 a 4.998,4.998 0 0 1 -1.807,1.357 c -0.697,0.312 -1.478,0.468 -2.344,0.468 A 5.64,5.64 0 0 1 19.317,34.727 5.203,5.203 0 0 1 17.5,33.369 c -0.508,-0.592 -0.901,-1.312 -1.181,-2.158 -0.28,-0.846 -0.42,-1.803 -0.42,-2.871 v -0.899 c 0,-1.067 0.136,-2.021 0.41,-2.86 0.28,-0.847 0.674,-1.567 1.181,-2.16 a 5.062,5.062 0 0 1 1.807,-1.366 5.634,5.634 0 0 1 2.315,-0.47 c 0.866,0 1.647,0.157 2.343,0.47 a 4.951,4.951 0 0 1 1.807,1.367 c 0.508,0.592 0.895,1.312 1.162,2.158 0.274,0.84 0.41,1.794 0.41,2.861 z m -1.865,0.899 v -0.918 c 0,-0.846 -0.088,-1.595 -0.264,-2.246 -0.169,-0.651 -0.42,-1.198 -0.752,-1.64 a 3.243,3.243 0 0 0 -1.22,-1.007 c -0.476,-0.228 -1.016,-0.341 -1.621,-0.341 -0.586,0 -1.117,0.113 -1.592,0.341 a 3.37,3.37 0 0 0 -1.211,1.006 c -0.332,0.443 -0.59,0.99 -0.772,1.64 -0.182,0.652 -0.273,1.4 -0.273,2.247 v 0.918 c 0,0.853 0.091,1.608 0.273,2.265 0.183,0.651 0.443,1.202 0.782,1.65 a 3.45,3.45 0 0 0 1.22,1.007 3.634,3.634 0 0 0 1.592,0.341 c 0.612,0 1.156,-0.113 1.631,-0.341 a 3.184,3.184 0 0 0 1.201,-1.006 c 0.332,-0.45 0.583,-1 0.752,-1.65 0.17,-0.658 0.254,-1.413 0.254,-2.266 z m 10.072,1.084 h -3.8 V 27.89 h 3.8 c 0.735,0 1.331,-0.118 1.787,-0.352 0.455,-0.234 0.788,-0.56 0.996,-0.977 0.215,-0.416 0.322,-0.891 0.322,-1.425 a 3.03,3.03 0 0 0 -0.322,-1.377 c -0.208,-0.43 -0.54,-0.775 -0.996,-1.035 -0.456,-0.267 -1.052,-0.4 -1.787,-0.4 h -3.36 V 35 H 30.297 V 20.781 h 5.244 c 1.074,0 1.982,0.186 2.724,0.557 0.742,0.371 1.306,0.885 1.69,1.543 0.384,0.65 0.576,1.396 0.576,2.236 0,0.912 -0.192,1.69 -0.576,2.334 -0.384,0.645 -0.947,1.136 -1.69,1.475 -0.742,0.332 -1.65,0.498 -2.724,0.498 z"
       id="path3248"
       transform="matrix(0.264583,0,0,0.264583,14.0229,302.245)" /><rect
       width="12"
       height="12"
       x="36"
       y="36"
       fill="#121212"
       rx="6"
       id="rect3250"
       transform="matrix(0.264583,0,0,0.264583,14.0229,302.245)" /><path
       fill="#66bb6a"
       d="m 38,42 a 4,4 0 1 1 8,0 4,4 0 0 1 -8,0 z"
       id="path3252"
       transform="matrix(0.264583,0,0,0.264583,14.0229,302.245)" /></g></svg>
