<?xml version="1.0" encoding="UTF-8" standalone="no"?>
<!-- Created with Inkscape (http://www.inkscape.org/) -->

<svg
   width="10.58332mm"
   height="10.58332mm"
   viewBox="0 0 10.583319 10.58332"
   version="1.1"
   id="svg5"
   xml:space="preserve"
   xmlns="http://www.w3.org/2000/svg"
   xmlns:svg="http://www.w3.org/2000/svg"><defs
     id="defs2" /><g
     id="New_Layer_1652821306.7846942"
     style="display:inline"
     transform="translate(-78.5812,-304.362)"><path
       fill="#757575"
       d="M 0,0 H 40 V 40 H 0 Z"
       id="path3434"
       transform="matrix(0.264583,0,0,0.264583,78.5812,304.362)" /><path
       fill="#121212"
       d="m 20,20 c 2.21,0 4,-1.79 4,-4 0,-2.21 -1.79,-4 -4,-4 -2.21,0 -4,1.79 -4,4 0,2.21 1.79,4 4,4 z m 0,2 c -2.67,0 -8,1.34 -8,4 v 2 h 16 v -2 c 0,-2.66 -5.33,-4 -8,-4 z"
       id="path3436"
       transform="matrix(0.264583,0,0,0.264583,78.5812,304.362)" /></g></svg>
