<?xml version="1.0" encoding="UTF-8" standalone="no"?>
<!-- Created with Inkscape (http://www.inkscape.org/) -->

<svg
   width="10.58332mm"
   height="10.58332mm"
   viewBox="0 0 10.583319 10.58332"
   version="1.1"
   id="svg5"
   xml:space="preserve"
   xmlns="http://www.w3.org/2000/svg"
   xmlns:svg="http://www.w3.org/2000/svg"><defs
     id="defs2" /><g
     id="New_Layer_1652821306.7441556"
     style="display:inline"
     transform="translate(-0.529164,-35.465064)"><path
       fill="#bdbdbd"
       d="M 8,28 C 8,16.954 16.954,8 28,8 39.046,8 48,16.954 48,28 48,39.046 39.046,48 28,48 16.954,48 8,39.046 8,28 Z"
       id="path2575"
       transform="matrix(0.264583,0,0,0.264583,-1.5875,33.3484)" /><path
       fill="#ffffff"
       d="m 28,28 c 2.21,0 4,-1.79 4,-4 0,-2.21 -1.79,-4 -4,-4 -2.21,0 -4,1.79 -4,4 0,2.21 1.79,4 4,4 z m 0,2 c -2.67,0 -8,1.34 -8,4 v 2 h 16 v -2 c 0,-2.66 -5.33,-4 -8,-4 z"
       id="path2577"
       transform="matrix(0.264583,0,0,0.264583,-1.5875,33.3483)" /><rect
       width="12"
       height="12"
       x="36"
       y="36"
       fill="#ffffff"
       rx="6"
       id="rect2579"
       transform="matrix(0.264583,0,0,0.264583,-1.5875,33.3483)" /><path
       fill="#1976d2"
       d="m 38,42 a 4,4 0 1 1 8,0 4,4 0 0 1 -8,0 z"
       id="path2581"
       transform="matrix(0.264583,0,0,0.264583,-1.5875,33.3483)" /></g></svg>
