<?xml version="1.0" encoding="UTF-8" standalone="no"?>
<!-- Created with Inkscape (http://www.inkscape.org/) -->

<svg
   width="23.812571mm"
   height="11.641652mm"
   viewBox="0 0 23.81257 11.641652"
   version="1.1"
   id="svg5"
   xml:space="preserve"
   xmlns="http://www.w3.org/2000/svg"
   xmlns:svg="http://www.w3.org/2000/svg"><defs
     id="defs2" /><g
     id="New_Layer_1652821306.9147873"
     style="display:inline"
     transform="translate(-69.0562,-483.055)"><path
       fill="#757575"
       d="M 50,2 H 90 V 42 H 50 Z"
       id="path5788"
       transform="matrix(0.264583,0,0,0.264583,69.0563,483.055)" /><path
       fill="#121212"
       d="m 69.139,21.373 v 1.7 h -9.746 v -1.7 z m -3.965,-4.15 V 27.574 H 63.367 V 17.223 Z m 8.763,3.779 h 1.29 c 0.63,0 1.152,-0.104 1.562,-0.313 0.416,-0.214 0.726,-0.504 0.927,-0.869 a 2.51,2.51 0 0 0 0.313,-1.25 c 0,-0.547 -0.091,-1.006 -0.273,-1.377 a 1.83,1.83 0 0 0 -0.82,-0.84 c -0.365,-0.188 -0.828,-0.283 -1.388,-0.283 -0.507,0 -0.957,0.101 -1.347,0.303 a 2.216,2.216 0 0 0 -0.908,0.84 c -0.215,0.364 -0.323,0.794 -0.323,1.289 h -1.806 c 0,-0.723 0.182,-1.38 0.547,-1.973 a 3.933,3.933 0 0 1 1.533,-1.416 c 0.664,-0.351 1.432,-0.527 2.305,-0.527 0.859,0 1.61,0.153 2.255,0.459 a 3.36,3.36 0 0 1 1.504,1.348 c 0.358,0.592 0.537,1.331 0.537,2.216 0,0.358 -0.084,0.743 -0.254,1.153 -0.162,0.403 -0.42,0.781 -0.771,1.133 -0.345,0.351 -0.794,0.64 -1.348,0.869 -0.553,0.221 -1.217,0.332 -1.992,0.332 h -1.543 z m 0,1.484 v -1.084 h 1.543 c 0.905,0 1.654,0.108 2.246,0.323 0.593,0.214 1.058,0.5 1.397,0.859 a 3,3 0 0 1 0.722,1.182 c 0.144,0.423 0.215,0.846 0.215,1.27 0,0.663 -0.114,1.252 -0.342,1.767 -0.22,0.514 -0.537,0.95 -0.947,1.308 a 4.05,4.05 0 0 1 -1.426,0.81 5.62,5.62 0 0 1 -1.787,0.274 5.679,5.679 0 0 1 -1.748,-0.263 4.525,4.525 0 0 1 -1.435,-0.762 3.565,3.565 0 0 1 -0.977,-1.24 c -0.234,-0.495 -0.351,-1.058 -0.351,-1.69 h 1.806 c 0,0.495 0.108,0.928 0.323,1.3 0.22,0.37 0.533,0.66 0.937,0.868 0.41,0.202 0.892,0.303 1.445,0.303 0.554,0 1.029,-0.095 1.426,-0.283 0.404,-0.196 0.713,-0.489 0.928,-0.88 0.221,-0.39 0.332,-0.881 0.332,-1.474 0,-0.592 -0.124,-1.077 -0.371,-1.455 a 2.177,2.177 0 0 0 -1.055,-0.85 c -0.45,-0.188 -0.98,-0.283 -1.592,-0.283 z"
       id="path5790"
       transform="matrix(0.264583,0,0,0.264583,69.0562,483.055)" /><path
       fill="#757575"
       d="M 26,2 H 66 V 42 H 26 Z"
       id="path5792"
       transform="matrix(0.264583,0,0,0.264583,69.0562,483.055)" /><path
       fill="#121212"
       d="m 46,22 c 2.21,0 4,-1.79 4,-4 0,-2.21 -1.79,-4 -4,-4 -2.21,0 -4,1.79 -4,4 0,2.21 1.79,4 4,4 z m 0,2 c -2.67,0 -8,1.34 -8,4 v 2 h 16 v -2 c 0,-2.66 -5.33,-4 -8,-4 z M 26,2 V 0 h -2 v 2 z m 40,0 h 2 V 0 h -2 z m 0,40 v 2 h 2 v -2 z m -40,0 h -2 v 2 h 2 z M 26,4 H 66 V 0 H 26 Z M 64,2 v 40 h 4 V 2 Z m 2,38 H 26 v 4 H 66 Z M 28,42 V 2 h -4 v 40 z"
       id="path5794"
       transform="matrix(0.264583,0,0,0.264583,69.0562,483.055)" /><path
       fill="#757575"
       d="M 2,2 H 42 V 42 H 2 Z"
       id="path5796"
       transform="matrix(0.264583,0,0,0.264583,69.0562,483.055)" /><path
       fill="#121212"
       d="m 22,22 c 2.21,0 4,-1.79 4,-4 0,-2.21 -1.79,-4 -4,-4 -2.21,0 -4,1.79 -4,4 0,2.21 1.79,4 4,4 z m 0,2 c -2.67,0 -8,1.34 -8,4 v 2 h 16 v -2 c 0,-2.66 -5.33,-4 -8,-4 z M 2,2 V 0 H 0 v 2 z m 40,0 h 2 V 0 h -2 z m 0,40 v 2 h 2 V 42 Z M 2,42 H 0 v 2 H 2 Z M 2,4 H 42 V 0 H 2 Z M 40,2 v 40 h 4 V 2 Z m 2,38 H 2 v 4 H 42 Z M 4,42 V 2 H 0 v 40 z"
       id="path5798"
       transform="matrix(0.264583,0,0,0.264583,69.0562,483.055)" /></g></svg>
