<?xml version="1.0" encoding="UTF-8" standalone="no"?>
<!-- Created with Inkscape (http://www.inkscape.org/) -->

<svg
   width="31.220894mm"
   height="11.641652mm"
   viewBox="0 0 31.220893 11.641652"
   version="1.1"
   id="svg5"
   xml:space="preserve"
   xmlns="http://www.w3.org/2000/svg"
   xmlns:svg="http://www.w3.org/2000/svg"><defs
     id="defs2" /><g
     id="New_Layer_1652821306.950932"
     style="display:inline"
     transform="translate(-10.0541,-436.224)"><path
       fill="#757575"
       d="m 78,6 a 4,4 0 0 1 4,-4 h 32 a 4,4 0 0 1 4,4 v 32 a 4,4 0 0 1 -4,4 H 82 a 4,4 0 0 1 -4,-4 z"
       id="path6110"
       transform="matrix(0.264583,0,0,0.264583,10.0542,436.224)" /><path
       fill="#121212"
       d="m 97.139,21.373 v 1.7 h -9.746 v -1.7 z m -3.965,-4.15 V 27.574 H 91.368 V 17.223 Z m 8.763,3.779 h 1.289 c 0.632,0 1.153,-0.104 1.563,-0.313 0.416,-0.214 0.726,-0.504 0.927,-0.869 0.209,-0.37 0.313,-0.787 0.313,-1.25 0,-0.547 -0.091,-1.006 -0.273,-1.377 a 1.833,1.833 0 0 0 -0.821,-0.84 c -0.364,-0.188 -0.827,-0.283 -1.386,-0.283 -0.508,0 -0.958,0.101 -1.348,0.303 a 2.215,2.215 0 0 0 -0.908,0.84 c -0.215,0.364 -0.323,0.794 -0.323,1.289 h -1.806 c 0,-0.723 0.182,-1.38 0.547,-1.973 a 3.929,3.929 0 0 1 1.533,-1.416 c 0.664,-0.351 1.432,-0.527 2.305,-0.527 0.859,0 1.611,0.153 2.255,0.459 a 3.36,3.36 0 0 1 1.504,1.348 c 0.358,0.592 0.537,1.331 0.537,2.216 0,0.358 -0.084,0.743 -0.254,1.153 a 3.388,3.388 0 0 1 -0.771,1.133 c -0.345,0.351 -0.794,0.64 -1.348,0.869 -0.553,0.221 -1.217,0.332 -1.992,0.332 h -1.543 z m 0,1.484 v -1.084 h 1.543 c 0.905,0 1.654,0.108 2.246,0.323 0.593,0.214 1.058,0.5 1.397,0.859 a 3,3 0 0 1 0.722,1.182 c 0.144,0.423 0.215,0.846 0.215,1.27 0,0.663 -0.114,1.252 -0.342,1.767 a 3.6,3.6 0 0 1 -0.947,1.308 4.045,4.045 0 0 1 -1.426,0.81 5.613,5.613 0 0 1 -1.787,0.274 5.68,5.68 0 0 1 -1.748,-0.263 4.518,4.518 0 0 1 -1.435,-0.762 3.563,3.563 0 0 1 -0.977,-1.24 c -0.234,-0.495 -0.351,-1.058 -0.351,-1.69 h 1.806 c 0,0.495 0.108,0.928 0.322,1.3 0.222,0.37 0.534,0.66 0.938,0.868 0.41,0.202 0.892,0.303 1.445,0.303 0.554,0 1.029,-0.095 1.426,-0.283 0.404,-0.196 0.713,-0.489 0.928,-0.88 0.221,-0.39 0.332,-0.881 0.332,-1.474 0,-0.592 -0.124,-1.077 -0.371,-1.455 a 2.18,2.18 0 0 0 -1.055,-0.85 c -0.449,-0.188 -0.98,-0.283 -1.592,-0.283 z"
       id="path6112"
       transform="matrix(0.264583,0,0,0.264583,10.0541,436.224)" /><path
       fill="#757575"
       d="m 40,6 a 4,4 0 0 1 4,-4 h 32 a 4,4 0 0 1 4,4 v 32 a 4,4 0 0 1 -4,4 H 44 a 4,4 0 0 1 -4,-4 z"
       id="path6114"
       transform="matrix(0.264583,0,0,0.264583,10.0541,436.224)" /><path
       fill="#121212"
       d="m 60,22 c 2.21,0 4,-1.79 4,-4 0,-2.21 -1.79,-4 -4,-4 -2.21,0 -4,1.79 -4,4 0,2.21 1.79,4 4,4 z m 0,2 c -2.67,0 -8,1.34 -8,4 v 2 h 16 v -2 c 0,-2.66 -5.33,-4 -8,-4 z M 44,4 H 76 V 0 H 44 Z m 34,2 v 32 h 4 V 6 Z M 76,40 H 44 v 4 H 76 Z M 42,38 V 6 h -4 v 32 z m 2,2 a 2,2 0 0 1 -2,-2 h -4 a 6,6 0 0 0 6,6 z m 34,-2 a 2,2 0 0 1 -2,2 v 4 a 6,6 0 0 0 6,-6 z M 76,4 a 2,2 0 0 1 2,2 h 4 A 6,6 0 0 0 76,0 Z M 44,0 a 6,6 0 0 0 -6,6 h 4 a 2,2 0 0 1 2,-2 z"
       id="path6116"
       transform="matrix(0.264583,0,0,0.264583,10.0541,436.224)" /><path
       fill="#757575"
       d="M 2,6 A 4,4 0 0 1 6,2 h 32 a 4,4 0 0 1 4,4 v 32 a 4,4 0 0 1 -4,4 H 6 A 4,4 0 0 1 2,38 Z"
       id="path6118"
       transform="matrix(0.264583,0,0,0.264583,10.0541,436.224)" /><path
       fill="#121212"
       d="m 22,22 c 2.21,0 4,-1.79 4,-4 0,-2.21 -1.79,-4 -4,-4 -2.21,0 -4,1.79 -4,4 0,2.21 1.79,4 4,4 z m 0,2 c -2.67,0 -8,1.34 -8,4 v 2 h 16 v -2 c 0,-2.66 -5.33,-4 -8,-4 z M 6,4 H 38 V 0 H 6 Z m 34,2 v 32 h 4 V 6 Z M 38,40 H 6 v 4 H 38 Z M 4,38 V 6 H 0 v 32 z m 2,2 A 2,2 0 0 1 4,38 H 0 a 6,6 0 0 0 6,6 z m 34,-2 a 2,2 0 0 1 -2,2 v 4 a 6,6 0 0 0 6,-6 z M 38,4 a 2,2 0 0 1 2,2 h 4 A 6,6 0 0 0 38,0 Z M 6,0 A 6,6 0 0 0 0,6 H 4 A 2,2 0 0 1 6,4 Z"
       id="path6120"
       transform="matrix(0.264583,0,0,0.264583,10.0541,436.224)" /></g></svg>
