<?xml version="1.0" encoding="UTF-8" standalone="no"?>
<svg
   width="320"
   height="76"
   fill="none"
   version="1.1"
   id="svg253"
   xmlns="http://www.w3.org/2000/svg"
   xmlns:svg="http://www.w3.org/2000/svg">
  <defs
     id="defs251" />
  <g
     id="New_Layer_1653319471.472995"
     style="display:inline"
     transform="translate(-1012,-723)">
    <path
       d="m 1012,727 a 4,4 0 0 1 4,-4 h 312 a 4,4 0 0 1 4,4 v 68 a 4,4 0 0 1 -4,4 h -312 a 4,4 0 0 1 -4,-4 z"
       fill="#f44336"
       id="path160" />
    <path
       d="m 1038.08,749.75 h 1.84 v 1.833 h -1.84 z m 0,-7.333 h 1.84 v 5.5 h -1.84 z m 0.91,-4.584 c -5.06,0 -9.16,4.107 -9.16,9.167 0,5.06 4.1,9.167 9.16,9.167 5.07,0 9.18,-4.107 9.18,-9.167 0,-5.06 -4.11,-9.167 -9.18,-9.167 z m 0.01,16.5 a 7.329,7.329 0 0 1 -7.33,-7.333 7.329,7.329 0 0 1 7.33,-7.333 c 4.05,0 7.33,3.281 7.33,7.333 a 7.329,7.329 0 0 1 -7.33,7.333 z"
       fill="#ffffff"
       id="path162" />
    <text
       fill="#ffffff"
       xml:space="preserve"
       style="white-space:pre"
       font-family="Roboto"
       font-size="16px"
       font-weight="500"
       letter-spacing="0.15"
       id="text166"
       x="1234"
       y="751.44299"><tspan
         x="1062"
         y="754.46899"
         id="tspan164">Title</tspan></text>
    <text
       fill="#ffffff"
       xml:space="preserve"
       style="white-space:pre"
       font-family="Roboto"
       font-size="14px"
       letter-spacing="0.17"
       id="text170"
       x="1234"
       y="751.44299"><tspan
         x="1062"
         y="779.78497"
         id="tspan168">Alert content</tspan></text>
    <text
       fill="#ffffff"
       xml:space="preserve"
       style="white-space:pre"
       font-family="Roboto"
       font-size="13px"
       font-weight="500"
       letter-spacing="0.46"
       id="text174"
       x="1234"
       y="751.44299"><tspan
         x="1234"
         y="751.44299"
         id="tspan172">ACTION</tspan></text>
    <path
       d="m 1307.83,742.342 -1.17,-1.175 -4.66,4.658 -4.66,-4.658 -1.17,1.175 4.65,4.658 -4.65,4.658 1.17,1.175 4.66,-4.658 4.66,4.658 1.17,-1.175 -4.66,-4.658 z"
       fill="#ffffff"
       id="path176" />
  </g>
</svg>
