<?xml version="1.0" encoding="UTF-8" standalone="no"?>
<svg
   width="320"
   height="48"
   fill="none"
   version="1.1"
   id="svg253"
   xmlns="http://www.w3.org/2000/svg"
   xmlns:svg="http://www.w3.org/2000/svg">
  <defs
     id="defs251" />
  <g
     id="New_Layer_1653319471.4770427"
     style="display:inline"
     transform="translate(-1012,-993)">
    <path
       d="m 1012,997 a 4,4 0 0 1 4,-4 h 312 a 4,4 0 0 1 4,4 v 40 c 0,2.21 -1.79,4 -4,4 h -312 c -2.21,0 -4,-1.79 -4,-4 z"
       fill="#29b6f6"
       id="path196" />
    <path
       d="m 1038.08,1012.42 h 1.84 v 1.83 h -1.84 z m 0,3.66 h 1.84 v 5.5 h -1.84 z m 0.92,-8.25 c -5.06,0 -9.17,4.11 -9.17,9.17 0,5.06 4.11,9.17 9.17,9.17 5.06,0 9.17,-4.11 9.17,-9.17 0,-5.06 -4.11,-9.17 -9.17,-9.17 z m 0,16.5 c -4.04,0 -7.33,-3.29 -7.33,-7.33 0,-4.04 3.29,-7.33 7.33,-7.33 4.04,0 7.33,3.29 7.33,7.33 0,4.04 -3.29,7.33 -7.33,7.33 z"
       fill="#ffffff"
       id="path198" />
    <text
       fill="#ffffff"
       xml:space="preserve"
       style="white-space:pre"
       font-family="Roboto"
       font-size="14px"
       letter-spacing="0.17"
       id="text202"
       x="1062"
       y="1021.79"><tspan
         x="1062"
         y="1021.79"
         id="tspan200">Info</tspan></text>
  </g>
</svg>
