<?xml version="1.0" encoding="UTF-8" standalone="no"?>
<svg
   width="320"
   height="48"
   fill="none"
   version="1.1"
   id="svg253"
   xmlns="http://www.w3.org/2000/svg"
   xmlns:svg="http://www.w3.org/2000/svg">
  <defs
     id="defs251" />
  <g
     id="New_Layer_1653319471.4780114"
     style="display:inline"
     transform="translate(-1012,-1065)">
    <path
       d="m 1012,1069 c 0,-2.21 1.79,-4 4,-4 h 312 c 2.21,0 4,1.79 4,4 v 40 c 0,2.21 -1.79,4 -4,4 h -312 c -2.21,0 -4,-1.79 -4,-4 z"
       fill="#66bb6a"
       id="path204" />
    <path
       d="m 1043.21,1084.95 -6.04,6.04 -3.29,-3.28 -1.3,1.29 4.59,4.58 7.33,-7.33 z m -4.21,-5.12 c -5.06,0 -9.17,4.11 -9.17,9.17 0,5.06 4.11,9.17 9.17,9.17 5.06,0 9.17,-4.11 9.17,-9.17 0,-5.06 -4.11,-9.17 -9.17,-9.17 z m 0,16.5 c -4.05,0 -7.33,-3.28 -7.33,-7.33 0,-4.05 3.28,-7.33 7.33,-7.33 4.05,0 7.33,3.28 7.33,7.33 0,4.05 -3.28,7.33 -7.33,7.33 z"
       fill="#ffffff"
       id="path206" />
    <text
       fill="#ffffff"
       xml:space="preserve"
       style="white-space:pre"
       font-family="Roboto"
       font-size="14px"
       letter-spacing="0.17"
       id="text210"
       x="1062"
       y="1093.79"><tspan
         x="1062"
         y="1093.79"
         id="tspan208">Success</tspan></text>
  </g>
</svg>
