<?xml version="1.0" encoding="UTF-8" standalone="no"?>
<!-- Created with Inkscape (http://www.inkscape.org/) -->

<svg
   width="85.195724mm"
   height="13.22915mm"
   viewBox="0 0 85.195724 13.22915"
   version="1.1"
   id="svg5"
   xmlns="http://www.w3.org/2000/svg"
   xmlns:svg="http://www.w3.org/2000/svg">
  <defs
     id="defs2" />
  <g
     id="New_Layer_1652788060.5075932"
     style="display:inline"
     transform="translate(-123.40842,-289.72542)">
    <path
       fill="#2e7d32"
       d="M 31.207,19.948 25.167,25.989 21.876,22.707 20.583,24 25.167,28.583 32.5,21.25 Z M 27,14.833 c -5.06,0 -9.167,4.107 -9.167,9.167 0,5.06 4.107,9.167 9.167,9.167 5.06,0 9.167,-4.107 9.167,-9.167 0,-5.06 -4.107,-9.167 -9.167,-9.167 z m 0,16.5 A 7.331,7.331 0 0 1 19.667,24 7.331,7.331 0 0 1 27,16.667 7.331,7.331 0 0 1 34.333,24 7.331,7.331 0 0 1 27,31.333 Z M 54.84,19.929 51.545,29 h -1.347 l 3.794,-9.953 H 54.86 Z M 57.602,29 54.3,19.929 54.28,19.047 h 0.867 L 58.956,29 h -1.353 z m -0.171,-3.685 v 1.08 h -5.592 v -1.08 z M 61.641,18.5 V 29 H 60.369 V 18.5 Z m 5.27,10.637 a 3.64,3.64 0 0 1 -1.402,-0.26 3.179,3.179 0 0 1 -1.073,-0.745 3.314,3.314 0 0 1 -0.684,-1.135 4.162,4.162 0 0 1 -0.24,-1.436 v -0.287 c 0,-0.601 0.09,-1.137 0.267,-1.606 0.178,-0.474 0.42,-0.875 0.725,-1.203 a 3.104,3.104 0 0 1 1.04,-0.745 2.985,2.985 0 0 1 1.202,-0.253 c 0.529,0 0.985,0.09 1.367,0.273 0.388,0.183 0.704,0.438 0.95,0.766 0.247,0.323 0.429,0.706 0.547,1.148 0.119,0.438 0.178,0.916 0.178,1.436 v 0.567 h -5.523 v -1.032 h 4.259 v -0.096 a 3.153,3.153 0 0 0 -0.206,-0.957 1.72,1.72 0 0 0 -0.546,-0.765 c -0.251,-0.2 -0.593,-0.301 -1.026,-0.301 a 1.722,1.722 0 0 0 -1.415,0.718 2.685,2.685 0 0 0 -0.403,0.868 4.4,4.4 0 0 0 -0.144,1.182 v 0.287 c 0,0.351 0.048,0.682 0.144,0.992 0.1,0.305 0.244,0.574 0.43,0.806 0.192,0.233 0.422,0.415 0.691,0.547 0.273,0.132 0.583,0.199 0.93,0.199 0.446,0 0.825,-0.092 1.134,-0.274 A 2.81,2.81 0 0 0 68.927,27.1 l 0.765,0.608 a 3.486,3.486 0 0 1 -0.608,0.69 c -0.246,0.22 -0.549,0.397 -0.909,0.534 -0.355,0.136 -0.777,0.205 -1.265,0.205 z m 5.788,-6.371 V 29 h -1.264 v -7.396 h 1.23 z m 2.311,-1.203 -0.007,1.175 a 1.82,1.82 0 0 0 -0.3,-0.04 3.202,3.202 0 0 0 -0.315,-0.014 c -0.292,0 -0.55,0.045 -0.773,0.136 a 1.602,1.602 0 0 0 -0.567,0.383 c -0.155,0.164 -0.278,0.36 -0.37,0.588 -0.086,0.223 -0.143,0.47 -0.17,0.738 l -0.355,0.205 c 0,-0.446 0.043,-0.866 0.13,-1.257 a 3.42,3.42 0 0 1 0.416,-1.04 c 0.187,-0.305 0.424,-0.542 0.711,-0.71 0.292,-0.174 0.638,-0.26 1.04,-0.26 0.09,0 0.195,0.011 0.314,0.034 0.118,0.018 0.2,0.039 0.246,0.061 z m 4.777,0.04 v 0.971 h -3.999 v -0.97 h 4 z m -2.645,-1.797 h 1.265 v 7.362 c 0,0.25 0.038,0.44 0.116,0.567 a 0.555,0.555 0 0 0 0.3,0.253 c 0.124,0.041 0.256,0.062 0.397,0.062 0.105,0 0.214,-0.01 0.328,-0.027 0.119,-0.023 0.207,-0.042 0.267,-0.055 L 79.822,29 c -0.1,0.032 -0.233,0.061 -0.397,0.089 -0.16,0.032 -0.353,0.048 -0.58,0.048 A 1.97,1.97 0 0 1 77.99,28.952 1.374,1.374 0 0 1 77.368,28.337 c -0.15,-0.292 -0.226,-0.684 -0.226,-1.176 z m 10.901,8.292 c 0.301,0 0.58,-0.062 0.834,-0.185 0.256,-0.123 0.465,-0.292 0.63,-0.506 0.163,-0.218 0.257,-0.467 0.28,-0.745 h 1.203 a 2.253,2.253 0 0 1 -0.445,1.224 3.034,3.034 0 0 1 -1.06,0.909 3.075,3.075 0 0 1 -1.442,0.342 c -0.556,0 -1.04,-0.098 -1.456,-0.294 A 2.886,2.886 0 0 1 85.562,28.036 3.603,3.603 0 0 1 84.954,26.86 4.961,4.961 0 0 1 84.755,25.445 v -0.287 c 0,-0.497 0.066,-0.966 0.199,-1.408 0.136,-0.447 0.34,-0.84 0.608,-1.183 a 2.89,2.89 0 0 1 1.025,-0.806 c 0.415,-0.196 0.9,-0.294 1.456,-0.294 0.58,0 1.085,0.118 1.518,0.355 0.433,0.233 0.772,0.552 1.019,0.957 0.25,0.401 0.387,0.857 0.41,1.367 h -1.203 a 1.822,1.822 0 0 0 -0.26,-0.827 1.62,1.62 0 0 0 -0.602,-0.588 1.682,1.682 0 0 0 -0.882,-0.225 c -0.387,0 -0.713,0.077 -0.977,0.232 -0.26,0.15 -0.467,0.356 -0.622,0.616 -0.15,0.255 -0.26,0.54 -0.328,0.854 a 4.7,4.7 0 0 0 -0.096,0.95 v 0.287 c 0,0.324 0.032,0.643 0.096,0.957 0.064,0.315 0.17,0.6 0.321,0.855 0.155,0.255 0.362,0.46 0.622,0.615 0.264,0.15 0.593,0.226 0.984,0.226 z m 4.204,-2.714 v -0.157 c 0,-0.534 0.077,-1.028 0.232,-1.484 a 3.52,3.52 0 0 1 0.67,-1.196 2.988,2.988 0 0 1 1.06,-0.793 3.29,3.29 0 0 1 1.394,-0.287 c 0.52,0 0.987,0.096 1.401,0.287 0.42,0.187 0.775,0.451 1.067,0.793 0.296,0.337 0.522,0.736 0.677,1.196 0.155,0.456 0.232,0.95 0.232,1.484 v 0.157 c 0,0.533 -0.077,1.027 -0.232,1.483 a 3.55,3.55 0 0 1 -0.677,1.197 3.101,3.101 0 0 1 -1.06,0.792 c -0.41,0.187 -0.875,0.28 -1.394,0.28 -0.52,0 -0.987,-0.093 -1.402,-0.28 a 3.171,3.171 0 0 1 -1.066,-0.793 3.612,3.612 0 0 1 -0.67,-1.196 4.579,4.579 0 0 1 -0.232,-1.483 z m 1.264,-0.157 v 0.157 c 0,0.369 0.044,0.718 0.13,1.046 0.087,0.323 0.217,0.61 0.39,0.861 0.178,0.25 0.399,0.449 0.663,0.595 0.264,0.141 0.572,0.212 0.923,0.212 0.346,0 0.65,-0.071 0.909,-0.212 0.264,-0.146 0.483,-0.344 0.656,-0.595 0.173,-0.25 0.303,-0.538 0.39,-0.861 a 3.89,3.89 0 0 0 0.137,-1.046 v -0.157 a 3.79,3.79 0 0 0 -0.137,-1.033 2.658,2.658 0 0 0 -0.397,-0.868 1.885,1.885 0 0 0 -0.656,-0.601 1.841,1.841 0 0 0 -0.916,-0.22 c -0.346,0 -0.652,0.074 -0.916,0.22 -0.26,0.145 -0.478,0.346 -0.656,0.601 -0.173,0.25 -0.303,0.54 -0.39,0.868 a 4.01,4.01 0 0 0 -0.13,1.033 z m 8.49,-2.044 V 29 h -1.265 v -7.396 h 1.196 z m -0.301,1.838 -0.527,-0.02 c 0.005,-0.506 0.08,-0.973 0.226,-1.401 0.146,-0.433 0.351,-0.81 0.615,-1.128 a 2.746,2.746 0 0 1 2.167,-1.005 c 0.365,0 0.693,0.05 0.985,0.15 0.291,0.096 0.54,0.25 0.745,0.465 0.209,0.214 0.369,0.492 0.478,0.834 0.11,0.337 0.164,0.75 0.164,1.237 V 29 h -1.271 v -4.86 c 0,-0.388 -0.057,-0.698 -0.171,-0.93 a 1.05,1.05 0 0 0 -0.499,-0.513 c -0.219,-0.11 -0.488,-0.164 -0.807,-0.164 -0.314,0 -0.601,0.066 -0.861,0.198 a 2.065,2.065 0 0 0 -0.663,0.547 2.763,2.763 0 0 0 -0.581,1.744 z m 10.041,-3.418 v 0.971 h -3.999 v -0.97 h 3.999 z m -2.646,-1.797 h 1.265 v 7.362 c 0,0.25 0.039,0.44 0.116,0.567 a 0.558,0.558 0 0 0 0.301,0.253 c 0.123,0.041 0.255,0.062 0.397,0.062 0.104,0 0.214,-0.01 0.328,-0.027 0.118,-0.023 0.207,-0.042 0.266,-0.055 L 111.775,29 c -0.1,0.032 -0.232,0.061 -0.396,0.089 -0.16,0.032 -0.354,0.048 -0.581,0.048 -0.31,0 -0.595,-0.062 -0.855,-0.185 a 1.373,1.373 0 0 1 -0.622,-0.615 c -0.15,-0.292 -0.226,-0.684 -0.226,-1.176 z m 7.369,9.33 c -0.515,0 -0.982,-0.086 -1.402,-0.259 a 3.187,3.187 0 0 1 -1.073,-0.745 3.326,3.326 0 0 1 -0.684,-1.135 4.174,4.174 0 0 1 -0.239,-1.436 v -0.287 c 0,-0.601 0.089,-1.137 0.267,-1.606 a 3.6,3.6 0 0 1 0.724,-1.203 3.114,3.114 0 0 1 1.039,-0.745 2.99,2.99 0 0 1 1.204,-0.253 c 0.528,0 0.984,0.09 1.367,0.273 0.387,0.183 0.704,0.438 0.95,0.766 0.246,0.323 0.428,0.706 0.547,1.148 a 5.5,5.5 0 0 1 0.178,1.436 v 0.567 h -5.524 v -1.032 h 4.259 v -0.096 a 3.162,3.162 0 0 0 -0.205,-0.957 1.72,1.72 0 0 0 -0.547,-0.765 c -0.251,-0.2 -0.592,-0.301 -1.025,-0.301 a 1.72,1.72 0 0 0 -1.415,0.718 2.675,2.675 0 0 0 -0.404,0.868 4.43,4.43 0 0 0 -0.143,1.182 v 0.287 c 0,0.351 0.048,0.682 0.143,0.992 0.101,0.305 0.244,0.574 0.431,0.806 0.191,0.233 0.421,0.415 0.69,0.547 0.274,0.132 0.584,0.199 0.93,0.199 0.447,0 0.825,-0.092 1.135,-0.274 A 2.8,2.8 0 0 0 118.48,27.1 l 0.766,0.608 c -0.16,0.242 -0.362,0.472 -0.608,0.69 -0.247,0.22 -0.55,0.397 -0.91,0.534 -0.355,0.136 -0.777,0.205 -1.264,0.205 z m 5.789,-5.953 V 29 h -1.265 v -7.396 h 1.196 z m -0.301,1.838 -0.526,-0.02 c 0.004,-0.506 0.079,-0.973 0.225,-1.401 0.146,-0.433 0.351,-0.81 0.615,-1.128 a 2.746,2.746 0 0 1 2.167,-1.005 c 0.365,0 0.693,0.05 0.985,0.15 0.292,0.096 0.54,0.25 0.745,0.465 0.21,0.214 0.369,0.492 0.478,0.834 0.11,0.337 0.165,0.75 0.165,1.237 V 29 h -1.272 v -4.86 c 0,-0.388 -0.057,-0.698 -0.171,-0.93 a 1.05,1.05 0 0 0 -0.499,-0.513 c -0.219,-0.11 -0.487,-0.164 -0.806,-0.164 -0.315,0 -0.602,0.066 -0.862,0.198 a 2.065,2.065 0 0 0 -0.663,0.547 2.763,2.763 0 0 0 -0.581,1.744 z m 10.041,-3.418 v 0.971 h -3.999 v -0.97 h 3.999 z m -2.645,-1.797 h 1.264 v 7.362 c 0,0.25 0.039,0.44 0.116,0.567 a 0.558,0.558 0 0 0 0.301,0.253 c 0.123,0.041 0.255,0.062 0.397,0.062 0.105,0 0.214,-0.01 0.328,-0.027 0.118,-0.023 0.207,-0.042 0.266,-0.055 L 132.027,29 c -0.1,0.032 -0.232,0.061 -0.396,0.089 -0.16,0.032 -0.353,0.048 -0.581,0.048 -0.31,0 -0.595,-0.062 -0.855,-0.185 a 1.378,1.378 0 0 1 -0.622,-0.615 c -0.15,-0.292 -0.225,-0.684 -0.225,-1.176 z"
       id="path2839"
       transform="matrix(0.264583,0,0,0.264583,123.674,289.99)" />
    <path
       fill="#000000"
       fill-opacity="0.6"
       d="M 54.84,19.929 51.545,29 h -1.347 l 3.794,-9.953 H 54.86 Z M 57.602,29 54.3,19.929 54.28,19.047 h 0.867 L 58.956,29 h -1.353 z m -0.171,-3.685 v 1.08 h -5.592 v -1.08 z M 61.641,18.5 V 29 H 60.369 V 18.5 Z m 5.27,10.637 a 3.64,3.64 0 0 1 -1.402,-0.26 3.179,3.179 0 0 1 -1.073,-0.745 3.314,3.314 0 0 1 -0.684,-1.135 4.162,4.162 0 0 1 -0.24,-1.436 v -0.287 c 0,-0.601 0.09,-1.137 0.267,-1.606 0.178,-0.474 0.42,-0.875 0.725,-1.203 a 3.104,3.104 0 0 1 1.04,-0.745 2.985,2.985 0 0 1 1.202,-0.253 c 0.529,0 0.985,0.09 1.367,0.273 0.388,0.183 0.704,0.438 0.95,0.766 0.247,0.323 0.429,0.706 0.547,1.148 0.119,0.438 0.178,0.916 0.178,1.436 v 0.567 h -5.523 v -1.032 h 4.259 v -0.096 a 3.153,3.153 0 0 0 -0.206,-0.957 1.72,1.72 0 0 0 -0.546,-0.765 c -0.251,-0.2 -0.593,-0.301 -1.026,-0.301 a 1.722,1.722 0 0 0 -1.415,0.718 2.685,2.685 0 0 0 -0.403,0.868 4.4,4.4 0 0 0 -0.144,1.182 v 0.287 c 0,0.351 0.048,0.682 0.144,0.992 0.1,0.305 0.244,0.574 0.43,0.806 0.192,0.233 0.422,0.415 0.691,0.547 0.273,0.132 0.583,0.199 0.93,0.199 0.446,0 0.825,-0.092 1.134,-0.274 A 2.81,2.81 0 0 0 68.927,27.1 l 0.765,0.608 a 3.486,3.486 0 0 1 -0.608,0.69 c -0.246,0.22 -0.549,0.397 -0.909,0.534 -0.355,0.136 -0.777,0.205 -1.265,0.205 z m 5.788,-6.371 V 29 h -1.264 v -7.396 h 1.23 z m 2.311,-1.203 -0.007,1.175 a 1.82,1.82 0 0 0 -0.3,-0.04 3.202,3.202 0 0 0 -0.315,-0.014 c -0.292,0 -0.55,0.045 -0.773,0.136 a 1.602,1.602 0 0 0 -0.567,0.383 c -0.155,0.164 -0.278,0.36 -0.37,0.588 -0.086,0.223 -0.143,0.47 -0.17,0.738 l -0.355,0.205 c 0,-0.446 0.043,-0.866 0.13,-1.257 a 3.42,3.42 0 0 1 0.416,-1.04 c 0.187,-0.305 0.424,-0.542 0.711,-0.71 0.292,-0.174 0.638,-0.26 1.04,-0.26 0.09,0 0.195,0.011 0.314,0.034 0.118,0.018 0.2,0.039 0.246,0.061 z m 4.777,0.04 v 0.971 h -3.999 v -0.97 h 4 z m -2.645,-1.797 h 1.265 v 7.362 c 0,0.25 0.038,0.44 0.116,0.567 a 0.555,0.555 0 0 0 0.3,0.253 c 0.124,0.041 0.256,0.062 0.397,0.062 0.105,0 0.214,-0.01 0.328,-0.027 0.119,-0.023 0.207,-0.042 0.267,-0.055 L 79.822,29 c -0.1,0.032 -0.233,0.061 -0.397,0.089 -0.16,0.032 -0.353,0.048 -0.58,0.048 A 1.97,1.97 0 0 1 77.99,28.952 1.374,1.374 0 0 1 77.368,28.337 c -0.15,-0.292 -0.226,-0.684 -0.226,-1.176 z m 10.901,8.292 c 0.301,0 0.58,-0.062 0.834,-0.185 0.256,-0.123 0.465,-0.292 0.63,-0.506 0.163,-0.218 0.257,-0.467 0.28,-0.745 h 1.203 a 2.253,2.253 0 0 1 -0.445,1.224 3.034,3.034 0 0 1 -1.06,0.909 3.075,3.075 0 0 1 -1.442,0.342 c -0.556,0 -1.04,-0.098 -1.456,-0.294 A 2.886,2.886 0 0 1 85.562,28.036 3.603,3.603 0 0 1 84.954,26.86 4.961,4.961 0 0 1 84.755,25.445 v -0.287 c 0,-0.497 0.066,-0.966 0.199,-1.408 0.136,-0.447 0.34,-0.84 0.608,-1.183 a 2.89,2.89 0 0 1 1.025,-0.806 c 0.415,-0.196 0.9,-0.294 1.456,-0.294 0.58,0 1.085,0.118 1.518,0.355 0.433,0.233 0.772,0.552 1.019,0.957 0.25,0.401 0.387,0.857 0.41,1.367 h -1.203 a 1.822,1.822 0 0 0 -0.26,-0.827 1.62,1.62 0 0 0 -0.602,-0.588 1.682,1.682 0 0 0 -0.882,-0.225 c -0.387,0 -0.713,0.077 -0.977,0.232 -0.26,0.15 -0.467,0.356 -0.622,0.616 -0.15,0.255 -0.26,0.54 -0.328,0.854 a 4.7,4.7 0 0 0 -0.096,0.95 v 0.287 c 0,0.324 0.032,0.643 0.096,0.957 0.064,0.315 0.17,0.6 0.321,0.855 0.155,0.255 0.362,0.46 0.622,0.615 0.264,0.15 0.593,0.226 0.984,0.226 z m 4.204,-2.714 v -0.157 c 0,-0.534 0.077,-1.028 0.232,-1.484 a 3.52,3.52 0 0 1 0.67,-1.196 2.988,2.988 0 0 1 1.06,-0.793 3.29,3.29 0 0 1 1.394,-0.287 c 0.52,0 0.987,0.096 1.401,0.287 0.42,0.187 0.775,0.451 1.067,0.793 0.296,0.337 0.522,0.736 0.677,1.196 0.155,0.456 0.232,0.95 0.232,1.484 v 0.157 c 0,0.533 -0.077,1.027 -0.232,1.483 a 3.55,3.55 0 0 1 -0.677,1.197 3.101,3.101 0 0 1 -1.06,0.792 c -0.41,0.187 -0.875,0.28 -1.394,0.28 -0.52,0 -0.987,-0.093 -1.402,-0.28 a 3.171,3.171 0 0 1 -1.066,-0.793 3.612,3.612 0 0 1 -0.67,-1.196 4.579,4.579 0 0 1 -0.232,-1.483 z m 1.264,-0.157 v 0.157 c 0,0.369 0.044,0.718 0.13,1.046 0.087,0.323 0.217,0.61 0.39,0.861 0.178,0.25 0.399,0.449 0.663,0.595 0.264,0.141 0.572,0.212 0.923,0.212 0.346,0 0.65,-0.071 0.909,-0.212 0.264,-0.146 0.483,-0.344 0.656,-0.595 0.173,-0.25 0.303,-0.538 0.39,-0.861 a 3.89,3.89 0 0 0 0.137,-1.046 v -0.157 a 3.79,3.79 0 0 0 -0.137,-1.033 2.658,2.658 0 0 0 -0.397,-0.868 1.885,1.885 0 0 0 -0.656,-0.601 1.841,1.841 0 0 0 -0.916,-0.22 c -0.346,0 -0.652,0.074 -0.916,0.22 -0.26,0.145 -0.478,0.346 -0.656,0.601 -0.173,0.25 -0.303,0.54 -0.39,0.868 a 4.01,4.01 0 0 0 -0.13,1.033 z m 8.49,-2.044 V 29 h -1.265 v -7.396 h 1.196 z m -0.301,1.838 -0.527,-0.02 c 0.005,-0.506 0.08,-0.973 0.226,-1.401 0.146,-0.433 0.351,-0.81 0.615,-1.128 a 2.746,2.746 0 0 1 2.167,-1.005 c 0.365,0 0.693,0.05 0.985,0.15 0.291,0.096 0.54,0.25 0.745,0.465 0.209,0.214 0.369,0.492 0.478,0.834 0.11,0.337 0.164,0.75 0.164,1.237 V 29 h -1.271 v -4.86 c 0,-0.388 -0.057,-0.698 -0.171,-0.93 a 1.05,1.05 0 0 0 -0.499,-0.513 c -0.219,-0.11 -0.488,-0.164 -0.807,-0.164 -0.314,0 -0.601,0.066 -0.861,0.198 a 2.065,2.065 0 0 0 -0.663,0.547 2.763,2.763 0 0 0 -0.581,1.744 z m 10.041,-3.418 v 0.971 h -3.999 v -0.97 h 3.999 z m -2.646,-1.797 h 1.265 v 7.362 c 0,0.25 0.039,0.44 0.116,0.567 a 0.558,0.558 0 0 0 0.301,0.253 c 0.123,0.041 0.255,0.062 0.397,0.062 0.104,0 0.214,-0.01 0.328,-0.027 0.118,-0.023 0.207,-0.042 0.266,-0.055 L 111.775,29 c -0.1,0.032 -0.232,0.061 -0.396,0.089 -0.16,0.032 -0.354,0.048 -0.581,0.048 -0.31,0 -0.595,-0.062 -0.855,-0.185 a 1.373,1.373 0 0 1 -0.622,-0.615 c -0.15,-0.292 -0.226,-0.684 -0.226,-1.176 z m 7.369,9.33 c -0.515,0 -0.982,-0.086 -1.402,-0.259 a 3.187,3.187 0 0 1 -1.073,-0.745 3.326,3.326 0 0 1 -0.684,-1.135 4.174,4.174 0 0 1 -0.239,-1.436 v -0.287 c 0,-0.601 0.089,-1.137 0.267,-1.606 a 3.6,3.6 0 0 1 0.724,-1.203 3.114,3.114 0 0 1 1.039,-0.745 2.99,2.99 0 0 1 1.204,-0.253 c 0.528,0 0.984,0.09 1.367,0.273 0.387,0.183 0.704,0.438 0.95,0.766 0.246,0.323 0.428,0.706 0.547,1.148 a 5.5,5.5 0 0 1 0.178,1.436 v 0.567 h -5.524 v -1.032 h 4.259 v -0.096 a 3.162,3.162 0 0 0 -0.205,-0.957 1.72,1.72 0 0 0 -0.547,-0.765 c -0.251,-0.2 -0.592,-0.301 -1.025,-0.301 a 1.72,1.72 0 0 0 -1.415,0.718 2.675,2.675 0 0 0 -0.404,0.868 4.43,4.43 0 0 0 -0.143,1.182 v 0.287 c 0,0.351 0.048,0.682 0.143,0.992 0.101,0.305 0.244,0.574 0.431,0.806 0.191,0.233 0.421,0.415 0.69,0.547 0.274,0.132 0.584,0.199 0.93,0.199 0.447,0 0.825,-0.092 1.135,-0.274 A 2.8,2.8 0 0 0 118.48,27.1 l 0.766,0.608 c -0.16,0.242 -0.362,0.472 -0.608,0.69 -0.247,0.22 -0.55,0.397 -0.91,0.534 -0.355,0.136 -0.777,0.205 -1.264,0.205 z m 5.789,-5.953 V 29 h -1.265 v -7.396 h 1.196 z m -0.301,1.838 -0.526,-0.02 c 0.004,-0.506 0.079,-0.973 0.225,-1.401 0.146,-0.433 0.351,-0.81 0.615,-1.128 a 2.746,2.746 0 0 1 2.167,-1.005 c 0.365,0 0.693,0.05 0.985,0.15 0.292,0.096 0.54,0.25 0.745,0.465 0.21,0.214 0.369,0.492 0.478,0.834 0.11,0.337 0.165,0.75 0.165,1.237 V 29 h -1.272 v -4.86 c 0,-0.388 -0.057,-0.698 -0.171,-0.93 a 1.05,1.05 0 0 0 -0.499,-0.513 c -0.219,-0.11 -0.487,-0.164 -0.806,-0.164 -0.315,0 -0.602,0.066 -0.862,0.198 a 2.065,2.065 0 0 0 -0.663,0.547 2.763,2.763 0 0 0 -0.581,1.744 z m 10.041,-3.418 v 0.971 h -3.999 v -0.97 h 3.999 z m -2.645,-1.797 h 1.264 v 7.362 c 0,0.25 0.039,0.44 0.116,0.567 a 0.558,0.558 0 0 0 0.301,0.253 c 0.123,0.041 0.255,0.062 0.397,0.062 0.105,0 0.214,-0.01 0.328,-0.027 0.118,-0.023 0.207,-0.042 0.266,-0.055 L 132.027,29 c -0.1,0.032 -0.232,0.061 -0.396,0.089 -0.16,0.032 -0.353,0.048 -0.581,0.048 -0.31,0 -0.595,-0.062 -0.855,-0.185 a 1.378,1.378 0 0 1 -0.622,-0.615 c -0.15,-0.292 -0.225,-0.684 -0.225,-1.176 z"
       id="path2841"
       transform="matrix(0.264583,0,0,0.264583,123.673,289.99)" />
    <path
       fill="#2e7d32"
       d="M 226.539,19.99 223.777,28 h -1.669 l 3.478,-9.242 h 1.067 l -0.114,1.231 z m 2.31,8.01 -2.767,-8.01 -0.121,-1.232 h 1.073 L 230.525,28 Z m -0.133,-3.428 v 1.263 h -5.028 v -1.263 z m 8.661,0.42 h 1.587 a 3.663,3.663 0 0 1 -0.508,1.618 c -0.288,0.47 -0.692,0.84 -1.212,1.11 -0.521,0.271 -1.153,0.407 -1.898,0.407 a 3.76,3.76 0 0 1 -1.543,-0.305 3.383,3.383 0 0 1 -1.174,-0.876 3.952,3.952 0 0 1 -0.749,-1.377 5.994,5.994 0 0 1 -0.254,-1.803 v -0.768 c 0,-0.664 0.087,-1.265 0.26,-1.803 0.178,-0.537 0.432,-0.996 0.762,-1.377 0.33,-0.385 0.726,-0.68 1.187,-0.883 a 3.88,3.88 0 0 1 1.568,-0.304 c 0.736,0 1.358,0.135 1.866,0.406 0.508,0.27 0.901,0.646 1.181,1.124 0.283,0.478 0.457,1.026 0.52,1.644 h -1.587 a 2.925,2.925 0 0 0 -0.279,-1.022 1.44,1.44 0 0 0 -0.622,-0.648 c -0.275,-0.152 -0.635,-0.228 -1.079,-0.228 -0.364,0 -0.681,0.067 -0.952,0.203 a 1.789,1.789 0 0 0 -0.679,0.596 c -0.182,0.263 -0.32,0.587 -0.413,0.972 -0.089,0.38 -0.133,0.816 -0.133,1.307 v 0.781 c 0,0.466 0.04,0.889 0.12,1.27 0.085,0.376 0.212,0.7 0.381,0.97 0.174,0.272 0.394,0.481 0.66,0.63 0.267,0.147 0.586,0.221 0.959,0.221 0.453,0 0.819,-0.072 1.098,-0.215 0.283,-0.144 0.497,-0.354 0.641,-0.629 0.148,-0.28 0.245,-0.62 0.292,-1.022 z m 7.106,-6.234 V 28 h -1.581 v -9.242 z m 2.901,0 v 1.27 h -7.357 v -1.27 z m 3.38,0 V 28 h -1.593 v -9.242 z m 9.81,4.367 v 0.508 c 0,0.698 -0.091,1.324 -0.273,1.879 a 4.047,4.047 0 0 1 -0.781,1.415 3.34,3.34 0 0 1 -1.206,0.895 c -0.47,0.203 -0.99,0.305 -1.561,0.305 a 3.883,3.883 0 0 1 -1.556,-0.305 3.498,3.498 0 0 1 -1.212,-0.895 4.162,4.162 0 0 1 -0.8,-1.415 c -0.186,-0.555 -0.279,-1.18 -0.279,-1.88 v -0.507 c 0,-0.698 0.093,-1.322 0.279,-1.873 a 4.14,4.14 0 0 1 0.787,-1.415 3.39,3.39 0 0 1 1.213,-0.895 3.805,3.805 0 0 1 1.555,-0.311 3.82,3.82 0 0 1 1.561,0.31 c 0.47,0.204 0.874,0.502 1.213,0.896 0.338,0.39 0.599,0.861 0.781,1.415 0.186,0.55 0.279,1.175 0.279,1.873 z m -1.593,0.508 v -0.52 c 0,-0.517 -0.051,-0.972 -0.153,-1.365 a 2.79,2.79 0 0 0 -0.438,-0.997 1.828,1.828 0 0 0 -0.704,-0.61 2.09,2.09 0 0 0 -0.946,-0.209 c -0.351,0 -0.664,0.07 -0.94,0.21 a 1.895,1.895 0 0 0 -0.704,0.609 2.938,2.938 0 0 0 -0.438,0.997 5.469,5.469 0 0 0 -0.152,1.364 v 0.52 c 0,0.517 0.05,0.974 0.152,1.372 0.101,0.398 0.25,0.734 0.444,1.01 0.199,0.27 0.436,0.475 0.711,0.615 a 2.1,2.1 0 0 0 0.94,0.203 c 0.355,0 0.67,-0.068 0.945,-0.203 a 1.91,1.91 0 0 0 0.699,-0.616 3.02,3.02 0 0 0 0.431,-1.01 c 0.102,-0.397 0.153,-0.854 0.153,-1.37 z m 10.978,-4.875 V 28 h -1.594 L 264.22,21.38 V 28 h -1.593 v -9.242 h 1.593 l 4.158,6.633 v -6.633 z"
       id="path2843"
       transform="matrix(0.264583,0,0,0.264583,123.673,289.99)" />
    <path
       fill="#000000"
       fill-opacity="0.6"
       d="M 226.539,19.99 223.777,28 h -1.669 l 3.478,-9.242 h 1.067 l -0.114,1.231 z m 2.31,8.01 -2.767,-8.01 -0.121,-1.232 h 1.073 L 230.525,28 Z m -0.133,-3.428 v 1.263 h -5.028 v -1.263 z m 8.661,0.42 h 1.587 a 3.663,3.663 0 0 1 -0.508,1.618 c -0.288,0.47 -0.692,0.84 -1.212,1.11 -0.521,0.271 -1.153,0.407 -1.898,0.407 a 3.76,3.76 0 0 1 -1.543,-0.305 3.383,3.383 0 0 1 -1.174,-0.876 3.952,3.952 0 0 1 -0.749,-1.377 5.994,5.994 0 0 1 -0.254,-1.803 v -0.768 c 0,-0.664 0.087,-1.265 0.26,-1.803 0.178,-0.537 0.432,-0.996 0.762,-1.377 0.33,-0.385 0.726,-0.68 1.187,-0.883 a 3.88,3.88 0 0 1 1.568,-0.304 c 0.736,0 1.358,0.135 1.866,0.406 0.508,0.27 0.901,0.646 1.181,1.124 0.283,0.478 0.457,1.026 0.52,1.644 h -1.587 a 2.925,2.925 0 0 0 -0.279,-1.022 1.44,1.44 0 0 0 -0.622,-0.648 c -0.275,-0.152 -0.635,-0.228 -1.079,-0.228 -0.364,0 -0.681,0.067 -0.952,0.203 a 1.789,1.789 0 0 0 -0.679,0.596 c -0.182,0.263 -0.32,0.587 -0.413,0.972 -0.089,0.38 -0.133,0.816 -0.133,1.307 v 0.781 c 0,0.466 0.04,0.889 0.12,1.27 0.085,0.376 0.212,0.7 0.381,0.97 0.174,0.272 0.394,0.481 0.66,0.63 0.267,0.147 0.586,0.221 0.959,0.221 0.453,0 0.819,-0.072 1.098,-0.215 0.283,-0.144 0.497,-0.354 0.641,-0.629 0.148,-0.28 0.245,-0.62 0.292,-1.022 z m 7.106,-6.234 V 28 h -1.581 v -9.242 z m 2.901,0 v 1.27 h -7.357 v -1.27 z m 3.38,0 V 28 h -1.593 v -9.242 z m 9.81,4.367 v 0.508 c 0,0.698 -0.091,1.324 -0.273,1.879 a 4.047,4.047 0 0 1 -0.781,1.415 3.34,3.34 0 0 1 -1.206,0.895 c -0.47,0.203 -0.99,0.305 -1.561,0.305 a 3.883,3.883 0 0 1 -1.556,-0.305 3.498,3.498 0 0 1 -1.212,-0.895 4.162,4.162 0 0 1 -0.8,-1.415 c -0.186,-0.555 -0.279,-1.18 -0.279,-1.88 v -0.507 c 0,-0.698 0.093,-1.322 0.279,-1.873 a 4.14,4.14 0 0 1 0.787,-1.415 3.39,3.39 0 0 1 1.213,-0.895 3.805,3.805 0 0 1 1.555,-0.311 3.82,3.82 0 0 1 1.561,0.31 c 0.47,0.204 0.874,0.502 1.213,0.896 0.338,0.39 0.599,0.861 0.781,1.415 0.186,0.55 0.279,1.175 0.279,1.873 z m -1.593,0.508 v -0.52 c 0,-0.517 -0.051,-0.972 -0.153,-1.365 a 2.79,2.79 0 0 0 -0.438,-0.997 1.828,1.828 0 0 0 -0.704,-0.61 2.09,2.09 0 0 0 -0.946,-0.209 c -0.351,0 -0.664,0.07 -0.94,0.21 a 1.895,1.895 0 0 0 -0.704,0.609 2.938,2.938 0 0 0 -0.438,0.997 5.469,5.469 0 0 0 -0.152,1.364 v 0.52 c 0,0.517 0.05,0.974 0.152,1.372 0.101,0.398 0.25,0.734 0.444,1.01 0.199,0.27 0.436,0.475 0.711,0.615 a 2.1,2.1 0 0 0 0.94,0.203 c 0.355,0 0.67,-0.068 0.945,-0.203 a 1.91,1.91 0 0 0 0.699,-0.616 3.02,3.02 0 0 0 0.431,-1.01 c 0.102,-0.397 0.153,-0.854 0.153,-1.37 z m 10.978,-4.875 V 28 h -1.594 L 264.22,21.38 V 28 h -1.593 v -9.242 h 1.593 l 4.158,6.633 v -6.633 z"
       id="path2845"
       transform="matrix(0.264583,0,0,0.264583,123.673,289.99)" />
    <path
       fill="#2e7d32"
       d="m 295.833,19.342 -1.175,-1.175 -4.658,4.658 -4.658,-4.658 -1.175,1.175 4.658,4.658 -4.658,4.658 1.175,1.175 4.658,-4.658 4.658,4.658 1.175,-1.175 L 291.175,24 Z"
       id="path2847"
       transform="matrix(0.264583,0,0,0.264583,123.673,289.99)" />
    <path
       fill="#000000"
       fill-opacity="0.6"
       d="m 295.833,19.342 -1.175,-1.175 -4.658,4.658 -4.658,-4.658 -1.175,1.175 4.658,4.658 -4.658,4.658 1.175,1.175 4.658,-4.658 4.658,4.658 1.175,-1.175 L 291.175,24 Z"
       id="path2849"
       transform="matrix(0.264583,0,0,0.264583,123.673,289.99)" />
    <path
       fill="#2e7d32"
       d="M 4,1 H 316 V -1 H 4 Z m 315,3 v 40 h 2 V 4 Z m -3,43 H 4 v 2 H 316 Z M 1,44 V 4 h -2 v 40 z m 3,3 A 3,3 0 0 1 1,44 h -2 a 5,5 0 0 0 5,5 z m 315,-3 a 3,3 0 0 1 -3,3 v 2 a 5,5 0 0 0 5,-5 z M 316,1 a 3,3 0 0 1 3,3 h 2 a 5,5 0 0 0 -5,-5 z M 4,-1 A 5,5 0 0 0 -1,4 H 1 A 3,3 0 0 1 4,1 Z"
       id="path2851"
       transform="matrix(0.264583,0,0,0.264583,123.673,289.99)" />
  </g>
</svg>
