<?xml version="1.0" encoding="UTF-8" standalone="no"?>
<svg
   width="320"
   height="76"
   fill="none"
   version="1.1"
   id="svg253"
   xmlns="http://www.w3.org/2000/svg"
   xmlns:svg="http://www.w3.org/2000/svg">
  <defs
     id="defs251" />
  <g
     id="New_Layer_1653319471.4605129"
     style="display:inline"
     transform="translate(-594,-623)">
    <path
       d="m 594,627 a 4,4 0 0 1 4,-4 h 312 a 4,4 0 0 1 4,4 v 68 a 4,4 0 0 1 -4,4 H 598 a 4,4 0 0 1 -4,-4 z"
       fill="#d32f2f"
       id="path48" />
    <path
       d="m 620.083,649.75 h 1.834 v 1.833 h -1.834 z m 0,-7.333 h 1.834 v 5.5 h -1.834 z m 0.908,-4.584 c -5.06,0 -9.158,4.107 -9.158,9.167 0,5.06 4.098,9.167 9.158,9.167 5.069,0 9.176,-4.107 9.176,-9.167 0,-5.06 -4.107,-9.167 -9.176,-9.167 z m 0.009,16.5 A 7.33,7.33 0 0 1 613.667,647 7.33,7.33 0 0 1 621,639.667 7.33,7.33 0 0 1 628.333,647 7.33,7.33 0 0 1 621,654.333 Z"
       fill="#ffffff"
       id="path50" />
    <text
       fill="#ffffff"
       xml:space="preserve"
       style="white-space:pre"
       font-family="Roboto"
       font-size="16px"
       font-weight="500"
       letter-spacing="0.15"
       id="text54"
       x="644"
       y="679.78497"><tspan
         x="644"
         y="654.46899"
         id="tspan52">Title</tspan></text>
    <text
       fill="#ffffff"
       xml:space="preserve"
       style="white-space:pre"
       font-family="Roboto"
       font-size="14px"
       letter-spacing="0.17"
       id="text58"
       x="644"
       y="679.78497"><tspan
         x="644"
         y="679.78497"
         id="tspan56">Alert content</tspan></text>
  </g>
</svg>
