<?xml version="1.0" encoding="UTF-8" standalone="no"?>
<svg
   width="320"
   height="48"
   fill="none"
   version="1.1"
   id="svg253"
   xmlns="http://www.w3.org/2000/svg"
   xmlns:svg="http://www.w3.org/2000/svg">
  <defs
     id="defs251" />
  <g
     id="New_Layer_1653319471.463607"
     style="display:inline"
     transform="translate(-594,-849)">
    <path
       d="m 594,853 a 4,4 0 0 1 4,-4 h 312 a 4,4 0 0 1 4,4 v 40 a 4,4 0 0 1 -4,4 H 598 a 4,4 0 0 1 -4,-4 z"
       fill="#d32f2f"
       id="path78" />
    <path
       d="m 620.083,875.75 h 1.834 v 1.833 h -1.834 z m 0,-7.333 h 1.834 v 5.5 h -1.834 z m 0.908,-4.584 c -5.06,0 -9.158,4.107 -9.158,9.167 0,5.06 4.098,9.167 9.158,9.167 5.069,0 9.176,-4.107 9.176,-9.167 0,-5.06 -4.107,-9.167 -9.176,-9.167 z m 0.009,16.5 A 7.33,7.33 0 0 1 613.667,873 7.33,7.33 0 0 1 621,865.667 7.33,7.33 0 0 1 628.333,873 7.33,7.33 0 0 1 621,880.333 Z"
       fill="#ffffff"
       id="path80" />
    <text
       fill="#ffffff"
       xml:space="preserve"
       style="white-space:pre"
       font-family="Roboto"
       font-size="14px"
       letter-spacing="0.17"
       id="text84"
       x="644"
       y="877.78497"><tspan
         x="644"
         y="877.78497"
         id="tspan82">Error</tspan></text>
  </g>
</svg>
