<?xml version="1.0" encoding="UTF-8" standalone="no"?>
<svg
   width="320"
   height="48"
   fill="none"
   version="1.1"
   id="svg253"
   xmlns="http://www.w3.org/2000/svg"
   xmlns:svg="http://www.w3.org/2000/svg">
  <defs
     id="defs251" />
  <g
     id="New_Layer_1653319471.4658391"
     style="display:inline"
     transform="translate(-594,-993)">
    <path
       d="m 594,997 a 4,4 0 0 1 4,-4 h 312 a 4,4 0 0 1 4,4 v 40 a 4,4 0 0 1 -4,4 H 598 a 4,4 0 0 1 -4,-4 z"
       fill="#0288d1"
       id="path96" />
    <path
       d="m 620.083,1012.42 h 1.834 v 1.83 h -1.834 z m 0,3.66 h 1.834 v 5.5 h -1.834 z m 0.917,-8.25 c -5.06,0 -9.167,4.11 -9.167,9.17 0,5.06 4.107,9.17 9.167,9.17 5.06,0 9.167,-4.11 9.167,-9.17 0,-5.06 -4.107,-9.17 -9.167,-9.17 z m 0,16.5 c -4.043,0 -7.333,-3.29 -7.333,-7.33 0,-4.04 3.29,-7.33 7.333,-7.33 4.042,0 7.333,3.29 7.333,7.33 0,4.04 -3.291,7.33 -7.333,7.33 z"
       fill="#ffffff"
       id="path98" />
    <text
       fill="#ffffff"
       xml:space="preserve"
       style="white-space:pre"
       font-family="Roboto"
       font-size="14px"
       letter-spacing="0.17"
       id="text102"
       x="644"
       y="1021.79"><tspan
         x="644"
         y="1021.79"
         id="tspan100">Info</tspan></text>
  </g>
</svg>
