<?xml version="1.0" encoding="UTF-8" standalone="no"?>
<svg
   width="320"
   height="48"
   fill="none"
   version="1.1"
   id="svg253"
   xmlns="http://www.w3.org/2000/svg"
   xmlns:svg="http://www.w3.org/2000/svg">
  <defs
     id="defs251" />
  <g
     id="New_Layer_1653319471.466802"
     style="display:inline"
     transform="translate(-594,-1065)">
    <path
       d="m 594,1069 a 4,4 0 0 1 4,-4 h 312 a 4,4 0 0 1 4,4 v 40 a 4,4 0 0 1 -4,4 H 598 a 4,4 0 0 1 -4,-4 z"
       fill="#2e7d32"
       id="path104" />
    <path
       d="m 625.207,1084.95 -6.04,6.04 -3.291,-3.28 -1.293,1.29 4.584,4.58 7.333,-7.33 z M 621,1079.83 c -5.06,0 -9.167,4.11 -9.167,9.17 0,5.06 4.107,9.17 9.167,9.17 5.06,0 9.167,-4.11 9.167,-9.17 0,-5.06 -4.107,-9.17 -9.167,-9.17 z m 0,16.5 a 7.329,7.329 0 0 1 -7.333,-7.33 c 0,-4.05 3.281,-7.33 7.333,-7.33 a 7.329,7.329 0 0 1 7.333,7.33 c 0,4.05 -3.281,7.33 -7.333,7.33 z"
       fill="#ffffff"
       id="path106" />
    <text
       fill="#ffffff"
       xml:space="preserve"
       style="white-space:pre"
       font-family="Roboto"
       font-size="14px"
       letter-spacing="0.17"
       id="text110"
       x="644"
       y="1093.79"><tspan
         x="644"
         y="1093.79"
         id="tspan108">Success</tspan></text>
  </g>
</svg>
