<?xml version="1.0" encoding="UTF-8" standalone="no"?>
<svg
   width="1916"
   height="1618.5"
   fill="none"
   version="1.1"
   id="svg1109"
   xmlns="http://www.w3.org/2000/svg"
   xmlns:svg="http://www.w3.org/2000/svg">
  <defs
     id="defs1107" />
  <g
     id="layer1"
     style="display:inline"
     transform="translate(-1,-1.5)">
    <text
       fill="#000000"
       fill-opacity="0.87"
       xml:space="preserve"
       style="white-space:pre"
       font-family="'Roboto Mono'"
       font-size="64px"
       font-weight="500"
       letter-spacing="-1.5"
       id="text6"
       x="440"
       y="562.78497"><tspan
         x="120"
         y="182.35899"
         id="tspan4">Table</tspan></text>
    <path
       d="m 120,259 v -1 h -1 v 1 z m 1796,0 h 1 v -1 h -1 z m 0,1 v 1 h 1 v -1 z m -1796,0 h -1 v 1 h 1 z m 0,0 h 1796 v -2 H 120 Z m 1795,-1 v 1 h 2 v -1 z m 1,0 H 120 v 2 h 1796 z m -1795,1 v -1 h -2 v 1 z"
       fill="#000000"
       fill-opacity="0.12"
       id="path8" />
    <rect
       x="120"
       y="1496"
       width="1796"
       height="124"
       rx="10"
       fill="#f5f5f5"
       id="rect10" />
    <path
       fill-rule="evenodd"
       clip-rule="evenodd"
       d="m 194.972,1541.31 a 0.931,0.931 0 0 0 0.325,-0.32 c 0.079,-0.14 0.12,-0.29 0.121,-0.45 l 0.016,-5.14 c 0,-0.16 0.042,-0.31 0.12,-0.44 a 0.883,0.883 0 0 1 0.326,-0.33 l 2.788,-1.6 a 0.874,0.874 0 0 1 0.888,0 0.88,0.88 0 0 1 0.325,0.33 c 0.078,0.13 0.119,0.28 0.119,0.44 v 9.35 c 0,0.16 -0.041,0.31 -0.12,0.45 a 0.856,0.856 0 0 1 -0.326,0.32 l -10.524,6.05 a 0.857,0.857 0 0 1 -0.441,0.12 0.86,0.86 0 0 1 -0.442,-0.12 l -8.259,-4.72 a 0.888,0.888 0 0 1 -0.328,-0.33 0.913,0.913 0 0 1 -0.12,-0.45 v -4.71 c 0,-0.01 0.006,-0.01 0.012,-0.01 h 0.01 v -0.01 c 0,0 0.002,-0.01 0.006,-0.01 l 6.801,-3.91 c 0.007,0 0.004,-0.01 -0.003,-0.01 h -0.005 c -0.002,0 -0.002,0 -0.002,-0.01 l 0.013,-4.62 a 0.9,0.9 0 0 0 -0.118,-0.45 0.931,0.931 0 0 0 -0.325,-0.32 0.872,0.872 0 0 0 -0.445,-0.12 c -0.156,0 -0.31,0.04 -0.445,0.12 l -5.055,2.91 a 0.868,0.868 0 0 1 -0.444,0.12 0.868,0.868 0 0 1 -0.444,-0.12 l -5.071,-2.92 a 0.868,0.868 0 0 0 -0.444,-0.12 0.88,0.88 0 0 0 -0.769,0.45 0.849,0.849 0 0 0 -0.119,0.44 v 8.36 c 0,0.15 -0.041,0.3 -0.118,0.44 a 0.854,0.854 0 0 1 -0.325,0.32 0.862,0.862 0 0 1 -0.443,0.12 0.859,0.859 0 0 1 -0.444,-0.11 l -2.814,-1.61 a 0.88,0.88 0 0 1 -0.328,-0.33 0.866,0.866 0 0 1 -0.12,-0.44 l 0.025,-14.61 c 0,-0.15 0.041,-0.31 0.119,-0.44 a 0.88,0.88 0 0 1 0.325,-0.33 0.979,0.979 0 0 1 0.444,-0.12 c 0.155,0 0.308,0.04 0.443,0.12 l 9.64,5.54 c 0.135,0.08 0.288,0.12 0.443,0.12 0.155,0 0.308,-0.04 0.443,-0.12 l 9.637,-5.54 a 0.868,0.868 0 0 1 0.444,-0.12 c 0.156,0 0.309,0.05 0.444,0.12 a 0.88,0.88 0 0 1 0.325,0.33 c 0.078,0.13 0.119,0.29 0.119,0.44 v 14.61 c 0,0.16 -0.042,0.31 -0.12,0.45 a 0.926,0.926 0 0 1 -0.326,0.32 l -5.047,2.91 a 0.883,0.883 0 0 0 -0.326,0.33 0.849,0.849 0 0 0 -0.119,0.44 c 0.001,0.16 0.042,0.31 0.121,0.45 a 0.94,0.94 0 0 0 0.328,0.32 l 2.784,1.59 c 0.134,0.07 0.286,0.11 0.441,0.11 0.155,0 0.307,-0.04 0.441,-0.12 z m 0.584,-13.1 c 0,0.16 0.041,0.31 0.121,0.45 0.079,0.13 0.193,0.24 0.33,0.32 0.136,0.08 0.291,0.12 0.448,0.12 a 0.99,0.99 0 0 0 0.446,-0.13 l 2.667,-1.6 a 0.905,0.905 0 0 0 0.316,-0.32 0.922,0.922 0 0 0 0.116,-0.44 v -3.26 c 0,-0.16 -0.042,-0.31 -0.122,-0.45 a 0.798,0.798 0 0 0 -0.329,-0.32 0.889,0.889 0 0 0 -0.449,-0.12 0.883,0.883 0 0 0 -0.446,0.13 l -2.666,1.6 a 0.875,0.875 0 0 0 -0.432,0.76 z"
       fill="#007fff"
       id="path12" />
    <text
       fill="#000000"
       fill-opacity="0.6"
       xml:space="preserve"
       style="white-space:pre"
       font-family="'Roboto Mono'"
       font-size="16px"
       letter-spacing="0.15"
       id="text16"
       x="440"
       y="562.78497"><tspan
         x="168"
         y="1588.21"
         id="tspan14">Visit mui.com for extended documentation.</tspan></text>
    <text
       fill="#000000"
       fill-opacity="0.6"
       xml:space="preserve"
       style="white-space:pre"
       font-family="'Roboto Mono'"
       font-size="16px"
       letter-spacing="0.15"
       id="text20"
       x="440"
       y="562.78497"><tspan
         x="1809"
         y="1588.21"
         id="tspan18">v5.4.0</tspan></text>
    <text
       fill="#000000"
       fill-opacity="0.6"
       xml:space="preserve"
       style="white-space:pre"
       font-family="Roboto"
       font-size="16px"
       font-weight="500"
       letter-spacing="0.15"
       id="text630"
       x="440"
       y="562.78497"><tspan
         x="120"
         y="411.46899"
         id="tspan628">Cell State</tspan></text>
    <text
       fill="#000000"
       fill-opacity="0.6"
       xml:space="preserve"
       style="white-space:pre"
       font-family="Roboto"
       font-size="16px"
       font-weight="500"
       letter-spacing="0.15"
       id="text634"
       x="440"
       y="562.78497"><tspan
         x="120"
         y="665.46899"
         id="tspan632">Size</tspan></text>
    <text
       fill="#000000"
       fill-opacity="0.6"
       xml:space="preserve"
       style="white-space:pre"
       font-family="Roboto"
       font-size="16px"
       font-weight="500"
       letter-spacing="0.15"
       id="text638"
       x="440"
       y="562.78497"><tspan
         x="120"
         y="925.46899"
         id="tspan636">Heading State</tspan></text>
    <text
       fill="#000000"
       fill-opacity="0.6"
       xml:space="preserve"
       style="white-space:pre"
       font-family="Roboto"
       font-size="16px"
       font-weight="500"
       letter-spacing="0.15"
       id="text642"
       x="440"
       y="562.78497"><tspan
         x="120"
         y="1111.47"
         id="tspan640">Table</tspan></text>
    <text
       fill="#000000"
       fill-opacity="0.6"
       xml:space="preserve"
       style="white-space:pre"
       font-family="Roboto"
       font-size="14px"
       letter-spacing="0.15"
       id="text646"
       x="440"
       y="562.78497"><tspan
         x="440"
         y="410.785"
         id="tspan644">Enabled</tspan></text>
    <text
       fill="#000000"
       fill-opacity="0.6"
       xml:space="preserve"
       style="white-space:pre"
       font-family="Roboto"
       font-size="14px"
       letter-spacing="0.15"
       id="text650"
       x="440"
       y="562.78497"><tspan
         x="440"
         y="740.78497"
         id="tspan648">Small</tspan></text>
    <text
       fill="#000000"
       fill-opacity="0.6"
       xml:space="preserve"
       style="white-space:pre"
       font-family="Roboto"
       font-size="14px"
       letter-spacing="0.15"
       id="text654"
       x="440"
       y="562.78497"><tspan
         x="440"
         y="664.78497"
         id="tspan652">Medium</tspan></text>
    <text
       fill="#000000"
       fill-opacity="0.6"
       xml:space="preserve"
       style="white-space:pre"
       font-family="Roboto"
       font-size="14px"
       letter-spacing="0.15"
       id="text658"
       x="440"
       y="562.78497"><tspan
         x="440"
         y="924.78497"
         id="tspan656">Enabled</tspan></text>
    <text
       fill="#000000"
       fill-opacity="0.6"
       xml:space="preserve"
       style="white-space:pre"
       font-family="Roboto"
       font-size="14px"
       letter-spacing="0.15"
       id="text662"
       x="440"
       y="562.78497"><tspan
         x="440"
         y="1004.79"
         id="tspan660">Selected</tspan></text>
    <text
       fill="#000000"
       fill-opacity="0.6"
       xml:space="preserve"
       style="white-space:pre"
       font-family="Roboto"
       font-size="14px"
       letter-spacing="0.15"
       id="text666"
       x="440"
       y="562.78497"><tspan
         x="440"
         y="486.785"
         id="tspan664">Hover</tspan></text>
    <text
       fill="#000000"
       fill-opacity="0.6"
       xml:space="preserve"
       style="white-space:pre"
       font-family="Roboto"
       font-size="14px"
       letter-spacing="0.15"
       id="text670"
       x="440"
       y="562.78497"><tspan
         x="440"
         y="562.78497"
         id="tspan668">Selected</tspan></text>
    <rect
       x="570"
       y="354"
       width="648"
       height="992"
       rx="10"
       fill="#ffffff"
       id="rect22" />
    <rect
       x="1268"
       y="354"
       width="648"
       height="992"
       rx="10"
       fill="#121212"
       id="rect326" />
    <path
       style="fill:none;stroke:#000000;stroke-width:1"
       d="M 1,2 V 2"
       id="path269" />
  </g>
</svg>
