<?xml version="1.0" encoding="UTF-8" standalone="no"?>
<svg
   width="396"
   height="360.5"
   fill="none"
   viewBox="0 0 396 360.5"
   version="1.1"
   id="svg10449"
   xmlns="http://www.w3.org/2000/svg"
   xmlns:svg="http://www.w3.org/2000/svg">
  <g
     class="Small=False, Checkbox=False, Dark Mode=False, Small Screen=False"
     id="g5445"
     transform="translate(-648,-680)" />
  <g
     class="Small=False, Checkbox=False, Dark Mode=False, Small Screen=True"
     id="g5651"
     transform="translate(-648,-680)" />
  <g
     class="Small=False, Checkbox=True, Dark Mode=False, Small Screen=False"
     id="g5899"
     transform="translate(-648,-680)" />
  <g
     class="Small=False, Checkbox=True, Dark Mode=False, Small Screen=True"
     id="g6153"
     transform="translate(-648,-680)" />
  <g
     class="Small=True, Checkbox=False, Dark Mode=False, Small Screen=False"
     id="g6353"
     transform="translate(-648,-680)" />
  <g
     class="Small=True, Checkbox=False, Dark Mode=False, Small Screen=True"
     id="g6559"
     transform="translate(-648,-680)" />
  <g
     class="Small=True, Checkbox=True, Dark Mode=False, Small Screen=False"
     id="g6809"
     transform="translate(-648,-680)" />
  <g
     class="Small=True, Checkbox=True, Dark Mode=False, Small Screen=True"
     id="g7065"
     transform="translate(-648,-680)" />
  <defs
     id="defs10447">
    <filter
       id="t"
       width="396"
       height="56"
       x="648"
       y="680"
       class="t"
       color-interpolation-filters="sRGB"
       filterUnits="userSpaceOnUse">
      <feFlood
         flood-opacity="0"
         result="BackgroundImageFix"
         id="feFlood9172" />
      <feBlend
         in="SourceGraphic"
         in2="BackgroundImageFix"
         result="shape"
         id="feBlend9174"
         mode="normal" />
      <feColorMatrix
         in="SourceAlpha"
         result="hardAlpha"
         values="0 0 0 0 0 0 0 0 0 0 0 0 0 0 0 0 0 0 127 0"
         id="feColorMatrix9176" />
      <feOffset
         dy="-1"
         id="feOffset9178" />
      <feComposite
         in2="hardAlpha"
         k2="-1"
         k3="1"
         operator="arithmetic"
         id="feComposite9180"
         k1="0"
         k4="0" />
      <feColorMatrix
         values="0 0 0 0 0 0 0 0 0 0 0 0 0 0 0 0 0 0 0.12 0"
         id="feColorMatrix9182" />
      <feBlend
         in2="shape"
         result="effect1_innerShadow_4863_27293"
         id="feBlend9184"
         mode="normal" />
    </filter>
    <filter
       id="u"
       width="396"
       height="52"
       x="648"
       y="736"
       class="u"
       color-interpolation-filters="sRGB"
       filterUnits="userSpaceOnUse">
      <feFlood
         flood-opacity="0"
         result="BackgroundImageFix"
         id="feFlood9187" />
      <feBlend
         in="SourceGraphic"
         in2="BackgroundImageFix"
         result="shape"
         id="feBlend9189"
         mode="normal" />
      <feColorMatrix
         in="SourceAlpha"
         result="hardAlpha"
         values="0 0 0 0 0 0 0 0 0 0 0 0 0 0 0 0 0 0 127 0"
         id="feColorMatrix9191" />
      <feOffset
         dy="-1"
         id="feOffset9193" />
      <feComposite
         in2="hardAlpha"
         k2="-1"
         k3="1"
         operator="arithmetic"
         id="feComposite9195"
         k1="0"
         k4="0" />
      <feColorMatrix
         values="0 0 0 0 0 0 0 0 0 0 0 0 0 0 0 0 0 0 0.12 0"
         id="feColorMatrix9197" />
      <feBlend
         in2="shape"
         result="effect1_innerShadow_4863_27293"
         id="feBlend9199"
         mode="normal" />
    </filter>
    <filter
       id="v"
       width="396"
       height="52"
       x="648"
       y="788"
       class="v"
       color-interpolation-filters="sRGB"
       filterUnits="userSpaceOnUse">
      <feFlood
         flood-opacity="0"
         result="BackgroundImageFix"
         id="feFlood9202" />
      <feBlend
         in="SourceGraphic"
         in2="BackgroundImageFix"
         result="shape"
         id="feBlend9204"
         mode="normal" />
      <feColorMatrix
         in="SourceAlpha"
         result="hardAlpha"
         values="0 0 0 0 0 0 0 0 0 0 0 0 0 0 0 0 0 0 127 0"
         id="feColorMatrix9206" />
      <feOffset
         dy="-1"
         id="feOffset9208" />
      <feComposite
         in2="hardAlpha"
         k2="-1"
         k3="1"
         operator="arithmetic"
         id="feComposite9210"
         k1="0"
         k4="0" />
      <feColorMatrix
         values="0 0 0 0 0 0 0 0 0 0 0 0 0 0 0 0 0 0 0.12 0"
         id="feColorMatrix9212" />
      <feBlend
         in2="shape"
         result="effect1_innerShadow_4863_27293"
         id="feBlend9214"
         mode="normal" />
    </filter>
    <filter
       id="w"
       width="396"
       height="52"
       x="648"
       y="840"
       class="w"
       color-interpolation-filters="sRGB"
       filterUnits="userSpaceOnUse">
      <feFlood
         flood-opacity="0"
         result="BackgroundImageFix"
         id="feFlood9217" />
      <feBlend
         in="SourceGraphic"
         in2="BackgroundImageFix"
         result="shape"
         id="feBlend9219"
         mode="normal" />
      <feColorMatrix
         in="SourceAlpha"
         result="hardAlpha"
         values="0 0 0 0 0 0 0 0 0 0 0 0 0 0 0 0 0 0 127 0"
         id="feColorMatrix9221" />
      <feOffset
         dy="-1"
         id="feOffset9223" />
      <feComposite
         in2="hardAlpha"
         k2="-1"
         k3="1"
         operator="arithmetic"
         id="feComposite9225"
         k1="0"
         k4="0" />
      <feColorMatrix
         values="0 0 0 0 0 0 0 0 0 0 0 0 0 0 0 0 0 0 0.12 0"
         id="feColorMatrix9227" />
      <feBlend
         in2="shape"
         result="effect1_innerShadow_4863_27293"
         id="feBlend9229"
         mode="normal" />
    </filter>
    <filter
       id="x"
       width="396"
       height="52"
       x="648"
       y="892"
       class="x"
       color-interpolation-filters="sRGB"
       filterUnits="userSpaceOnUse">
      <feFlood
         flood-opacity="0"
         result="BackgroundImageFix"
         id="feFlood9232" />
      <feBlend
         in="SourceGraphic"
         in2="BackgroundImageFix"
         result="shape"
         id="feBlend9234"
         mode="normal" />
      <feColorMatrix
         in="SourceAlpha"
         result="hardAlpha"
         values="0 0 0 0 0 0 0 0 0 0 0 0 0 0 0 0 0 0 127 0"
         id="feColorMatrix9236" />
      <feOffset
         dy="-1"
         id="feOffset9238" />
      <feComposite
         in2="hardAlpha"
         k2="-1"
         k3="1"
         operator="arithmetic"
         id="feComposite9240"
         k1="0"
         k4="0" />
      <feColorMatrix
         values="0 0 0 0 0 0 0 0 0 0 0 0 0 0 0 0 0 0 0.12 0"
         id="feColorMatrix9242" />
      <feBlend
         in2="shape"
         result="effect1_innerShadow_4863_27293"
         id="feBlend9244"
         mode="normal" />
    </filter>
    <filter
       id="y"
       width="396"
       height="52"
       x="648"
       y="944"
       class="y"
       color-interpolation-filters="sRGB"
       filterUnits="userSpaceOnUse">
      <feFlood
         flood-opacity="0"
         result="BackgroundImageFix"
         id="feFlood9247" />
      <feBlend
         in="SourceGraphic"
         in2="BackgroundImageFix"
         result="shape"
         id="feBlend9249"
         mode="normal" />
      <feColorMatrix
         in="SourceAlpha"
         result="hardAlpha"
         values="0 0 0 0 0 0 0 0 0 0 0 0 0 0 0 0 0 0 127 0"
         id="feColorMatrix9251" />
      <feOffset
         dy="-1"
         id="feOffset9253" />
      <feComposite
         in2="hardAlpha"
         k2="-1"
         k3="1"
         operator="arithmetic"
         id="feComposite9255"
         k1="0"
         k4="0" />
      <feColorMatrix
         values="0 0 0 0 0 0 0 0 0 0 0 0 0 0 0 0 0 0 0.12 0"
         id="feColorMatrix9257" />
      <feBlend
         in2="shape"
         result="effect1_innerShadow_4863_27293"
         id="feBlend9259"
         mode="normal" />
    </filter>
    <filter
       id="z"
       width="396"
       height="14"
       x="648"
       y="996"
       class="z"
       color-interpolation-filters="sRGB"
       filterUnits="userSpaceOnUse">
      <feFlood
         flood-opacity="0"
         result="BackgroundImageFix"
         id="feFlood9262" />
      <feBlend
         in="SourceGraphic"
         in2="BackgroundImageFix"
         result="shape"
         id="feBlend9264"
         mode="normal" />
      <feColorMatrix
         in="SourceAlpha"
         result="hardAlpha"
         values="0 0 0 0 0 0 0 0 0 0 0 0 0 0 0 0 0 0 127 0"
         id="feColorMatrix9266" />
      <feOffset
         dx="1"
         id="feOffset9268" />
      <feComposite
         in2="hardAlpha"
         k2="-1"
         k3="1"
         operator="arithmetic"
         id="feComposite9270"
         k1="0"
         k4="0" />
      <feColorMatrix
         values="0 0 0 0 0.870588 0 0 0 0 0.870588 0 0 0 0 0.870588 0 0 0 1 0"
         id="feColorMatrix9272" />
      <feBlend
         in2="shape"
         result="effect1_innerShadow_4863_27293"
         id="feBlend9274"
         mode="normal" />
    </filter>
  </defs>
  <g
     id="New_Layer_1652823860.1657858"
     style="display:inline"
     transform="translate(-624,-656)">
    <g
       class="TableHeadRow"
       filter="url(#t)"
       id="g5927"
       transform="translate(-24,-24)">
      <path
         fill="#ffffff"
         fill-opacity="0.01"
         d="m 648,680 h 396 v 56 H 648 Z"
         id="path5901" />
      <g
         class="TableHead"
         id="g5913">
        <g
           class="Checkbox"
           id="g5909">
          <g
             class="Padding"
             id="g5907">
            <g
               class="CheckBoxOutlineBlank"
               id="g5905">
              <path
                 fill="#000000"
                 fill-opacity="0.6"
                 d="m 680,701 v 14 h -14 v -14 z m 0,-2 h -14 c -1.1,0 -2,0.9 -2,2 v 14 c 0,1.1 0.9,2 2,2 h 14 c 1.1,0 2,-0.9 2,-2 v -14 c 0,-1.1 -0.9,-2 -2,-2 z"
                 class="Vector"
                 id="path5903" />
            </g>
          </g>
        </g>
        <path
           fill="#000000"
           fill-opacity="0.87"
           d="m 701.588,707.203 v 1.36 h -5.284 v -1.36 z m -4.86,-4.156 V 713 h -1.716 v -9.953 z m 6.179,0 V 713 h -1.709 v -9.953 z m 5.311,10.09 a 3.946,3.946 0 0 1 -1.484,-0.267 3.27,3.27 0 0 1 -1.121,-0.759 3.365,3.365 0 0 1 -0.704,-1.141 4,4 0 0 1 -0.246,-1.415 v -0.274 c 0,-0.579 0.084,-1.103 0.253,-1.572 0.169,-0.469 0.403,-0.87 0.704,-1.203 a 3.03,3.03 0 0 1 1.067,-0.773 c 0.41,-0.177 0.854,-0.266 1.333,-0.266 0.528,0 0.991,0.089 1.387,0.266 0.397,0.178 0.725,0.429 0.985,0.752 0.264,0.319 0.46,0.7 0.588,1.142 a 5.1,5.1 0 0 1 0.198,1.463 v 0.704 h -5.715 v -1.183 h 4.088 v -0.13 a 2.3,2.3 0 0 0 -0.178,-0.834 1.415,1.415 0 0 0 -0.485,-0.628 c -0.219,-0.16 -0.511,-0.24 -0.875,-0.24 -0.274,0 -0.517,0.06 -0.732,0.178 -0.209,0.114 -0.385,0.28 -0.526,0.499 a 2.624,2.624 0 0 0 -0.328,0.793 c -0.073,0.305 -0.11,0.649 -0.11,1.032 v 0.274 c 0,0.323 0.044,0.624 0.13,0.902 0.091,0.273 0.224,0.513 0.397,0.718 0.173,0.205 0.383,0.367 0.629,0.485 0.246,0.114 0.526,0.171 0.841,0.171 0.396,0 0.749,-0.08 1.059,-0.239 0.31,-0.16 0.579,-0.385 0.807,-0.677 l 0.868,0.841 c -0.16,0.232 -0.367,0.456 -0.622,0.67 -0.255,0.209 -0.568,0.38 -0.937,0.512 -0.364,0.133 -0.788,0.199 -1.271,0.199 z m 8.585,-1.62 v -3.528 c 0,-0.264 -0.048,-0.492 -0.144,-0.683 a 1,1 0 0 0 -0.437,-0.445 c -0.192,-0.104 -0.433,-0.157 -0.725,-0.157 -0.269,0 -0.501,0.046 -0.697,0.137 a 1.123,1.123 0 0 0 -0.458,0.369 0.892,0.892 0 0 0 -0.164,0.526 h -1.641 c 0,-0.291 0.071,-0.574 0.212,-0.847 0.141,-0.274 0.347,-0.518 0.615,-0.732 0.269,-0.214 0.591,-0.383 0.964,-0.506 a 4.013,4.013 0 0 1 1.258,-0.184 c 0.556,0 1.048,0.093 1.477,0.28 a 2.24,2.24 0 0 1 1.018,0.848 c 0.251,0.373 0.376,0.843 0.376,1.408 v 3.288 c 0,0.337 0.023,0.64 0.069,0.909 0.05,0.265 0.12,0.495 0.211,0.691 V 713 h -1.688 a 2.96,2.96 0 0 1 -0.185,-0.677 5.526,5.526 0 0 1 -0.061,-0.806 z m 0.239,-3.015 0.014,1.019 h -1.183 c -0.305,0 -0.574,0.029 -0.806,0.088 a 1.657,1.657 0 0 0 -0.581,0.246 1.07,1.07 0 0 0 -0.349,0.397 c -0.078,0.155 -0.116,0.33 -0.116,0.526 0,0.196 0.045,0.376 0.136,0.54 0.092,0.16 0.224,0.285 0.397,0.376 0.178,0.091 0.392,0.137 0.642,0.137 0.338,0 0.632,-0.068 0.882,-0.205 a 1.81,1.81 0 0 0 0.602,-0.513 c 0.146,-0.205 0.223,-0.398 0.232,-0.581 l 0.533,0.732 a 2.472,2.472 0 0 1 -0.28,0.601 c -0.132,0.214 -0.305,0.42 -0.519,0.615 a 2.577,2.577 0 0 1 -1.771,0.657 c -0.483,0 -0.914,-0.096 -1.292,-0.287 a 2.301,2.301 0 0 1 -0.889,-0.787 2.036,2.036 0 0 1 -0.321,-1.127 c 0,-0.392 0.073,-0.739 0.219,-1.04 0.15,-0.305 0.369,-0.56 0.656,-0.765 0.292,-0.205 0.647,-0.36 1.067,-0.465 a 5.715,5.715 0 0 1 1.435,-0.164 z m 7.82,2.967 V 702.5 h 1.654 V 713 h -1.497 z m -4.813,-2.085 v -0.144 c 0,-0.56 0.066,-1.071 0.198,-1.531 0.132,-0.465 0.324,-0.864 0.575,-1.196 0.25,-0.338 0.556,-0.595 0.916,-0.773 0.36,-0.182 0.765,-0.273 1.216,-0.273 0.447,0 0.839,0.086 1.176,0.26 0.337,0.173 0.624,0.421 0.861,0.745 0.237,0.319 0.427,0.702 0.568,1.148 0.141,0.442 0.241,0.934 0.301,1.477 v 0.458 a 7.488,7.488 0 0 1 -0.301,1.449 3.893,3.893 0 0 1 -0.568,1.135 2.447,2.447 0 0 1 -0.868,0.738 c -0.337,0.173 -0.731,0.26 -1.182,0.26 -0.447,0 -0.85,-0.094 -1.21,-0.281 a 2.646,2.646 0 0 1 -0.909,-0.786 3.685,3.685 0 0 1 -0.575,-1.189 5.409,5.409 0 0 1 -0.198,-1.497 z m 1.648,-0.144 v 0.144 c 0,0.337 0.029,0.651 0.088,0.943 0.064,0.292 0.162,0.549 0.294,0.773 0.132,0.218 0.303,0.392 0.513,0.519 0.214,0.123 0.469,0.185 0.766,0.185 0.373,0 0.681,-0.082 0.923,-0.246 0.241,-0.164 0.43,-0.385 0.567,-0.663 0.141,-0.283 0.237,-0.597 0.287,-0.944 v -1.237 a 2.983,2.983 0 0 0 -0.171,-0.752 2.006,2.006 0 0 0 -0.335,-0.608 1.415,1.415 0 0 0 -0.526,-0.411 c -0.205,-0.1 -0.449,-0.15 -0.732,-0.15 -0.3,0 -0.556,0.064 -0.765,0.191 -0.21,0.128 -0.383,0.303 -0.52,0.527 -0.132,0.223 -0.23,0.483 -0.294,0.779 a 4.493,4.493 0 0 0 -0.095,0.95 z"
           class="Head"
           id="path5911" />
      </g>
      <g
         class="TableHead"
         id="g5917">
        <path
           fill="#000000"
           fill-opacity="0.87"
           d="m 770.588,707.203 v 1.36 h -5.284 v -1.36 z m -4.86,-4.156 V 713 h -1.716 v -9.953 z m 6.179,0 V 713 h -1.709 v -9.953 z m 5.311,10.09 a 3.946,3.946 0 0 1 -1.484,-0.267 3.27,3.27 0 0 1 -1.121,-0.759 3.365,3.365 0 0 1 -0.704,-1.141 4,4 0 0 1 -0.246,-1.415 v -0.274 c 0,-0.579 0.084,-1.103 0.253,-1.572 0.169,-0.469 0.403,-0.87 0.704,-1.203 a 3.03,3.03 0 0 1 1.067,-0.773 c 0.41,-0.177 0.854,-0.266 1.333,-0.266 0.528,0 0.991,0.089 1.387,0.266 0.397,0.178 0.725,0.429 0.985,0.752 0.264,0.319 0.46,0.7 0.588,1.142 a 5.1,5.1 0 0 1 0.198,1.463 v 0.704 h -5.715 v -1.183 h 4.088 v -0.13 a 2.3,2.3 0 0 0 -0.178,-0.834 1.415,1.415 0 0 0 -0.485,-0.628 c -0.219,-0.16 -0.511,-0.24 -0.875,-0.24 -0.274,0 -0.517,0.06 -0.732,0.178 -0.209,0.114 -0.385,0.28 -0.526,0.499 a 2.624,2.624 0 0 0 -0.328,0.793 c -0.073,0.305 -0.11,0.649 -0.11,1.032 v 0.274 c 0,0.323 0.044,0.624 0.13,0.902 0.091,0.273 0.224,0.513 0.397,0.718 0.173,0.205 0.383,0.367 0.629,0.485 0.246,0.114 0.526,0.171 0.841,0.171 0.396,0 0.749,-0.08 1.059,-0.239 0.31,-0.16 0.579,-0.385 0.807,-0.677 l 0.868,0.841 c -0.16,0.232 -0.367,0.456 -0.622,0.67 -0.255,0.209 -0.568,0.38 -0.937,0.512 -0.364,0.133 -0.788,0.199 -1.271,0.199 z m 8.585,-1.62 v -3.528 c 0,-0.264 -0.048,-0.492 -0.144,-0.683 a 1,1 0 0 0 -0.437,-0.445 c -0.192,-0.104 -0.433,-0.157 -0.725,-0.157 -0.269,0 -0.501,0.046 -0.697,0.137 a 1.123,1.123 0 0 0 -0.458,0.369 0.892,0.892 0 0 0 -0.164,0.526 h -1.641 c 0,-0.291 0.071,-0.574 0.212,-0.847 0.141,-0.274 0.347,-0.518 0.615,-0.732 0.269,-0.214 0.591,-0.383 0.964,-0.506 a 4.013,4.013 0 0 1 1.258,-0.184 c 0.556,0 1.048,0.093 1.477,0.28 a 2.24,2.24 0 0 1 1.018,0.848 c 0.251,0.373 0.376,0.843 0.376,1.408 v 3.288 c 0,0.337 0.023,0.64 0.069,0.909 0.05,0.265 0.12,0.495 0.211,0.691 V 713 h -1.688 a 2.96,2.96 0 0 1 -0.185,-0.677 5.526,5.526 0 0 1 -0.061,-0.806 z m 0.239,-3.015 0.014,1.019 h -1.183 c -0.305,0 -0.574,0.029 -0.806,0.088 a 1.657,1.657 0 0 0 -0.581,0.246 1.07,1.07 0 0 0 -0.349,0.397 c -0.078,0.155 -0.116,0.33 -0.116,0.526 0,0.196 0.045,0.376 0.136,0.54 0.092,0.16 0.224,0.285 0.397,0.376 0.178,0.091 0.392,0.137 0.642,0.137 0.338,0 0.632,-0.068 0.882,-0.205 a 1.81,1.81 0 0 0 0.602,-0.513 c 0.146,-0.205 0.223,-0.398 0.232,-0.581 l 0.533,0.732 a 2.472,2.472 0 0 1 -0.28,0.601 c -0.132,0.214 -0.305,0.42 -0.519,0.615 a 2.577,2.577 0 0 1 -1.771,0.657 c -0.483,0 -0.914,-0.096 -1.292,-0.287 a 2.301,2.301 0 0 1 -0.889,-0.787 2.036,2.036 0 0 1 -0.321,-1.127 c 0,-0.392 0.073,-0.739 0.219,-1.04 0.15,-0.305 0.369,-0.56 0.656,-0.765 0.292,-0.205 0.647,-0.36 1.067,-0.465 a 5.715,5.715 0 0 1 1.435,-0.164 z m 7.82,2.967 V 702.5 h 1.654 V 713 h -1.497 z m -4.813,-2.085 v -0.144 c 0,-0.56 0.066,-1.071 0.198,-1.531 0.132,-0.465 0.324,-0.864 0.575,-1.196 0.25,-0.338 0.556,-0.595 0.916,-0.773 0.36,-0.182 0.765,-0.273 1.216,-0.273 0.447,0 0.839,0.086 1.176,0.26 0.337,0.173 0.624,0.421 0.861,0.745 0.237,0.319 0.427,0.702 0.568,1.148 0.141,0.442 0.241,0.934 0.301,1.477 v 0.458 a 7.488,7.488 0 0 1 -0.301,1.449 3.893,3.893 0 0 1 -0.568,1.135 2.447,2.447 0 0 1 -0.868,0.738 c -0.337,0.173 -0.731,0.26 -1.182,0.26 -0.447,0 -0.85,-0.094 -1.21,-0.281 a 2.646,2.646 0 0 1 -0.909,-0.786 3.685,3.685 0 0 1 -0.575,-1.189 5.409,5.409 0 0 1 -0.198,-1.497 z m 1.648,-0.144 v 0.144 c 0,0.337 0.029,0.651 0.088,0.943 0.064,0.292 0.162,0.549 0.294,0.773 0.132,0.218 0.303,0.392 0.513,0.519 0.214,0.123 0.469,0.185 0.766,0.185 0.373,0 0.681,-0.082 0.923,-0.246 0.241,-0.164 0.43,-0.385 0.567,-0.663 0.141,-0.283 0.237,-0.597 0.287,-0.944 v -1.237 a 2.983,2.983 0 0 0 -0.171,-0.752 2.006,2.006 0 0 0 -0.335,-0.608 1.415,1.415 0 0 0 -0.526,-0.411 c -0.205,-0.1 -0.449,-0.15 -0.732,-0.15 -0.3,0 -0.556,0.064 -0.765,0.191 -0.21,0.128 -0.383,0.303 -0.52,0.527 -0.132,0.223 -0.23,0.483 -0.294,0.779 a 4.493,4.493 0 0 0 -0.095,0.95 z"
           class="Head"
           id="path5915" />
      </g>
      <g
         class="TableHead"
         id="g5921">
        <path
           fill="#000000"
           fill-opacity="0.87"
           d="m 869.588,707.203 v 1.36 h -5.284 v -1.36 z m -4.86,-4.156 V 713 h -1.716 v -9.953 z m 6.179,0 V 713 h -1.709 v -9.953 z m 5.311,10.09 a 3.946,3.946 0 0 1 -1.484,-0.267 3.27,3.27 0 0 1 -1.121,-0.759 3.365,3.365 0 0 1 -0.704,-1.141 4,4 0 0 1 -0.246,-1.415 v -0.274 c 0,-0.579 0.084,-1.103 0.253,-1.572 0.169,-0.469 0.403,-0.87 0.704,-1.203 a 3.03,3.03 0 0 1 1.067,-0.773 c 0.41,-0.177 0.854,-0.266 1.333,-0.266 0.528,0 0.991,0.089 1.387,0.266 0.397,0.178 0.725,0.429 0.985,0.752 0.264,0.319 0.46,0.7 0.588,1.142 a 5.1,5.1 0 0 1 0.198,1.463 v 0.704 h -5.715 v -1.183 h 4.088 v -0.13 a 2.3,2.3 0 0 0 -0.178,-0.834 1.415,1.415 0 0 0 -0.485,-0.628 c -0.219,-0.16 -0.511,-0.24 -0.875,-0.24 -0.274,0 -0.517,0.06 -0.732,0.178 -0.209,0.114 -0.385,0.28 -0.526,0.499 a 2.624,2.624 0 0 0 -0.328,0.793 c -0.073,0.305 -0.11,0.649 -0.11,1.032 v 0.274 c 0,0.323 0.044,0.624 0.13,0.902 0.091,0.273 0.224,0.513 0.397,0.718 0.173,0.205 0.383,0.367 0.629,0.485 0.246,0.114 0.526,0.171 0.841,0.171 0.396,0 0.749,-0.08 1.059,-0.239 0.31,-0.16 0.579,-0.385 0.807,-0.677 l 0.868,0.841 c -0.16,0.232 -0.367,0.456 -0.622,0.67 -0.255,0.209 -0.568,0.38 -0.937,0.512 -0.364,0.133 -0.788,0.199 -1.271,0.199 z m 8.585,-1.62 v -3.528 c 0,-0.264 -0.048,-0.492 -0.144,-0.683 a 1,1 0 0 0 -0.437,-0.445 c -0.192,-0.104 -0.433,-0.157 -0.725,-0.157 -0.269,0 -0.501,0.046 -0.697,0.137 a 1.123,1.123 0 0 0 -0.458,0.369 0.892,0.892 0 0 0 -0.164,0.526 h -1.641 c 0,-0.291 0.071,-0.574 0.212,-0.847 0.141,-0.274 0.347,-0.518 0.615,-0.732 0.269,-0.214 0.591,-0.383 0.964,-0.506 a 4.013,4.013 0 0 1 1.258,-0.184 c 0.556,0 1.048,0.093 1.477,0.28 a 2.24,2.24 0 0 1 1.018,0.848 c 0.251,0.373 0.376,0.843 0.376,1.408 v 3.288 c 0,0.337 0.023,0.64 0.069,0.909 0.05,0.265 0.12,0.495 0.211,0.691 V 713 h -1.688 a 2.96,2.96 0 0 1 -0.185,-0.677 5.526,5.526 0 0 1 -0.061,-0.806 z m 0.239,-3.015 0.014,1.019 h -1.183 c -0.305,0 -0.574,0.029 -0.806,0.088 a 1.657,1.657 0 0 0 -0.581,0.246 1.07,1.07 0 0 0 -0.349,0.397 c -0.078,0.155 -0.116,0.33 -0.116,0.526 0,0.196 0.045,0.376 0.136,0.54 0.092,0.16 0.224,0.285 0.397,0.376 0.178,0.091 0.392,0.137 0.642,0.137 0.338,0 0.632,-0.068 0.882,-0.205 a 1.81,1.81 0 0 0 0.602,-0.513 c 0.146,-0.205 0.223,-0.398 0.232,-0.581 l 0.533,0.732 a 2.472,2.472 0 0 1 -0.28,0.601 c -0.132,0.214 -0.305,0.42 -0.519,0.615 a 2.577,2.577 0 0 1 -1.771,0.657 c -0.483,0 -0.914,-0.096 -1.292,-0.287 a 2.301,2.301 0 0 1 -0.889,-0.787 2.036,2.036 0 0 1 -0.321,-1.127 c 0,-0.392 0.073,-0.739 0.219,-1.04 0.15,-0.305 0.369,-0.56 0.656,-0.765 0.292,-0.205 0.647,-0.36 1.067,-0.465 a 5.715,5.715 0 0 1 1.435,-0.164 z m 7.82,2.967 V 702.5 h 1.654 V 713 h -1.497 z m -4.813,-2.085 v -0.144 c 0,-0.56 0.066,-1.071 0.198,-1.531 0.132,-0.465 0.324,-0.864 0.575,-1.196 0.25,-0.338 0.556,-0.595 0.916,-0.773 0.36,-0.182 0.765,-0.273 1.216,-0.273 0.447,0 0.839,0.086 1.176,0.26 0.337,0.173 0.624,0.421 0.861,0.745 0.237,0.319 0.427,0.702 0.568,1.148 0.141,0.442 0.241,0.934 0.301,1.477 v 0.458 a 7.488,7.488 0 0 1 -0.301,1.449 3.893,3.893 0 0 1 -0.568,1.135 2.447,2.447 0 0 1 -0.868,0.738 c -0.337,0.173 -0.731,0.26 -1.182,0.26 -0.447,0 -0.85,-0.094 -1.21,-0.281 a 2.646,2.646 0 0 1 -0.909,-0.786 3.685,3.685 0 0 1 -0.575,-1.189 5.409,5.409 0 0 1 -0.198,-1.497 z m 1.648,-0.144 v 0.144 c 0,0.337 0.029,0.651 0.088,0.943 0.064,0.292 0.162,0.549 0.294,0.773 0.132,0.218 0.303,0.392 0.513,0.519 0.214,0.123 0.469,0.185 0.766,0.185 0.373,0 0.681,-0.082 0.923,-0.246 0.241,-0.164 0.43,-0.385 0.567,-0.663 0.141,-0.283 0.237,-0.597 0.287,-0.944 v -1.237 a 2.983,2.983 0 0 0 -0.171,-0.752 2.006,2.006 0 0 0 -0.335,-0.608 1.415,1.415 0 0 0 -0.526,-0.411 c -0.205,-0.1 -0.449,-0.15 -0.732,-0.15 -0.3,0 -0.556,0.064 -0.765,0.191 -0.21,0.128 -0.383,0.303 -0.52,0.527 -0.132,0.223 -0.23,0.483 -0.294,0.779 a 4.493,4.493 0 0 0 -0.095,0.95 z"
           class="Head"
           id="path5919" />
      </g>
      <g
         class="TableHead"
         id="g5925">
        <path
           fill="#000000"
           fill-opacity="0.87"
           d="m 968.588,707.203 v 1.36 h -5.284 v -1.36 z m -4.86,-4.156 V 713 h -1.716 v -9.953 z m 6.179,0 V 713 h -1.709 v -9.953 z m 5.311,10.09 a 3.946,3.946 0 0 1 -1.484,-0.267 3.27,3.27 0 0 1 -1.121,-0.759 3.365,3.365 0 0 1 -0.704,-1.141 4,4 0 0 1 -0.246,-1.415 v -0.274 c 0,-0.579 0.084,-1.103 0.253,-1.572 0.169,-0.469 0.403,-0.87 0.704,-1.203 a 3.03,3.03 0 0 1 1.067,-0.773 c 0.41,-0.177 0.854,-0.266 1.333,-0.266 0.528,0 0.991,0.089 1.387,0.266 0.397,0.178 0.725,0.429 0.985,0.752 0.264,0.319 0.46,0.7 0.588,1.142 a 5.1,5.1 0 0 1 0.198,1.463 v 0.704 h -5.715 v -1.183 h 4.088 v -0.13 a 2.3,2.3 0 0 0 -0.178,-0.834 1.415,1.415 0 0 0 -0.485,-0.628 c -0.219,-0.16 -0.511,-0.24 -0.875,-0.24 -0.274,0 -0.517,0.06 -0.732,0.178 -0.209,0.114 -0.385,0.28 -0.526,0.499 a 2.624,2.624 0 0 0 -0.328,0.793 c -0.073,0.305 -0.11,0.649 -0.11,1.032 v 0.274 c 0,0.323 0.044,0.624 0.13,0.902 0.091,0.273 0.224,0.513 0.397,0.718 0.173,0.205 0.383,0.367 0.629,0.485 0.246,0.114 0.526,0.171 0.841,0.171 0.396,0 0.749,-0.08 1.059,-0.239 0.31,-0.16 0.579,-0.385 0.807,-0.677 l 0.868,0.841 c -0.16,0.232 -0.367,0.456 -0.622,0.67 -0.255,0.209 -0.568,0.38 -0.937,0.512 -0.364,0.133 -0.788,0.199 -1.271,0.199 z m 8.585,-1.62 v -3.528 c 0,-0.264 -0.048,-0.492 -0.144,-0.683 a 1,1 0 0 0 -0.437,-0.445 c -0.192,-0.104 -0.433,-0.157 -0.725,-0.157 -0.269,0 -0.501,0.046 -0.697,0.137 a 1.123,1.123 0 0 0 -0.458,0.369 0.892,0.892 0 0 0 -0.164,0.526 h -1.641 c 0,-0.291 0.071,-0.574 0.212,-0.847 0.141,-0.274 0.347,-0.518 0.615,-0.732 0.269,-0.214 0.591,-0.383 0.964,-0.506 a 4.013,4.013 0 0 1 1.258,-0.184 c 0.556,0 1.048,0.093 1.477,0.28 a 2.24,2.24 0 0 1 1.018,0.848 c 0.251,0.373 0.376,0.843 0.376,1.408 v 3.288 c 0,0.337 0.023,0.64 0.069,0.909 0.05,0.265 0.12,0.495 0.211,0.691 V 713 h -1.688 a 2.96,2.96 0 0 1 -0.185,-0.677 5.526,5.526 0 0 1 -0.061,-0.806 z m 0.239,-3.015 0.014,1.019 h -1.183 c -0.305,0 -0.574,0.029 -0.806,0.088 a 1.657,1.657 0 0 0 -0.581,0.246 1.07,1.07 0 0 0 -0.349,0.397 c -0.078,0.155 -0.116,0.33 -0.116,0.526 0,0.196 0.045,0.376 0.136,0.54 0.092,0.16 0.224,0.285 0.397,0.376 0.178,0.091 0.392,0.137 0.642,0.137 0.338,0 0.632,-0.068 0.882,-0.205 a 1.81,1.81 0 0 0 0.602,-0.513 c 0.146,-0.205 0.223,-0.398 0.232,-0.581 l 0.533,0.732 a 2.472,2.472 0 0 1 -0.28,0.601 c -0.132,0.214 -0.305,0.42 -0.519,0.615 a 2.577,2.577 0 0 1 -1.771,0.657 c -0.483,0 -0.914,-0.096 -1.292,-0.287 a 2.301,2.301 0 0 1 -0.889,-0.787 2.036,2.036 0 0 1 -0.321,-1.127 c 0,-0.392 0.073,-0.739 0.219,-1.04 0.15,-0.305 0.369,-0.56 0.656,-0.765 0.292,-0.205 0.647,-0.36 1.067,-0.465 a 5.715,5.715 0 0 1 1.435,-0.164 z m 7.82,2.967 V 702.5 h 1.654 V 713 h -1.497 z m -4.813,-2.085 v -0.144 c 0,-0.56 0.066,-1.071 0.198,-1.531 0.132,-0.465 0.324,-0.864 0.575,-1.196 0.25,-0.338 0.556,-0.595 0.916,-0.773 0.36,-0.182 0.765,-0.273 1.216,-0.273 0.447,0 0.839,0.086 1.176,0.26 0.337,0.173 0.624,0.421 0.861,0.745 0.237,0.319 0.427,0.702 0.568,1.148 0.141,0.442 0.241,0.934 0.301,1.477 v 0.458 a 7.488,7.488 0 0 1 -0.301,1.449 3.893,3.893 0 0 1 -0.568,1.135 2.447,2.447 0 0 1 -0.868,0.738 c -0.337,0.173 -0.731,0.26 -1.182,0.26 -0.447,0 -0.85,-0.094 -1.21,-0.281 a 2.646,2.646 0 0 1 -0.909,-0.786 3.685,3.685 0 0 1 -0.575,-1.189 5.409,5.409 0 0 1 -0.198,-1.497 z m 1.648,-0.144 v 0.144 c 0,0.337 0.029,0.651 0.088,0.943 0.064,0.292 0.162,0.549 0.294,0.773 0.132,0.218 0.303,0.392 0.513,0.519 0.214,0.123 0.469,0.185 0.766,0.185 0.373,0 0.681,-0.082 0.923,-0.246 0.241,-0.164 0.43,-0.385 0.567,-0.663 0.141,-0.283 0.237,-0.597 0.287,-0.944 v -1.237 a 2.983,2.983 0 0 0 -0.171,-0.752 2.006,2.006 0 0 0 -0.335,-0.608 1.415,1.415 0 0 0 -0.526,-0.411 c -0.205,-0.1 -0.449,-0.15 -0.732,-0.15 -0.3,0 -0.556,0.064 -0.765,0.191 -0.21,0.128 -0.383,0.303 -0.52,0.527 -0.132,0.223 -0.23,0.483 -0.294,0.779 a 4.493,4.493 0 0 0 -0.095,0.95 z"
           class="Head"
           id="path5923" />
      </g>
    </g>
    <g
       class="TableCellRow"
       filter="url(#u)"
       id="g5963"
       transform="translate(-24,-24)">
      <path
         fill="#ffffff"
         fill-opacity="0.01"
         d="m 648,736 h 396 v 52 H 648 Z"
         id="path5929" />
      <g
         class="TableCell"
         id="g5943">
        <g
           class="Checkbox"
           id="g5937">
          <g
             class="Padding"
             id="g5935">
            <g
               class="CheckBoxOutlineBlank"
               id="g5933">
              <path
                 fill="#000000"
                 fill-opacity="0.6"
                 d="m 680,755 v 14 h -14 v -14 z m 0,-2 h -14 c -1.1,0 -2,0.9 -2,2 v 14 c 0,1.1 0.9,2 2,2 h 14 c 1.1,0 2,-0.9 2,-2 v -14 c 0,-1.1 -0.9,-2 -2,-2 z"
                 class="Vector"
                 id="path5931" />
            </g>
          </g>
        </g>
        <g
           class="Typography"
           id="g5941">
          <path
             fill="#000000"
             fill-opacity="0.87"
             d="m 701.164,763.835 h 1.313 a 4.2,4.2 0 0 1 -0.54,1.688 3.164,3.164 0 0 1 -1.238,1.183 c -0.533,0.287 -1.198,0.431 -1.996,0.431 -0.583,0 -1.114,-0.11 -1.593,-0.328 a 3.543,3.543 0 0 1 -1.223,-0.93 4.355,4.355 0 0 1 -0.793,-1.456 6.195,6.195 0 0 1 -0.274,-1.901 v -0.991 c 0,-0.697 0.091,-1.328 0.274,-1.893 0.187,-0.57 0.453,-1.058 0.8,-1.463 0.35,-0.406 0.772,-0.718 1.264,-0.937 a 4.06,4.06 0 0 1 1.661,-0.328 c 0.752,0 1.388,0.141 1.908,0.424 0.519,0.283 0.922,0.674 1.21,1.176 0.291,0.497 0.471,1.073 0.54,1.729 h -1.313 a 3.667,3.667 0 0 0 -0.355,-1.196 1.854,1.854 0 0 0 -0.739,-0.779 c -0.319,-0.183 -0.736,-0.274 -1.251,-0.274 -0.442,0 -0.831,0.085 -1.169,0.253 a 2.353,2.353 0 0 0 -0.84,0.718 c -0.224,0.31 -0.392,0.681 -0.506,1.114 a 5.666,5.666 0 0 0 -0.171,1.443 v 1.004 c 0,0.488 0.05,0.946 0.15,1.374 0.105,0.429 0.262,0.805 0.472,1.128 0.21,0.324 0.476,0.579 0.8,0.766 0.323,0.182 0.706,0.273 1.148,0.273 0.561,0 1.007,-0.088 1.34,-0.266 0.333,-0.178 0.583,-0.433 0.752,-0.766 0.173,-0.332 0.296,-0.731 0.369,-1.196 z m 6.158,3.302 c -0.515,0 -0.982,-0.087 -1.401,-0.26 a 3.179,3.179 0 0 1 -1.073,-0.745 3.323,3.323 0 0 1 -0.684,-1.135 4.17,4.17 0 0 1 -0.239,-1.435 v -0.288 c 0,-0.601 0.089,-1.137 0.266,-1.606 0.178,-0.474 0.42,-0.875 0.725,-1.203 a 3.097,3.097 0 0 1 1.039,-0.745 2.982,2.982 0 0 1 1.203,-0.253 c 0.529,0 0.985,0.091 1.367,0.273 0.388,0.183 0.705,0.438 0.951,0.766 0.246,0.323 0.428,0.706 0.547,1.148 0.118,0.438 0.177,0.916 0.177,1.436 v 0.567 h -5.523 v -1.032 h 4.259 v -0.096 a 3.194,3.194 0 0 0 -0.205,-0.957 1.721,1.721 0 0 0 -0.547,-0.765 c -0.251,-0.201 -0.593,-0.301 -1.026,-0.301 a 1.723,1.723 0 0 0 -1.415,0.718 2.692,2.692 0 0 0 -0.403,0.868 4.387,4.387 0 0 0 -0.144,1.182 v 0.288 c 0,0.35 0.048,0.681 0.144,0.991 0.1,0.305 0.244,0.574 0.431,0.806 0.191,0.233 0.421,0.415 0.69,0.547 0.273,0.132 0.583,0.198 0.93,0.198 0.446,0 0.825,-0.091 1.134,-0.273 0.31,-0.182 0.582,-0.426 0.814,-0.731 l 0.766,0.608 c -0.16,0.242 -0.363,0.472 -0.609,0.69 a 2.904,2.904 0 0 1 -0.909,0.534 c -0.355,0.136 -0.777,0.205 -1.265,0.205 z M 713.221,756.5 V 767 h -1.272 v -10.5 z m 3.574,0 V 767 h -1.271 v -10.5 z"
             class="Cell"
             id="path5939" />
        </g>
      </g>
      <g
         class="TableCell"
         id="g5949">
        <g
           class="Typography"
           id="g5947">
          <path
             fill="#000000"
             fill-opacity="0.87"
             d="m 770.164,763.835 h 1.313 a 4.2,4.2 0 0 1 -0.54,1.688 3.164,3.164 0 0 1 -1.238,1.183 c -0.533,0.287 -1.198,0.431 -1.996,0.431 -0.583,0 -1.114,-0.11 -1.593,-0.328 a 3.543,3.543 0 0 1 -1.223,-0.93 4.355,4.355 0 0 1 -0.793,-1.456 6.195,6.195 0 0 1 -0.274,-1.901 v -0.991 c 0,-0.697 0.091,-1.328 0.274,-1.893 0.187,-0.57 0.453,-1.058 0.8,-1.463 0.35,-0.406 0.772,-0.718 1.264,-0.937 a 4.06,4.06 0 0 1 1.661,-0.328 c 0.752,0 1.388,0.141 1.908,0.424 0.519,0.283 0.922,0.674 1.21,1.176 0.291,0.497 0.471,1.073 0.54,1.729 h -1.313 a 3.667,3.667 0 0 0 -0.355,-1.196 1.854,1.854 0 0 0 -0.739,-0.779 c -0.319,-0.183 -0.736,-0.274 -1.251,-0.274 -0.442,0 -0.831,0.085 -1.169,0.253 a 2.353,2.353 0 0 0 -0.84,0.718 c -0.224,0.31 -0.392,0.681 -0.506,1.114 a 5.666,5.666 0 0 0 -0.171,1.443 v 1.004 c 0,0.488 0.05,0.946 0.15,1.374 0.105,0.429 0.262,0.805 0.472,1.128 0.21,0.324 0.476,0.579 0.8,0.766 0.323,0.182 0.706,0.273 1.148,0.273 0.561,0 1.007,-0.088 1.34,-0.266 0.333,-0.178 0.583,-0.433 0.752,-0.766 0.173,-0.332 0.296,-0.731 0.369,-1.196 z m 6.158,3.302 c -0.515,0 -0.982,-0.087 -1.401,-0.26 a 3.179,3.179 0 0 1 -1.073,-0.745 3.323,3.323 0 0 1 -0.684,-1.135 4.17,4.17 0 0 1 -0.239,-1.435 v -0.288 c 0,-0.601 0.089,-1.137 0.266,-1.606 0.178,-0.474 0.42,-0.875 0.725,-1.203 a 3.097,3.097 0 0 1 1.039,-0.745 2.982,2.982 0 0 1 1.203,-0.253 c 0.529,0 0.985,0.091 1.367,0.273 0.388,0.183 0.705,0.438 0.951,0.766 0.246,0.323 0.428,0.706 0.547,1.148 0.118,0.438 0.177,0.916 0.177,1.436 v 0.567 h -5.523 v -1.032 h 4.259 v -0.096 a 3.194,3.194 0 0 0 -0.205,-0.957 1.721,1.721 0 0 0 -0.547,-0.765 c -0.251,-0.201 -0.593,-0.301 -1.026,-0.301 a 1.723,1.723 0 0 0 -1.415,0.718 2.692,2.692 0 0 0 -0.403,0.868 4.387,4.387 0 0 0 -0.144,1.182 v 0.288 c 0,0.35 0.048,0.681 0.144,0.991 0.1,0.305 0.244,0.574 0.431,0.806 0.191,0.233 0.421,0.415 0.69,0.547 0.273,0.132 0.583,0.198 0.93,0.198 0.446,0 0.825,-0.091 1.134,-0.273 0.31,-0.182 0.582,-0.426 0.814,-0.731 l 0.766,0.608 c -0.16,0.242 -0.363,0.472 -0.609,0.69 a 2.904,2.904 0 0 1 -0.909,0.534 c -0.355,0.136 -0.777,0.205 -1.265,0.205 z M 782.221,756.5 V 767 h -1.272 v -10.5 z m 3.574,0 V 767 h -1.271 v -10.5 z"
             class="Cell"
             id="path5945" />
        </g>
      </g>
      <g
         class="TableCell"
         id="g5955">
        <g
           class="Typography"
           id="g5953">
          <path
             fill="#000000"
             fill-opacity="0.87"
             d="m 869.164,763.835 h 1.313 a 4.2,4.2 0 0 1 -0.54,1.688 3.164,3.164 0 0 1 -1.238,1.183 c -0.533,0.287 -1.198,0.431 -1.996,0.431 -0.583,0 -1.114,-0.11 -1.593,-0.328 a 3.543,3.543 0 0 1 -1.223,-0.93 4.355,4.355 0 0 1 -0.793,-1.456 6.195,6.195 0 0 1 -0.274,-1.901 v -0.991 c 0,-0.697 0.091,-1.328 0.274,-1.893 0.187,-0.57 0.453,-1.058 0.8,-1.463 0.35,-0.406 0.772,-0.718 1.264,-0.937 a 4.06,4.06 0 0 1 1.661,-0.328 c 0.752,0 1.388,0.141 1.908,0.424 0.519,0.283 0.922,0.674 1.21,1.176 0.291,0.497 0.471,1.073 0.54,1.729 h -1.313 a 3.667,3.667 0 0 0 -0.355,-1.196 1.854,1.854 0 0 0 -0.739,-0.779 c -0.319,-0.183 -0.736,-0.274 -1.251,-0.274 -0.442,0 -0.831,0.085 -1.169,0.253 a 2.353,2.353 0 0 0 -0.84,0.718 c -0.224,0.31 -0.392,0.681 -0.506,1.114 a 5.666,5.666 0 0 0 -0.171,1.443 v 1.004 c 0,0.488 0.05,0.946 0.15,1.374 0.105,0.429 0.262,0.805 0.472,1.128 0.21,0.324 0.476,0.579 0.8,0.766 0.323,0.182 0.706,0.273 1.148,0.273 0.561,0 1.007,-0.088 1.34,-0.266 0.333,-0.178 0.583,-0.433 0.752,-0.766 0.173,-0.332 0.296,-0.731 0.369,-1.196 z m 6.158,3.302 c -0.515,0 -0.982,-0.087 -1.401,-0.26 a 3.179,3.179 0 0 1 -1.073,-0.745 3.323,3.323 0 0 1 -0.684,-1.135 4.17,4.17 0 0 1 -0.239,-1.435 v -0.288 c 0,-0.601 0.089,-1.137 0.266,-1.606 0.178,-0.474 0.42,-0.875 0.725,-1.203 a 3.097,3.097 0 0 1 1.039,-0.745 2.982,2.982 0 0 1 1.203,-0.253 c 0.529,0 0.985,0.091 1.367,0.273 0.388,0.183 0.705,0.438 0.951,0.766 0.246,0.323 0.428,0.706 0.547,1.148 0.118,0.438 0.177,0.916 0.177,1.436 v 0.567 h -5.523 v -1.032 h 4.259 v -0.096 a 3.194,3.194 0 0 0 -0.205,-0.957 1.721,1.721 0 0 0 -0.547,-0.765 c -0.251,-0.201 -0.593,-0.301 -1.026,-0.301 a 1.723,1.723 0 0 0 -1.415,0.718 2.692,2.692 0 0 0 -0.403,0.868 4.387,4.387 0 0 0 -0.144,1.182 v 0.288 c 0,0.35 0.048,0.681 0.144,0.991 0.1,0.305 0.244,0.574 0.431,0.806 0.191,0.233 0.421,0.415 0.69,0.547 0.273,0.132 0.583,0.198 0.93,0.198 0.446,0 0.825,-0.091 1.134,-0.273 0.31,-0.182 0.582,-0.426 0.814,-0.731 l 0.766,0.608 c -0.16,0.242 -0.363,0.472 -0.609,0.69 a 2.904,2.904 0 0 1 -0.909,0.534 c -0.355,0.136 -0.777,0.205 -1.265,0.205 z M 881.221,756.5 V 767 h -1.272 v -10.5 z m 3.574,0 V 767 h -1.271 v -10.5 z"
             class="Cell"
             id="path5951" />
        </g>
      </g>
      <g
         class="TableCell"
         id="g5961">
        <g
           class="Typography"
           id="g5959">
          <path
             fill="#000000"
             fill-opacity="0.87"
             d="m 968.164,763.835 h 1.313 a 4.2,4.2 0 0 1 -0.54,1.688 3.164,3.164 0 0 1 -1.238,1.183 c -0.533,0.287 -1.198,0.431 -1.996,0.431 -0.583,0 -1.114,-0.11 -1.593,-0.328 a 3.543,3.543 0 0 1 -1.223,-0.93 4.355,4.355 0 0 1 -0.793,-1.456 6.195,6.195 0 0 1 -0.274,-1.901 v -0.991 c 0,-0.697 0.091,-1.328 0.274,-1.893 0.187,-0.57 0.453,-1.058 0.8,-1.463 0.35,-0.406 0.772,-0.718 1.264,-0.937 a 4.06,4.06 0 0 1 1.661,-0.328 c 0.752,0 1.388,0.141 1.908,0.424 0.519,0.283 0.922,0.674 1.21,1.176 0.291,0.497 0.471,1.073 0.54,1.729 h -1.313 a 3.667,3.667 0 0 0 -0.355,-1.196 1.854,1.854 0 0 0 -0.739,-0.779 c -0.319,-0.183 -0.736,-0.274 -1.251,-0.274 -0.442,0 -0.831,0.085 -1.169,0.253 a 2.353,2.353 0 0 0 -0.84,0.718 c -0.224,0.31 -0.392,0.681 -0.506,1.114 a 5.666,5.666 0 0 0 -0.171,1.443 v 1.004 c 0,0.488 0.05,0.946 0.15,1.374 0.105,0.429 0.262,0.805 0.472,1.128 0.21,0.324 0.476,0.579 0.8,0.766 0.323,0.182 0.706,0.273 1.148,0.273 0.561,0 1.007,-0.088 1.34,-0.266 0.333,-0.178 0.583,-0.433 0.752,-0.766 0.173,-0.332 0.296,-0.731 0.369,-1.196 z m 6.158,3.302 c -0.515,0 -0.982,-0.087 -1.401,-0.26 a 3.179,3.179 0 0 1 -1.073,-0.745 3.323,3.323 0 0 1 -0.684,-1.135 4.17,4.17 0 0 1 -0.239,-1.435 v -0.288 c 0,-0.601 0.089,-1.137 0.266,-1.606 0.178,-0.474 0.42,-0.875 0.725,-1.203 a 3.097,3.097 0 0 1 1.039,-0.745 2.982,2.982 0 0 1 1.203,-0.253 c 0.529,0 0.985,0.091 1.367,0.273 0.388,0.183 0.705,0.438 0.951,0.766 0.246,0.323 0.428,0.706 0.547,1.148 0.118,0.438 0.177,0.916 0.177,1.436 v 0.567 h -5.523 v -1.032 h 4.259 v -0.096 a 3.194,3.194 0 0 0 -0.205,-0.957 1.721,1.721 0 0 0 -0.547,-0.765 c -0.251,-0.201 -0.593,-0.301 -1.026,-0.301 a 1.723,1.723 0 0 0 -1.415,0.718 2.692,2.692 0 0 0 -0.403,0.868 4.387,4.387 0 0 0 -0.144,1.182 v 0.288 c 0,0.35 0.048,0.681 0.144,0.991 0.1,0.305 0.244,0.574 0.431,0.806 0.191,0.233 0.421,0.415 0.69,0.547 0.273,0.132 0.583,0.198 0.93,0.198 0.446,0 0.825,-0.091 1.134,-0.273 0.31,-0.182 0.582,-0.426 0.814,-0.731 l 0.766,0.608 c -0.16,0.242 -0.363,0.472 -0.609,0.69 a 2.904,2.904 0 0 1 -0.909,0.534 c -0.355,0.136 -0.777,0.205 -1.265,0.205 z M 980.221,756.5 V 767 h -1.272 v -10.5 z m 3.574,0 V 767 h -1.271 v -10.5 z"
             class="Cell"
             id="path5957" />
        </g>
      </g>
    </g>
    <g
       class="TableCellRow"
       filter="url(#v)"
       id="g5999"
       transform="translate(-24,-24)">
      <path
         fill="#1976d2"
         fill-opacity="0.08"
         d="m 648,788 h 396 v 52 H 648 Z"
         id="path5965" />
      <g
         class="TableCell"
         id="g5979">
        <g
           class="Checkbox/True/False/False/Medium*/Primary*/Enabled/False"
           id="g5973">
          <g
             class="Padding"
             id="g5971">
            <g
               class="CheckBox"
               id="g5969">
              <path
                 fill="#1976d2"
                 d="m 680,805 h -14 a 2,2 0 0 0 -2,2 v 14 a 2,2 0 0 0 2,2 h 14 a 2,2 0 0 0 2,-2 v -14 a 2,2 0 0 0 -2,-2 z m -9,14 -5,-5 1.41,-1.41 3.59,3.58 7.59,-7.59 1.41,1.42 z"
                 class="Vector"
                 id="path5967" />
            </g>
          </g>
        </g>
        <g
           class="Typography"
           id="g5977">
          <path
             fill="#000000"
             fill-opacity="0.87"
             d="m 701.164,815.835 h 1.313 a 4.2,4.2 0 0 1 -0.54,1.688 3.164,3.164 0 0 1 -1.238,1.183 c -0.533,0.287 -1.198,0.431 -1.996,0.431 -0.583,0 -1.114,-0.11 -1.593,-0.328 a 3.543,3.543 0 0 1 -1.223,-0.93 4.355,4.355 0 0 1 -0.793,-1.456 6.195,6.195 0 0 1 -0.274,-1.901 v -0.991 c 0,-0.697 0.091,-1.328 0.274,-1.893 0.187,-0.57 0.453,-1.058 0.8,-1.463 0.35,-0.406 0.772,-0.718 1.264,-0.937 a 4.06,4.06 0 0 1 1.661,-0.328 c 0.752,0 1.388,0.141 1.908,0.424 0.519,0.283 0.922,0.674 1.21,1.176 0.291,0.497 0.471,1.073 0.54,1.729 h -1.313 a 3.667,3.667 0 0 0 -0.355,-1.196 1.854,1.854 0 0 0 -0.739,-0.779 c -0.319,-0.183 -0.736,-0.274 -1.251,-0.274 -0.442,0 -0.831,0.085 -1.169,0.253 a 2.353,2.353 0 0 0 -0.84,0.718 c -0.224,0.31 -0.392,0.681 -0.506,1.114 a 5.666,5.666 0 0 0 -0.171,1.443 v 1.004 c 0,0.488 0.05,0.946 0.15,1.374 0.105,0.429 0.262,0.805 0.472,1.128 0.21,0.324 0.476,0.579 0.8,0.766 0.323,0.182 0.706,0.273 1.148,0.273 0.561,0 1.007,-0.088 1.34,-0.266 0.333,-0.178 0.583,-0.433 0.752,-0.766 0.173,-0.332 0.296,-0.731 0.369,-1.196 z m 6.158,3.302 c -0.515,0 -0.982,-0.087 -1.401,-0.26 a 3.179,3.179 0 0 1 -1.073,-0.745 3.323,3.323 0 0 1 -0.684,-1.135 4.17,4.17 0 0 1 -0.239,-1.435 v -0.288 c 0,-0.601 0.089,-1.137 0.266,-1.606 0.178,-0.474 0.42,-0.875 0.725,-1.203 a 3.097,3.097 0 0 1 1.039,-0.745 2.982,2.982 0 0 1 1.203,-0.253 c 0.529,0 0.985,0.091 1.367,0.273 0.388,0.183 0.705,0.438 0.951,0.766 0.246,0.323 0.428,0.706 0.547,1.148 0.118,0.438 0.177,0.916 0.177,1.436 v 0.567 h -5.523 v -1.032 h 4.259 v -0.096 a 3.194,3.194 0 0 0 -0.205,-0.957 1.721,1.721 0 0 0 -0.547,-0.765 c -0.251,-0.201 -0.593,-0.301 -1.026,-0.301 a 1.723,1.723 0 0 0 -1.415,0.718 2.692,2.692 0 0 0 -0.403,0.868 4.387,4.387 0 0 0 -0.144,1.182 v 0.288 c 0,0.35 0.048,0.681 0.144,0.991 0.1,0.305 0.244,0.574 0.431,0.806 0.191,0.233 0.421,0.415 0.69,0.547 0.273,0.132 0.583,0.198 0.93,0.198 0.446,0 0.825,-0.091 1.134,-0.273 0.31,-0.182 0.582,-0.426 0.814,-0.731 l 0.766,0.608 c -0.16,0.242 -0.363,0.472 -0.609,0.69 a 2.904,2.904 0 0 1 -0.909,0.534 c -0.355,0.136 -0.777,0.205 -1.265,0.205 z M 713.221,808.5 V 819 h -1.272 v -10.5 z m 3.574,0 V 819 h -1.271 v -10.5 z"
             class="Cell"
             id="path5975" />
        </g>
      </g>
      <g
         class="TableCell"
         id="g5985">
        <g
           class="Typography"
           id="g5983">
          <path
             fill="#000000"
             fill-opacity="0.87"
             d="m 770.164,815.835 h 1.313 a 4.2,4.2 0 0 1 -0.54,1.688 3.164,3.164 0 0 1 -1.238,1.183 c -0.533,0.287 -1.198,0.431 -1.996,0.431 -0.583,0 -1.114,-0.11 -1.593,-0.328 a 3.543,3.543 0 0 1 -1.223,-0.93 4.355,4.355 0 0 1 -0.793,-1.456 6.195,6.195 0 0 1 -0.274,-1.901 v -0.991 c 0,-0.697 0.091,-1.328 0.274,-1.893 0.187,-0.57 0.453,-1.058 0.8,-1.463 0.35,-0.406 0.772,-0.718 1.264,-0.937 a 4.06,4.06 0 0 1 1.661,-0.328 c 0.752,0 1.388,0.141 1.908,0.424 0.519,0.283 0.922,0.674 1.21,1.176 0.291,0.497 0.471,1.073 0.54,1.729 h -1.313 a 3.667,3.667 0 0 0 -0.355,-1.196 1.854,1.854 0 0 0 -0.739,-0.779 c -0.319,-0.183 -0.736,-0.274 -1.251,-0.274 -0.442,0 -0.831,0.085 -1.169,0.253 a 2.353,2.353 0 0 0 -0.84,0.718 c -0.224,0.31 -0.392,0.681 -0.506,1.114 a 5.666,5.666 0 0 0 -0.171,1.443 v 1.004 c 0,0.488 0.05,0.946 0.15,1.374 0.105,0.429 0.262,0.805 0.472,1.128 0.21,0.324 0.476,0.579 0.8,0.766 0.323,0.182 0.706,0.273 1.148,0.273 0.561,0 1.007,-0.088 1.34,-0.266 0.333,-0.178 0.583,-0.433 0.752,-0.766 0.173,-0.332 0.296,-0.731 0.369,-1.196 z m 6.158,3.302 c -0.515,0 -0.982,-0.087 -1.401,-0.26 a 3.179,3.179 0 0 1 -1.073,-0.745 3.323,3.323 0 0 1 -0.684,-1.135 4.17,4.17 0 0 1 -0.239,-1.435 v -0.288 c 0,-0.601 0.089,-1.137 0.266,-1.606 0.178,-0.474 0.42,-0.875 0.725,-1.203 a 3.097,3.097 0 0 1 1.039,-0.745 2.982,2.982 0 0 1 1.203,-0.253 c 0.529,0 0.985,0.091 1.367,0.273 0.388,0.183 0.705,0.438 0.951,0.766 0.246,0.323 0.428,0.706 0.547,1.148 0.118,0.438 0.177,0.916 0.177,1.436 v 0.567 h -5.523 v -1.032 h 4.259 v -0.096 a 3.194,3.194 0 0 0 -0.205,-0.957 1.721,1.721 0 0 0 -0.547,-0.765 c -0.251,-0.201 -0.593,-0.301 -1.026,-0.301 a 1.723,1.723 0 0 0 -1.415,0.718 2.692,2.692 0 0 0 -0.403,0.868 4.387,4.387 0 0 0 -0.144,1.182 v 0.288 c 0,0.35 0.048,0.681 0.144,0.991 0.1,0.305 0.244,0.574 0.431,0.806 0.191,0.233 0.421,0.415 0.69,0.547 0.273,0.132 0.583,0.198 0.93,0.198 0.446,0 0.825,-0.091 1.134,-0.273 0.31,-0.182 0.582,-0.426 0.814,-0.731 l 0.766,0.608 c -0.16,0.242 -0.363,0.472 -0.609,0.69 a 2.904,2.904 0 0 1 -0.909,0.534 c -0.355,0.136 -0.777,0.205 -1.265,0.205 z M 782.221,808.5 V 819 h -1.272 v -10.5 z m 3.574,0 V 819 h -1.271 v -10.5 z"
             class="Cell"
             id="path5981" />
        </g>
      </g>
      <g
         class="TableCell"
         id="g5991">
        <g
           class="Typography"
           id="g5989">
          <path
             fill="#000000"
             fill-opacity="0.87"
             d="m 869.164,815.835 h 1.313 a 4.2,4.2 0 0 1 -0.54,1.688 3.164,3.164 0 0 1 -1.238,1.183 c -0.533,0.287 -1.198,0.431 -1.996,0.431 -0.583,0 -1.114,-0.11 -1.593,-0.328 a 3.543,3.543 0 0 1 -1.223,-0.93 4.355,4.355 0 0 1 -0.793,-1.456 6.195,6.195 0 0 1 -0.274,-1.901 v -0.991 c 0,-0.697 0.091,-1.328 0.274,-1.893 0.187,-0.57 0.453,-1.058 0.8,-1.463 0.35,-0.406 0.772,-0.718 1.264,-0.937 a 4.06,4.06 0 0 1 1.661,-0.328 c 0.752,0 1.388,0.141 1.908,0.424 0.519,0.283 0.922,0.674 1.21,1.176 0.291,0.497 0.471,1.073 0.54,1.729 h -1.313 a 3.667,3.667 0 0 0 -0.355,-1.196 1.854,1.854 0 0 0 -0.739,-0.779 c -0.319,-0.183 -0.736,-0.274 -1.251,-0.274 -0.442,0 -0.831,0.085 -1.169,0.253 a 2.353,2.353 0 0 0 -0.84,0.718 c -0.224,0.31 -0.392,0.681 -0.506,1.114 a 5.666,5.666 0 0 0 -0.171,1.443 v 1.004 c 0,0.488 0.05,0.946 0.15,1.374 0.105,0.429 0.262,0.805 0.472,1.128 0.21,0.324 0.476,0.579 0.8,0.766 0.323,0.182 0.706,0.273 1.148,0.273 0.561,0 1.007,-0.088 1.34,-0.266 0.333,-0.178 0.583,-0.433 0.752,-0.766 0.173,-0.332 0.296,-0.731 0.369,-1.196 z m 6.158,3.302 c -0.515,0 -0.982,-0.087 -1.401,-0.26 a 3.179,3.179 0 0 1 -1.073,-0.745 3.323,3.323 0 0 1 -0.684,-1.135 4.17,4.17 0 0 1 -0.239,-1.435 v -0.288 c 0,-0.601 0.089,-1.137 0.266,-1.606 0.178,-0.474 0.42,-0.875 0.725,-1.203 a 3.097,3.097 0 0 1 1.039,-0.745 2.982,2.982 0 0 1 1.203,-0.253 c 0.529,0 0.985,0.091 1.367,0.273 0.388,0.183 0.705,0.438 0.951,0.766 0.246,0.323 0.428,0.706 0.547,1.148 0.118,0.438 0.177,0.916 0.177,1.436 v 0.567 h -5.523 v -1.032 h 4.259 v -0.096 a 3.194,3.194 0 0 0 -0.205,-0.957 1.721,1.721 0 0 0 -0.547,-0.765 c -0.251,-0.201 -0.593,-0.301 -1.026,-0.301 a 1.723,1.723 0 0 0 -1.415,0.718 2.692,2.692 0 0 0 -0.403,0.868 4.387,4.387 0 0 0 -0.144,1.182 v 0.288 c 0,0.35 0.048,0.681 0.144,0.991 0.1,0.305 0.244,0.574 0.431,0.806 0.191,0.233 0.421,0.415 0.69,0.547 0.273,0.132 0.583,0.198 0.93,0.198 0.446,0 0.825,-0.091 1.134,-0.273 0.31,-0.182 0.582,-0.426 0.814,-0.731 l 0.766,0.608 c -0.16,0.242 -0.363,0.472 -0.609,0.69 a 2.904,2.904 0 0 1 -0.909,0.534 c -0.355,0.136 -0.777,0.205 -1.265,0.205 z M 881.221,808.5 V 819 h -1.272 v -10.5 z m 3.574,0 V 819 h -1.271 v -10.5 z"
             class="Cell"
             id="path5987" />
        </g>
      </g>
      <g
         class="TableCell"
         id="g5997">
        <g
           class="Typography"
           id="g5995">
          <path
             fill="#000000"
             fill-opacity="0.87"
             d="m 968.164,815.835 h 1.313 a 4.2,4.2 0 0 1 -0.54,1.688 3.164,3.164 0 0 1 -1.238,1.183 c -0.533,0.287 -1.198,0.431 -1.996,0.431 -0.583,0 -1.114,-0.11 -1.593,-0.328 a 3.543,3.543 0 0 1 -1.223,-0.93 4.355,4.355 0 0 1 -0.793,-1.456 6.195,6.195 0 0 1 -0.274,-1.901 v -0.991 c 0,-0.697 0.091,-1.328 0.274,-1.893 0.187,-0.57 0.453,-1.058 0.8,-1.463 0.35,-0.406 0.772,-0.718 1.264,-0.937 a 4.06,4.06 0 0 1 1.661,-0.328 c 0.752,0 1.388,0.141 1.908,0.424 0.519,0.283 0.922,0.674 1.21,1.176 0.291,0.497 0.471,1.073 0.54,1.729 h -1.313 a 3.667,3.667 0 0 0 -0.355,-1.196 1.854,1.854 0 0 0 -0.739,-0.779 c -0.319,-0.183 -0.736,-0.274 -1.251,-0.274 -0.442,0 -0.831,0.085 -1.169,0.253 a 2.353,2.353 0 0 0 -0.84,0.718 c -0.224,0.31 -0.392,0.681 -0.506,1.114 a 5.666,5.666 0 0 0 -0.171,1.443 v 1.004 c 0,0.488 0.05,0.946 0.15,1.374 0.105,0.429 0.262,0.805 0.472,1.128 0.21,0.324 0.476,0.579 0.8,0.766 0.323,0.182 0.706,0.273 1.148,0.273 0.561,0 1.007,-0.088 1.34,-0.266 0.333,-0.178 0.583,-0.433 0.752,-0.766 0.173,-0.332 0.296,-0.731 0.369,-1.196 z m 6.158,3.302 c -0.515,0 -0.982,-0.087 -1.401,-0.26 a 3.179,3.179 0 0 1 -1.073,-0.745 3.323,3.323 0 0 1 -0.684,-1.135 4.17,4.17 0 0 1 -0.239,-1.435 v -0.288 c 0,-0.601 0.089,-1.137 0.266,-1.606 0.178,-0.474 0.42,-0.875 0.725,-1.203 a 3.097,3.097 0 0 1 1.039,-0.745 2.982,2.982 0 0 1 1.203,-0.253 c 0.529,0 0.985,0.091 1.367,0.273 0.388,0.183 0.705,0.438 0.951,0.766 0.246,0.323 0.428,0.706 0.547,1.148 0.118,0.438 0.177,0.916 0.177,1.436 v 0.567 h -5.523 v -1.032 h 4.259 v -0.096 a 3.194,3.194 0 0 0 -0.205,-0.957 1.721,1.721 0 0 0 -0.547,-0.765 c -0.251,-0.201 -0.593,-0.301 -1.026,-0.301 a 1.723,1.723 0 0 0 -1.415,0.718 2.692,2.692 0 0 0 -0.403,0.868 4.387,4.387 0 0 0 -0.144,1.182 v 0.288 c 0,0.35 0.048,0.681 0.144,0.991 0.1,0.305 0.244,0.574 0.431,0.806 0.191,0.233 0.421,0.415 0.69,0.547 0.273,0.132 0.583,0.198 0.93,0.198 0.446,0 0.825,-0.091 1.134,-0.273 0.31,-0.182 0.582,-0.426 0.814,-0.731 l 0.766,0.608 c -0.16,0.242 -0.363,0.472 -0.609,0.69 a 2.904,2.904 0 0 1 -0.909,0.534 c -0.355,0.136 -0.777,0.205 -1.265,0.205 z M 980.221,808.5 V 819 h -1.272 v -10.5 z m 3.574,0 V 819 h -1.271 v -10.5 z"
             class="Cell"
             id="path5993" />
        </g>
      </g>
    </g>
    <g
       class="TableCellRow"
       filter="url(#w)"
       id="g6035"
       transform="translate(-24,-24)">
      <path
         fill="#ffffff"
         fill-opacity="0.01"
         d="m 648,840 h 396 v 52 H 648 Z"
         id="path6001" />
      <g
         class="TableCell"
         id="g6015">
        <g
           class="Checkbox"
           id="g6009">
          <g
             class="Padding"
             id="g6007">
            <g
               class="CheckBoxOutlineBlank"
               id="g6005">
              <path
                 fill="#000000"
                 fill-opacity="0.6"
                 d="m 680,859 v 14 h -14 v -14 z m 0,-2 h -14 c -1.1,0 -2,0.9 -2,2 v 14 c 0,1.1 0.9,2 2,2 h 14 c 1.1,0 2,-0.9 2,-2 v -14 c 0,-1.1 -0.9,-2 -2,-2 z"
                 class="Vector"
                 id="path6003" />
            </g>
          </g>
        </g>
        <g
           class="Typography"
           id="g6013">
          <path
             fill="#000000"
             fill-opacity="0.87"
             d="m 701.164,867.835 h 1.313 a 4.2,4.2 0 0 1 -0.54,1.688 3.164,3.164 0 0 1 -1.238,1.183 c -0.533,0.287 -1.198,0.431 -1.996,0.431 -0.583,0 -1.114,-0.11 -1.593,-0.328 a 3.543,3.543 0 0 1 -1.223,-0.93 4.355,4.355 0 0 1 -0.793,-1.456 6.195,6.195 0 0 1 -0.274,-1.901 v -0.991 c 0,-0.697 0.091,-1.328 0.274,-1.893 0.187,-0.57 0.453,-1.058 0.8,-1.463 0.35,-0.406 0.772,-0.718 1.264,-0.937 a 4.06,4.06 0 0 1 1.661,-0.328 c 0.752,0 1.388,0.141 1.908,0.424 0.519,0.283 0.922,0.674 1.21,1.176 0.291,0.497 0.471,1.073 0.54,1.729 h -1.313 a 3.667,3.667 0 0 0 -0.355,-1.196 1.854,1.854 0 0 0 -0.739,-0.779 c -0.319,-0.183 -0.736,-0.274 -1.251,-0.274 -0.442,0 -0.831,0.085 -1.169,0.253 a 2.353,2.353 0 0 0 -0.84,0.718 c -0.224,0.31 -0.392,0.681 -0.506,1.114 a 5.666,5.666 0 0 0 -0.171,1.443 v 1.004 c 0,0.488 0.05,0.946 0.15,1.374 0.105,0.429 0.262,0.805 0.472,1.128 0.21,0.324 0.476,0.579 0.8,0.766 0.323,0.182 0.706,0.273 1.148,0.273 0.561,0 1.007,-0.088 1.34,-0.266 0.333,-0.178 0.583,-0.433 0.752,-0.766 0.173,-0.332 0.296,-0.731 0.369,-1.196 z m 6.158,3.302 c -0.515,0 -0.982,-0.087 -1.401,-0.26 a 3.179,3.179 0 0 1 -1.073,-0.745 3.323,3.323 0 0 1 -0.684,-1.135 4.17,4.17 0 0 1 -0.239,-1.435 v -0.288 c 0,-0.601 0.089,-1.137 0.266,-1.606 0.178,-0.474 0.42,-0.875 0.725,-1.203 a 3.097,3.097 0 0 1 1.039,-0.745 2.982,2.982 0 0 1 1.203,-0.253 c 0.529,0 0.985,0.091 1.367,0.273 0.388,0.183 0.705,0.438 0.951,0.766 0.246,0.323 0.428,0.706 0.547,1.148 0.118,0.438 0.177,0.916 0.177,1.436 v 0.567 h -5.523 v -1.032 h 4.259 v -0.096 a 3.194,3.194 0 0 0 -0.205,-0.957 1.721,1.721 0 0 0 -0.547,-0.765 c -0.251,-0.201 -0.593,-0.301 -1.026,-0.301 a 1.723,1.723 0 0 0 -1.415,0.718 2.692,2.692 0 0 0 -0.403,0.868 4.387,4.387 0 0 0 -0.144,1.182 v 0.288 c 0,0.35 0.048,0.681 0.144,0.991 0.1,0.305 0.244,0.574 0.431,0.806 0.191,0.233 0.421,0.415 0.69,0.547 0.273,0.132 0.583,0.198 0.93,0.198 0.446,0 0.825,-0.091 1.134,-0.273 0.31,-0.182 0.582,-0.426 0.814,-0.731 l 0.766,0.608 c -0.16,0.242 -0.363,0.472 -0.609,0.69 a 2.904,2.904 0 0 1 -0.909,0.534 c -0.355,0.136 -0.777,0.205 -1.265,0.205 z M 713.221,860.5 V 871 h -1.272 v -10.5 z m 3.574,0 V 871 h -1.271 v -10.5 z"
             class="Cell"
             id="path6011" />
        </g>
      </g>
      <g
         class="TableCell"
         id="g6021">
        <g
           class="Typography"
           id="g6019">
          <path
             fill="#000000"
             fill-opacity="0.87"
             d="m 770.164,867.835 h 1.313 a 4.2,4.2 0 0 1 -0.54,1.688 3.164,3.164 0 0 1 -1.238,1.183 c -0.533,0.287 -1.198,0.431 -1.996,0.431 -0.583,0 -1.114,-0.11 -1.593,-0.328 a 3.543,3.543 0 0 1 -1.223,-0.93 4.355,4.355 0 0 1 -0.793,-1.456 6.195,6.195 0 0 1 -0.274,-1.901 v -0.991 c 0,-0.697 0.091,-1.328 0.274,-1.893 0.187,-0.57 0.453,-1.058 0.8,-1.463 0.35,-0.406 0.772,-0.718 1.264,-0.937 a 4.06,4.06 0 0 1 1.661,-0.328 c 0.752,0 1.388,0.141 1.908,0.424 0.519,0.283 0.922,0.674 1.21,1.176 0.291,0.497 0.471,1.073 0.54,1.729 h -1.313 a 3.667,3.667 0 0 0 -0.355,-1.196 1.854,1.854 0 0 0 -0.739,-0.779 c -0.319,-0.183 -0.736,-0.274 -1.251,-0.274 -0.442,0 -0.831,0.085 -1.169,0.253 a 2.353,2.353 0 0 0 -0.84,0.718 c -0.224,0.31 -0.392,0.681 -0.506,1.114 a 5.666,5.666 0 0 0 -0.171,1.443 v 1.004 c 0,0.488 0.05,0.946 0.15,1.374 0.105,0.429 0.262,0.805 0.472,1.128 0.21,0.324 0.476,0.579 0.8,0.766 0.323,0.182 0.706,0.273 1.148,0.273 0.561,0 1.007,-0.088 1.34,-0.266 0.333,-0.178 0.583,-0.433 0.752,-0.766 0.173,-0.332 0.296,-0.731 0.369,-1.196 z m 6.158,3.302 c -0.515,0 -0.982,-0.087 -1.401,-0.26 a 3.179,3.179 0 0 1 -1.073,-0.745 3.323,3.323 0 0 1 -0.684,-1.135 4.17,4.17 0 0 1 -0.239,-1.435 v -0.288 c 0,-0.601 0.089,-1.137 0.266,-1.606 0.178,-0.474 0.42,-0.875 0.725,-1.203 a 3.097,3.097 0 0 1 1.039,-0.745 2.982,2.982 0 0 1 1.203,-0.253 c 0.529,0 0.985,0.091 1.367,0.273 0.388,0.183 0.705,0.438 0.951,0.766 0.246,0.323 0.428,0.706 0.547,1.148 0.118,0.438 0.177,0.916 0.177,1.436 v 0.567 h -5.523 v -1.032 h 4.259 v -0.096 a 3.194,3.194 0 0 0 -0.205,-0.957 1.721,1.721 0 0 0 -0.547,-0.765 c -0.251,-0.201 -0.593,-0.301 -1.026,-0.301 a 1.723,1.723 0 0 0 -1.415,0.718 2.692,2.692 0 0 0 -0.403,0.868 4.387,4.387 0 0 0 -0.144,1.182 v 0.288 c 0,0.35 0.048,0.681 0.144,0.991 0.1,0.305 0.244,0.574 0.431,0.806 0.191,0.233 0.421,0.415 0.69,0.547 0.273,0.132 0.583,0.198 0.93,0.198 0.446,0 0.825,-0.091 1.134,-0.273 0.31,-0.182 0.582,-0.426 0.814,-0.731 l 0.766,0.608 c -0.16,0.242 -0.363,0.472 -0.609,0.69 a 2.904,2.904 0 0 1 -0.909,0.534 c -0.355,0.136 -0.777,0.205 -1.265,0.205 z M 782.221,860.5 V 871 h -1.272 v -10.5 z m 3.574,0 V 871 h -1.271 v -10.5 z"
             class="Cell"
             id="path6017" />
        </g>
      </g>
      <g
         class="TableCell"
         id="g6027">
        <g
           class="Typography"
           id="g6025">
          <path
             fill="#000000"
             fill-opacity="0.87"
             d="m 869.164,867.835 h 1.313 a 4.2,4.2 0 0 1 -0.54,1.688 3.164,3.164 0 0 1 -1.238,1.183 c -0.533,0.287 -1.198,0.431 -1.996,0.431 -0.583,0 -1.114,-0.11 -1.593,-0.328 a 3.543,3.543 0 0 1 -1.223,-0.93 4.355,4.355 0 0 1 -0.793,-1.456 6.195,6.195 0 0 1 -0.274,-1.901 v -0.991 c 0,-0.697 0.091,-1.328 0.274,-1.893 0.187,-0.57 0.453,-1.058 0.8,-1.463 0.35,-0.406 0.772,-0.718 1.264,-0.937 a 4.06,4.06 0 0 1 1.661,-0.328 c 0.752,0 1.388,0.141 1.908,0.424 0.519,0.283 0.922,0.674 1.21,1.176 0.291,0.497 0.471,1.073 0.54,1.729 h -1.313 a 3.667,3.667 0 0 0 -0.355,-1.196 1.854,1.854 0 0 0 -0.739,-0.779 c -0.319,-0.183 -0.736,-0.274 -1.251,-0.274 -0.442,0 -0.831,0.085 -1.169,0.253 a 2.353,2.353 0 0 0 -0.84,0.718 c -0.224,0.31 -0.392,0.681 -0.506,1.114 a 5.666,5.666 0 0 0 -0.171,1.443 v 1.004 c 0,0.488 0.05,0.946 0.15,1.374 0.105,0.429 0.262,0.805 0.472,1.128 0.21,0.324 0.476,0.579 0.8,0.766 0.323,0.182 0.706,0.273 1.148,0.273 0.561,0 1.007,-0.088 1.34,-0.266 0.333,-0.178 0.583,-0.433 0.752,-0.766 0.173,-0.332 0.296,-0.731 0.369,-1.196 z m 6.158,3.302 c -0.515,0 -0.982,-0.087 -1.401,-0.26 a 3.179,3.179 0 0 1 -1.073,-0.745 3.323,3.323 0 0 1 -0.684,-1.135 4.17,4.17 0 0 1 -0.239,-1.435 v -0.288 c 0,-0.601 0.089,-1.137 0.266,-1.606 0.178,-0.474 0.42,-0.875 0.725,-1.203 a 3.097,3.097 0 0 1 1.039,-0.745 2.982,2.982 0 0 1 1.203,-0.253 c 0.529,0 0.985,0.091 1.367,0.273 0.388,0.183 0.705,0.438 0.951,0.766 0.246,0.323 0.428,0.706 0.547,1.148 0.118,0.438 0.177,0.916 0.177,1.436 v 0.567 h -5.523 v -1.032 h 4.259 v -0.096 a 3.194,3.194 0 0 0 -0.205,-0.957 1.721,1.721 0 0 0 -0.547,-0.765 c -0.251,-0.201 -0.593,-0.301 -1.026,-0.301 a 1.723,1.723 0 0 0 -1.415,0.718 2.692,2.692 0 0 0 -0.403,0.868 4.387,4.387 0 0 0 -0.144,1.182 v 0.288 c 0,0.35 0.048,0.681 0.144,0.991 0.1,0.305 0.244,0.574 0.431,0.806 0.191,0.233 0.421,0.415 0.69,0.547 0.273,0.132 0.583,0.198 0.93,0.198 0.446,0 0.825,-0.091 1.134,-0.273 0.31,-0.182 0.582,-0.426 0.814,-0.731 l 0.766,0.608 c -0.16,0.242 -0.363,0.472 -0.609,0.69 a 2.904,2.904 0 0 1 -0.909,0.534 c -0.355,0.136 -0.777,0.205 -1.265,0.205 z M 881.221,860.5 V 871 h -1.272 v -10.5 z m 3.574,0 V 871 h -1.271 v -10.5 z"
             class="Cell"
             id="path6023" />
        </g>
      </g>
      <g
         class="TableCell"
         id="g6033">
        <g
           class="Typography"
           id="g6031">
          <path
             fill="#000000"
             fill-opacity="0.87"
             d="m 968.164,867.835 h 1.313 a 4.2,4.2 0 0 1 -0.54,1.688 3.164,3.164 0 0 1 -1.238,1.183 c -0.533,0.287 -1.198,0.431 -1.996,0.431 -0.583,0 -1.114,-0.11 -1.593,-0.328 a 3.543,3.543 0 0 1 -1.223,-0.93 4.355,4.355 0 0 1 -0.793,-1.456 6.195,6.195 0 0 1 -0.274,-1.901 v -0.991 c 0,-0.697 0.091,-1.328 0.274,-1.893 0.187,-0.57 0.453,-1.058 0.8,-1.463 0.35,-0.406 0.772,-0.718 1.264,-0.937 a 4.06,4.06 0 0 1 1.661,-0.328 c 0.752,0 1.388,0.141 1.908,0.424 0.519,0.283 0.922,0.674 1.21,1.176 0.291,0.497 0.471,1.073 0.54,1.729 h -1.313 a 3.667,3.667 0 0 0 -0.355,-1.196 1.854,1.854 0 0 0 -0.739,-0.779 c -0.319,-0.183 -0.736,-0.274 -1.251,-0.274 -0.442,0 -0.831,0.085 -1.169,0.253 a 2.353,2.353 0 0 0 -0.84,0.718 c -0.224,0.31 -0.392,0.681 -0.506,1.114 a 5.666,5.666 0 0 0 -0.171,1.443 v 1.004 c 0,0.488 0.05,0.946 0.15,1.374 0.105,0.429 0.262,0.805 0.472,1.128 0.21,0.324 0.476,0.579 0.8,0.766 0.323,0.182 0.706,0.273 1.148,0.273 0.561,0 1.007,-0.088 1.34,-0.266 0.333,-0.178 0.583,-0.433 0.752,-0.766 0.173,-0.332 0.296,-0.731 0.369,-1.196 z m 6.158,3.302 c -0.515,0 -0.982,-0.087 -1.401,-0.26 a 3.179,3.179 0 0 1 -1.073,-0.745 3.323,3.323 0 0 1 -0.684,-1.135 4.17,4.17 0 0 1 -0.239,-1.435 v -0.288 c 0,-0.601 0.089,-1.137 0.266,-1.606 0.178,-0.474 0.42,-0.875 0.725,-1.203 a 3.097,3.097 0 0 1 1.039,-0.745 2.982,2.982 0 0 1 1.203,-0.253 c 0.529,0 0.985,0.091 1.367,0.273 0.388,0.183 0.705,0.438 0.951,0.766 0.246,0.323 0.428,0.706 0.547,1.148 0.118,0.438 0.177,0.916 0.177,1.436 v 0.567 h -5.523 v -1.032 h 4.259 v -0.096 a 3.194,3.194 0 0 0 -0.205,-0.957 1.721,1.721 0 0 0 -0.547,-0.765 c -0.251,-0.201 -0.593,-0.301 -1.026,-0.301 a 1.723,1.723 0 0 0 -1.415,0.718 2.692,2.692 0 0 0 -0.403,0.868 4.387,4.387 0 0 0 -0.144,1.182 v 0.288 c 0,0.35 0.048,0.681 0.144,0.991 0.1,0.305 0.244,0.574 0.431,0.806 0.191,0.233 0.421,0.415 0.69,0.547 0.273,0.132 0.583,0.198 0.93,0.198 0.446,0 0.825,-0.091 1.134,-0.273 0.31,-0.182 0.582,-0.426 0.814,-0.731 l 0.766,0.608 c -0.16,0.242 -0.363,0.472 -0.609,0.69 a 2.904,2.904 0 0 1 -0.909,0.534 c -0.355,0.136 -0.777,0.205 -1.265,0.205 z M 980.221,860.5 V 871 h -1.272 v -10.5 z m 3.574,0 V 871 h -1.271 v -10.5 z"
             class="Cell"
             id="path6029" />
        </g>
      </g>
    </g>
    <g
       class="TableCellRow"
       filter="url(#x)"
       id="g6071"
       transform="translate(-24,-24)">
      <path
         fill="#000000"
         fill-opacity="0.04"
         d="m 648,892 h 396 v 52 H 648 Z"
         id="path6037" />
      <g
         class="TableCell"
         id="g6051">
        <g
           class="Checkbox"
           id="g6045">
          <g
             class="Padding"
             id="g6043">
            <g
               class="CheckBoxOutlineBlank"
               id="g6041">
              <path
                 fill="#000000"
                 fill-opacity="0.6"
                 d="m 680,911 v 14 h -14 v -14 z m 0,-2 h -14 c -1.1,0 -2,0.9 -2,2 v 14 c 0,1.1 0.9,2 2,2 h 14 c 1.1,0 2,-0.9 2,-2 v -14 c 0,-1.1 -0.9,-2 -2,-2 z"
                 class="Vector"
                 id="path6039" />
            </g>
          </g>
        </g>
        <g
           class="Typography"
           id="g6049">
          <path
             fill="#000000"
             fill-opacity="0.87"
             d="m 701.164,919.835 h 1.313 a 4.2,4.2 0 0 1 -0.54,1.688 3.164,3.164 0 0 1 -1.238,1.183 c -0.533,0.287 -1.198,0.431 -1.996,0.431 -0.583,0 -1.114,-0.11 -1.593,-0.328 a 3.543,3.543 0 0 1 -1.223,-0.93 4.355,4.355 0 0 1 -0.793,-1.456 6.195,6.195 0 0 1 -0.274,-1.901 v -0.991 c 0,-0.697 0.091,-1.328 0.274,-1.893 0.187,-0.57 0.453,-1.058 0.8,-1.463 0.35,-0.406 0.772,-0.718 1.264,-0.937 a 4.06,4.06 0 0 1 1.661,-0.328 c 0.752,0 1.388,0.141 1.908,0.424 0.519,0.283 0.922,0.674 1.21,1.176 0.291,0.497 0.471,1.073 0.54,1.729 h -1.313 a 3.667,3.667 0 0 0 -0.355,-1.196 1.854,1.854 0 0 0 -0.739,-0.779 c -0.319,-0.183 -0.736,-0.274 -1.251,-0.274 -0.442,0 -0.831,0.085 -1.169,0.253 a 2.353,2.353 0 0 0 -0.84,0.718 c -0.224,0.31 -0.392,0.681 -0.506,1.114 a 5.666,5.666 0 0 0 -0.171,1.443 v 1.004 c 0,0.488 0.05,0.946 0.15,1.374 0.105,0.429 0.262,0.805 0.472,1.128 0.21,0.324 0.476,0.579 0.8,0.766 0.323,0.182 0.706,0.273 1.148,0.273 0.561,0 1.007,-0.088 1.34,-0.266 0.333,-0.178 0.583,-0.433 0.752,-0.766 0.173,-0.332 0.296,-0.731 0.369,-1.196 z m 6.158,3.302 c -0.515,0 -0.982,-0.087 -1.401,-0.26 a 3.179,3.179 0 0 1 -1.073,-0.745 3.323,3.323 0 0 1 -0.684,-1.135 4.17,4.17 0 0 1 -0.239,-1.435 v -0.288 c 0,-0.601 0.089,-1.137 0.266,-1.606 0.178,-0.474 0.42,-0.875 0.725,-1.203 a 3.097,3.097 0 0 1 1.039,-0.745 2.982,2.982 0 0 1 1.203,-0.253 c 0.529,0 0.985,0.091 1.367,0.273 0.388,0.183 0.705,0.438 0.951,0.766 0.246,0.323 0.428,0.706 0.547,1.148 0.118,0.438 0.177,0.916 0.177,1.436 v 0.567 h -5.523 v -1.032 h 4.259 v -0.096 a 3.194,3.194 0 0 0 -0.205,-0.957 1.721,1.721 0 0 0 -0.547,-0.765 c -0.251,-0.201 -0.593,-0.301 -1.026,-0.301 a 1.723,1.723 0 0 0 -1.415,0.718 2.692,2.692 0 0 0 -0.403,0.868 4.387,4.387 0 0 0 -0.144,1.182 v 0.288 c 0,0.35 0.048,0.681 0.144,0.991 0.1,0.305 0.244,0.574 0.431,0.806 0.191,0.233 0.421,0.415 0.69,0.547 0.273,0.132 0.583,0.198 0.93,0.198 0.446,0 0.825,-0.091 1.134,-0.273 0.31,-0.182 0.582,-0.426 0.814,-0.731 l 0.766,0.608 c -0.16,0.242 -0.363,0.472 -0.609,0.69 a 2.904,2.904 0 0 1 -0.909,0.534 c -0.355,0.136 -0.777,0.205 -1.265,0.205 z M 713.221,912.5 V 923 h -1.272 v -10.5 z m 3.574,0 V 923 h -1.271 v -10.5 z"
             class="Cell"
             id="path6047" />
        </g>
      </g>
      <g
         class="TableCell"
         id="g6057">
        <g
           class="Typography"
           id="g6055">
          <path
             fill="#000000"
             fill-opacity="0.87"
             d="m 770.164,919.835 h 1.313 a 4.2,4.2 0 0 1 -0.54,1.688 3.164,3.164 0 0 1 -1.238,1.183 c -0.533,0.287 -1.198,0.431 -1.996,0.431 -0.583,0 -1.114,-0.11 -1.593,-0.328 a 3.543,3.543 0 0 1 -1.223,-0.93 4.355,4.355 0 0 1 -0.793,-1.456 6.195,6.195 0 0 1 -0.274,-1.901 v -0.991 c 0,-0.697 0.091,-1.328 0.274,-1.893 0.187,-0.57 0.453,-1.058 0.8,-1.463 0.35,-0.406 0.772,-0.718 1.264,-0.937 a 4.06,4.06 0 0 1 1.661,-0.328 c 0.752,0 1.388,0.141 1.908,0.424 0.519,0.283 0.922,0.674 1.21,1.176 0.291,0.497 0.471,1.073 0.54,1.729 h -1.313 a 3.667,3.667 0 0 0 -0.355,-1.196 1.854,1.854 0 0 0 -0.739,-0.779 c -0.319,-0.183 -0.736,-0.274 -1.251,-0.274 -0.442,0 -0.831,0.085 -1.169,0.253 a 2.353,2.353 0 0 0 -0.84,0.718 c -0.224,0.31 -0.392,0.681 -0.506,1.114 a 5.666,5.666 0 0 0 -0.171,1.443 v 1.004 c 0,0.488 0.05,0.946 0.15,1.374 0.105,0.429 0.262,0.805 0.472,1.128 0.21,0.324 0.476,0.579 0.8,0.766 0.323,0.182 0.706,0.273 1.148,0.273 0.561,0 1.007,-0.088 1.34,-0.266 0.333,-0.178 0.583,-0.433 0.752,-0.766 0.173,-0.332 0.296,-0.731 0.369,-1.196 z m 6.158,3.302 c -0.515,0 -0.982,-0.087 -1.401,-0.26 a 3.179,3.179 0 0 1 -1.073,-0.745 3.323,3.323 0 0 1 -0.684,-1.135 4.17,4.17 0 0 1 -0.239,-1.435 v -0.288 c 0,-0.601 0.089,-1.137 0.266,-1.606 0.178,-0.474 0.42,-0.875 0.725,-1.203 a 3.097,3.097 0 0 1 1.039,-0.745 2.982,2.982 0 0 1 1.203,-0.253 c 0.529,0 0.985,0.091 1.367,0.273 0.388,0.183 0.705,0.438 0.951,0.766 0.246,0.323 0.428,0.706 0.547,1.148 0.118,0.438 0.177,0.916 0.177,1.436 v 0.567 h -5.523 v -1.032 h 4.259 v -0.096 a 3.194,3.194 0 0 0 -0.205,-0.957 1.721,1.721 0 0 0 -0.547,-0.765 c -0.251,-0.201 -0.593,-0.301 -1.026,-0.301 a 1.723,1.723 0 0 0 -1.415,0.718 2.692,2.692 0 0 0 -0.403,0.868 4.387,4.387 0 0 0 -0.144,1.182 v 0.288 c 0,0.35 0.048,0.681 0.144,0.991 0.1,0.305 0.244,0.574 0.431,0.806 0.191,0.233 0.421,0.415 0.69,0.547 0.273,0.132 0.583,0.198 0.93,0.198 0.446,0 0.825,-0.091 1.134,-0.273 0.31,-0.182 0.582,-0.426 0.814,-0.731 l 0.766,0.608 c -0.16,0.242 -0.363,0.472 -0.609,0.69 a 2.904,2.904 0 0 1 -0.909,0.534 c -0.355,0.136 -0.777,0.205 -1.265,0.205 z M 782.221,912.5 V 923 h -1.272 v -10.5 z m 3.574,0 V 923 h -1.271 v -10.5 z"
             class="Cell"
             id="path6053" />
        </g>
      </g>
      <g
         class="TableCell"
         id="g6063">
        <g
           class="Typography"
           id="g6061">
          <path
             fill="#000000"
             fill-opacity="0.87"
             d="m 869.164,919.835 h 1.313 a 4.2,4.2 0 0 1 -0.54,1.688 3.164,3.164 0 0 1 -1.238,1.183 c -0.533,0.287 -1.198,0.431 -1.996,0.431 -0.583,0 -1.114,-0.11 -1.593,-0.328 a 3.543,3.543 0 0 1 -1.223,-0.93 4.355,4.355 0 0 1 -0.793,-1.456 6.195,6.195 0 0 1 -0.274,-1.901 v -0.991 c 0,-0.697 0.091,-1.328 0.274,-1.893 0.187,-0.57 0.453,-1.058 0.8,-1.463 0.35,-0.406 0.772,-0.718 1.264,-0.937 a 4.06,4.06 0 0 1 1.661,-0.328 c 0.752,0 1.388,0.141 1.908,0.424 0.519,0.283 0.922,0.674 1.21,1.176 0.291,0.497 0.471,1.073 0.54,1.729 h -1.313 a 3.667,3.667 0 0 0 -0.355,-1.196 1.854,1.854 0 0 0 -0.739,-0.779 c -0.319,-0.183 -0.736,-0.274 -1.251,-0.274 -0.442,0 -0.831,0.085 -1.169,0.253 a 2.353,2.353 0 0 0 -0.84,0.718 c -0.224,0.31 -0.392,0.681 -0.506,1.114 a 5.666,5.666 0 0 0 -0.171,1.443 v 1.004 c 0,0.488 0.05,0.946 0.15,1.374 0.105,0.429 0.262,0.805 0.472,1.128 0.21,0.324 0.476,0.579 0.8,0.766 0.323,0.182 0.706,0.273 1.148,0.273 0.561,0 1.007,-0.088 1.34,-0.266 0.333,-0.178 0.583,-0.433 0.752,-0.766 0.173,-0.332 0.296,-0.731 0.369,-1.196 z m 6.158,3.302 c -0.515,0 -0.982,-0.087 -1.401,-0.26 a 3.179,3.179 0 0 1 -1.073,-0.745 3.323,3.323 0 0 1 -0.684,-1.135 4.17,4.17 0 0 1 -0.239,-1.435 v -0.288 c 0,-0.601 0.089,-1.137 0.266,-1.606 0.178,-0.474 0.42,-0.875 0.725,-1.203 a 3.097,3.097 0 0 1 1.039,-0.745 2.982,2.982 0 0 1 1.203,-0.253 c 0.529,0 0.985,0.091 1.367,0.273 0.388,0.183 0.705,0.438 0.951,0.766 0.246,0.323 0.428,0.706 0.547,1.148 0.118,0.438 0.177,0.916 0.177,1.436 v 0.567 h -5.523 v -1.032 h 4.259 v -0.096 a 3.194,3.194 0 0 0 -0.205,-0.957 1.721,1.721 0 0 0 -0.547,-0.765 c -0.251,-0.201 -0.593,-0.301 -1.026,-0.301 a 1.723,1.723 0 0 0 -1.415,0.718 2.692,2.692 0 0 0 -0.403,0.868 4.387,4.387 0 0 0 -0.144,1.182 v 0.288 c 0,0.35 0.048,0.681 0.144,0.991 0.1,0.305 0.244,0.574 0.431,0.806 0.191,0.233 0.421,0.415 0.69,0.547 0.273,0.132 0.583,0.198 0.93,0.198 0.446,0 0.825,-0.091 1.134,-0.273 0.31,-0.182 0.582,-0.426 0.814,-0.731 l 0.766,0.608 c -0.16,0.242 -0.363,0.472 -0.609,0.69 a 2.904,2.904 0 0 1 -0.909,0.534 c -0.355,0.136 -0.777,0.205 -1.265,0.205 z M 881.221,912.5 V 923 h -1.272 v -10.5 z m 3.574,0 V 923 h -1.271 v -10.5 z"
             class="Cell"
             id="path6059" />
        </g>
      </g>
      <g
         class="TableCell"
         id="g6069">
        <g
           class="Typography"
           id="g6067">
          <path
             fill="#000000"
             fill-opacity="0.87"
             d="m 968.164,919.835 h 1.313 a 4.2,4.2 0 0 1 -0.54,1.688 3.164,3.164 0 0 1 -1.238,1.183 c -0.533,0.287 -1.198,0.431 -1.996,0.431 -0.583,0 -1.114,-0.11 -1.593,-0.328 a 3.543,3.543 0 0 1 -1.223,-0.93 4.355,4.355 0 0 1 -0.793,-1.456 6.195,6.195 0 0 1 -0.274,-1.901 v -0.991 c 0,-0.697 0.091,-1.328 0.274,-1.893 0.187,-0.57 0.453,-1.058 0.8,-1.463 0.35,-0.406 0.772,-0.718 1.264,-0.937 a 4.06,4.06 0 0 1 1.661,-0.328 c 0.752,0 1.388,0.141 1.908,0.424 0.519,0.283 0.922,0.674 1.21,1.176 0.291,0.497 0.471,1.073 0.54,1.729 h -1.313 a 3.667,3.667 0 0 0 -0.355,-1.196 1.854,1.854 0 0 0 -0.739,-0.779 c -0.319,-0.183 -0.736,-0.274 -1.251,-0.274 -0.442,0 -0.831,0.085 -1.169,0.253 a 2.353,2.353 0 0 0 -0.84,0.718 c -0.224,0.31 -0.392,0.681 -0.506,1.114 a 5.666,5.666 0 0 0 -0.171,1.443 v 1.004 c 0,0.488 0.05,0.946 0.15,1.374 0.105,0.429 0.262,0.805 0.472,1.128 0.21,0.324 0.476,0.579 0.8,0.766 0.323,0.182 0.706,0.273 1.148,0.273 0.561,0 1.007,-0.088 1.34,-0.266 0.333,-0.178 0.583,-0.433 0.752,-0.766 0.173,-0.332 0.296,-0.731 0.369,-1.196 z m 6.158,3.302 c -0.515,0 -0.982,-0.087 -1.401,-0.26 a 3.179,3.179 0 0 1 -1.073,-0.745 3.323,3.323 0 0 1 -0.684,-1.135 4.17,4.17 0 0 1 -0.239,-1.435 v -0.288 c 0,-0.601 0.089,-1.137 0.266,-1.606 0.178,-0.474 0.42,-0.875 0.725,-1.203 a 3.097,3.097 0 0 1 1.039,-0.745 2.982,2.982 0 0 1 1.203,-0.253 c 0.529,0 0.985,0.091 1.367,0.273 0.388,0.183 0.705,0.438 0.951,0.766 0.246,0.323 0.428,0.706 0.547,1.148 0.118,0.438 0.177,0.916 0.177,1.436 v 0.567 h -5.523 v -1.032 h 4.259 v -0.096 a 3.194,3.194 0 0 0 -0.205,-0.957 1.721,1.721 0 0 0 -0.547,-0.765 c -0.251,-0.201 -0.593,-0.301 -1.026,-0.301 a 1.723,1.723 0 0 0 -1.415,0.718 2.692,2.692 0 0 0 -0.403,0.868 4.387,4.387 0 0 0 -0.144,1.182 v 0.288 c 0,0.35 0.048,0.681 0.144,0.991 0.1,0.305 0.244,0.574 0.431,0.806 0.191,0.233 0.421,0.415 0.69,0.547 0.273,0.132 0.583,0.198 0.93,0.198 0.446,0 0.825,-0.091 1.134,-0.273 0.31,-0.182 0.582,-0.426 0.814,-0.731 l 0.766,0.608 c -0.16,0.242 -0.363,0.472 -0.609,0.69 a 2.904,2.904 0 0 1 -0.909,0.534 c -0.355,0.136 -0.777,0.205 -1.265,0.205 z M 980.221,912.5 V 923 h -1.272 v -10.5 z m 3.574,0 V 923 h -1.271 v -10.5 z"
             class="Cell"
             id="path6065" />
        </g>
      </g>
    </g>
    <g
       class="TableCellRow"
       filter="url(#y)"
       id="g6107"
       transform="translate(-24,-24)">
      <path
         fill="#ffffff"
         fill-opacity="0.01"
         d="m 648,944 h 396 v 52 H 648 Z"
         id="path6073" />
      <g
         class="TableCell"
         id="g6087">
        <g
           class="Checkbox"
           id="g6081">
          <g
             class="Padding"
             id="g6079">
            <g
               class="CheckBoxOutlineBlank"
               id="g6077">
              <path
                 fill="#000000"
                 fill-opacity="0.6"
                 d="m 680,963 v 14 h -14 v -14 z m 0,-2 h -14 c -1.1,0 -2,0.9 -2,2 v 14 c 0,1.1 0.9,2 2,2 h 14 c 1.1,0 2,-0.9 2,-2 v -14 c 0,-1.1 -0.9,-2 -2,-2 z"
                 class="Vector"
                 id="path6075" />
            </g>
          </g>
        </g>
        <g
           class="Typography"
           id="g6085">
          <path
             fill="#000000"
             fill-opacity="0.87"
             d="m 701.164,971.835 h 1.313 a 4.2,4.2 0 0 1 -0.54,1.688 3.164,3.164 0 0 1 -1.238,1.183 c -0.533,0.287 -1.198,0.431 -1.996,0.431 -0.583,0 -1.114,-0.11 -1.593,-0.328 a 3.543,3.543 0 0 1 -1.223,-0.93 4.355,4.355 0 0 1 -0.793,-1.456 6.195,6.195 0 0 1 -0.274,-1.901 v -0.991 c 0,-0.697 0.091,-1.328 0.274,-1.893 0.187,-0.57 0.453,-1.058 0.8,-1.463 0.35,-0.406 0.772,-0.718 1.264,-0.937 a 4.06,4.06 0 0 1 1.661,-0.328 c 0.752,0 1.388,0.141 1.908,0.424 0.519,0.283 0.922,0.674 1.21,1.176 0.291,0.497 0.471,1.073 0.54,1.729 h -1.313 a 3.667,3.667 0 0 0 -0.355,-1.196 1.854,1.854 0 0 0 -0.739,-0.779 c -0.319,-0.183 -0.736,-0.274 -1.251,-0.274 -0.442,0 -0.831,0.085 -1.169,0.253 a 2.353,2.353 0 0 0 -0.84,0.718 c -0.224,0.31 -0.392,0.681 -0.506,1.114 a 5.666,5.666 0 0 0 -0.171,1.443 v 1.004 c 0,0.488 0.05,0.946 0.15,1.374 0.105,0.429 0.262,0.805 0.472,1.128 0.21,0.324 0.476,0.579 0.8,0.766 0.323,0.182 0.706,0.273 1.148,0.273 0.561,0 1.007,-0.088 1.34,-0.266 0.333,-0.178 0.583,-0.433 0.752,-0.766 0.173,-0.332 0.296,-0.731 0.369,-1.196 z m 6.158,3.302 c -0.515,0 -0.982,-0.087 -1.401,-0.26 a 3.179,3.179 0 0 1 -1.073,-0.745 3.323,3.323 0 0 1 -0.684,-1.135 4.17,4.17 0 0 1 -0.239,-1.435 v -0.288 c 0,-0.601 0.089,-1.137 0.266,-1.606 0.178,-0.474 0.42,-0.875 0.725,-1.203 a 3.097,3.097 0 0 1 1.039,-0.745 2.982,2.982 0 0 1 1.203,-0.253 c 0.529,0 0.985,0.091 1.367,0.273 0.388,0.183 0.705,0.438 0.951,0.766 0.246,0.323 0.428,0.706 0.547,1.148 0.118,0.438 0.177,0.916 0.177,1.436 v 0.567 h -5.523 v -1.032 h 4.259 v -0.096 a 3.194,3.194 0 0 0 -0.205,-0.957 1.721,1.721 0 0 0 -0.547,-0.765 c -0.251,-0.201 -0.593,-0.301 -1.026,-0.301 a 1.723,1.723 0 0 0 -1.415,0.718 2.692,2.692 0 0 0 -0.403,0.868 4.387,4.387 0 0 0 -0.144,1.182 v 0.288 c 0,0.35 0.048,0.681 0.144,0.991 0.1,0.305 0.244,0.574 0.431,0.806 0.191,0.233 0.421,0.415 0.69,0.547 0.273,0.132 0.583,0.198 0.93,0.198 0.446,0 0.825,-0.091 1.134,-0.273 0.31,-0.182 0.582,-0.426 0.814,-0.731 l 0.766,0.608 c -0.16,0.242 -0.363,0.472 -0.609,0.69 a 2.904,2.904 0 0 1 -0.909,0.534 c -0.355,0.136 -0.777,0.205 -1.265,0.205 z M 713.221,964.5 V 975 h -1.272 v -10.5 z m 3.574,0 V 975 h -1.271 v -10.5 z"
             class="Cell"
             id="path6083" />
        </g>
      </g>
      <g
         class="TableCell"
         id="g6093">
        <g
           class="Typography"
           id="g6091">
          <path
             fill="#000000"
             fill-opacity="0.87"
             d="m 770.164,971.835 h 1.313 a 4.2,4.2 0 0 1 -0.54,1.688 3.164,3.164 0 0 1 -1.238,1.183 c -0.533,0.287 -1.198,0.431 -1.996,0.431 -0.583,0 -1.114,-0.11 -1.593,-0.328 a 3.543,3.543 0 0 1 -1.223,-0.93 4.355,4.355 0 0 1 -0.793,-1.456 6.195,6.195 0 0 1 -0.274,-1.901 v -0.991 c 0,-0.697 0.091,-1.328 0.274,-1.893 0.187,-0.57 0.453,-1.058 0.8,-1.463 0.35,-0.406 0.772,-0.718 1.264,-0.937 a 4.06,4.06 0 0 1 1.661,-0.328 c 0.752,0 1.388,0.141 1.908,0.424 0.519,0.283 0.922,0.674 1.21,1.176 0.291,0.497 0.471,1.073 0.54,1.729 h -1.313 a 3.667,3.667 0 0 0 -0.355,-1.196 1.854,1.854 0 0 0 -0.739,-0.779 c -0.319,-0.183 -0.736,-0.274 -1.251,-0.274 -0.442,0 -0.831,0.085 -1.169,0.253 a 2.353,2.353 0 0 0 -0.84,0.718 c -0.224,0.31 -0.392,0.681 -0.506,1.114 a 5.666,5.666 0 0 0 -0.171,1.443 v 1.004 c 0,0.488 0.05,0.946 0.15,1.374 0.105,0.429 0.262,0.805 0.472,1.128 0.21,0.324 0.476,0.579 0.8,0.766 0.323,0.182 0.706,0.273 1.148,0.273 0.561,0 1.007,-0.088 1.34,-0.266 0.333,-0.178 0.583,-0.433 0.752,-0.766 0.173,-0.332 0.296,-0.731 0.369,-1.196 z m 6.158,3.302 c -0.515,0 -0.982,-0.087 -1.401,-0.26 a 3.179,3.179 0 0 1 -1.073,-0.745 3.323,3.323 0 0 1 -0.684,-1.135 4.17,4.17 0 0 1 -0.239,-1.435 v -0.288 c 0,-0.601 0.089,-1.137 0.266,-1.606 0.178,-0.474 0.42,-0.875 0.725,-1.203 a 3.097,3.097 0 0 1 1.039,-0.745 2.982,2.982 0 0 1 1.203,-0.253 c 0.529,0 0.985,0.091 1.367,0.273 0.388,0.183 0.705,0.438 0.951,0.766 0.246,0.323 0.428,0.706 0.547,1.148 0.118,0.438 0.177,0.916 0.177,1.436 v 0.567 h -5.523 v -1.032 h 4.259 v -0.096 a 3.194,3.194 0 0 0 -0.205,-0.957 1.721,1.721 0 0 0 -0.547,-0.765 c -0.251,-0.201 -0.593,-0.301 -1.026,-0.301 a 1.723,1.723 0 0 0 -1.415,0.718 2.692,2.692 0 0 0 -0.403,0.868 4.387,4.387 0 0 0 -0.144,1.182 v 0.288 c 0,0.35 0.048,0.681 0.144,0.991 0.1,0.305 0.244,0.574 0.431,0.806 0.191,0.233 0.421,0.415 0.69,0.547 0.273,0.132 0.583,0.198 0.93,0.198 0.446,0 0.825,-0.091 1.134,-0.273 0.31,-0.182 0.582,-0.426 0.814,-0.731 l 0.766,0.608 c -0.16,0.242 -0.363,0.472 -0.609,0.69 a 2.904,2.904 0 0 1 -0.909,0.534 c -0.355,0.136 -0.777,0.205 -1.265,0.205 z M 782.221,964.5 V 975 h -1.272 v -10.5 z m 3.574,0 V 975 h -1.271 v -10.5 z"
             class="Cell"
             id="path6089" />
        </g>
      </g>
      <g
         class="TableCell"
         id="g6099">
        <g
           class="Typography"
           id="g6097">
          <path
             fill="#000000"
             fill-opacity="0.87"
             d="m 869.164,971.835 h 1.313 a 4.2,4.2 0 0 1 -0.54,1.688 3.164,3.164 0 0 1 -1.238,1.183 c -0.533,0.287 -1.198,0.431 -1.996,0.431 -0.583,0 -1.114,-0.11 -1.593,-0.328 a 3.543,3.543 0 0 1 -1.223,-0.93 4.355,4.355 0 0 1 -0.793,-1.456 6.195,6.195 0 0 1 -0.274,-1.901 v -0.991 c 0,-0.697 0.091,-1.328 0.274,-1.893 0.187,-0.57 0.453,-1.058 0.8,-1.463 0.35,-0.406 0.772,-0.718 1.264,-0.937 a 4.06,4.06 0 0 1 1.661,-0.328 c 0.752,0 1.388,0.141 1.908,0.424 0.519,0.283 0.922,0.674 1.21,1.176 0.291,0.497 0.471,1.073 0.54,1.729 h -1.313 a 3.667,3.667 0 0 0 -0.355,-1.196 1.854,1.854 0 0 0 -0.739,-0.779 c -0.319,-0.183 -0.736,-0.274 -1.251,-0.274 -0.442,0 -0.831,0.085 -1.169,0.253 a 2.353,2.353 0 0 0 -0.84,0.718 c -0.224,0.31 -0.392,0.681 -0.506,1.114 a 5.666,5.666 0 0 0 -0.171,1.443 v 1.004 c 0,0.488 0.05,0.946 0.15,1.374 0.105,0.429 0.262,0.805 0.472,1.128 0.21,0.324 0.476,0.579 0.8,0.766 0.323,0.182 0.706,0.273 1.148,0.273 0.561,0 1.007,-0.088 1.34,-0.266 0.333,-0.178 0.583,-0.433 0.752,-0.766 0.173,-0.332 0.296,-0.731 0.369,-1.196 z m 6.158,3.302 c -0.515,0 -0.982,-0.087 -1.401,-0.26 a 3.179,3.179 0 0 1 -1.073,-0.745 3.323,3.323 0 0 1 -0.684,-1.135 4.17,4.17 0 0 1 -0.239,-1.435 v -0.288 c 0,-0.601 0.089,-1.137 0.266,-1.606 0.178,-0.474 0.42,-0.875 0.725,-1.203 a 3.097,3.097 0 0 1 1.039,-0.745 2.982,2.982 0 0 1 1.203,-0.253 c 0.529,0 0.985,0.091 1.367,0.273 0.388,0.183 0.705,0.438 0.951,0.766 0.246,0.323 0.428,0.706 0.547,1.148 0.118,0.438 0.177,0.916 0.177,1.436 v 0.567 h -5.523 v -1.032 h 4.259 v -0.096 a 3.194,3.194 0 0 0 -0.205,-0.957 1.721,1.721 0 0 0 -0.547,-0.765 c -0.251,-0.201 -0.593,-0.301 -1.026,-0.301 a 1.723,1.723 0 0 0 -1.415,0.718 2.692,2.692 0 0 0 -0.403,0.868 4.387,4.387 0 0 0 -0.144,1.182 v 0.288 c 0,0.35 0.048,0.681 0.144,0.991 0.1,0.305 0.244,0.574 0.431,0.806 0.191,0.233 0.421,0.415 0.69,0.547 0.273,0.132 0.583,0.198 0.93,0.198 0.446,0 0.825,-0.091 1.134,-0.273 0.31,-0.182 0.582,-0.426 0.814,-0.731 l 0.766,0.608 c -0.16,0.242 -0.363,0.472 -0.609,0.69 a 2.904,2.904 0 0 1 -0.909,0.534 c -0.355,0.136 -0.777,0.205 -1.265,0.205 z M 881.221,964.5 V 975 h -1.272 v -10.5 z m 3.574,0 V 975 h -1.271 v -10.5 z"
             class="Cell"
             id="path6095" />
        </g>
      </g>
      <g
         class="TableCell"
         id="g6105">
        <g
           class="Typography"
           id="g6103">
          <path
             fill="#000000"
             fill-opacity="0.87"
             d="m 968.164,971.835 h 1.313 a 4.2,4.2 0 0 1 -0.54,1.688 3.164,3.164 0 0 1 -1.238,1.183 c -0.533,0.287 -1.198,0.431 -1.996,0.431 -0.583,0 -1.114,-0.11 -1.593,-0.328 a 3.543,3.543 0 0 1 -1.223,-0.93 4.355,4.355 0 0 1 -0.793,-1.456 6.195,6.195 0 0 1 -0.274,-1.901 v -0.991 c 0,-0.697 0.091,-1.328 0.274,-1.893 0.187,-0.57 0.453,-1.058 0.8,-1.463 0.35,-0.406 0.772,-0.718 1.264,-0.937 a 4.06,4.06 0 0 1 1.661,-0.328 c 0.752,0 1.388,0.141 1.908,0.424 0.519,0.283 0.922,0.674 1.21,1.176 0.291,0.497 0.471,1.073 0.54,1.729 h -1.313 a 3.667,3.667 0 0 0 -0.355,-1.196 1.854,1.854 0 0 0 -0.739,-0.779 c -0.319,-0.183 -0.736,-0.274 -1.251,-0.274 -0.442,0 -0.831,0.085 -1.169,0.253 a 2.353,2.353 0 0 0 -0.84,0.718 c -0.224,0.31 -0.392,0.681 -0.506,1.114 a 5.666,5.666 0 0 0 -0.171,1.443 v 1.004 c 0,0.488 0.05,0.946 0.15,1.374 0.105,0.429 0.262,0.805 0.472,1.128 0.21,0.324 0.476,0.579 0.8,0.766 0.323,0.182 0.706,0.273 1.148,0.273 0.561,0 1.007,-0.088 1.34,-0.266 0.333,-0.178 0.583,-0.433 0.752,-0.766 0.173,-0.332 0.296,-0.731 0.369,-1.196 z m 6.158,3.302 c -0.515,0 -0.982,-0.087 -1.401,-0.26 a 3.179,3.179 0 0 1 -1.073,-0.745 3.323,3.323 0 0 1 -0.684,-1.135 4.17,4.17 0 0 1 -0.239,-1.435 v -0.288 c 0,-0.601 0.089,-1.137 0.266,-1.606 0.178,-0.474 0.42,-0.875 0.725,-1.203 a 3.097,3.097 0 0 1 1.039,-0.745 2.982,2.982 0 0 1 1.203,-0.253 c 0.529,0 0.985,0.091 1.367,0.273 0.388,0.183 0.705,0.438 0.951,0.766 0.246,0.323 0.428,0.706 0.547,1.148 0.118,0.438 0.177,0.916 0.177,1.436 v 0.567 h -5.523 v -1.032 h 4.259 v -0.096 a 3.194,3.194 0 0 0 -0.205,-0.957 1.721,1.721 0 0 0 -0.547,-0.765 c -0.251,-0.201 -0.593,-0.301 -1.026,-0.301 a 1.723,1.723 0 0 0 -1.415,0.718 2.692,2.692 0 0 0 -0.403,0.868 4.387,4.387 0 0 0 -0.144,1.182 v 0.288 c 0,0.35 0.048,0.681 0.144,0.991 0.1,0.305 0.244,0.574 0.431,0.806 0.191,0.233 0.421,0.415 0.69,0.547 0.273,0.132 0.583,0.198 0.93,0.198 0.446,0 0.825,-0.091 1.134,-0.273 0.31,-0.182 0.582,-0.426 0.814,-0.731 l 0.766,0.608 c -0.16,0.242 -0.363,0.472 -0.609,0.69 a 2.904,2.904 0 0 1 -0.909,0.534 c -0.355,0.136 -0.777,0.205 -1.265,0.205 z M 980.221,964.5 V 975 h -1.272 v -10.5 z m 3.574,0 V 975 h -1.271 v -10.5 z"
             class="Cell"
             id="path6101" />
        </g>
      </g>
    </g>
    <g
       class="Scroll"
       filter="url(#z)"
       id="g6113"
       transform="translate(-24,-24)">
      <path
         fill="#f9f9f9"
         d="m 648,996 h 396 v 14 H 648 Z"
         id="path6109" />
      <rect
         width="180"
         height="6"
         x="652"
         y="1000"
         fill="#000000"
         fill-opacity="0.6"
         class="Scroll"
         rx="3"
         id="rect6111" />
    </g>
    <g
       class="TableFooter"
       id="g6151"
       transform="translate(-24,-24)">
      <g
         class="Container"
         id="g6125">
        <path
           fill="#000000"
           fill-opacity="0.6"
           d="m 711.99,1029.47 h 2.824 c 0.641,0 1.182,0.1 1.624,0.29 0.445,0.2 0.783,0.49 1.013,0.87 0.235,0.38 0.352,0.84 0.352,1.4 0,0.39 -0.08,0.75 -0.241,1.07 -0.156,0.32 -0.382,0.6 -0.679,0.82 -0.293,0.22 -0.645,0.39 -1.055,0.5 l -0.316,0.12 h -2.655 l -0.011,-0.92 h 2.004 c 0.406,0 0.744,-0.07 1.013,-0.21 0.27,-0.14 0.473,-0.34 0.61,-0.58 0.136,-0.24 0.205,-0.51 0.205,-0.8 0,-0.33 -0.065,-0.62 -0.194,-0.86 a 1.264,1.264 0 0 0 -0.609,-0.57 c -0.273,-0.14 -0.627,-0.21 -1.061,-0.21 h -1.693 v 7.61 h -1.131 z m 4.987,8.53 -2.075,-3.87 h 1.178 l 2.104,3.8 v 0.07 z m 2.357,-3.1 v -0.13 c 0,-0.46 0.066,-0.89 0.199,-1.28 0.133,-0.39 0.324,-0.73 0.574,-1.02 a 2.6,2.6 0 0 1 0.908,-0.68 c 0.356,-0.17 0.754,-0.25 1.196,-0.25 0.445,0 0.845,0.08 1.201,0.25 0.359,0.16 0.664,0.39 0.914,0.68 0.254,0.29 0.447,0.63 0.58,1.02 0.133,0.39 0.199,0.82 0.199,1.28 v 0.13 c 0,0.46 -0.066,0.88 -0.199,1.27 -0.133,0.39 -0.326,0.73 -0.58,1.03 -0.25,0.29 -0.553,0.51 -0.908,0.68 -0.352,0.16 -0.75,0.24 -1.196,0.24 -0.445,0 -0.845,-0.08 -1.201,-0.24 -0.355,-0.17 -0.66,-0.39 -0.914,-0.68 a 3.2,3.2 0 0 1 -0.574,-1.03 3.896,3.896 0 0 1 -0.199,-1.27 z m 1.084,-0.13 v 0.13 c 0,0.32 0.037,0.62 0.111,0.9 0.074,0.27 0.185,0.52 0.334,0.74 0.152,0.21 0.342,0.38 0.568,0.5 0.227,0.13 0.49,0.19 0.791,0.19 0.297,0 0.557,-0.06 0.78,-0.19 0.226,-0.12 0.414,-0.29 0.562,-0.5 0.149,-0.22 0.26,-0.47 0.334,-0.74 0.078,-0.28 0.117,-0.58 0.117,-0.9 v -0.13 c 0,-0.32 -0.039,-0.61 -0.117,-0.89 a 2.206,2.206 0 0 0 -0.34,-0.74 1.664,1.664 0 0 0 -0.562,-0.52 1.636,1.636 0 0 0 -0.785,-0.19 c -0.297,0 -0.559,0.07 -0.786,0.19 -0.222,0.13 -0.41,0.3 -0.562,0.52 -0.149,0.21 -0.26,0.46 -0.334,0.74 -0.074,0.28 -0.111,0.57 -0.111,0.89 z m 8.052,2.11 1.629,-5.22 h 0.715 l -0.141,1.04 -1.658,5.3 h -0.697 z m -1.096,-5.22 1.389,5.27 0.1,1.07 h -0.733 l -1.84,-6.34 z m 4.998,5.23 1.324,-5.23 h 1.079 l -1.84,6.34 h -0.727 z m -1.4,-5.23 1.594,5.13 0.181,1.21 h -0.691 l -1.705,-5.31 -0.141,-1.03 z m 9.007,4.66 c 0,-0.16 -0.035,-0.3 -0.105,-0.44 -0.067,-0.13 -0.205,-0.26 -0.416,-0.36 -0.207,-0.12 -0.52,-0.22 -0.938,-0.3 -0.351,-0.07 -0.67,-0.16 -0.955,-0.26 -0.281,-0.1 -0.521,-0.23 -0.72,-0.37 a 1.464,1.464 0 0 1 -0.452,-0.51 c -0.105,-0.2 -0.158,-0.42 -0.158,-0.69 0,-0.25 0.055,-0.48 0.164,-0.7 0.114,-0.23 0.272,-0.42 0.475,-0.6 0.207,-0.17 0.455,-0.3 0.744,-0.4 0.289,-0.1 0.611,-0.15 0.967,-0.15 0.508,0 0.941,0.09 1.301,0.27 0.359,0.18 0.634,0.42 0.826,0.72 0.191,0.3 0.287,0.63 0.287,0.99 h -1.084 c 0,-0.17 -0.053,-0.34 -0.158,-0.51 -0.102,-0.16 -0.252,-0.3 -0.452,-0.41 a 1.447,1.447 0 0 0 -0.72,-0.17 c -0.301,0 -0.545,0.05 -0.733,0.14 a 0.956,0.956 0 0 0 -0.404,0.35 0.876,0.876 0 0 0 -0.064,0.76 c 0.043,0.09 0.117,0.18 0.222,0.25 0.106,0.08 0.254,0.15 0.446,0.21 0.191,0.07 0.435,0.14 0.732,0.2 0.52,0.12 0.947,0.26 1.283,0.43 0.336,0.16 0.586,0.36 0.75,0.6 0.164,0.24 0.246,0.53 0.246,0.87 0,0.27 -0.058,0.53 -0.175,0.76 -0.114,0.23 -0.28,0.43 -0.499,0.6 -0.214,0.16 -0.472,0.29 -0.773,0.38 -0.297,0.09 -0.631,0.14 -1.002,0.14 -0.559,0 -1.031,-0.1 -1.418,-0.3 -0.387,-0.2 -0.68,-0.46 -0.879,-0.78 a 1.834,1.834 0 0 1 -0.299,-1 h 1.09 c 0.016,0.3 0.102,0.54 0.258,0.71 0.156,0.17 0.348,0.3 0.574,0.37 0.227,0.07 0.451,0.11 0.674,0.11 0.297,0 0.545,-0.04 0.744,-0.12 0.203,-0.08 0.358,-0.19 0.463,-0.32 0.106,-0.14 0.158,-0.3 0.158,-0.47 z m 7.369,-3.44 v 7.56 h -1.09 v -8.78 h 0.996 z m 4.271,1.9 v 0.12 c 0,0.46 -0.055,0.89 -0.164,1.28 -0.109,0.39 -0.269,0.73 -0.48,1.02 -0.207,0.29 -0.463,0.52 -0.768,0.68 -0.305,0.16 -0.654,0.24 -1.049,0.24 -0.402,0 -0.758,-0.07 -1.066,-0.2 a 2.105,2.105 0 0 1 -0.785,-0.58 3.013,3.013 0 0 1 -0.516,-0.92 5.168,5.168 0 0 1 -0.258,-1.2 v -0.65 c 0.047,-0.47 0.135,-0.89 0.264,-1.26 0.129,-0.37 0.299,-0.69 0.51,-0.95 0.214,-0.27 0.474,-0.47 0.779,-0.61 0.305,-0.14 0.656,-0.21 1.055,-0.21 0.398,0 0.752,0.08 1.06,0.24 0.309,0.15 0.569,0.37 0.779,0.65 0.211,0.29 0.37,0.63 0.475,1.03 0.109,0.39 0.164,0.83 0.164,1.32 z m -1.09,0.12 v -0.12 c 0,-0.32 -0.033,-0.62 -0.099,-0.89 -0.067,-0.28 -0.17,-0.53 -0.311,-0.74 a 1.53,1.53 0 0 0 -0.527,-0.51 1.552,1.552 0 0 0 -0.768,-0.18 c -0.273,0 -0.512,0.04 -0.715,0.14 -0.199,0.09 -0.369,0.22 -0.509,0.38 -0.141,0.15 -0.256,0.33 -0.346,0.54 -0.086,0.2 -0.15,0.4 -0.193,0.62 v 1.52 c 0.078,0.27 0.187,0.53 0.328,0.77 0.14,0.24 0.328,0.43 0.562,0.58 0.235,0.14 0.529,0.22 0.885,0.22 0.293,0 0.545,-0.06 0.756,-0.19 a 1.5,1.5 0 0 0 0.527,-0.5 c 0.141,-0.22 0.244,-0.47 0.311,-0.74 0.066,-0.28 0.099,-0.58 0.099,-0.9 z m 5.504,3.22 c -0.442,0 -0.842,-0.08 -1.201,-0.23 a 2.713,2.713 0 0 1 -0.92,-0.63 c -0.254,-0.28 -0.449,-0.6 -0.586,-0.98 a 3.52,3.52 0 0 1 -0.205,-1.23 v -0.24 c 0,-0.52 0.076,-0.98 0.228,-1.38 0.153,-0.41 0.36,-0.75 0.621,-1.03 a 2.624,2.624 0 0 1 1.922,-0.86 c 0.453,0 0.844,0.08 1.172,0.24 0.332,0.15 0.604,0.37 0.815,0.65 0.21,0.28 0.367,0.61 0.468,0.99 0.102,0.37 0.153,0.78 0.153,1.23 v 0.48 h -4.735 v -0.88 h 3.651 v -0.08 a 2.702,2.702 0 0 0 -0.176,-0.82 1.454,1.454 0 0 0 -0.469,-0.66 c -0.215,-0.17 -0.508,-0.26 -0.879,-0.26 a 1.47,1.47 0 0 0 -1.213,0.62 c -0.148,0.2 -0.263,0.45 -0.345,0.74 -0.082,0.3 -0.123,0.63 -0.123,1.02 v 0.24 c 0,0.3 0.041,0.59 0.123,0.85 0.086,0.26 0.209,0.49 0.369,0.69 a 1.72,1.72 0 0 0 1.388,0.64 c 0.383,0 0.707,-0.08 0.973,-0.23 0.266,-0.16 0.498,-0.37 0.697,-0.63 l 0.657,0.52 a 2.76,2.76 0 0 1 -0.522,0.59 c -0.211,0.19 -0.471,0.34 -0.779,0.46 -0.305,0.12 -0.666,0.18 -1.084,0.18 z m 5.216,-5.46 v 5.34 h -1.084 v -6.34 h 1.055 z m 1.981,-1.04 -0.006,1.01 a 1.19,1.19 0 0 0 -0.258,-0.03 c -0.078,-0.01 -0.168,-0.01 -0.27,-0.01 -0.25,0 -0.47,0.03 -0.662,0.11 a 1.414,1.414 0 0 0 -0.802,0.84 c -0.075,0.19 -0.123,0.4 -0.147,0.63 l -0.305,0.17 c 0,-0.38 0.038,-0.74 0.112,-1.07 0.078,-0.34 0.197,-0.64 0.357,-0.89 a 1.698,1.698 0 0 1 1.5,-0.84 c 0.078,0 0.168,0.01 0.27,0.03 0.101,0.02 0.172,0.04 0.211,0.05 z m 5.862,1.26 v 7.56 h -1.09 v -8.78 h 0.996 z m 4.272,1.9 v 0.12 c 0,0.46 -0.055,0.89 -0.164,1.28 -0.11,0.39 -0.27,0.73 -0.481,1.02 -0.207,0.29 -0.463,0.52 -0.767,0.68 -0.305,0.16 -0.655,0.24 -1.049,0.24 -0.403,0 -0.758,-0.07 -1.067,-0.2 a 2.12,2.12 0 0 1 -0.785,-0.58 2.99,2.99 0 0 1 -0.515,-0.92 5.168,5.168 0 0 1 -0.258,-1.2 v -0.65 c 0.047,-0.47 0.134,-0.89 0.263,-1.26 0.129,-0.37 0.299,-0.69 0.51,-0.95 0.215,-0.27 0.475,-0.47 0.779,-0.61 0.305,-0.14 0.657,-0.21 1.055,-0.21 0.399,0 0.752,0.08 1.061,0.24 0.308,0.15 0.568,0.37 0.779,0.65 0.211,0.29 0.369,0.63 0.475,1.03 0.109,0.39 0.164,0.83 0.164,1.32 z m -1.09,0.12 v -0.12 c 0,-0.32 -0.033,-0.62 -0.1,-0.89 -0.066,-0.28 -0.17,-0.53 -0.31,-0.74 a 1.533,1.533 0 0 0 -0.528,-0.51 c -0.215,-0.12 -0.47,-0.18 -0.767,-0.18 -0.274,0 -0.512,0.04 -0.715,0.14 -0.199,0.09 -0.369,0.22 -0.51,0.38 -0.14,0.15 -0.256,0.33 -0.346,0.54 -0.086,0.2 -0.15,0.4 -0.193,0.62 v 1.52 c 0.078,0.27 0.188,0.53 0.328,0.77 0.141,0.24 0.328,0.43 0.563,0.58 0.234,0.14 0.529,0.22 0.884,0.22 0.293,0 0.545,-0.06 0.756,-0.19 0.215,-0.12 0.391,-0.29 0.528,-0.5 0.14,-0.22 0.244,-0.47 0.31,-0.74 0.067,-0.28 0.1,-0.58 0.1,-0.9 z m 6.611,2.02 v -3.27 c 0,-0.25 -0.051,-0.46 -0.153,-0.65 a 0.967,0.967 0 0 0 -0.445,-0.43 c -0.199,-0.1 -0.445,-0.15 -0.738,-0.15 -0.274,0 -0.514,0.04 -0.721,0.14 -0.203,0.09 -0.363,0.21 -0.48,0.37 a 0.785,0.785 0 0 0 -0.17,0.49 h -1.084 c 0,-0.23 0.058,-0.45 0.176,-0.68 a 2,2 0 0 1 0.503,-0.6 c 0.223,-0.18 0.489,-0.33 0.797,-0.43 0.313,-0.11 0.66,-0.17 1.043,-0.17 0.461,0 0.867,0.08 1.219,0.24 0.356,0.15 0.633,0.39 0.832,0.71 0.203,0.31 0.305,0.7 0.305,1.17 v 2.96 c 0,0.21 0.017,0.43 0.052,0.67 0.04,0.24 0.096,0.44 0.17,0.62 v 0.09 h -1.13 a 1.926,1.926 0 0 1 -0.129,-0.5 c -0.032,-0.21 -0.047,-0.4 -0.047,-0.58 z m 0.187,-2.76 0.012,0.76 h -1.096 c -0.308,0 -0.584,0.02 -0.826,0.07 -0.242,0.05 -0.445,0.12 -0.609,0.22 -0.164,0.1 -0.289,0.22 -0.375,0.37 a 0.956,0.956 0 0 0 -0.129,0.51 c 0,0.2 0.045,0.38 0.135,0.54 0.089,0.17 0.224,0.3 0.404,0.4 0.183,0.09 0.408,0.14 0.674,0.14 a 1.791,1.791 0 0 0 1.482,-0.73 c 0.152,-0.2 0.235,-0.4 0.246,-0.59 l 0.463,0.52 c -0.027,0.17 -0.101,0.35 -0.223,0.55 -0.121,0.2 -0.283,0.39 -0.486,0.57 -0.199,0.18 -0.437,0.33 -0.715,0.45 -0.273,0.12 -0.582,0.18 -0.925,0.18 -0.43,0 -0.807,-0.09 -1.131,-0.25 -0.321,-0.17 -0.571,-0.4 -0.75,-0.68 -0.176,-0.28 -0.264,-0.6 -0.264,-0.95 0,-0.34 0.066,-0.64 0.199,-0.9 0.133,-0.26 0.324,-0.48 0.574,-0.65 0.25,-0.18 0.551,-0.31 0.903,-0.4 0.351,-0.09 0.744,-0.13 1.177,-0.13 z m 7.109,-2.5 h 0.985 v 6.21 c 0,0.55 -0.114,1.03 -0.34,1.42 -0.227,0.4 -0.543,0.7 -0.949,0.9 -0.403,0.21 -0.868,0.31 -1.395,0.31 a 3.39,3.39 0 0 1 -1.641,-0.45 2.21,2.21 0 0 1 -0.709,-0.65 l 0.569,-0.64 c 0.265,0.32 0.543,0.54 0.832,0.66 0.293,0.13 0.582,0.19 0.867,0.19 0.344,0 0.641,-0.06 0.891,-0.19 0.25,-0.13 0.443,-0.32 0.58,-0.58 0.14,-0.25 0.211,-0.55 0.211,-0.92 v -4.87 z m -4.365,3.24 v -0.12 c 0,-0.49 0.057,-0.93 0.17,-1.32 0.117,-0.4 0.283,-0.74 0.498,-1.03 0.219,-0.28 0.482,-0.5 0.791,-0.65 0.309,-0.16 0.656,-0.24 1.043,-0.24 0.398,0 0.746,0.07 1.043,0.21 0.301,0.14 0.555,0.34 0.762,0.61 0.211,0.26 0.377,0.58 0.498,0.95 0.121,0.37 0.205,0.79 0.252,1.26 v 0.54 a 5.53,5.53 0 0 1 -0.252,1.25 c -0.121,0.37 -0.287,0.69 -0.498,0.95 -0.207,0.26 -0.461,0.46 -0.762,0.6 -0.301,0.14 -0.652,0.21 -1.055,0.21 -0.379,0 -0.722,-0.08 -1.031,-0.24 a 2.355,2.355 0 0 1 -0.785,-0.68 3.201,3.201 0 0 1 -0.504,-1.02 c -0.113,-0.39 -0.17,-0.82 -0.17,-1.28 z m 1.084,-0.12 v 0.12 c 0,0.32 0.031,0.61 0.094,0.89 0.066,0.28 0.166,0.52 0.299,0.73 0.136,0.21 0.31,0.38 0.521,0.5 0.211,0.12 0.463,0.18 0.756,0.18 0.359,0 0.656,-0.08 0.891,-0.23 0.234,-0.15 0.419,-0.35 0.556,-0.6 0.141,-0.25 0.25,-0.53 0.328,-0.82 v -1.41 a 2.788,2.788 0 0 0 -0.199,-0.62 1.742,1.742 0 0 0 -0.34,-0.54 1.411,1.411 0 0 0 -0.51,-0.38 c -0.203,-0.1 -0.441,-0.14 -0.714,-0.14 -0.297,0 -0.553,0.06 -0.768,0.18 -0.211,0.13 -0.385,0.29 -0.521,0.51 -0.133,0.21 -0.233,0.46 -0.299,0.74 a 3.94,3.94 0 0 0 -0.094,0.89 z m 8.943,3.34 a 3.09,3.09 0 0 1 -1.201,-0.23 2.713,2.713 0 0 1 -0.92,-0.63 c -0.254,-0.28 -0.449,-0.6 -0.586,-0.98 a 3.52,3.52 0 0 1 -0.205,-1.23 v -0.24 c 0,-0.52 0.076,-0.98 0.228,-1.38 0.153,-0.41 0.36,-0.75 0.621,-1.03 a 2.624,2.624 0 0 1 1.922,-0.86 c 0.453,0 0.844,0.08 1.172,0.24 0.332,0.15 0.604,0.37 0.815,0.65 0.211,0.28 0.367,0.61 0.468,0.99 0.102,0.37 0.153,0.78 0.153,1.23 v 0.48 h -4.735 v -0.88 h 3.651 v -0.08 a 2.672,2.672 0 0 0 -0.176,-0.82 1.454,1.454 0 0 0 -0.469,-0.66 c -0.215,-0.17 -0.508,-0.26 -0.879,-0.26 a 1.478,1.478 0 0 0 -1.213,0.62 c -0.148,0.2 -0.263,0.45 -0.345,0.74 -0.082,0.3 -0.123,0.63 -0.123,1.02 v 0.24 c 0,0.3 0.041,0.59 0.123,0.85 0.086,0.26 0.209,0.49 0.369,0.69 a 1.72,1.72 0 0 0 1.389,0.64 c 0.382,0 0.707,-0.08 0.972,-0.23 0.266,-0.16 0.498,-0.37 0.697,-0.63 l 0.657,0.52 a 2.76,2.76 0 0 1 -0.522,0.59 c -0.211,0.19 -0.47,0.34 -0.779,0.46 -0.305,0.12 -0.666,0.18 -1.084,0.18 z m 4.086,-0.69 c 0,-0.19 0.056,-0.34 0.169,-0.47 0.118,-0.13 0.286,-0.19 0.504,-0.19 0.219,0 0.385,0.06 0.498,0.19 0.118,0.13 0.176,0.28 0.176,0.47 0,0.18 -0.058,0.33 -0.176,0.45 -0.113,0.13 -0.279,0.19 -0.498,0.19 -0.218,0 -0.386,-0.06 -0.504,-0.19 a 0.63,0.63 0 0 1 -0.169,-0.45 z m 0.005,-5.18 c 0,-0.18 0.057,-0.34 0.17,-0.46 0.117,-0.13 0.285,-0.19 0.504,-0.19 0.219,0 0.385,0.06 0.498,0.19 0.117,0.12 0.176,0.28 0.176,0.46 a 0.66,0.66 0 0 1 -0.176,0.46 c -0.113,0.12 -0.279,0.19 -0.498,0.19 -0.219,0 -0.387,-0.07 -0.504,-0.19 a 0.673,0.673 0 0 1 -0.17,-0.46 z"
           class="Rows per page :"
           id="path6115" />
        <g
           class="Page"
           id="g6123">
          <path
             fill="#000000"
             fill-opacity="0.87"
             d="m 811.271,1030.42 v 8.58 h -1.083 v -7.22 l -2.186,0.79 v -0.98 l 3.1,-1.17 z m 8.843,3.63 v 1.31 c 0,0.69 -0.062,1.28 -0.187,1.76 -0.125,0.49 -0.305,0.87 -0.539,1.17 -0.234,0.29 -0.518,0.5 -0.85,0.63 a 3,3 0 0 1 -1.113,0.2 c -0.328,0 -0.631,-0.04 -0.908,-0.13 a 2.1,2.1 0 0 1 -0.75,-0.39 2.36,2.36 0 0 1 -0.563,-0.71 c -0.156,-0.3 -0.275,-0.65 -0.357,-1.07 a 7.713,7.713 0 0 1 -0.123,-1.46 v -1.31 c 0,-0.69 0.062,-1.28 0.187,-1.75 0.129,-0.48 0.311,-0.85 0.545,-1.14 0.235,-0.29 0.516,-0.5 0.844,-0.62 a 3.03,3.03 0 0 1 1.113,-0.19 c 0.332,0 0.637,0.04 0.914,0.12 0.282,0.08 0.532,0.21 0.75,0.39 0.219,0.17 0.405,0.4 0.557,0.69 0.156,0.28 0.275,0.63 0.357,1.05 0.082,0.41 0.123,0.9 0.123,1.45 z m -1.089,1.48 v -1.66 c 0,-0.38 -0.024,-0.72 -0.071,-1 -0.043,-0.3 -0.107,-0.55 -0.193,-0.75 a 1.492,1.492 0 0 0 -0.328,-0.51 1.159,1.159 0 0 0 -0.451,-0.28 1.686,1.686 0 0 0 -0.569,-0.09 c -0.258,0 -0.486,0.05 -0.685,0.14 -0.199,0.1 -0.367,0.25 -0.504,0.45 -0.133,0.21 -0.235,0.48 -0.305,0.82 -0.07,0.33 -0.105,0.74 -0.105,1.22 v 1.66 c 0,0.38 0.021,0.72 0.064,1.01 0.047,0.3 0.115,0.55 0.205,0.77 0.09,0.21 0.199,0.38 0.328,0.52 0.129,0.13 0.278,0.24 0.446,0.3 0.172,0.07 0.361,0.1 0.568,0.1 0.266,0 0.498,-0.05 0.697,-0.16 0.199,-0.1 0.366,-0.26 0.498,-0.47 0.137,-0.22 0.239,-0.5 0.305,-0.84 0.066,-0.34 0.1,-0.75 0.1,-1.23 z"
             class="10"
             id="path6117" />
          <g
             class="filled/navigation/arrow-drop-down"
             id="g6121">
            <path
               fill="#000000"
               fill-opacity="0.54"
               d="m 828,1032 5,5 5,-5 z"
               class="Vector"
               id="path6119" />
          </g>
        </g>
      </g>
      <path
         fill="#000000"
         fill-opacity="0.87"
         d="m 875.271,1029.42 v 8.58 h -1.083 v -7.22 l -2.186,0.79 v -0.98 l 3.1,-1.17 z m 5.961,4.51 v 0.89 h -2.859 v -0.89 z m 2.714,0.01 -0.867,-0.22 0.428,-4.25 h 4.377 v 1 h -3.457 l -0.258,2.32 c 0.156,-0.09 0.354,-0.17 0.592,-0.25 0.242,-0.08 0.519,-0.12 0.832,-0.12 0.395,0 0.748,0.07 1.061,0.21 0.312,0.13 0.578,0.32 0.796,0.57 0.223,0.25 0.393,0.55 0.51,0.9 0.117,0.36 0.176,0.75 0.176,1.18 0,0.41 -0.057,0.79 -0.17,1.13 -0.109,0.35 -0.275,0.65 -0.498,0.9 -0.223,0.26 -0.504,0.46 -0.844,0.6 -0.336,0.14 -0.732,0.21 -1.189,0.21 -0.344,0 -0.67,-0.05 -0.979,-0.14 -0.304,-0.1 -0.578,-0.25 -0.82,-0.44 -0.238,-0.2 -0.434,-0.45 -0.586,-0.74 -0.148,-0.3 -0.242,-0.65 -0.281,-1.04 h 1.031 c 0.047,0.32 0.141,0.59 0.281,0.8 0.141,0.22 0.324,0.39 0.551,0.5 0.231,0.11 0.498,0.17 0.803,0.17 0.258,0 0.486,-0.05 0.685,-0.14 0.2,-0.09 0.368,-0.22 0.504,-0.38 0.137,-0.17 0.24,-0.38 0.311,-0.61 0.074,-0.24 0.111,-0.51 0.111,-0.81 0,-0.27 -0.037,-0.52 -0.111,-0.75 a 1.692,1.692 0 0 0 -0.334,-0.6 1.448,1.448 0 0 0 -0.533,-0.4 1.68,1.68 0 0 0 -0.727,-0.15 c -0.363,0 -0.639,0.05 -0.826,0.15 -0.184,0.1 -0.373,0.23 -0.569,0.4 z m 8.986,0.96 v -0.13 c 0,-0.46 0.066,-0.89 0.199,-1.28 0.133,-0.39 0.324,-0.73 0.574,-1.02 a 2.732,2.732 0 0 1 2.104,-0.93 c 0.445,0 0.846,0.08 1.201,0.25 0.36,0.16 0.664,0.39 0.914,0.68 0.254,0.29 0.447,0.63 0.58,1.02 0.133,0.39 0.2,0.82 0.2,1.28 v 0.13 c 0,0.46 -0.067,0.88 -0.2,1.27 -0.133,0.39 -0.326,0.73 -0.58,1.03 -0.25,0.29 -0.553,0.51 -0.908,0.68 -0.352,0.16 -0.75,0.24 -1.195,0.24 a 2.89,2.89 0 0 1 -1.201,-0.24 2.786,2.786 0 0 1 -0.915,-0.68 3.2,3.2 0 0 1 -0.574,-1.03 3.896,3.896 0 0 1 -0.199,-1.27 z m 1.084,-0.13 v 0.13 c 0,0.32 0.037,0.62 0.111,0.9 0.075,0.27 0.186,0.52 0.334,0.74 0.153,0.21 0.342,0.38 0.569,0.5 0.226,0.13 0.49,0.19 0.791,0.19 0.297,0 0.556,-0.06 0.779,-0.19 0.227,-0.12 0.414,-0.29 0.563,-0.5 0.148,-0.22 0.259,-0.47 0.333,-0.74 0.079,-0.28 0.118,-0.58 0.118,-0.9 v -0.13 c 0,-0.32 -0.039,-0.61 -0.118,-0.89 a 2.224,2.224 0 0 0 -0.339,-0.74 1.667,1.667 0 0 0 -0.563,-0.52 1.633,1.633 0 0 0 -0.785,-0.19 c -0.297,0 -0.559,0.07 -0.785,0.19 -0.223,0.13 -0.41,0.3 -0.563,0.52 a 2.32,2.32 0 0 0 -0.334,0.74 c -0.074,0.28 -0.111,0.57 -0.111,0.89 z m 8.064,3.23 h -1.084 v -7.01 c 0,-0.45 0.082,-0.84 0.246,-1.15 0.168,-0.32 0.408,-0.56 0.721,-0.72 0.312,-0.16 0.683,-0.24 1.113,-0.24 0.125,0 0.25,0 0.375,0.02 0.129,0.02 0.254,0.04 0.375,0.07 l -0.058,0.89 a 1.944,1.944 0 0 0 -0.282,-0.05 c -0.101,0 -0.203,-0.01 -0.304,-0.01 -0.231,0 -0.43,0.05 -0.598,0.14 a 0.919,0.919 0 0 0 -0.375,0.4 c -0.086,0.18 -0.129,0.39 -0.129,0.65 z m 1.348,-6.34 v 0.83 h -3.434 v -0.83 z m 8.429,-2.24 v 8.58 h -1.084 v -7.22 l -2.186,0.79 v -0.98 l 3.1,-1.17 z m 5.169,3.78 h 0.774 c 0.379,0 0.691,-0.06 0.937,-0.19 0.25,-0.13 0.436,-0.3 0.557,-0.52 0.125,-0.22 0.187,-0.47 0.187,-0.75 0,-0.33 -0.054,-0.6 -0.164,-0.82 a 1.105,1.105 0 0 0 -0.492,-0.51 c -0.219,-0.11 -0.496,-0.17 -0.832,-0.17 -0.305,0 -0.574,0.06 -0.809,0.18 -0.23,0.12 -0.412,0.29 -0.545,0.51 -0.128,0.22 -0.193,0.47 -0.193,0.77 h -1.084 c 0,-0.43 0.109,-0.83 0.328,-1.18 0.219,-0.36 0.526,-0.64 0.92,-0.85 0.399,-0.21 0.86,-0.32 1.383,-0.32 0.516,0 0.967,0.09 1.353,0.28 0.387,0.18 0.688,0.45 0.903,0.81 0.215,0.35 0.322,0.79 0.322,1.33 0,0.21 -0.051,0.44 -0.152,0.69 -0.098,0.24 -0.252,0.47 -0.463,0.68 -0.207,0.21 -0.477,0.38 -0.809,0.52 -0.332,0.13 -0.73,0.2 -1.195,0.2 h -0.926 z m 0,0.89 v -0.65 h 0.926 c 0.543,0 0.992,0.07 1.348,0.19 0.355,0.13 0.634,0.31 0.838,0.52 0.207,0.22 0.351,0.45 0.433,0.71 0.086,0.25 0.129,0.51 0.129,0.76 0,0.4 -0.068,0.75 -0.205,1.06 -0.133,0.31 -0.322,0.57 -0.568,0.79 -0.243,0.21 -0.528,0.37 -0.856,0.48 a 3.35,3.35 0 0 1 -1.072,0.17 c -0.371,0 -0.721,-0.06 -1.049,-0.16 a 2.8,2.8 0 0 1 -0.861,-0.46 c -0.25,-0.2 -0.446,-0.45 -0.586,-0.74 a 2.37,2.37 0 0 1 -0.211,-1.02 h 1.084 c 0,0.3 0.064,0.56 0.193,0.78 0.133,0.23 0.32,0.4 0.563,0.52 0.246,0.13 0.535,0.19 0.867,0.19 0.332,0 0.617,-0.06 0.855,-0.17 0.242,-0.12 0.428,-0.3 0.557,-0.53 0.133,-0.24 0.199,-0.53 0.199,-0.89 0,-0.35 -0.074,-0.64 -0.222,-0.87 -0.149,-0.23 -0.36,-0.4 -0.633,-0.51 -0.27,-0.11 -0.588,-0.17 -0.955,-0.17 z"
         class="1-10 of 100"
         id="path6127" />
      <g
         class="Navigation"
         id="g6149">
        <g
           class="IconButton"
           id="g6137">
          <g
             class="UnstyledIconButton"
             id="g6135">
            <g
               class="Icon"
               id="g6133">
              <g
                 class="ChevronRightOutlined"
                 id="g6131">
                <path
                   fill="#000000"
                   fill-opacity="0.54"
                   d="m 1017.7,1028 -1.41,1.41 4.58,4.59 -4.58,4.59 1.41,1.41 6,-6 z"
                   class="Vector"
                   id="path6129" />
              </g>
            </g>
          </g>
        </g>
        <g
           class="IconButton"
           id="g6147">
          <g
             class="UnstyledIconButton"
             id="g6145">
            <g
               class="Icon"
               id="g6143">
              <g
                 class="ChevronLeftOutlined"
                 id="g6141">
                <path
                   fill="#000000"
                   fill-opacity="0.54"
                   d="m 975.705,1029.41 -1.41,-1.41 -6,6 6,6 1.41,-1.41 -4.58,-4.59 z"
                   class="Vector"
                   id="path6139" />
              </g>
            </g>
          </g>
        </g>
      </g>
    </g>
  </g>
</svg>
