<?xml version="1.0" encoding="UTF-8" standalone="no"?>
<svg
   width="600"
   height="226.502"
   fill="none"
   viewBox="0 0 600 226.502"
   version="1.1"
   id="svg10449"
   xmlns="http://www.w3.org/2000/svg"
   xmlns:svg="http://www.w3.org/2000/svg">
  <g
     class="Small=False, Checkbox=False, Dark Mode=False, Small Screen=False"
     id="g5445"
     transform="translate(-648,-412)" />
  <g
     class="Small=False, Checkbox=False, Dark Mode=False, Small Screen=True"
     id="g5651"
     transform="translate(-648,-412)" />
  <g
     class="Small=False, Checkbox=True, Dark Mode=False, Small Screen=False"
     id="g5899"
     transform="translate(-648,-412)" />
  <g
     class="Small=False, Checkbox=True, Dark Mode=False, Small Screen=True"
     id="g6153"
     transform="translate(-648,-412)" />
  <g
     class="Small=True, Checkbox=False, Dark Mode=False, Small Screen=False"
     id="g6353"
     transform="translate(-648,-412)" />
  <g
     class="Small=True, Checkbox=False, Dark Mode=False, Small Screen=True"
     id="g6559"
     transform="translate(-648,-412)" />
  <g
     class="Small=True, Checkbox=True, Dark Mode=False, Small Screen=False"
     id="g6809"
     transform="translate(-648,-412)" />
  <g
     class="Small=True, Checkbox=True, Dark Mode=False, Small Screen=True"
     id="g7065"
     transform="translate(-648,-412)" />
  <defs
     id="defs10447">
    <filter
       id="N"
       width="600"
       height="36"
       x="648"
       y="412"
       class="N"
       color-interpolation-filters="sRGB"
       filterUnits="userSpaceOnUse">
      <feFlood
         flood-opacity="0"
         result="BackgroundImageFix"
         id="feFlood9472" />
      <feBlend
         in="SourceGraphic"
         in2="BackgroundImageFix"
         result="shape"
         id="feBlend9474"
         mode="normal" />
      <feColorMatrix
         in="SourceAlpha"
         result="hardAlpha"
         values="0 0 0 0 0 0 0 0 0 0 0 0 0 0 0 0 0 0 127 0"
         id="feColorMatrix9476" />
      <feOffset
         dy="-1"
         id="feOffset9478" />
      <feComposite
         in2="hardAlpha"
         k2="-1"
         k3="1"
         operator="arithmetic"
         id="feComposite9480"
         k1="0"
         k4="0" />
      <feColorMatrix
         values="0 0 0 0 0 0 0 0 0 0 0 0 0 0 0 0 0 0 0.12 0"
         id="feColorMatrix9482" />
      <feBlend
         in2="shape"
         result="effect1_innerShadow_4863_27293"
         id="feBlend9484"
         mode="normal" />
    </filter>
    <filter
       id="O"
       width="600"
       height="32"
       x="648"
       y="448"
       class="O"
       color-interpolation-filters="sRGB"
       filterUnits="userSpaceOnUse">
      <feFlood
         flood-opacity="0"
         result="BackgroundImageFix"
         id="feFlood9487" />
      <feBlend
         in="SourceGraphic"
         in2="BackgroundImageFix"
         result="shape"
         id="feBlend9489"
         mode="normal" />
      <feColorMatrix
         in="SourceAlpha"
         result="hardAlpha"
         values="0 0 0 0 0 0 0 0 0 0 0 0 0 0 0 0 0 0 127 0"
         id="feColorMatrix9491" />
      <feOffset
         dy="-1"
         id="feOffset9493" />
      <feComposite
         in2="hardAlpha"
         k2="-1"
         k3="1"
         operator="arithmetic"
         id="feComposite9495"
         k1="0"
         k4="0" />
      <feColorMatrix
         values="0 0 0 0 0 0 0 0 0 0 0 0 0 0 0 0 0 0 0.12 0"
         id="feColorMatrix9497" />
      <feBlend
         in2="shape"
         result="effect1_innerShadow_4863_27293"
         id="feBlend9499"
         mode="normal" />
    </filter>
    <filter
       id="P"
       width="600"
       height="32"
       x="648"
       y="480"
       class="P"
       color-interpolation-filters="sRGB"
       filterUnits="userSpaceOnUse">
      <feFlood
         flood-opacity="0"
         result="BackgroundImageFix"
         id="feFlood9502" />
      <feBlend
         in="SourceGraphic"
         in2="BackgroundImageFix"
         result="shape"
         id="feBlend9504"
         mode="normal" />
      <feColorMatrix
         in="SourceAlpha"
         result="hardAlpha"
         values="0 0 0 0 0 0 0 0 0 0 0 0 0 0 0 0 0 0 127 0"
         id="feColorMatrix9506" />
      <feOffset
         dy="-1"
         id="feOffset9508" />
      <feComposite
         in2="hardAlpha"
         k2="-1"
         k3="1"
         operator="arithmetic"
         id="feComposite9510"
         k1="0"
         k4="0" />
      <feColorMatrix
         values="0 0 0 0 0 0 0 0 0 0 0 0 0 0 0 0 0 0 0.12 0"
         id="feColorMatrix9512" />
      <feBlend
         in2="shape"
         result="effect1_innerShadow_4863_27293"
         id="feBlend9514"
         mode="normal" />
    </filter>
    <filter
       id="Q"
       width="600"
       height="32"
       x="648"
       y="512"
       class="Q"
       color-interpolation-filters="sRGB"
       filterUnits="userSpaceOnUse">
      <feFlood
         flood-opacity="0"
         result="BackgroundImageFix"
         id="feFlood9517" />
      <feBlend
         in="SourceGraphic"
         in2="BackgroundImageFix"
         result="shape"
         id="feBlend9519"
         mode="normal" />
      <feColorMatrix
         in="SourceAlpha"
         result="hardAlpha"
         values="0 0 0 0 0 0 0 0 0 0 0 0 0 0 0 0 0 0 127 0"
         id="feColorMatrix9521" />
      <feOffset
         dy="-1"
         id="feOffset9523" />
      <feComposite
         in2="hardAlpha"
         k2="-1"
         k3="1"
         operator="arithmetic"
         id="feComposite9525"
         k1="0"
         k4="0" />
      <feColorMatrix
         values="0 0 0 0 0 0 0 0 0 0 0 0 0 0 0 0 0 0 0.12 0"
         id="feColorMatrix9527" />
      <feBlend
         in2="shape"
         result="effect1_innerShadow_4863_27293"
         id="feBlend9529"
         mode="normal" />
    </filter>
    <filter
       id="R"
       width="600"
       height="32"
       x="648"
       y="544"
       class="R"
       color-interpolation-filters="sRGB"
       filterUnits="userSpaceOnUse">
      <feFlood
         flood-opacity="0"
         result="BackgroundImageFix"
         id="feFlood9532" />
      <feBlend
         in="SourceGraphic"
         in2="BackgroundImageFix"
         result="shape"
         id="feBlend9534"
         mode="normal" />
      <feColorMatrix
         in="SourceAlpha"
         result="hardAlpha"
         values="0 0 0 0 0 0 0 0 0 0 0 0 0 0 0 0 0 0 127 0"
         id="feColorMatrix9536" />
      <feOffset
         dy="-1"
         id="feOffset9538" />
      <feComposite
         in2="hardAlpha"
         k2="-1"
         k3="1"
         operator="arithmetic"
         id="feComposite9540"
         k1="0"
         k4="0" />
      <feColorMatrix
         values="0 0 0 0 0 0 0 0 0 0 0 0 0 0 0 0 0 0 0.12 0"
         id="feColorMatrix9542" />
      <feBlend
         in2="shape"
         result="effect1_innerShadow_4863_27293"
         id="feBlend9544"
         mode="normal" />
    </filter>
    <filter
       id="S"
       width="600"
       height="32"
       x="648"
       y="576"
       class="S"
       color-interpolation-filters="sRGB"
       filterUnits="userSpaceOnUse">
      <feFlood
         flood-opacity="0"
         result="BackgroundImageFix"
         id="feFlood9547" />
      <feBlend
         in="SourceGraphic"
         in2="BackgroundImageFix"
         result="shape"
         id="feBlend9549"
         mode="normal" />
      <feColorMatrix
         in="SourceAlpha"
         result="hardAlpha"
         values="0 0 0 0 0 0 0 0 0 0 0 0 0 0 0 0 0 0 127 0"
         id="feColorMatrix9551" />
      <feOffset
         dy="-1"
         id="feOffset9553" />
      <feComposite
         in2="hardAlpha"
         k2="-1"
         k3="1"
         operator="arithmetic"
         id="feComposite9555"
         k1="0"
         k4="0" />
      <feColorMatrix
         values="0 0 0 0 0 0 0 0 0 0 0 0 0 0 0 0 0 0 0.12 0"
         id="feColorMatrix9557" />
      <feBlend
         in2="shape"
         result="effect1_innerShadow_4863_27293"
         id="feBlend9559"
         mode="normal" />
    </filter>
  </defs>
  <g
     id="New_Layer_1652823860.1733856"
     style="display:inline"
     transform="translate(-624,-388)">
    <g
       class="TableHeadRow"
       filter="url(#N)"
       id="g6589"
       transform="translate(-24,-24)">
      <path
         fill="#ffffff"
         fill-opacity="0.01"
         d="m 648,412 h 600 v 36 H 648 Z"
         id="path6561" />
      <g
         class="TableHead"
         id="g6575">
        <g
           class="Masked"
           id="g6571">
          <g
             class="Checkbox"
             id="g6569">
            <g
               class="Padding"
               id="g6567">
              <g
                 class="CheckBoxOutlineBlank"
                 id="g6565">
                <path
                   fill="#000000"
                   fill-opacity="0.6"
                   d="m 681.833,424.167 v 11.666 h -11.666 v -11.666 z m 0,-1.667 h -11.666 c -0.917,0 -1.667,0.75 -1.667,1.667 v 11.666 c 0,0.917 0.75,1.667 1.667,1.667 h 11.666 c 0.917,0 1.667,-0.75 1.667,-1.667 v -11.666 c 0,-0.917 -0.75,-1.667 -1.667,-1.667 z"
                   class="Vector"
                   id="path6563" />
              </g>
            </g>
          </g>
        </g>
        <path
           fill="#000000"
           fill-opacity="0.87"
           d="m 707.588,429.203 v 1.36 h -5.284 v -1.36 z m -4.86,-4.156 V 435 h -1.716 v -9.953 z m 6.179,0 V 435 h -1.709 v -9.953 z m 5.311,10.09 a 3.946,3.946 0 0 1 -1.484,-0.267 3.27,3.27 0 0 1 -1.121,-0.759 3.365,3.365 0 0 1 -0.704,-1.141 4,4 0 0 1 -0.246,-1.415 v -0.274 c 0,-0.579 0.084,-1.103 0.253,-1.572 0.169,-0.469 0.403,-0.87 0.704,-1.203 a 3.03,3.03 0 0 1 1.067,-0.773 c 0.41,-0.177 0.854,-0.266 1.333,-0.266 0.528,0 0.991,0.089 1.387,0.266 0.397,0.178 0.725,0.429 0.985,0.752 0.264,0.319 0.46,0.7 0.588,1.142 a 5.1,5.1 0 0 1 0.198,1.463 v 0.704 h -5.715 v -1.183 h 4.088 v -0.13 a 2.3,2.3 0 0 0 -0.178,-0.834 1.415,1.415 0 0 0 -0.485,-0.628 c -0.219,-0.16 -0.511,-0.24 -0.875,-0.24 -0.274,0 -0.517,0.06 -0.732,0.178 -0.209,0.114 -0.385,0.28 -0.526,0.499 a 2.624,2.624 0 0 0 -0.328,0.793 c -0.073,0.305 -0.11,0.649 -0.11,1.032 v 0.274 c 0,0.323 0.044,0.624 0.13,0.902 0.091,0.273 0.224,0.513 0.397,0.718 0.173,0.205 0.383,0.367 0.629,0.485 0.246,0.114 0.526,0.171 0.841,0.171 0.396,0 0.749,-0.08 1.059,-0.239 0.31,-0.16 0.579,-0.385 0.807,-0.677 l 0.868,0.841 c -0.16,0.232 -0.367,0.456 -0.622,0.67 -0.255,0.209 -0.568,0.38 -0.937,0.512 -0.364,0.133 -0.788,0.199 -1.271,0.199 z m 8.585,-1.62 v -3.528 c 0,-0.264 -0.048,-0.492 -0.144,-0.683 a 1,1 0 0 0 -0.437,-0.445 c -0.192,-0.104 -0.433,-0.157 -0.725,-0.157 -0.269,0 -0.501,0.046 -0.697,0.137 a 1.123,1.123 0 0 0 -0.458,0.369 0.892,0.892 0 0 0 -0.164,0.526 h -1.641 c 0,-0.291 0.071,-0.574 0.212,-0.847 0.141,-0.274 0.347,-0.518 0.615,-0.732 0.269,-0.214 0.591,-0.383 0.964,-0.506 a 4.013,4.013 0 0 1 1.258,-0.184 c 0.556,0 1.048,0.093 1.477,0.28 a 2.24,2.24 0 0 1 1.018,0.848 c 0.251,0.373 0.376,0.843 0.376,1.408 v 3.288 c 0,0.337 0.023,0.64 0.069,0.909 0.05,0.265 0.12,0.495 0.211,0.691 V 435 h -1.688 a 2.96,2.96 0 0 1 -0.185,-0.677 5.526,5.526 0 0 1 -0.061,-0.806 z m 0.239,-3.015 0.014,1.019 h -1.183 c -0.305,0 -0.574,0.029 -0.806,0.088 a 1.657,1.657 0 0 0 -0.581,0.246 1.07,1.07 0 0 0 -0.349,0.397 c -0.078,0.155 -0.116,0.33 -0.116,0.526 0,0.196 0.045,0.376 0.136,0.54 0.092,0.16 0.224,0.285 0.397,0.376 0.178,0.091 0.392,0.137 0.642,0.137 0.338,0 0.632,-0.068 0.882,-0.205 a 1.81,1.81 0 0 0 0.602,-0.513 c 0.146,-0.205 0.223,-0.398 0.232,-0.581 l 0.533,0.732 a 2.472,2.472 0 0 1 -0.28,0.601 c -0.132,0.214 -0.305,0.42 -0.519,0.615 a 2.577,2.577 0 0 1 -1.771,0.657 c -0.483,0 -0.914,-0.096 -1.292,-0.287 a 2.301,2.301 0 0 1 -0.889,-0.787 2.036,2.036 0 0 1 -0.321,-1.127 c 0,-0.392 0.073,-0.739 0.219,-1.04 0.15,-0.305 0.369,-0.56 0.656,-0.765 0.292,-0.205 0.647,-0.36 1.067,-0.465 a 5.715,5.715 0 0 1 1.435,-0.164 z m 7.82,2.967 V 424.5 h 1.654 V 435 h -1.497 z m -4.813,-2.085 v -0.144 c 0,-0.56 0.066,-1.071 0.198,-1.531 0.132,-0.465 0.324,-0.864 0.575,-1.196 0.25,-0.338 0.556,-0.595 0.916,-0.773 0.36,-0.182 0.765,-0.273 1.216,-0.273 0.447,0 0.839,0.086 1.176,0.26 0.337,0.173 0.624,0.421 0.861,0.745 0.237,0.319 0.427,0.702 0.568,1.148 0.141,0.442 0.241,0.934 0.301,1.477 v 0.458 a 7.488,7.488 0 0 1 -0.301,1.449 3.893,3.893 0 0 1 -0.568,1.135 2.447,2.447 0 0 1 -0.868,0.738 c -0.337,0.173 -0.731,0.26 -1.182,0.26 -0.447,0 -0.85,-0.094 -1.21,-0.281 a 2.646,2.646 0 0 1 -0.909,-0.786 3.685,3.685 0 0 1 -0.575,-1.189 5.409,5.409 0 0 1 -0.198,-1.497 z m 1.648,-0.144 v 0.144 c 0,0.337 0.029,0.651 0.088,0.943 0.064,0.292 0.162,0.549 0.294,0.773 0.132,0.218 0.303,0.392 0.513,0.519 0.214,0.123 0.469,0.185 0.766,0.185 0.373,0 0.681,-0.082 0.923,-0.246 0.241,-0.164 0.43,-0.385 0.567,-0.663 0.141,-0.283 0.237,-0.597 0.287,-0.944 v -1.237 a 2.983,2.983 0 0 0 -0.171,-0.752 2.006,2.006 0 0 0 -0.335,-0.608 1.415,1.415 0 0 0 -0.526,-0.411 c -0.205,-0.1 -0.449,-0.15 -0.732,-0.15 -0.3,0 -0.556,0.064 -0.765,0.191 -0.21,0.128 -0.383,0.303 -0.52,0.527 -0.132,0.223 -0.23,0.483 -0.294,0.779 a 4.493,4.493 0 0 0 -0.095,0.95 z"
           class="Head"
           id="path6573" />
      </g>
      <g
         class="TableHead"
         id="g6579">
        <path
           fill="#000000"
           fill-opacity="0.87"
           d="m 821.588,429.203 v 1.36 h -5.284 v -1.36 z m -4.86,-4.156 V 435 h -1.716 v -9.953 z m 6.179,0 V 435 h -1.709 v -9.953 z m 5.311,10.09 a 3.946,3.946 0 0 1 -1.484,-0.267 3.27,3.27 0 0 1 -1.121,-0.759 3.365,3.365 0 0 1 -0.704,-1.141 4,4 0 0 1 -0.246,-1.415 v -0.274 c 0,-0.579 0.084,-1.103 0.253,-1.572 0.169,-0.469 0.403,-0.87 0.704,-1.203 a 3.03,3.03 0 0 1 1.067,-0.773 c 0.41,-0.177 0.854,-0.266 1.333,-0.266 0.528,0 0.991,0.089 1.387,0.266 0.397,0.178 0.725,0.429 0.985,0.752 0.264,0.319 0.46,0.7 0.588,1.142 a 5.1,5.1 0 0 1 0.198,1.463 v 0.704 h -5.715 v -1.183 h 4.088 v -0.13 a 2.3,2.3 0 0 0 -0.178,-0.834 1.415,1.415 0 0 0 -0.485,-0.628 c -0.219,-0.16 -0.511,-0.24 -0.875,-0.24 -0.274,0 -0.517,0.06 -0.732,0.178 -0.209,0.114 -0.385,0.28 -0.526,0.499 a 2.624,2.624 0 0 0 -0.328,0.793 c -0.073,0.305 -0.11,0.649 -0.11,1.032 v 0.274 c 0,0.323 0.044,0.624 0.13,0.902 0.091,0.273 0.224,0.513 0.397,0.718 0.173,0.205 0.383,0.367 0.629,0.485 0.246,0.114 0.526,0.171 0.841,0.171 0.396,0 0.749,-0.08 1.059,-0.239 0.31,-0.16 0.579,-0.385 0.807,-0.677 l 0.868,0.841 c -0.16,0.232 -0.367,0.456 -0.622,0.67 -0.255,0.209 -0.568,0.38 -0.937,0.512 -0.364,0.133 -0.788,0.199 -1.271,0.199 z m 8.585,-1.62 v -3.528 c 0,-0.264 -0.048,-0.492 -0.144,-0.683 a 1,1 0 0 0 -0.437,-0.445 c -0.192,-0.104 -0.433,-0.157 -0.725,-0.157 -0.269,0 -0.501,0.046 -0.697,0.137 a 1.123,1.123 0 0 0 -0.458,0.369 0.892,0.892 0 0 0 -0.164,0.526 h -1.641 c 0,-0.291 0.071,-0.574 0.212,-0.847 0.141,-0.274 0.347,-0.518 0.615,-0.732 0.269,-0.214 0.591,-0.383 0.964,-0.506 a 4.013,4.013 0 0 1 1.258,-0.184 c 0.556,0 1.048,0.093 1.477,0.28 a 2.24,2.24 0 0 1 1.018,0.848 c 0.251,0.373 0.376,0.843 0.376,1.408 v 3.288 c 0,0.337 0.023,0.64 0.069,0.909 0.05,0.265 0.12,0.495 0.211,0.691 V 435 h -1.688 a 2.96,2.96 0 0 1 -0.185,-0.677 5.526,5.526 0 0 1 -0.061,-0.806 z m 0.239,-3.015 0.014,1.019 h -1.183 c -0.305,0 -0.574,0.029 -0.806,0.088 a 1.657,1.657 0 0 0 -0.581,0.246 1.07,1.07 0 0 0 -0.349,0.397 c -0.078,0.155 -0.116,0.33 -0.116,0.526 0,0.196 0.045,0.376 0.136,0.54 0.092,0.16 0.224,0.285 0.397,0.376 0.178,0.091 0.392,0.137 0.642,0.137 0.338,0 0.632,-0.068 0.882,-0.205 a 1.81,1.81 0 0 0 0.602,-0.513 c 0.146,-0.205 0.223,-0.398 0.232,-0.581 l 0.533,0.732 a 2.472,2.472 0 0 1 -0.28,0.601 c -0.132,0.214 -0.305,0.42 -0.519,0.615 a 2.577,2.577 0 0 1 -1.771,0.657 c -0.483,0 -0.914,-0.096 -1.292,-0.287 a 2.301,2.301 0 0 1 -0.889,-0.787 2.036,2.036 0 0 1 -0.321,-1.127 c 0,-0.392 0.073,-0.739 0.219,-1.04 0.15,-0.305 0.369,-0.56 0.656,-0.765 0.292,-0.205 0.647,-0.36 1.067,-0.465 a 5.715,5.715 0 0 1 1.435,-0.164 z m 7.82,2.967 V 424.5 h 1.654 V 435 h -1.497 z m -4.813,-2.085 v -0.144 c 0,-0.56 0.066,-1.071 0.198,-1.531 0.132,-0.465 0.324,-0.864 0.575,-1.196 0.25,-0.338 0.556,-0.595 0.916,-0.773 0.36,-0.182 0.765,-0.273 1.216,-0.273 0.447,0 0.839,0.086 1.176,0.26 0.337,0.173 0.624,0.421 0.861,0.745 0.237,0.319 0.427,0.702 0.568,1.148 0.141,0.442 0.241,0.934 0.301,1.477 v 0.458 a 7.488,7.488 0 0 1 -0.301,1.449 3.893,3.893 0 0 1 -0.568,1.135 2.447,2.447 0 0 1 -0.868,0.738 c -0.337,0.173 -0.731,0.26 -1.182,0.26 -0.447,0 -0.85,-0.094 -1.21,-0.281 a 2.646,2.646 0 0 1 -0.909,-0.786 3.685,3.685 0 0 1 -0.575,-1.189 5.409,5.409 0 0 1 -0.198,-1.497 z m 1.648,-0.144 v 0.144 c 0,0.337 0.029,0.651 0.088,0.943 0.064,0.292 0.162,0.549 0.294,0.773 0.132,0.218 0.303,0.392 0.513,0.519 0.214,0.123 0.469,0.185 0.766,0.185 0.373,0 0.681,-0.082 0.923,-0.246 0.241,-0.164 0.43,-0.385 0.567,-0.663 0.141,-0.283 0.237,-0.597 0.287,-0.944 v -1.237 a 2.983,2.983 0 0 0 -0.171,-0.752 2.006,2.006 0 0 0 -0.335,-0.608 1.415,1.415 0 0 0 -0.526,-0.411 c -0.205,-0.1 -0.449,-0.15 -0.732,-0.15 -0.3,0 -0.556,0.064 -0.765,0.191 -0.21,0.128 -0.383,0.303 -0.52,0.527 -0.132,0.223 -0.23,0.483 -0.294,0.779 a 4.493,4.493 0 0 0 -0.095,0.95 z"
           class="Head"
           id="path6577" />
      </g>
      <g
         class="TableHead"
         id="g6583">
        <path
           fill="#000000"
           fill-opacity="0.87"
           d="m 971.588,429.203 v 1.36 h -5.284 v -1.36 z m -4.86,-4.156 V 435 h -1.716 v -9.953 z m 6.179,0 V 435 h -1.709 v -9.953 z m 5.311,10.09 a 3.946,3.946 0 0 1 -1.484,-0.267 3.27,3.27 0 0 1 -1.121,-0.759 3.365,3.365 0 0 1 -0.704,-1.141 4,4 0 0 1 -0.246,-1.415 v -0.274 c 0,-0.579 0.084,-1.103 0.253,-1.572 0.169,-0.469 0.403,-0.87 0.704,-1.203 a 3.03,3.03 0 0 1 1.067,-0.773 c 0.41,-0.177 0.854,-0.266 1.333,-0.266 0.528,0 0.991,0.089 1.387,0.266 0.397,0.178 0.725,0.429 0.985,0.752 0.264,0.319 0.46,0.7 0.588,1.142 a 5.1,5.1 0 0 1 0.198,1.463 v 0.704 h -5.715 v -1.183 h 4.088 v -0.13 a 2.3,2.3 0 0 0 -0.178,-0.834 1.415,1.415 0 0 0 -0.485,-0.628 c -0.219,-0.16 -0.511,-0.24 -0.875,-0.24 -0.274,0 -0.517,0.06 -0.732,0.178 -0.209,0.114 -0.385,0.28 -0.526,0.499 a 2.624,2.624 0 0 0 -0.328,0.793 c -0.073,0.305 -0.11,0.649 -0.11,1.032 v 0.274 c 0,0.323 0.044,0.624 0.13,0.902 0.091,0.273 0.224,0.513 0.397,0.718 0.173,0.205 0.383,0.367 0.629,0.485 0.246,0.114 0.526,0.171 0.841,0.171 0.396,0 0.749,-0.08 1.059,-0.239 0.31,-0.16 0.579,-0.385 0.807,-0.677 l 0.868,0.841 c -0.16,0.232 -0.367,0.456 -0.622,0.67 -0.255,0.209 -0.568,0.38 -0.937,0.512 -0.364,0.133 -0.788,0.199 -1.271,0.199 z m 8.585,-1.62 v -3.528 c 0,-0.264 -0.048,-0.492 -0.144,-0.683 a 1,1 0 0 0 -0.437,-0.445 c -0.192,-0.104 -0.433,-0.157 -0.725,-0.157 -0.269,0 -0.501,0.046 -0.697,0.137 a 1.123,1.123 0 0 0 -0.458,0.369 0.892,0.892 0 0 0 -0.164,0.526 h -1.641 c 0,-0.291 0.071,-0.574 0.212,-0.847 0.141,-0.274 0.347,-0.518 0.615,-0.732 0.269,-0.214 0.591,-0.383 0.964,-0.506 a 4.013,4.013 0 0 1 1.258,-0.184 c 0.556,0 1.048,0.093 1.477,0.28 a 2.24,2.24 0 0 1 1.018,0.848 c 0.251,0.373 0.376,0.843 0.376,1.408 v 3.288 c 0,0.337 0.023,0.64 0.069,0.909 0.05,0.265 0.12,0.495 0.211,0.691 V 435 h -1.688 a 2.96,2.96 0 0 1 -0.185,-0.677 5.526,5.526 0 0 1 -0.061,-0.806 z m 0.239,-3.015 0.014,1.019 h -1.183 c -0.305,0 -0.574,0.029 -0.806,0.088 a 1.657,1.657 0 0 0 -0.581,0.246 1.07,1.07 0 0 0 -0.349,0.397 c -0.078,0.155 -0.116,0.33 -0.116,0.526 0,0.196 0.045,0.376 0.136,0.54 0.092,0.16 0.224,0.285 0.397,0.376 0.178,0.091 0.392,0.137 0.642,0.137 0.338,0 0.632,-0.068 0.882,-0.205 a 1.81,1.81 0 0 0 0.602,-0.513 c 0.146,-0.205 0.223,-0.398 0.232,-0.581 l 0.533,0.732 a 2.472,2.472 0 0 1 -0.28,0.601 c -0.132,0.214 -0.305,0.42 -0.519,0.615 a 2.577,2.577 0 0 1 -1.771,0.657 c -0.483,0 -0.914,-0.096 -1.292,-0.287 a 2.301,2.301 0 0 1 -0.889,-0.787 2.036,2.036 0 0 1 -0.321,-1.127 c 0,-0.392 0.073,-0.739 0.219,-1.04 0.15,-0.305 0.369,-0.56 0.656,-0.765 0.292,-0.205 0.647,-0.36 1.067,-0.465 a 5.715,5.715 0 0 1 1.435,-0.164 z m 7.82,2.967 V 424.5 h 1.654 V 435 h -1.497 z m -4.813,-2.085 v -0.144 c 0,-0.56 0.066,-1.071 0.198,-1.531 0.132,-0.465 0.324,-0.864 0.575,-1.196 0.25,-0.338 0.556,-0.595 0.916,-0.773 0.36,-0.182 0.765,-0.273 1.216,-0.273 0.447,0 0.839,0.086 1.176,0.26 0.337,0.173 0.624,0.421 0.861,0.745 0.237,0.319 0.427,0.702 0.568,1.148 0.141,0.442 0.241,0.934 0.301,1.477 v 0.458 a 7.488,7.488 0 0 1 -0.301,1.449 3.893,3.893 0 0 1 -0.568,1.135 2.447,2.447 0 0 1 -0.868,0.738 c -0.337,0.173 -0.731,0.26 -1.182,0.26 -0.447,0 -0.85,-0.094 -1.21,-0.281 a 2.646,2.646 0 0 1 -0.909,-0.786 3.685,3.685 0 0 1 -0.575,-1.189 5.409,5.409 0 0 1 -0.198,-1.497 z m 1.648,-0.144 v 0.144 c 0,0.337 0.029,0.651 0.088,0.943 0.064,0.292 0.162,0.549 0.294,0.773 0.132,0.218 0.303,0.392 0.513,0.519 0.214,0.123 0.469,0.185 0.766,0.185 0.373,0 0.681,-0.082 0.923,-0.246 0.241,-0.164 0.43,-0.385 0.567,-0.663 0.141,-0.283 0.237,-0.597 0.287,-0.944 v -1.237 a 2.983,2.983 0 0 0 -0.171,-0.752 2.006,2.006 0 0 0 -0.335,-0.608 1.415,1.415 0 0 0 -0.526,-0.411 c -0.205,-0.1 -0.449,-0.15 -0.732,-0.15 -0.3,0 -0.556,0.064 -0.765,0.191 -0.21,0.128 -0.383,0.303 -0.52,0.527 -0.132,0.223 -0.23,0.483 -0.294,0.779 a 4.493,4.493 0 0 0 -0.095,0.95 z"
           class="Head"
           id="path6581" />
      </g>
      <g
         class="TableHead"
         id="g6587">
        <path
           fill="#000000"
           fill-opacity="0.87"
           d="m 1121.59,429.203 v 1.36 h -5.29 v -1.36 z m -4.86,-4.156 V 435 h -1.72 v -9.953 z m 6.18,0 V 435 h -1.71 v -9.953 z m 5.31,10.09 c -0.55,0 -1.04,-0.089 -1.49,-0.267 a 3.335,3.335 0 0 1 -1.12,-0.759 3.37,3.37 0 0 1 -0.7,-1.141 4.093,4.093 0 0 1 -0.25,-1.415 v -0.274 c 0,-0.579 0.09,-1.103 0.26,-1.572 0.16,-0.469 0.4,-0.87 0.7,-1.203 0.3,-0.337 0.66,-0.595 1.07,-0.773 0.41,-0.177 0.85,-0.266 1.33,-0.266 0.53,0 0.99,0.089 1.39,0.266 0.39,0.178 0.72,0.429 0.98,0.752 0.27,0.319 0.46,0.7 0.59,1.142 0.13,0.442 0.2,0.93 0.2,1.463 v 0.704 h -5.72 v -1.183 h 4.09 v -0.13 a 2.323,2.323 0 0 0 -0.18,-0.834 c -0.1,-0.259 -0.26,-0.469 -0.48,-0.628 -0.22,-0.16 -0.51,-0.24 -0.88,-0.24 -0.27,0 -0.51,0.06 -0.73,0.178 -0.21,0.114 -0.38,0.28 -0.53,0.499 -0.14,0.219 -0.25,0.483 -0.32,0.793 -0.08,0.305 -0.11,0.649 -0.11,1.032 v 0.274 c 0,0.323 0.04,0.624 0.13,0.902 0.09,0.273 0.22,0.513 0.39,0.718 0.18,0.205 0.39,0.367 0.63,0.485 0.25,0.114 0.53,0.171 0.84,0.171 0.4,0 0.75,-0.08 1.06,-0.239 0.31,-0.16 0.58,-0.385 0.81,-0.677 l 0.87,0.841 c -0.16,0.232 -0.37,0.456 -0.62,0.67 -0.26,0.209 -0.57,0.38 -0.94,0.512 a 3.73,3.73 0 0 1 -1.27,0.199 z m 8.58,-1.62 v -3.528 c 0,-0.264 -0.04,-0.492 -0.14,-0.683 -0.1,-0.192 -0.24,-0.34 -0.44,-0.445 -0.19,-0.104 -0.43,-0.157 -0.72,-0.157 -0.27,0 -0.5,0.046 -0.7,0.137 -0.2,0.091 -0.35,0.214 -0.46,0.369 a 0.882,0.882 0 0 0 -0.16,0.526 h -1.64 c 0,-0.291 0.07,-0.574 0.21,-0.847 0.14,-0.274 0.35,-0.518 0.61,-0.732 0.27,-0.214 0.59,-0.383 0.97,-0.506 0.37,-0.123 0.79,-0.184 1.26,-0.184 0.55,0 1.04,0.093 1.47,0.28 0.44,0.187 0.78,0.469 1.02,0.848 0.25,0.373 0.38,0.843 0.38,1.408 v 3.288 c 0,0.337 0.02,0.64 0.07,0.909 0.05,0.265 0.12,0.495 0.21,0.691 V 435 h -1.69 a 2.992,2.992 0 0 1 -0.19,-0.677 5.664,5.664 0 0 1 -0.06,-0.806 z m 0.24,-3.015 0.02,1.019 h -1.19 c -0.3,0 -0.57,0.029 -0.8,0.088 -0.24,0.055 -0.43,0.137 -0.58,0.246 a 0.977,0.977 0 0 0 -0.35,0.397 c -0.08,0.155 -0.12,0.33 -0.12,0.526 0,0.196 0.05,0.376 0.14,0.54 0.09,0.16 0.22,0.285 0.39,0.376 0.18,0.091 0.4,0.137 0.65,0.137 0.33,0 0.63,-0.068 0.88,-0.205 0.25,-0.141 0.45,-0.312 0.6,-0.513 0.15,-0.205 0.22,-0.398 0.23,-0.581 l 0.54,0.732 c -0.06,0.187 -0.15,0.387 -0.28,0.601 a 3.3,3.3 0 0 1 -0.52,0.615 2.581,2.581 0 0 1 -1.77,0.657 c -0.49,0 -0.92,-0.096 -1.3,-0.287 a 2.326,2.326 0 0 1 -0.89,-0.787 2.068,2.068 0 0 1 -0.32,-1.127 c 0,-0.392 0.08,-0.739 0.22,-1.04 0.15,-0.305 0.37,-0.56 0.66,-0.765 0.29,-0.205 0.65,-0.36 1.06,-0.465 0.42,-0.109 0.9,-0.164 1.44,-0.164 z m 7.82,2.967 V 424.5 h 1.66 V 435 h -1.5 z m -4.81,-2.085 v -0.144 c 0,-0.56 0.07,-1.071 0.2,-1.531 0.13,-0.465 0.32,-0.864 0.57,-1.196 0.25,-0.338 0.56,-0.595 0.92,-0.773 0.36,-0.182 0.76,-0.273 1.21,-0.273 0.45,0 0.84,0.086 1.18,0.26 0.34,0.173 0.62,0.421 0.86,0.745 0.24,0.319 0.43,0.702 0.57,1.148 0.14,0.442 0.24,0.934 0.3,1.477 v 0.458 a 7.565,7.565 0 0 1 -0.3,1.449 3.8,3.8 0 0 1 -0.57,1.135 c -0.24,0.319 -0.52,0.565 -0.87,0.738 -0.33,0.173 -0.73,0.26 -1.18,0.26 -0.45,0 -0.85,-0.094 -1.21,-0.281 a 2.705,2.705 0 0 1 -0.91,-0.786 3.656,3.656 0 0 1 -0.57,-1.189 c -0.13,-0.46 -0.2,-0.959 -0.2,-1.497 z m 1.65,-0.144 v 0.144 c 0,0.337 0.03,0.651 0.09,0.943 0.06,0.292 0.16,0.549 0.29,0.773 0.13,0.218 0.3,0.392 0.51,0.519 0.22,0.123 0.47,0.185 0.77,0.185 0.37,0 0.68,-0.082 0.92,-0.246 0.24,-0.164 0.43,-0.385 0.57,-0.663 0.14,-0.283 0.23,-0.597 0.29,-0.944 v -1.237 c -0.03,-0.269 -0.09,-0.52 -0.18,-0.752 a 1.975,1.975 0 0 0 -0.33,-0.608 1.412,1.412 0 0 0 -0.53,-0.411 c -0.2,-0.1 -0.45,-0.15 -0.73,-0.15 -0.3,0 -0.55,0.064 -0.76,0.191 -0.21,0.128 -0.39,0.303 -0.52,0.527 a 2.55,2.55 0 0 0 -0.3,0.779 4.78,4.78 0 0 0 -0.09,0.95 z"
           class="Head"
           id="path6585" />
      </g>
    </g>
    <g
       class="TableCellRow"
       filter="url(#O)"
       id="g6625"
       transform="translate(-24,-24)">
      <path
         fill="#ffffff"
         fill-opacity="0.01"
         d="m 648,448 h 600 v 32 H 648 Z"
         id="path6591" />
      <g
         class="TableCell"
         id="g6605">
        <g
           class="Checkbox"
           id="g6599">
          <g
             class="Padding"
             id="g6597">
            <g
               class="CheckBoxOutlineBlank"
               id="g6595">
              <path
                 fill="#000000"
                 fill-opacity="0.6"
                 d="m 681.833,458.167 v 11.666 h -11.666 v -11.666 z m 0,-1.667 h -11.666 c -0.917,0 -1.667,0.75 -1.667,1.667 v 11.666 c 0,0.917 0.75,1.667 1.667,1.667 h 11.666 c 0.917,0 1.667,-0.75 1.667,-1.667 v -11.666 c 0,-0.917 -0.75,-1.667 -1.667,-1.667 z"
                 class="Vector"
                 id="path6593" />
            </g>
          </g>
        </g>
        <g
           class="Typography"
           id="g6603">
          <path
             fill="#000000"
             fill-opacity="0.87"
             d="m 707.164,465.835 h 1.313 a 4.2,4.2 0 0 1 -0.54,1.688 3.164,3.164 0 0 1 -1.238,1.183 c -0.533,0.287 -1.198,0.431 -1.996,0.431 -0.583,0 -1.114,-0.11 -1.593,-0.328 a 3.543,3.543 0 0 1 -1.223,-0.93 4.355,4.355 0 0 1 -0.793,-1.456 6.195,6.195 0 0 1 -0.274,-1.901 v -0.991 c 0,-0.697 0.091,-1.328 0.274,-1.893 0.187,-0.57 0.453,-1.058 0.8,-1.463 0.35,-0.406 0.772,-0.718 1.264,-0.937 a 4.06,4.06 0 0 1 1.661,-0.328 c 0.752,0 1.388,0.141 1.908,0.424 0.519,0.283 0.922,0.674 1.21,1.176 0.291,0.497 0.471,1.073 0.54,1.729 h -1.313 a 3.667,3.667 0 0 0 -0.355,-1.196 1.854,1.854 0 0 0 -0.739,-0.779 c -0.319,-0.183 -0.736,-0.274 -1.251,-0.274 -0.442,0 -0.831,0.085 -1.169,0.253 a 2.353,2.353 0 0 0 -0.84,0.718 c -0.224,0.31 -0.392,0.681 -0.506,1.114 a 5.666,5.666 0 0 0 -0.171,1.443 v 1.004 c 0,0.488 0.05,0.946 0.15,1.374 0.105,0.429 0.262,0.805 0.472,1.128 0.21,0.324 0.476,0.579 0.8,0.766 0.323,0.182 0.706,0.273 1.148,0.273 0.561,0 1.007,-0.088 1.34,-0.266 0.333,-0.178 0.583,-0.433 0.752,-0.766 0.173,-0.332 0.296,-0.731 0.369,-1.196 z m 6.158,3.302 c -0.515,0 -0.982,-0.087 -1.401,-0.26 a 3.179,3.179 0 0 1 -1.073,-0.745 3.323,3.323 0 0 1 -0.684,-1.135 4.17,4.17 0 0 1 -0.239,-1.435 v -0.288 c 0,-0.601 0.089,-1.137 0.266,-1.606 0.178,-0.474 0.42,-0.875 0.725,-1.203 a 3.097,3.097 0 0 1 1.039,-0.745 2.982,2.982 0 0 1 1.203,-0.253 c 0.529,0 0.985,0.091 1.367,0.273 0.388,0.183 0.705,0.438 0.951,0.766 0.246,0.323 0.428,0.706 0.547,1.148 0.118,0.438 0.177,0.916 0.177,1.436 v 0.567 h -5.523 v -1.032 h 4.259 v -0.096 a 3.194,3.194 0 0 0 -0.205,-0.957 1.721,1.721 0 0 0 -0.547,-0.765 c -0.251,-0.201 -0.593,-0.301 -1.026,-0.301 a 1.723,1.723 0 0 0 -1.415,0.718 2.692,2.692 0 0 0 -0.403,0.868 4.387,4.387 0 0 0 -0.144,1.182 v 0.288 c 0,0.35 0.048,0.681 0.144,0.991 0.1,0.305 0.244,0.574 0.431,0.806 0.191,0.233 0.421,0.415 0.69,0.547 0.273,0.132 0.583,0.198 0.93,0.198 0.446,0 0.825,-0.091 1.134,-0.273 0.31,-0.182 0.582,-0.426 0.814,-0.731 l 0.766,0.608 c -0.16,0.242 -0.363,0.472 -0.609,0.69 a 2.904,2.904 0 0 1 -0.909,0.534 c -0.355,0.136 -0.777,0.205 -1.265,0.205 z M 719.221,458.5 V 469 h -1.272 v -10.5 z m 3.574,0 V 469 h -1.271 v -10.5 z"
             class="Cell"
             id="path6601" />
        </g>
      </g>
      <g
         class="TableCell"
         id="g6611">
        <g
           class="Typography"
           id="g6609">
          <path
             fill="#000000"
             fill-opacity="0.87"
             d="m 821.164,465.835 h 1.313 a 4.2,4.2 0 0 1 -0.54,1.688 3.164,3.164 0 0 1 -1.238,1.183 c -0.533,0.287 -1.198,0.431 -1.996,0.431 -0.583,0 -1.114,-0.11 -1.593,-0.328 a 3.543,3.543 0 0 1 -1.223,-0.93 4.355,4.355 0 0 1 -0.793,-1.456 6.195,6.195 0 0 1 -0.274,-1.901 v -0.991 c 0,-0.697 0.091,-1.328 0.274,-1.893 0.187,-0.57 0.453,-1.058 0.8,-1.463 0.35,-0.406 0.772,-0.718 1.264,-0.937 a 4.06,4.06 0 0 1 1.661,-0.328 c 0.752,0 1.388,0.141 1.908,0.424 0.519,0.283 0.922,0.674 1.21,1.176 0.291,0.497 0.471,1.073 0.54,1.729 h -1.313 a 3.667,3.667 0 0 0 -0.355,-1.196 1.854,1.854 0 0 0 -0.739,-0.779 c -0.319,-0.183 -0.736,-0.274 -1.251,-0.274 -0.442,0 -0.831,0.085 -1.169,0.253 a 2.353,2.353 0 0 0 -0.84,0.718 c -0.224,0.31 -0.392,0.681 -0.506,1.114 a 5.666,5.666 0 0 0 -0.171,1.443 v 1.004 c 0,0.488 0.05,0.946 0.15,1.374 0.105,0.429 0.262,0.805 0.472,1.128 0.21,0.324 0.476,0.579 0.8,0.766 0.323,0.182 0.706,0.273 1.148,0.273 0.561,0 1.007,-0.088 1.34,-0.266 0.333,-0.178 0.583,-0.433 0.752,-0.766 0.173,-0.332 0.296,-0.731 0.369,-1.196 z m 6.158,3.302 c -0.515,0 -0.982,-0.087 -1.401,-0.26 a 3.179,3.179 0 0 1 -1.073,-0.745 3.323,3.323 0 0 1 -0.684,-1.135 4.17,4.17 0 0 1 -0.239,-1.435 v -0.288 c 0,-0.601 0.089,-1.137 0.266,-1.606 0.178,-0.474 0.42,-0.875 0.725,-1.203 a 3.097,3.097 0 0 1 1.039,-0.745 2.982,2.982 0 0 1 1.203,-0.253 c 0.529,0 0.985,0.091 1.367,0.273 0.388,0.183 0.705,0.438 0.951,0.766 0.246,0.323 0.428,0.706 0.547,1.148 0.118,0.438 0.177,0.916 0.177,1.436 v 0.567 h -5.523 v -1.032 h 4.259 v -0.096 a 3.194,3.194 0 0 0 -0.205,-0.957 1.721,1.721 0 0 0 -0.547,-0.765 c -0.251,-0.201 -0.593,-0.301 -1.026,-0.301 a 1.723,1.723 0 0 0 -1.415,0.718 2.692,2.692 0 0 0 -0.403,0.868 4.387,4.387 0 0 0 -0.144,1.182 v 0.288 c 0,0.35 0.048,0.681 0.144,0.991 0.1,0.305 0.244,0.574 0.431,0.806 0.191,0.233 0.421,0.415 0.69,0.547 0.273,0.132 0.583,0.198 0.93,0.198 0.446,0 0.825,-0.091 1.134,-0.273 0.31,-0.182 0.582,-0.426 0.814,-0.731 l 0.766,0.608 c -0.16,0.242 -0.363,0.472 -0.609,0.69 a 2.904,2.904 0 0 1 -0.909,0.534 c -0.355,0.136 -0.777,0.205 -1.265,0.205 z M 833.221,458.5 V 469 h -1.272 v -10.5 z m 3.574,0 V 469 h -1.271 v -10.5 z"
             class="Cell"
             id="path6607" />
        </g>
      </g>
      <g
         class="TableCell"
         id="g6617">
        <g
           class="Typography"
           id="g6615">
          <path
             fill="#000000"
             fill-opacity="0.87"
             d="m 971.164,465.835 h 1.313 a 4.2,4.2 0 0 1 -0.54,1.688 3.164,3.164 0 0 1 -1.238,1.183 c -0.533,0.287 -1.198,0.431 -1.996,0.431 -0.583,0 -1.114,-0.11 -1.593,-0.328 a 3.543,3.543 0 0 1 -1.223,-0.93 4.355,4.355 0 0 1 -0.793,-1.456 6.195,6.195 0 0 1 -0.274,-1.901 v -0.991 c 0,-0.697 0.091,-1.328 0.274,-1.893 0.187,-0.57 0.453,-1.058 0.8,-1.463 0.35,-0.406 0.772,-0.718 1.264,-0.937 a 4.06,4.06 0 0 1 1.661,-0.328 c 0.752,0 1.388,0.141 1.908,0.424 0.519,0.283 0.922,0.674 1.21,1.176 0.291,0.497 0.471,1.073 0.54,1.729 h -1.313 a 3.667,3.667 0 0 0 -0.355,-1.196 1.854,1.854 0 0 0 -0.739,-0.779 c -0.319,-0.183 -0.736,-0.274 -1.251,-0.274 -0.442,0 -0.831,0.085 -1.169,0.253 a 2.353,2.353 0 0 0 -0.84,0.718 c -0.224,0.31 -0.392,0.681 -0.506,1.114 a 5.666,5.666 0 0 0 -0.171,1.443 v 1.004 c 0,0.488 0.05,0.946 0.15,1.374 0.105,0.429 0.262,0.805 0.472,1.128 0.21,0.324 0.476,0.579 0.8,0.766 0.323,0.182 0.706,0.273 1.148,0.273 0.561,0 1.007,-0.088 1.34,-0.266 0.333,-0.178 0.583,-0.433 0.752,-0.766 0.173,-0.332 0.296,-0.731 0.369,-1.196 z m 6.158,3.302 c -0.515,0 -0.982,-0.087 -1.401,-0.26 a 3.179,3.179 0 0 1 -1.073,-0.745 3.323,3.323 0 0 1 -0.684,-1.135 4.17,4.17 0 0 1 -0.239,-1.435 v -0.288 c 0,-0.601 0.089,-1.137 0.266,-1.606 0.178,-0.474 0.42,-0.875 0.725,-1.203 a 3.097,3.097 0 0 1 1.039,-0.745 2.982,2.982 0 0 1 1.203,-0.253 c 0.529,0 0.985,0.091 1.367,0.273 0.388,0.183 0.705,0.438 0.951,0.766 0.246,0.323 0.428,0.706 0.547,1.148 0.118,0.438 0.177,0.916 0.177,1.436 v 0.567 h -5.523 v -1.032 h 4.259 v -0.096 a 3.194,3.194 0 0 0 -0.205,-0.957 1.721,1.721 0 0 0 -0.547,-0.765 c -0.251,-0.201 -0.593,-0.301 -1.026,-0.301 a 1.723,1.723 0 0 0 -1.415,0.718 2.692,2.692 0 0 0 -0.403,0.868 4.387,4.387 0 0 0 -0.144,1.182 v 0.288 c 0,0.35 0.048,0.681 0.144,0.991 0.1,0.305 0.244,0.574 0.431,0.806 0.191,0.233 0.421,0.415 0.69,0.547 0.273,0.132 0.583,0.198 0.93,0.198 0.446,0 0.825,-0.091 1.134,-0.273 0.31,-0.182 0.582,-0.426 0.814,-0.731 l 0.766,0.608 c -0.16,0.242 -0.363,0.472 -0.609,0.69 a 2.904,2.904 0 0 1 -0.909,0.534 c -0.355,0.136 -0.777,0.205 -1.265,0.205 z M 983.221,458.5 V 469 h -1.272 v -10.5 z m 3.574,0 V 469 h -1.271 v -10.5 z"
             class="Cell"
             id="path6613" />
        </g>
      </g>
      <g
         class="TableCell"
         id="g6623">
        <g
           class="Typography"
           id="g6621">
          <path
             fill="#000000"
             fill-opacity="0.87"
             d="m 1121.16,465.835 h 1.32 a 4.231,4.231 0 0 1 -0.54,1.688 c -0.3,0.497 -0.71,0.891 -1.24,1.183 -0.53,0.287 -1.2,0.431 -2,0.431 a 3.8,3.8 0 0 1 -1.59,-0.328 3.55,3.55 0 0 1 -1.22,-0.93 c -0.35,-0.406 -0.61,-0.891 -0.8,-1.456 a 6.29,6.29 0 0 1 -0.27,-1.901 v -0.991 c 0,-0.697 0.09,-1.328 0.27,-1.893 0.19,-0.57 0.46,-1.058 0.8,-1.463 0.35,-0.406 0.78,-0.718 1.27,-0.937 0.49,-0.218 1.04,-0.328 1.66,-0.328 0.75,0 1.39,0.141 1.91,0.424 0.52,0.283 0.92,0.674 1.21,1.176 0.29,0.497 0.47,1.073 0.54,1.729 h -1.32 a 3.644,3.644 0 0 0 -0.35,-1.196 1.826,1.826 0 0 0 -0.74,-0.779 c -0.32,-0.183 -0.74,-0.274 -1.25,-0.274 -0.44,0 -0.83,0.085 -1.17,0.253 -0.33,0.169 -0.61,0.408 -0.84,0.718 -0.22,0.31 -0.39,0.681 -0.51,1.114 -0.11,0.433 -0.17,0.914 -0.17,1.443 v 1.004 c 0,0.488 0.05,0.946 0.15,1.374 0.11,0.429 0.27,0.805 0.47,1.128 0.21,0.324 0.48,0.579 0.8,0.766 0.33,0.182 0.71,0.273 1.15,0.273 0.56,0 1.01,-0.088 1.34,-0.266 0.34,-0.178 0.59,-0.433 0.75,-0.766 0.18,-0.332 0.3,-0.731 0.37,-1.196 z m 6.16,3.302 c -0.51,0 -0.98,-0.087 -1.4,-0.26 a 3.207,3.207 0 0 1 -1.07,-0.745 c -0.3,-0.319 -0.53,-0.697 -0.69,-1.135 a 4.147,4.147 0 0 1 -0.24,-1.435 v -0.288 c 0,-0.601 0.09,-1.137 0.27,-1.606 0.18,-0.474 0.42,-0.875 0.73,-1.203 0.3,-0.328 0.65,-0.577 1.04,-0.745 a 2.92,2.92 0 0 1 1.2,-0.253 c 0.53,0 0.98,0.091 1.37,0.273 0.38,0.183 0.7,0.438 0.95,0.766 0.24,0.323 0.42,0.706 0.54,1.148 0.12,0.438 0.18,0.916 0.18,1.436 v 0.567 h -5.52 v -1.032 h 4.26 v -0.096 a 3.17,3.17 0 0 0 -0.21,-0.957 c -0.11,-0.31 -0.3,-0.565 -0.55,-0.765 -0.25,-0.201 -0.59,-0.301 -1.02,-0.301 -0.29,0 -0.55,0.061 -0.79,0.184 -0.25,0.119 -0.45,0.297 -0.63,0.534 -0.17,0.237 -0.3,0.526 -0.4,0.868 -0.1,0.342 -0.14,0.736 -0.14,1.182 v 0.288 c 0,0.35 0.04,0.681 0.14,0.991 0.1,0.305 0.24,0.574 0.43,0.806 0.19,0.233 0.42,0.415 0.69,0.547 0.27,0.132 0.58,0.198 0.93,0.198 0.45,0 0.83,-0.091 1.14,-0.273 0.31,-0.182 0.58,-0.426 0.81,-0.731 l 0.76,0.608 c -0.15,0.242 -0.36,0.472 -0.6,0.69 -0.25,0.219 -0.55,0.397 -0.91,0.534 -0.36,0.136 -0.78,0.205 -1.27,0.205 z m 5.9,-10.637 V 469 h -1.27 v -10.5 z m 3.58,0 V 469 h -1.28 v -10.5 z"
             class="Cell"
             id="path6619" />
        </g>
      </g>
    </g>
    <g
       class="TableCellRow"
       filter="url(#P)"
       id="g6661"
       transform="translate(-24,-24)">
      <path
         fill="#1976d2"
         fill-opacity="0.08"
         d="m 648,480 h 600 v 32 H 648 Z"
         id="path6627" />
      <g
         class="TableCell"
         id="g6641">
        <g
           class="Checkbox"
           id="g6635">
          <g
             class="Padding"
             id="g6633">
            <g
               class="CheckBox"
               id="g6631">
              <path
                 fill="#1976d2"
                 d="m 681.833,488.5 h -11.666 c -0.925,0 -1.667,0.75 -1.667,1.667 v 11.666 c 0,0.917 0.742,1.667 1.667,1.667 h 11.666 c 0.925,0 1.667,-0.75 1.667,-1.667 v -11.666 c 0,-0.917 -0.742,-1.667 -1.667,-1.667 z m -7.5,11.667 -4.166,-4.167 1.175,-1.175 2.991,2.983 6.325,-6.325 1.175,1.184 z"
                 class="Vector"
                 id="path6629" />
            </g>
          </g>
        </g>
        <g
           class="Typography"
           id="g6639">
          <path
             fill="#000000"
             fill-opacity="0.87"
             d="m 707.164,497.835 h 1.313 a 4.2,4.2 0 0 1 -0.54,1.688 3.164,3.164 0 0 1 -1.238,1.183 c -0.533,0.287 -1.198,0.431 -1.996,0.431 -0.583,0 -1.114,-0.11 -1.593,-0.328 a 3.543,3.543 0 0 1 -1.223,-0.93 4.355,4.355 0 0 1 -0.793,-1.456 6.195,6.195 0 0 1 -0.274,-1.901 v -0.991 c 0,-0.697 0.091,-1.328 0.274,-1.893 0.187,-0.57 0.453,-1.058 0.8,-1.463 0.35,-0.406 0.772,-0.718 1.264,-0.937 a 4.06,4.06 0 0 1 1.661,-0.328 c 0.752,0 1.388,0.141 1.908,0.424 0.519,0.283 0.922,0.674 1.21,1.176 0.291,0.497 0.471,1.073 0.54,1.729 h -1.313 a 3.667,3.667 0 0 0 -0.355,-1.196 1.854,1.854 0 0 0 -0.739,-0.779 c -0.319,-0.183 -0.736,-0.274 -1.251,-0.274 -0.442,0 -0.831,0.085 -1.169,0.253 a 2.353,2.353 0 0 0 -0.84,0.718 c -0.224,0.31 -0.392,0.681 -0.506,1.114 a 5.666,5.666 0 0 0 -0.171,1.443 v 1.004 c 0,0.488 0.05,0.946 0.15,1.374 0.105,0.429 0.262,0.805 0.472,1.128 0.21,0.324 0.476,0.579 0.8,0.766 0.323,0.182 0.706,0.273 1.148,0.273 0.561,0 1.007,-0.088 1.34,-0.266 0.333,-0.178 0.583,-0.433 0.752,-0.766 0.173,-0.332 0.296,-0.731 0.369,-1.196 z m 6.158,3.302 c -0.515,0 -0.982,-0.087 -1.401,-0.26 a 3.179,3.179 0 0 1 -1.073,-0.745 3.323,3.323 0 0 1 -0.684,-1.135 4.17,4.17 0 0 1 -0.239,-1.435 v -0.288 c 0,-0.601 0.089,-1.137 0.266,-1.606 0.178,-0.474 0.42,-0.875 0.725,-1.203 a 3.097,3.097 0 0 1 1.039,-0.745 2.982,2.982 0 0 1 1.203,-0.253 c 0.529,0 0.985,0.091 1.367,0.273 0.388,0.183 0.705,0.438 0.951,0.766 0.246,0.323 0.428,0.706 0.547,1.148 0.118,0.438 0.177,0.916 0.177,1.436 v 0.567 h -5.523 v -1.032 h 4.259 v -0.096 a 3.194,3.194 0 0 0 -0.205,-0.957 1.721,1.721 0 0 0 -0.547,-0.765 c -0.251,-0.201 -0.593,-0.301 -1.026,-0.301 a 1.723,1.723 0 0 0 -1.415,0.718 2.692,2.692 0 0 0 -0.403,0.868 4.387,4.387 0 0 0 -0.144,1.182 v 0.288 c 0,0.35 0.048,0.681 0.144,0.991 0.1,0.305 0.244,0.574 0.431,0.806 0.191,0.233 0.421,0.415 0.69,0.547 0.273,0.132 0.583,0.198 0.93,0.198 0.446,0 0.825,-0.091 1.134,-0.273 0.31,-0.182 0.582,-0.426 0.814,-0.731 l 0.766,0.608 c -0.16,0.242 -0.363,0.472 -0.609,0.69 a 2.904,2.904 0 0 1 -0.909,0.534 c -0.355,0.136 -0.777,0.205 -1.265,0.205 z M 719.221,490.5 V 501 h -1.272 v -10.5 z m 3.574,0 V 501 h -1.271 v -10.5 z"
             class="Cell"
             id="path6637" />
        </g>
      </g>
      <g
         class="TableCell"
         id="g6647">
        <g
           class="Typography"
           id="g6645">
          <path
             fill="#000000"
             fill-opacity="0.87"
             d="m 821.164,497.835 h 1.313 a 4.2,4.2 0 0 1 -0.54,1.688 3.164,3.164 0 0 1 -1.238,1.183 c -0.533,0.287 -1.198,0.431 -1.996,0.431 -0.583,0 -1.114,-0.11 -1.593,-0.328 a 3.543,3.543 0 0 1 -1.223,-0.93 4.355,4.355 0 0 1 -0.793,-1.456 6.195,6.195 0 0 1 -0.274,-1.901 v -0.991 c 0,-0.697 0.091,-1.328 0.274,-1.893 0.187,-0.57 0.453,-1.058 0.8,-1.463 0.35,-0.406 0.772,-0.718 1.264,-0.937 a 4.06,4.06 0 0 1 1.661,-0.328 c 0.752,0 1.388,0.141 1.908,0.424 0.519,0.283 0.922,0.674 1.21,1.176 0.291,0.497 0.471,1.073 0.54,1.729 h -1.313 a 3.667,3.667 0 0 0 -0.355,-1.196 1.854,1.854 0 0 0 -0.739,-0.779 c -0.319,-0.183 -0.736,-0.274 -1.251,-0.274 -0.442,0 -0.831,0.085 -1.169,0.253 a 2.353,2.353 0 0 0 -0.84,0.718 c -0.224,0.31 -0.392,0.681 -0.506,1.114 a 5.666,5.666 0 0 0 -0.171,1.443 v 1.004 c 0,0.488 0.05,0.946 0.15,1.374 0.105,0.429 0.262,0.805 0.472,1.128 0.21,0.324 0.476,0.579 0.8,0.766 0.323,0.182 0.706,0.273 1.148,0.273 0.561,0 1.007,-0.088 1.34,-0.266 0.333,-0.178 0.583,-0.433 0.752,-0.766 0.173,-0.332 0.296,-0.731 0.369,-1.196 z m 6.158,3.302 c -0.515,0 -0.982,-0.087 -1.401,-0.26 a 3.179,3.179 0 0 1 -1.073,-0.745 3.323,3.323 0 0 1 -0.684,-1.135 4.17,4.17 0 0 1 -0.239,-1.435 v -0.288 c 0,-0.601 0.089,-1.137 0.266,-1.606 0.178,-0.474 0.42,-0.875 0.725,-1.203 a 3.097,3.097 0 0 1 1.039,-0.745 2.982,2.982 0 0 1 1.203,-0.253 c 0.529,0 0.985,0.091 1.367,0.273 0.388,0.183 0.705,0.438 0.951,0.766 0.246,0.323 0.428,0.706 0.547,1.148 0.118,0.438 0.177,0.916 0.177,1.436 v 0.567 h -5.523 v -1.032 h 4.259 v -0.096 a 3.194,3.194 0 0 0 -0.205,-0.957 1.721,1.721 0 0 0 -0.547,-0.765 c -0.251,-0.201 -0.593,-0.301 -1.026,-0.301 a 1.723,1.723 0 0 0 -1.415,0.718 2.692,2.692 0 0 0 -0.403,0.868 4.387,4.387 0 0 0 -0.144,1.182 v 0.288 c 0,0.35 0.048,0.681 0.144,0.991 0.1,0.305 0.244,0.574 0.431,0.806 0.191,0.233 0.421,0.415 0.69,0.547 0.273,0.132 0.583,0.198 0.93,0.198 0.446,0 0.825,-0.091 1.134,-0.273 0.31,-0.182 0.582,-0.426 0.814,-0.731 l 0.766,0.608 c -0.16,0.242 -0.363,0.472 -0.609,0.69 a 2.904,2.904 0 0 1 -0.909,0.534 c -0.355,0.136 -0.777,0.205 -1.265,0.205 z M 833.221,490.5 V 501 h -1.272 v -10.5 z m 3.574,0 V 501 h -1.271 v -10.5 z"
             class="Cell"
             id="path6643" />
        </g>
      </g>
      <g
         class="TableCell"
         id="g6653">
        <g
           class="Typography"
           id="g6651">
          <path
             fill="#000000"
             fill-opacity="0.87"
             d="m 971.164,497.835 h 1.313 a 4.2,4.2 0 0 1 -0.54,1.688 3.164,3.164 0 0 1 -1.238,1.183 c -0.533,0.287 -1.198,0.431 -1.996,0.431 -0.583,0 -1.114,-0.11 -1.593,-0.328 a 3.543,3.543 0 0 1 -1.223,-0.93 4.355,4.355 0 0 1 -0.793,-1.456 6.195,6.195 0 0 1 -0.274,-1.901 v -0.991 c 0,-0.697 0.091,-1.328 0.274,-1.893 0.187,-0.57 0.453,-1.058 0.8,-1.463 0.35,-0.406 0.772,-0.718 1.264,-0.937 a 4.06,4.06 0 0 1 1.661,-0.328 c 0.752,0 1.388,0.141 1.908,0.424 0.519,0.283 0.922,0.674 1.21,1.176 0.291,0.497 0.471,1.073 0.54,1.729 h -1.313 a 3.667,3.667 0 0 0 -0.355,-1.196 1.854,1.854 0 0 0 -0.739,-0.779 c -0.319,-0.183 -0.736,-0.274 -1.251,-0.274 -0.442,0 -0.831,0.085 -1.169,0.253 a 2.353,2.353 0 0 0 -0.84,0.718 c -0.224,0.31 -0.392,0.681 -0.506,1.114 a 5.666,5.666 0 0 0 -0.171,1.443 v 1.004 c 0,0.488 0.05,0.946 0.15,1.374 0.105,0.429 0.262,0.805 0.472,1.128 0.21,0.324 0.476,0.579 0.8,0.766 0.323,0.182 0.706,0.273 1.148,0.273 0.561,0 1.007,-0.088 1.34,-0.266 0.333,-0.178 0.583,-0.433 0.752,-0.766 0.173,-0.332 0.296,-0.731 0.369,-1.196 z m 6.158,3.302 c -0.515,0 -0.982,-0.087 -1.401,-0.26 a 3.179,3.179 0 0 1 -1.073,-0.745 3.323,3.323 0 0 1 -0.684,-1.135 4.17,4.17 0 0 1 -0.239,-1.435 v -0.288 c 0,-0.601 0.089,-1.137 0.266,-1.606 0.178,-0.474 0.42,-0.875 0.725,-1.203 a 3.097,3.097 0 0 1 1.039,-0.745 2.982,2.982 0 0 1 1.203,-0.253 c 0.529,0 0.985,0.091 1.367,0.273 0.388,0.183 0.705,0.438 0.951,0.766 0.246,0.323 0.428,0.706 0.547,1.148 0.118,0.438 0.177,0.916 0.177,1.436 v 0.567 h -5.523 v -1.032 h 4.259 v -0.096 a 3.194,3.194 0 0 0 -0.205,-0.957 1.721,1.721 0 0 0 -0.547,-0.765 c -0.251,-0.201 -0.593,-0.301 -1.026,-0.301 a 1.723,1.723 0 0 0 -1.415,0.718 2.692,2.692 0 0 0 -0.403,0.868 4.387,4.387 0 0 0 -0.144,1.182 v 0.288 c 0,0.35 0.048,0.681 0.144,0.991 0.1,0.305 0.244,0.574 0.431,0.806 0.191,0.233 0.421,0.415 0.69,0.547 0.273,0.132 0.583,0.198 0.93,0.198 0.446,0 0.825,-0.091 1.134,-0.273 0.31,-0.182 0.582,-0.426 0.814,-0.731 l 0.766,0.608 c -0.16,0.242 -0.363,0.472 -0.609,0.69 a 2.904,2.904 0 0 1 -0.909,0.534 c -0.355,0.136 -0.777,0.205 -1.265,0.205 z M 983.221,490.5 V 501 h -1.272 v -10.5 z m 3.574,0 V 501 h -1.271 v -10.5 z"
             class="Cell"
             id="path6649" />
        </g>
      </g>
      <g
         class="TableCell"
         id="g6659">
        <g
           class="Typography"
           id="g6657">
          <path
             fill="#000000"
             fill-opacity="0.87"
             d="m 1121.16,497.835 h 1.32 a 4.231,4.231 0 0 1 -0.54,1.688 c -0.3,0.497 -0.71,0.891 -1.24,1.183 -0.53,0.287 -1.2,0.431 -2,0.431 a 3.8,3.8 0 0 1 -1.59,-0.328 3.55,3.55 0 0 1 -1.22,-0.93 c -0.35,-0.406 -0.61,-0.891 -0.8,-1.456 a 6.29,6.29 0 0 1 -0.27,-1.901 v -0.991 c 0,-0.697 0.09,-1.328 0.27,-1.893 0.19,-0.57 0.46,-1.058 0.8,-1.463 0.35,-0.406 0.78,-0.718 1.27,-0.937 0.49,-0.218 1.04,-0.328 1.66,-0.328 0.75,0 1.39,0.141 1.91,0.424 0.52,0.283 0.92,0.674 1.21,1.176 0.29,0.497 0.47,1.073 0.54,1.729 h -1.32 a 3.644,3.644 0 0 0 -0.35,-1.196 1.826,1.826 0 0 0 -0.74,-0.779 c -0.32,-0.183 -0.74,-0.274 -1.25,-0.274 -0.44,0 -0.83,0.085 -1.17,0.253 -0.33,0.169 -0.61,0.408 -0.84,0.718 -0.22,0.31 -0.39,0.681 -0.51,1.114 -0.11,0.433 -0.17,0.914 -0.17,1.443 v 1.004 c 0,0.488 0.05,0.946 0.15,1.374 0.11,0.429 0.27,0.805 0.47,1.128 0.21,0.324 0.48,0.579 0.8,0.766 0.33,0.182 0.71,0.273 1.15,0.273 0.56,0 1.01,-0.088 1.34,-0.266 0.34,-0.178 0.59,-0.433 0.75,-0.766 0.18,-0.332 0.3,-0.731 0.37,-1.196 z m 6.16,3.302 c -0.51,0 -0.98,-0.087 -1.4,-0.26 a 3.207,3.207 0 0 1 -1.07,-0.745 c -0.3,-0.319 -0.53,-0.697 -0.69,-1.135 a 4.147,4.147 0 0 1 -0.24,-1.435 v -0.288 c 0,-0.601 0.09,-1.137 0.27,-1.606 0.18,-0.474 0.42,-0.875 0.73,-1.203 0.3,-0.328 0.65,-0.577 1.04,-0.745 a 2.92,2.92 0 0 1 1.2,-0.253 c 0.53,0 0.98,0.091 1.37,0.273 0.38,0.183 0.7,0.438 0.95,0.766 0.24,0.323 0.42,0.706 0.54,1.148 0.12,0.438 0.18,0.916 0.18,1.436 v 0.567 h -5.52 v -1.032 h 4.26 v -0.096 a 3.17,3.17 0 0 0 -0.21,-0.957 c -0.11,-0.31 -0.3,-0.565 -0.55,-0.765 -0.25,-0.201 -0.59,-0.301 -1.02,-0.301 -0.29,0 -0.55,0.061 -0.79,0.184 -0.25,0.119 -0.45,0.297 -0.63,0.534 -0.17,0.237 -0.3,0.526 -0.4,0.868 -0.1,0.342 -0.14,0.736 -0.14,1.182 v 0.288 c 0,0.35 0.04,0.681 0.14,0.991 0.1,0.305 0.24,0.574 0.43,0.806 0.19,0.233 0.42,0.415 0.69,0.547 0.27,0.132 0.58,0.198 0.93,0.198 0.45,0 0.83,-0.091 1.14,-0.273 0.31,-0.182 0.58,-0.426 0.81,-0.731 l 0.76,0.608 c -0.15,0.242 -0.36,0.472 -0.6,0.69 -0.25,0.219 -0.55,0.397 -0.91,0.534 -0.36,0.136 -0.78,0.205 -1.27,0.205 z m 5.9,-10.637 V 501 h -1.27 v -10.5 z m 3.58,0 V 501 h -1.28 v -10.5 z"
             class="Cell"
             id="path6655" />
        </g>
      </g>
    </g>
    <g
       class="TableCellRow"
       filter="url(#Q)"
       id="g6697"
       transform="translate(-24,-24)">
      <path
         fill="#ffffff"
         fill-opacity="0.01"
         d="m 648,512 h 600 v 32 H 648 Z"
         id="path6663" />
      <g
         class="TableCell"
         id="g6677">
        <g
           class="Checkbox"
           id="g6671">
          <g
             class="Padding"
             id="g6669">
            <g
               class="CheckBoxOutlineBlank"
               id="g6667">
              <path
                 fill="#000000"
                 fill-opacity="0.6"
                 d="m 681.833,522.167 v 11.666 h -11.666 v -11.666 z m 0,-1.667 h -11.666 c -0.917,0 -1.667,0.75 -1.667,1.667 v 11.666 c 0,0.917 0.75,1.667 1.667,1.667 h 11.666 c 0.917,0 1.667,-0.75 1.667,-1.667 v -11.666 c 0,-0.917 -0.75,-1.667 -1.667,-1.667 z"
                 class="Vector"
                 id="path6665" />
            </g>
          </g>
        </g>
        <g
           class="Typography"
           id="g6675">
          <path
             fill="#000000"
             fill-opacity="0.87"
             d="m 707.164,529.835 h 1.313 a 4.2,4.2 0 0 1 -0.54,1.688 3.164,3.164 0 0 1 -1.238,1.183 c -0.533,0.287 -1.198,0.431 -1.996,0.431 -0.583,0 -1.114,-0.11 -1.593,-0.328 a 3.543,3.543 0 0 1 -1.223,-0.93 4.355,4.355 0 0 1 -0.793,-1.456 6.195,6.195 0 0 1 -0.274,-1.901 v -0.991 c 0,-0.697 0.091,-1.328 0.274,-1.893 0.187,-0.57 0.453,-1.058 0.8,-1.463 0.35,-0.406 0.772,-0.718 1.264,-0.937 a 4.06,4.06 0 0 1 1.661,-0.328 c 0.752,0 1.388,0.141 1.908,0.424 0.519,0.283 0.922,0.674 1.21,1.176 0.291,0.497 0.471,1.073 0.54,1.729 h -1.313 a 3.667,3.667 0 0 0 -0.355,-1.196 1.854,1.854 0 0 0 -0.739,-0.779 c -0.319,-0.183 -0.736,-0.274 -1.251,-0.274 -0.442,0 -0.831,0.085 -1.169,0.253 a 2.353,2.353 0 0 0 -0.84,0.718 c -0.224,0.31 -0.392,0.681 -0.506,1.114 a 5.666,5.666 0 0 0 -0.171,1.443 v 1.004 c 0,0.488 0.05,0.946 0.15,1.374 0.105,0.429 0.262,0.805 0.472,1.128 0.21,0.324 0.476,0.579 0.8,0.766 0.323,0.182 0.706,0.273 1.148,0.273 0.561,0 1.007,-0.088 1.34,-0.266 0.333,-0.178 0.583,-0.433 0.752,-0.766 0.173,-0.332 0.296,-0.731 0.369,-1.196 z m 6.158,3.302 c -0.515,0 -0.982,-0.087 -1.401,-0.26 a 3.179,3.179 0 0 1 -1.073,-0.745 3.323,3.323 0 0 1 -0.684,-1.135 4.17,4.17 0 0 1 -0.239,-1.435 v -0.288 c 0,-0.601 0.089,-1.137 0.266,-1.606 0.178,-0.474 0.42,-0.875 0.725,-1.203 a 3.097,3.097 0 0 1 1.039,-0.745 2.982,2.982 0 0 1 1.203,-0.253 c 0.529,0 0.985,0.091 1.367,0.273 0.388,0.183 0.705,0.438 0.951,0.766 0.246,0.323 0.428,0.706 0.547,1.148 0.118,0.438 0.177,0.916 0.177,1.436 v 0.567 h -5.523 v -1.032 h 4.259 v -0.096 a 3.194,3.194 0 0 0 -0.205,-0.957 1.721,1.721 0 0 0 -0.547,-0.765 c -0.251,-0.201 -0.593,-0.301 -1.026,-0.301 a 1.723,1.723 0 0 0 -1.415,0.718 2.692,2.692 0 0 0 -0.403,0.868 4.387,4.387 0 0 0 -0.144,1.182 v 0.288 c 0,0.35 0.048,0.681 0.144,0.991 0.1,0.305 0.244,0.574 0.431,0.806 0.191,0.233 0.421,0.415 0.69,0.547 0.273,0.132 0.583,0.198 0.93,0.198 0.446,0 0.825,-0.091 1.134,-0.273 0.31,-0.182 0.582,-0.426 0.814,-0.731 l 0.766,0.608 c -0.16,0.242 -0.363,0.472 -0.609,0.69 a 2.904,2.904 0 0 1 -0.909,0.534 c -0.355,0.136 -0.777,0.205 -1.265,0.205 z M 719.221,522.5 V 533 h -1.272 v -10.5 z m 3.574,0 V 533 h -1.271 v -10.5 z"
             class="Cell"
             id="path6673" />
        </g>
      </g>
      <g
         class="TableCell"
         id="g6683">
        <g
           class="Typography"
           id="g6681">
          <path
             fill="#000000"
             fill-opacity="0.87"
             d="m 821.164,529.835 h 1.313 a 4.2,4.2 0 0 1 -0.54,1.688 3.164,3.164 0 0 1 -1.238,1.183 c -0.533,0.287 -1.198,0.431 -1.996,0.431 -0.583,0 -1.114,-0.11 -1.593,-0.328 a 3.543,3.543 0 0 1 -1.223,-0.93 4.355,4.355 0 0 1 -0.793,-1.456 6.195,6.195 0 0 1 -0.274,-1.901 v -0.991 c 0,-0.697 0.091,-1.328 0.274,-1.893 0.187,-0.57 0.453,-1.058 0.8,-1.463 0.35,-0.406 0.772,-0.718 1.264,-0.937 a 4.06,4.06 0 0 1 1.661,-0.328 c 0.752,0 1.388,0.141 1.908,0.424 0.519,0.283 0.922,0.674 1.21,1.176 0.291,0.497 0.471,1.073 0.54,1.729 h -1.313 a 3.667,3.667 0 0 0 -0.355,-1.196 1.854,1.854 0 0 0 -0.739,-0.779 c -0.319,-0.183 -0.736,-0.274 -1.251,-0.274 -0.442,0 -0.831,0.085 -1.169,0.253 a 2.353,2.353 0 0 0 -0.84,0.718 c -0.224,0.31 -0.392,0.681 -0.506,1.114 a 5.666,5.666 0 0 0 -0.171,1.443 v 1.004 c 0,0.488 0.05,0.946 0.15,1.374 0.105,0.429 0.262,0.805 0.472,1.128 0.21,0.324 0.476,0.579 0.8,0.766 0.323,0.182 0.706,0.273 1.148,0.273 0.561,0 1.007,-0.088 1.34,-0.266 0.333,-0.178 0.583,-0.433 0.752,-0.766 0.173,-0.332 0.296,-0.731 0.369,-1.196 z m 6.158,3.302 c -0.515,0 -0.982,-0.087 -1.401,-0.26 a 3.179,3.179 0 0 1 -1.073,-0.745 3.323,3.323 0 0 1 -0.684,-1.135 4.17,4.17 0 0 1 -0.239,-1.435 v -0.288 c 0,-0.601 0.089,-1.137 0.266,-1.606 0.178,-0.474 0.42,-0.875 0.725,-1.203 a 3.097,3.097 0 0 1 1.039,-0.745 2.982,2.982 0 0 1 1.203,-0.253 c 0.529,0 0.985,0.091 1.367,0.273 0.388,0.183 0.705,0.438 0.951,0.766 0.246,0.323 0.428,0.706 0.547,1.148 0.118,0.438 0.177,0.916 0.177,1.436 v 0.567 h -5.523 v -1.032 h 4.259 v -0.096 a 3.194,3.194 0 0 0 -0.205,-0.957 1.721,1.721 0 0 0 -0.547,-0.765 c -0.251,-0.201 -0.593,-0.301 -1.026,-0.301 a 1.723,1.723 0 0 0 -1.415,0.718 2.692,2.692 0 0 0 -0.403,0.868 4.387,4.387 0 0 0 -0.144,1.182 v 0.288 c 0,0.35 0.048,0.681 0.144,0.991 0.1,0.305 0.244,0.574 0.431,0.806 0.191,0.233 0.421,0.415 0.69,0.547 0.273,0.132 0.583,0.198 0.93,0.198 0.446,0 0.825,-0.091 1.134,-0.273 0.31,-0.182 0.582,-0.426 0.814,-0.731 l 0.766,0.608 c -0.16,0.242 -0.363,0.472 -0.609,0.69 a 2.904,2.904 0 0 1 -0.909,0.534 c -0.355,0.136 -0.777,0.205 -1.265,0.205 z M 833.221,522.5 V 533 h -1.272 v -10.5 z m 3.574,0 V 533 h -1.271 v -10.5 z"
             class="Cell"
             id="path6679" />
        </g>
      </g>
      <g
         class="TableCell"
         id="g6689">
        <g
           class="Typography"
           id="g6687">
          <path
             fill="#000000"
             fill-opacity="0.87"
             d="m 971.164,529.835 h 1.313 a 4.2,4.2 0 0 1 -0.54,1.688 3.164,3.164 0 0 1 -1.238,1.183 c -0.533,0.287 -1.198,0.431 -1.996,0.431 -0.583,0 -1.114,-0.11 -1.593,-0.328 a 3.543,3.543 0 0 1 -1.223,-0.93 4.355,4.355 0 0 1 -0.793,-1.456 6.195,6.195 0 0 1 -0.274,-1.901 v -0.991 c 0,-0.697 0.091,-1.328 0.274,-1.893 0.187,-0.57 0.453,-1.058 0.8,-1.463 0.35,-0.406 0.772,-0.718 1.264,-0.937 a 4.06,4.06 0 0 1 1.661,-0.328 c 0.752,0 1.388,0.141 1.908,0.424 0.519,0.283 0.922,0.674 1.21,1.176 0.291,0.497 0.471,1.073 0.54,1.729 h -1.313 a 3.667,3.667 0 0 0 -0.355,-1.196 1.854,1.854 0 0 0 -0.739,-0.779 c -0.319,-0.183 -0.736,-0.274 -1.251,-0.274 -0.442,0 -0.831,0.085 -1.169,0.253 a 2.353,2.353 0 0 0 -0.84,0.718 c -0.224,0.31 -0.392,0.681 -0.506,1.114 a 5.666,5.666 0 0 0 -0.171,1.443 v 1.004 c 0,0.488 0.05,0.946 0.15,1.374 0.105,0.429 0.262,0.805 0.472,1.128 0.21,0.324 0.476,0.579 0.8,0.766 0.323,0.182 0.706,0.273 1.148,0.273 0.561,0 1.007,-0.088 1.34,-0.266 0.333,-0.178 0.583,-0.433 0.752,-0.766 0.173,-0.332 0.296,-0.731 0.369,-1.196 z m 6.158,3.302 c -0.515,0 -0.982,-0.087 -1.401,-0.26 a 3.179,3.179 0 0 1 -1.073,-0.745 3.323,3.323 0 0 1 -0.684,-1.135 4.17,4.17 0 0 1 -0.239,-1.435 v -0.288 c 0,-0.601 0.089,-1.137 0.266,-1.606 0.178,-0.474 0.42,-0.875 0.725,-1.203 a 3.097,3.097 0 0 1 1.039,-0.745 2.982,2.982 0 0 1 1.203,-0.253 c 0.529,0 0.985,0.091 1.367,0.273 0.388,0.183 0.705,0.438 0.951,0.766 0.246,0.323 0.428,0.706 0.547,1.148 0.118,0.438 0.177,0.916 0.177,1.436 v 0.567 h -5.523 v -1.032 h 4.259 v -0.096 a 3.194,3.194 0 0 0 -0.205,-0.957 1.721,1.721 0 0 0 -0.547,-0.765 c -0.251,-0.201 -0.593,-0.301 -1.026,-0.301 a 1.723,1.723 0 0 0 -1.415,0.718 2.692,2.692 0 0 0 -0.403,0.868 4.387,4.387 0 0 0 -0.144,1.182 v 0.288 c 0,0.35 0.048,0.681 0.144,0.991 0.1,0.305 0.244,0.574 0.431,0.806 0.191,0.233 0.421,0.415 0.69,0.547 0.273,0.132 0.583,0.198 0.93,0.198 0.446,0 0.825,-0.091 1.134,-0.273 0.31,-0.182 0.582,-0.426 0.814,-0.731 l 0.766,0.608 c -0.16,0.242 -0.363,0.472 -0.609,0.69 a 2.904,2.904 0 0 1 -0.909,0.534 c -0.355,0.136 -0.777,0.205 -1.265,0.205 z M 983.221,522.5 V 533 h -1.272 v -10.5 z m 3.574,0 V 533 h -1.271 v -10.5 z"
             class="Cell"
             id="path6685" />
        </g>
      </g>
      <g
         class="TableCell"
         id="g6695">
        <g
           class="Typography"
           id="g6693">
          <path
             fill="#000000"
             fill-opacity="0.87"
             d="m 1121.16,529.835 h 1.32 a 4.231,4.231 0 0 1 -0.54,1.688 c -0.3,0.497 -0.71,0.891 -1.24,1.183 -0.53,0.287 -1.2,0.431 -2,0.431 a 3.8,3.8 0 0 1 -1.59,-0.328 3.55,3.55 0 0 1 -1.22,-0.93 c -0.35,-0.406 -0.61,-0.891 -0.8,-1.456 a 6.29,6.29 0 0 1 -0.27,-1.901 v -0.991 c 0,-0.697 0.09,-1.328 0.27,-1.893 0.19,-0.57 0.46,-1.058 0.8,-1.463 0.35,-0.406 0.78,-0.718 1.27,-0.937 0.49,-0.218 1.04,-0.328 1.66,-0.328 0.75,0 1.39,0.141 1.91,0.424 0.52,0.283 0.92,0.674 1.21,1.176 0.29,0.497 0.47,1.073 0.54,1.729 h -1.32 a 3.644,3.644 0 0 0 -0.35,-1.196 1.826,1.826 0 0 0 -0.74,-0.779 c -0.32,-0.183 -0.74,-0.274 -1.25,-0.274 -0.44,0 -0.83,0.085 -1.17,0.253 -0.33,0.169 -0.61,0.408 -0.84,0.718 -0.22,0.31 -0.39,0.681 -0.51,1.114 -0.11,0.433 -0.17,0.914 -0.17,1.443 v 1.004 c 0,0.488 0.05,0.946 0.15,1.374 0.11,0.429 0.27,0.805 0.47,1.128 0.21,0.324 0.48,0.579 0.8,0.766 0.33,0.182 0.71,0.273 1.15,0.273 0.56,0 1.01,-0.088 1.34,-0.266 0.34,-0.178 0.59,-0.433 0.75,-0.766 0.18,-0.332 0.3,-0.731 0.37,-1.196 z m 6.16,3.302 c -0.51,0 -0.98,-0.087 -1.4,-0.26 a 3.207,3.207 0 0 1 -1.07,-0.745 c -0.3,-0.319 -0.53,-0.697 -0.69,-1.135 a 4.147,4.147 0 0 1 -0.24,-1.435 v -0.288 c 0,-0.601 0.09,-1.137 0.27,-1.606 0.18,-0.474 0.42,-0.875 0.73,-1.203 0.3,-0.328 0.65,-0.577 1.04,-0.745 a 2.92,2.92 0 0 1 1.2,-0.253 c 0.53,0 0.98,0.091 1.37,0.273 0.38,0.183 0.7,0.438 0.95,0.766 0.24,0.323 0.42,0.706 0.54,1.148 0.12,0.438 0.18,0.916 0.18,1.436 v 0.567 h -5.52 v -1.032 h 4.26 v -0.096 a 3.17,3.17 0 0 0 -0.21,-0.957 c -0.11,-0.31 -0.3,-0.565 -0.55,-0.765 -0.25,-0.201 -0.59,-0.301 -1.02,-0.301 -0.29,0 -0.55,0.061 -0.79,0.184 -0.25,0.119 -0.45,0.297 -0.63,0.534 -0.17,0.237 -0.3,0.526 -0.4,0.868 -0.1,0.342 -0.14,0.736 -0.14,1.182 v 0.288 c 0,0.35 0.04,0.681 0.14,0.991 0.1,0.305 0.24,0.574 0.43,0.806 0.19,0.233 0.42,0.415 0.69,0.547 0.27,0.132 0.58,0.198 0.93,0.198 0.45,0 0.83,-0.091 1.14,-0.273 0.31,-0.182 0.58,-0.426 0.81,-0.731 l 0.76,0.608 c -0.15,0.242 -0.36,0.472 -0.6,0.69 -0.25,0.219 -0.55,0.397 -0.91,0.534 -0.36,0.136 -0.78,0.205 -1.27,0.205 z m 5.9,-10.637 V 533 h -1.27 v -10.5 z m 3.58,0 V 533 h -1.28 v -10.5 z"
             class="Cell"
             id="path6691" />
        </g>
      </g>
    </g>
    <g
       class="TableCellRow"
       filter="url(#R)"
       id="g6733"
       transform="translate(-24,-24)">
      <path
         fill="#000000"
         fill-opacity="0.04"
         d="m 648,544 h 600 v 32 H 648 Z"
         id="path6699" />
      <g
         class="TableCell"
         id="g6713">
        <g
           class="Checkbox"
           id="g6707">
          <g
             class="Padding"
             id="g6705">
            <g
               class="CheckBoxOutlineBlank"
               id="g6703">
              <path
                 fill="#000000"
                 fill-opacity="0.6"
                 d="m 681.833,554.167 v 11.666 h -11.666 v -11.666 z m 0,-1.667 h -11.666 c -0.917,0 -1.667,0.75 -1.667,1.667 v 11.666 c 0,0.917 0.75,1.667 1.667,1.667 h 11.666 c 0.917,0 1.667,-0.75 1.667,-1.667 v -11.666 c 0,-0.917 -0.75,-1.667 -1.667,-1.667 z"
                 class="Vector"
                 id="path6701" />
            </g>
          </g>
        </g>
        <g
           class="Typography"
           id="g6711">
          <path
             fill="#000000"
             fill-opacity="0.87"
             d="m 707.164,561.835 h 1.313 a 4.2,4.2 0 0 1 -0.54,1.688 3.164,3.164 0 0 1 -1.238,1.183 c -0.533,0.287 -1.198,0.431 -1.996,0.431 -0.583,0 -1.114,-0.11 -1.593,-0.328 a 3.543,3.543 0 0 1 -1.223,-0.93 4.355,4.355 0 0 1 -0.793,-1.456 6.195,6.195 0 0 1 -0.274,-1.901 v -0.991 c 0,-0.697 0.091,-1.328 0.274,-1.893 0.187,-0.57 0.453,-1.058 0.8,-1.463 0.35,-0.406 0.772,-0.718 1.264,-0.937 a 4.06,4.06 0 0 1 1.661,-0.328 c 0.752,0 1.388,0.141 1.908,0.424 0.519,0.283 0.922,0.674 1.21,1.176 0.291,0.497 0.471,1.073 0.54,1.729 h -1.313 a 3.667,3.667 0 0 0 -0.355,-1.196 1.854,1.854 0 0 0 -0.739,-0.779 c -0.319,-0.183 -0.736,-0.274 -1.251,-0.274 -0.442,0 -0.831,0.085 -1.169,0.253 a 2.353,2.353 0 0 0 -0.84,0.718 c -0.224,0.31 -0.392,0.681 -0.506,1.114 a 5.666,5.666 0 0 0 -0.171,1.443 v 1.004 c 0,0.488 0.05,0.946 0.15,1.374 0.105,0.429 0.262,0.805 0.472,1.128 0.21,0.324 0.476,0.579 0.8,0.766 0.323,0.182 0.706,0.273 1.148,0.273 0.561,0 1.007,-0.088 1.34,-0.266 0.333,-0.178 0.583,-0.433 0.752,-0.766 0.173,-0.332 0.296,-0.731 0.369,-1.196 z m 6.158,3.302 c -0.515,0 -0.982,-0.087 -1.401,-0.26 a 3.179,3.179 0 0 1 -1.073,-0.745 3.323,3.323 0 0 1 -0.684,-1.135 4.17,4.17 0 0 1 -0.239,-1.435 v -0.288 c 0,-0.601 0.089,-1.137 0.266,-1.606 0.178,-0.474 0.42,-0.875 0.725,-1.203 a 3.097,3.097 0 0 1 1.039,-0.745 2.982,2.982 0 0 1 1.203,-0.253 c 0.529,0 0.985,0.091 1.367,0.273 0.388,0.183 0.705,0.438 0.951,0.766 0.246,0.323 0.428,0.706 0.547,1.148 0.118,0.438 0.177,0.916 0.177,1.436 v 0.567 h -5.523 v -1.032 h 4.259 v -0.096 a 3.194,3.194 0 0 0 -0.205,-0.957 1.721,1.721 0 0 0 -0.547,-0.765 c -0.251,-0.201 -0.593,-0.301 -1.026,-0.301 a 1.723,1.723 0 0 0 -1.415,0.718 2.692,2.692 0 0 0 -0.403,0.868 4.387,4.387 0 0 0 -0.144,1.182 v 0.288 c 0,0.35 0.048,0.681 0.144,0.991 0.1,0.305 0.244,0.574 0.431,0.806 0.191,0.233 0.421,0.415 0.69,0.547 0.273,0.132 0.583,0.198 0.93,0.198 0.446,0 0.825,-0.091 1.134,-0.273 0.31,-0.182 0.582,-0.426 0.814,-0.731 l 0.766,0.608 c -0.16,0.242 -0.363,0.472 -0.609,0.69 a 2.904,2.904 0 0 1 -0.909,0.534 c -0.355,0.136 -0.777,0.205 -1.265,0.205 z M 719.221,554.5 V 565 h -1.272 v -10.5 z m 3.574,0 V 565 h -1.271 v -10.5 z"
             class="Cell"
             id="path6709" />
        </g>
      </g>
      <g
         class="TableCell"
         id="g6719">
        <g
           class="Typography"
           id="g6717">
          <path
             fill="#000000"
             fill-opacity="0.87"
             d="m 821.164,561.835 h 1.313 a 4.2,4.2 0 0 1 -0.54,1.688 3.164,3.164 0 0 1 -1.238,1.183 c -0.533,0.287 -1.198,0.431 -1.996,0.431 -0.583,0 -1.114,-0.11 -1.593,-0.328 a 3.543,3.543 0 0 1 -1.223,-0.93 4.355,4.355 0 0 1 -0.793,-1.456 6.195,6.195 0 0 1 -0.274,-1.901 v -0.991 c 0,-0.697 0.091,-1.328 0.274,-1.893 0.187,-0.57 0.453,-1.058 0.8,-1.463 0.35,-0.406 0.772,-0.718 1.264,-0.937 a 4.06,4.06 0 0 1 1.661,-0.328 c 0.752,0 1.388,0.141 1.908,0.424 0.519,0.283 0.922,0.674 1.21,1.176 0.291,0.497 0.471,1.073 0.54,1.729 h -1.313 a 3.667,3.667 0 0 0 -0.355,-1.196 1.854,1.854 0 0 0 -0.739,-0.779 c -0.319,-0.183 -0.736,-0.274 -1.251,-0.274 -0.442,0 -0.831,0.085 -1.169,0.253 a 2.353,2.353 0 0 0 -0.84,0.718 c -0.224,0.31 -0.392,0.681 -0.506,1.114 a 5.666,5.666 0 0 0 -0.171,1.443 v 1.004 c 0,0.488 0.05,0.946 0.15,1.374 0.105,0.429 0.262,0.805 0.472,1.128 0.21,0.324 0.476,0.579 0.8,0.766 0.323,0.182 0.706,0.273 1.148,0.273 0.561,0 1.007,-0.088 1.34,-0.266 0.333,-0.178 0.583,-0.433 0.752,-0.766 0.173,-0.332 0.296,-0.731 0.369,-1.196 z m 6.158,3.302 c -0.515,0 -0.982,-0.087 -1.401,-0.26 a 3.179,3.179 0 0 1 -1.073,-0.745 3.323,3.323 0 0 1 -0.684,-1.135 4.17,4.17 0 0 1 -0.239,-1.435 v -0.288 c 0,-0.601 0.089,-1.137 0.266,-1.606 0.178,-0.474 0.42,-0.875 0.725,-1.203 a 3.097,3.097 0 0 1 1.039,-0.745 2.982,2.982 0 0 1 1.203,-0.253 c 0.529,0 0.985,0.091 1.367,0.273 0.388,0.183 0.705,0.438 0.951,0.766 0.246,0.323 0.428,0.706 0.547,1.148 0.118,0.438 0.177,0.916 0.177,1.436 v 0.567 h -5.523 v -1.032 h 4.259 v -0.096 a 3.194,3.194 0 0 0 -0.205,-0.957 1.721,1.721 0 0 0 -0.547,-0.765 c -0.251,-0.201 -0.593,-0.301 -1.026,-0.301 a 1.723,1.723 0 0 0 -1.415,0.718 2.692,2.692 0 0 0 -0.403,0.868 4.387,4.387 0 0 0 -0.144,1.182 v 0.288 c 0,0.35 0.048,0.681 0.144,0.991 0.1,0.305 0.244,0.574 0.431,0.806 0.191,0.233 0.421,0.415 0.69,0.547 0.273,0.132 0.583,0.198 0.93,0.198 0.446,0 0.825,-0.091 1.134,-0.273 0.31,-0.182 0.582,-0.426 0.814,-0.731 l 0.766,0.608 c -0.16,0.242 -0.363,0.472 -0.609,0.69 a 2.904,2.904 0 0 1 -0.909,0.534 c -0.355,0.136 -0.777,0.205 -1.265,0.205 z M 833.221,554.5 V 565 h -1.272 v -10.5 z m 3.574,0 V 565 h -1.271 v -10.5 z"
             class="Cell"
             id="path6715" />
        </g>
      </g>
      <g
         class="TableCell"
         id="g6725">
        <g
           class="Typography"
           id="g6723">
          <path
             fill="#000000"
             fill-opacity="0.87"
             d="m 971.164,561.835 h 1.313 a 4.2,4.2 0 0 1 -0.54,1.688 3.164,3.164 0 0 1 -1.238,1.183 c -0.533,0.287 -1.198,0.431 -1.996,0.431 -0.583,0 -1.114,-0.11 -1.593,-0.328 a 3.543,3.543 0 0 1 -1.223,-0.93 4.355,4.355 0 0 1 -0.793,-1.456 6.195,6.195 0 0 1 -0.274,-1.901 v -0.991 c 0,-0.697 0.091,-1.328 0.274,-1.893 0.187,-0.57 0.453,-1.058 0.8,-1.463 0.35,-0.406 0.772,-0.718 1.264,-0.937 a 4.06,4.06 0 0 1 1.661,-0.328 c 0.752,0 1.388,0.141 1.908,0.424 0.519,0.283 0.922,0.674 1.21,1.176 0.291,0.497 0.471,1.073 0.54,1.729 h -1.313 a 3.667,3.667 0 0 0 -0.355,-1.196 1.854,1.854 0 0 0 -0.739,-0.779 c -0.319,-0.183 -0.736,-0.274 -1.251,-0.274 -0.442,0 -0.831,0.085 -1.169,0.253 a 2.353,2.353 0 0 0 -0.84,0.718 c -0.224,0.31 -0.392,0.681 -0.506,1.114 a 5.666,5.666 0 0 0 -0.171,1.443 v 1.004 c 0,0.488 0.05,0.946 0.15,1.374 0.105,0.429 0.262,0.805 0.472,1.128 0.21,0.324 0.476,0.579 0.8,0.766 0.323,0.182 0.706,0.273 1.148,0.273 0.561,0 1.007,-0.088 1.34,-0.266 0.333,-0.178 0.583,-0.433 0.752,-0.766 0.173,-0.332 0.296,-0.731 0.369,-1.196 z m 6.158,3.302 c -0.515,0 -0.982,-0.087 -1.401,-0.26 a 3.179,3.179 0 0 1 -1.073,-0.745 3.323,3.323 0 0 1 -0.684,-1.135 4.17,4.17 0 0 1 -0.239,-1.435 v -0.288 c 0,-0.601 0.089,-1.137 0.266,-1.606 0.178,-0.474 0.42,-0.875 0.725,-1.203 a 3.097,3.097 0 0 1 1.039,-0.745 2.982,2.982 0 0 1 1.203,-0.253 c 0.529,0 0.985,0.091 1.367,0.273 0.388,0.183 0.705,0.438 0.951,0.766 0.246,0.323 0.428,0.706 0.547,1.148 0.118,0.438 0.177,0.916 0.177,1.436 v 0.567 h -5.523 v -1.032 h 4.259 v -0.096 a 3.194,3.194 0 0 0 -0.205,-0.957 1.721,1.721 0 0 0 -0.547,-0.765 c -0.251,-0.201 -0.593,-0.301 -1.026,-0.301 a 1.723,1.723 0 0 0 -1.415,0.718 2.692,2.692 0 0 0 -0.403,0.868 4.387,4.387 0 0 0 -0.144,1.182 v 0.288 c 0,0.35 0.048,0.681 0.144,0.991 0.1,0.305 0.244,0.574 0.431,0.806 0.191,0.233 0.421,0.415 0.69,0.547 0.273,0.132 0.583,0.198 0.93,0.198 0.446,0 0.825,-0.091 1.134,-0.273 0.31,-0.182 0.582,-0.426 0.814,-0.731 l 0.766,0.608 c -0.16,0.242 -0.363,0.472 -0.609,0.69 a 2.904,2.904 0 0 1 -0.909,0.534 c -0.355,0.136 -0.777,0.205 -1.265,0.205 z M 983.221,554.5 V 565 h -1.272 v -10.5 z m 3.574,0 V 565 h -1.271 v -10.5 z"
             class="Cell"
             id="path6721" />
        </g>
      </g>
      <g
         class="TableCell"
         id="g6731">
        <g
           class="Typography"
           id="g6729">
          <path
             fill="#000000"
             fill-opacity="0.87"
             d="m 1121.16,561.835 h 1.32 a 4.231,4.231 0 0 1 -0.54,1.688 c -0.3,0.497 -0.71,0.891 -1.24,1.183 -0.53,0.287 -1.2,0.431 -2,0.431 a 3.8,3.8 0 0 1 -1.59,-0.328 3.55,3.55 0 0 1 -1.22,-0.93 c -0.35,-0.406 -0.61,-0.891 -0.8,-1.456 a 6.29,6.29 0 0 1 -0.27,-1.901 v -0.991 c 0,-0.697 0.09,-1.328 0.27,-1.893 0.19,-0.57 0.46,-1.058 0.8,-1.463 0.35,-0.406 0.78,-0.718 1.27,-0.937 0.49,-0.218 1.04,-0.328 1.66,-0.328 0.75,0 1.39,0.141 1.91,0.424 0.52,0.283 0.92,0.674 1.21,1.176 0.29,0.497 0.47,1.073 0.54,1.729 h -1.32 a 3.644,3.644 0 0 0 -0.35,-1.196 1.826,1.826 0 0 0 -0.74,-0.779 c -0.32,-0.183 -0.74,-0.274 -1.25,-0.274 -0.44,0 -0.83,0.085 -1.17,0.253 -0.33,0.169 -0.61,0.408 -0.84,0.718 -0.22,0.31 -0.39,0.681 -0.51,1.114 -0.11,0.433 -0.17,0.914 -0.17,1.443 v 1.004 c 0,0.488 0.05,0.946 0.15,1.374 0.11,0.429 0.27,0.805 0.47,1.128 0.21,0.324 0.48,0.579 0.8,0.766 0.33,0.182 0.71,0.273 1.15,0.273 0.56,0 1.01,-0.088 1.34,-0.266 0.34,-0.178 0.59,-0.433 0.75,-0.766 0.18,-0.332 0.3,-0.731 0.37,-1.196 z m 6.16,3.302 c -0.51,0 -0.98,-0.087 -1.4,-0.26 a 3.207,3.207 0 0 1 -1.07,-0.745 c -0.3,-0.319 -0.53,-0.697 -0.69,-1.135 a 4.147,4.147 0 0 1 -0.24,-1.435 v -0.288 c 0,-0.601 0.09,-1.137 0.27,-1.606 0.18,-0.474 0.42,-0.875 0.73,-1.203 0.3,-0.328 0.65,-0.577 1.04,-0.745 a 2.92,2.92 0 0 1 1.2,-0.253 c 0.53,0 0.98,0.091 1.37,0.273 0.38,0.183 0.7,0.438 0.95,0.766 0.24,0.323 0.42,0.706 0.54,1.148 0.12,0.438 0.18,0.916 0.18,1.436 v 0.567 h -5.52 v -1.032 h 4.26 v -0.096 a 3.17,3.17 0 0 0 -0.21,-0.957 c -0.11,-0.31 -0.3,-0.565 -0.55,-0.765 -0.25,-0.201 -0.59,-0.301 -1.02,-0.301 -0.29,0 -0.55,0.061 -0.79,0.184 -0.25,0.119 -0.45,0.297 -0.63,0.534 -0.17,0.237 -0.3,0.526 -0.4,0.868 -0.1,0.342 -0.14,0.736 -0.14,1.182 v 0.288 c 0,0.35 0.04,0.681 0.14,0.991 0.1,0.305 0.24,0.574 0.43,0.806 0.19,0.233 0.42,0.415 0.69,0.547 0.27,0.132 0.58,0.198 0.93,0.198 0.45,0 0.83,-0.091 1.14,-0.273 0.31,-0.182 0.58,-0.426 0.81,-0.731 l 0.76,0.608 c -0.15,0.242 -0.36,0.472 -0.6,0.69 -0.25,0.219 -0.55,0.397 -0.91,0.534 -0.36,0.136 -0.78,0.205 -1.27,0.205 z m 5.9,-10.637 V 565 h -1.27 v -10.5 z m 3.58,0 V 565 h -1.28 v -10.5 z"
             class="Cell"
             id="path6727" />
        </g>
      </g>
    </g>
    <g
       class="TableCellRow"
       filter="url(#S)"
       id="g6769"
       transform="translate(-24,-24)">
      <path
         fill="#ffffff"
         fill-opacity="0.01"
         d="m 648,576 h 600 v 32 H 648 Z"
         id="path6735" />
      <g
         class="TableCell"
         id="g6749">
        <g
           class="Checkbox"
           id="g6743">
          <g
             class="Padding"
             id="g6741">
            <g
               class="CheckBoxOutlineBlank"
               id="g6739">
              <path
                 fill="#000000"
                 fill-opacity="0.6"
                 d="m 681.833,586.167 v 11.666 h -11.666 v -11.666 z m 0,-1.667 h -11.666 c -0.917,0 -1.667,0.75 -1.667,1.667 v 11.666 c 0,0.917 0.75,1.667 1.667,1.667 h 11.666 c 0.917,0 1.667,-0.75 1.667,-1.667 v -11.666 c 0,-0.917 -0.75,-1.667 -1.667,-1.667 z"
                 class="Vector"
                 id="path6737" />
            </g>
          </g>
        </g>
        <g
           class="Typography"
           id="g6747">
          <path
             fill="#000000"
             fill-opacity="0.87"
             d="m 707.164,593.835 h 1.313 a 4.2,4.2 0 0 1 -0.54,1.688 3.164,3.164 0 0 1 -1.238,1.183 c -0.533,0.287 -1.198,0.431 -1.996,0.431 -0.583,0 -1.114,-0.11 -1.593,-0.328 a 3.543,3.543 0 0 1 -1.223,-0.93 4.355,4.355 0 0 1 -0.793,-1.456 6.195,6.195 0 0 1 -0.274,-1.901 v -0.991 c 0,-0.697 0.091,-1.328 0.274,-1.893 0.187,-0.57 0.453,-1.058 0.8,-1.463 0.35,-0.406 0.772,-0.718 1.264,-0.937 a 4.06,4.06 0 0 1 1.661,-0.328 c 0.752,0 1.388,0.141 1.908,0.424 0.519,0.283 0.922,0.674 1.21,1.176 0.291,0.497 0.471,1.073 0.54,1.729 h -1.313 a 3.667,3.667 0 0 0 -0.355,-1.196 1.854,1.854 0 0 0 -0.739,-0.779 c -0.319,-0.183 -0.736,-0.274 -1.251,-0.274 -0.442,0 -0.831,0.085 -1.169,0.253 a 2.353,2.353 0 0 0 -0.84,0.718 c -0.224,0.31 -0.392,0.681 -0.506,1.114 a 5.666,5.666 0 0 0 -0.171,1.443 v 1.004 c 0,0.488 0.05,0.946 0.15,1.374 0.105,0.429 0.262,0.805 0.472,1.128 0.21,0.324 0.476,0.579 0.8,0.766 0.323,0.182 0.706,0.273 1.148,0.273 0.561,0 1.007,-0.088 1.34,-0.266 0.333,-0.178 0.583,-0.433 0.752,-0.766 0.173,-0.332 0.296,-0.731 0.369,-1.196 z m 6.158,3.302 c -0.515,0 -0.982,-0.087 -1.401,-0.26 a 3.179,3.179 0 0 1 -1.073,-0.745 3.323,3.323 0 0 1 -0.684,-1.135 4.17,4.17 0 0 1 -0.239,-1.435 v -0.288 c 0,-0.601 0.089,-1.137 0.266,-1.606 0.178,-0.474 0.42,-0.875 0.725,-1.203 a 3.097,3.097 0 0 1 1.039,-0.745 2.982,2.982 0 0 1 1.203,-0.253 c 0.529,0 0.985,0.091 1.367,0.273 0.388,0.183 0.705,0.438 0.951,0.766 0.246,0.323 0.428,0.706 0.547,1.148 0.118,0.438 0.177,0.916 0.177,1.436 v 0.567 h -5.523 v -1.032 h 4.259 v -0.096 a 3.194,3.194 0 0 0 -0.205,-0.957 1.721,1.721 0 0 0 -0.547,-0.765 c -0.251,-0.201 -0.593,-0.301 -1.026,-0.301 a 1.723,1.723 0 0 0 -1.415,0.718 2.692,2.692 0 0 0 -0.403,0.868 4.387,4.387 0 0 0 -0.144,1.182 v 0.288 c 0,0.35 0.048,0.681 0.144,0.991 0.1,0.305 0.244,0.574 0.431,0.806 0.191,0.233 0.421,0.415 0.69,0.547 0.273,0.132 0.583,0.198 0.93,0.198 0.446,0 0.825,-0.091 1.134,-0.273 0.31,-0.182 0.582,-0.426 0.814,-0.731 l 0.766,0.608 c -0.16,0.242 -0.363,0.472 -0.609,0.69 a 2.904,2.904 0 0 1 -0.909,0.534 c -0.355,0.136 -0.777,0.205 -1.265,0.205 z M 719.221,586.5 V 597 h -1.272 v -10.5 z m 3.574,0 V 597 h -1.271 v -10.5 z"
             class="Cell"
             id="path6745" />
        </g>
      </g>
      <g
         class="TableCell"
         id="g6755">
        <g
           class="Typography"
           id="g6753">
          <path
             fill="#000000"
             fill-opacity="0.87"
             d="m 821.164,593.835 h 1.313 a 4.2,4.2 0 0 1 -0.54,1.688 3.164,3.164 0 0 1 -1.238,1.183 c -0.533,0.287 -1.198,0.431 -1.996,0.431 -0.583,0 -1.114,-0.11 -1.593,-0.328 a 3.543,3.543 0 0 1 -1.223,-0.93 4.355,4.355 0 0 1 -0.793,-1.456 6.195,6.195 0 0 1 -0.274,-1.901 v -0.991 c 0,-0.697 0.091,-1.328 0.274,-1.893 0.187,-0.57 0.453,-1.058 0.8,-1.463 0.35,-0.406 0.772,-0.718 1.264,-0.937 a 4.06,4.06 0 0 1 1.661,-0.328 c 0.752,0 1.388,0.141 1.908,0.424 0.519,0.283 0.922,0.674 1.21,1.176 0.291,0.497 0.471,1.073 0.54,1.729 h -1.313 a 3.667,3.667 0 0 0 -0.355,-1.196 1.854,1.854 0 0 0 -0.739,-0.779 c -0.319,-0.183 -0.736,-0.274 -1.251,-0.274 -0.442,0 -0.831,0.085 -1.169,0.253 a 2.353,2.353 0 0 0 -0.84,0.718 c -0.224,0.31 -0.392,0.681 -0.506,1.114 a 5.666,5.666 0 0 0 -0.171,1.443 v 1.004 c 0,0.488 0.05,0.946 0.15,1.374 0.105,0.429 0.262,0.805 0.472,1.128 0.21,0.324 0.476,0.579 0.8,0.766 0.323,0.182 0.706,0.273 1.148,0.273 0.561,0 1.007,-0.088 1.34,-0.266 0.333,-0.178 0.583,-0.433 0.752,-0.766 0.173,-0.332 0.296,-0.731 0.369,-1.196 z m 6.158,3.302 c -0.515,0 -0.982,-0.087 -1.401,-0.26 a 3.179,3.179 0 0 1 -1.073,-0.745 3.323,3.323 0 0 1 -0.684,-1.135 4.17,4.17 0 0 1 -0.239,-1.435 v -0.288 c 0,-0.601 0.089,-1.137 0.266,-1.606 0.178,-0.474 0.42,-0.875 0.725,-1.203 a 3.097,3.097 0 0 1 1.039,-0.745 2.982,2.982 0 0 1 1.203,-0.253 c 0.529,0 0.985,0.091 1.367,0.273 0.388,0.183 0.705,0.438 0.951,0.766 0.246,0.323 0.428,0.706 0.547,1.148 0.118,0.438 0.177,0.916 0.177,1.436 v 0.567 h -5.523 v -1.032 h 4.259 v -0.096 a 3.194,3.194 0 0 0 -0.205,-0.957 1.721,1.721 0 0 0 -0.547,-0.765 c -0.251,-0.201 -0.593,-0.301 -1.026,-0.301 a 1.723,1.723 0 0 0 -1.415,0.718 2.692,2.692 0 0 0 -0.403,0.868 4.387,4.387 0 0 0 -0.144,1.182 v 0.288 c 0,0.35 0.048,0.681 0.144,0.991 0.1,0.305 0.244,0.574 0.431,0.806 0.191,0.233 0.421,0.415 0.69,0.547 0.273,0.132 0.583,0.198 0.93,0.198 0.446,0 0.825,-0.091 1.134,-0.273 0.31,-0.182 0.582,-0.426 0.814,-0.731 l 0.766,0.608 c -0.16,0.242 -0.363,0.472 -0.609,0.69 a 2.904,2.904 0 0 1 -0.909,0.534 c -0.355,0.136 -0.777,0.205 -1.265,0.205 z M 833.221,586.5 V 597 h -1.272 v -10.5 z m 3.574,0 V 597 h -1.271 v -10.5 z"
             class="Cell"
             id="path6751" />
        </g>
      </g>
      <g
         class="TableCell"
         id="g6761">
        <g
           class="Typography"
           id="g6759">
          <path
             fill="#000000"
             fill-opacity="0.87"
             d="m 971.164,593.835 h 1.313 a 4.2,4.2 0 0 1 -0.54,1.688 3.164,3.164 0 0 1 -1.238,1.183 c -0.533,0.287 -1.198,0.431 -1.996,0.431 -0.583,0 -1.114,-0.11 -1.593,-0.328 a 3.543,3.543 0 0 1 -1.223,-0.93 4.355,4.355 0 0 1 -0.793,-1.456 6.195,6.195 0 0 1 -0.274,-1.901 v -0.991 c 0,-0.697 0.091,-1.328 0.274,-1.893 0.187,-0.57 0.453,-1.058 0.8,-1.463 0.35,-0.406 0.772,-0.718 1.264,-0.937 a 4.06,4.06 0 0 1 1.661,-0.328 c 0.752,0 1.388,0.141 1.908,0.424 0.519,0.283 0.922,0.674 1.21,1.176 0.291,0.497 0.471,1.073 0.54,1.729 h -1.313 a 3.667,3.667 0 0 0 -0.355,-1.196 1.854,1.854 0 0 0 -0.739,-0.779 c -0.319,-0.183 -0.736,-0.274 -1.251,-0.274 -0.442,0 -0.831,0.085 -1.169,0.253 a 2.353,2.353 0 0 0 -0.84,0.718 c -0.224,0.31 -0.392,0.681 -0.506,1.114 a 5.666,5.666 0 0 0 -0.171,1.443 v 1.004 c 0,0.488 0.05,0.946 0.15,1.374 0.105,0.429 0.262,0.805 0.472,1.128 0.21,0.324 0.476,0.579 0.8,0.766 0.323,0.182 0.706,0.273 1.148,0.273 0.561,0 1.007,-0.088 1.34,-0.266 0.333,-0.178 0.583,-0.433 0.752,-0.766 0.173,-0.332 0.296,-0.731 0.369,-1.196 z m 6.158,3.302 c -0.515,0 -0.982,-0.087 -1.401,-0.26 a 3.179,3.179 0 0 1 -1.073,-0.745 3.323,3.323 0 0 1 -0.684,-1.135 4.17,4.17 0 0 1 -0.239,-1.435 v -0.288 c 0,-0.601 0.089,-1.137 0.266,-1.606 0.178,-0.474 0.42,-0.875 0.725,-1.203 a 3.097,3.097 0 0 1 1.039,-0.745 2.982,2.982 0 0 1 1.203,-0.253 c 0.529,0 0.985,0.091 1.367,0.273 0.388,0.183 0.705,0.438 0.951,0.766 0.246,0.323 0.428,0.706 0.547,1.148 0.118,0.438 0.177,0.916 0.177,1.436 v 0.567 h -5.523 v -1.032 h 4.259 v -0.096 a 3.194,3.194 0 0 0 -0.205,-0.957 1.721,1.721 0 0 0 -0.547,-0.765 c -0.251,-0.201 -0.593,-0.301 -1.026,-0.301 a 1.723,1.723 0 0 0 -1.415,0.718 2.692,2.692 0 0 0 -0.403,0.868 4.387,4.387 0 0 0 -0.144,1.182 v 0.288 c 0,0.35 0.048,0.681 0.144,0.991 0.1,0.305 0.244,0.574 0.431,0.806 0.191,0.233 0.421,0.415 0.69,0.547 0.273,0.132 0.583,0.198 0.93,0.198 0.446,0 0.825,-0.091 1.134,-0.273 0.31,-0.182 0.582,-0.426 0.814,-0.731 l 0.766,0.608 c -0.16,0.242 -0.363,0.472 -0.609,0.69 a 2.904,2.904 0 0 1 -0.909,0.534 c -0.355,0.136 -0.777,0.205 -1.265,0.205 z M 983.221,586.5 V 597 h -1.272 v -10.5 z m 3.574,0 V 597 h -1.271 v -10.5 z"
             class="Cell"
             id="path6757" />
        </g>
      </g>
      <g
         class="TableCell"
         id="g6767">
        <g
           class="Typography"
           id="g6765">
          <path
             fill="#000000"
             fill-opacity="0.87"
             d="m 1121.16,593.835 h 1.32 a 4.231,4.231 0 0 1 -0.54,1.688 c -0.3,0.497 -0.71,0.891 -1.24,1.183 -0.53,0.287 -1.2,0.431 -2,0.431 a 3.8,3.8 0 0 1 -1.59,-0.328 3.55,3.55 0 0 1 -1.22,-0.93 c -0.35,-0.406 -0.61,-0.891 -0.8,-1.456 a 6.29,6.29 0 0 1 -0.27,-1.901 v -0.991 c 0,-0.697 0.09,-1.328 0.27,-1.893 0.19,-0.57 0.46,-1.058 0.8,-1.463 0.35,-0.406 0.78,-0.718 1.27,-0.937 0.49,-0.218 1.04,-0.328 1.66,-0.328 0.75,0 1.39,0.141 1.91,0.424 0.52,0.283 0.92,0.674 1.21,1.176 0.29,0.497 0.47,1.073 0.54,1.729 h -1.32 a 3.644,3.644 0 0 0 -0.35,-1.196 1.826,1.826 0 0 0 -0.74,-0.779 c -0.32,-0.183 -0.74,-0.274 -1.25,-0.274 -0.44,0 -0.83,0.085 -1.17,0.253 -0.33,0.169 -0.61,0.408 -0.84,0.718 -0.22,0.31 -0.39,0.681 -0.51,1.114 -0.11,0.433 -0.17,0.914 -0.17,1.443 v 1.004 c 0,0.488 0.05,0.946 0.15,1.374 0.11,0.429 0.27,0.805 0.47,1.128 0.21,0.324 0.48,0.579 0.8,0.766 0.33,0.182 0.71,0.273 1.15,0.273 0.56,0 1.01,-0.088 1.34,-0.266 0.34,-0.178 0.59,-0.433 0.75,-0.766 0.18,-0.332 0.3,-0.731 0.37,-1.196 z m 6.16,3.302 c -0.51,0 -0.98,-0.087 -1.4,-0.26 a 3.207,3.207 0 0 1 -1.07,-0.745 c -0.3,-0.319 -0.53,-0.697 -0.69,-1.135 a 4.147,4.147 0 0 1 -0.24,-1.435 v -0.288 c 0,-0.601 0.09,-1.137 0.27,-1.606 0.18,-0.474 0.42,-0.875 0.73,-1.203 0.3,-0.328 0.65,-0.577 1.04,-0.745 a 2.92,2.92 0 0 1 1.2,-0.253 c 0.53,0 0.98,0.091 1.37,0.273 0.38,0.183 0.7,0.438 0.95,0.766 0.24,0.323 0.42,0.706 0.54,1.148 0.12,0.438 0.18,0.916 0.18,1.436 v 0.567 h -5.52 v -1.032 h 4.26 v -0.096 a 3.17,3.17 0 0 0 -0.21,-0.957 c -0.11,-0.31 -0.3,-0.565 -0.55,-0.765 -0.25,-0.201 -0.59,-0.301 -1.02,-0.301 -0.29,0 -0.55,0.061 -0.79,0.184 -0.25,0.119 -0.45,0.297 -0.63,0.534 -0.17,0.237 -0.3,0.526 -0.4,0.868 -0.1,0.342 -0.14,0.736 -0.14,1.182 v 0.288 c 0,0.35 0.04,0.681 0.14,0.991 0.1,0.305 0.24,0.574 0.43,0.806 0.19,0.233 0.42,0.415 0.69,0.547 0.27,0.132 0.58,0.198 0.93,0.198 0.45,0 0.83,-0.091 1.14,-0.273 0.31,-0.182 0.58,-0.426 0.81,-0.731 l 0.76,0.608 c -0.15,0.242 -0.36,0.472 -0.6,0.69 -0.25,0.219 -0.55,0.397 -0.91,0.534 -0.36,0.136 -0.78,0.205 -1.27,0.205 z m 5.9,-10.637 V 597 h -1.27 v -10.5 z m 3.58,0 V 597 h -1.28 v -10.5 z"
             class="Cell"
             id="path6763" />
        </g>
      </g>
    </g>
    <g
       class="TableFooter"
       id="g6807"
       transform="translate(-24,-24)">
      <g
         class="Container"
         id="g6781">
        <path
           fill="#000000"
           fill-opacity="0.6"
           d="m 915.99,627.469 h 2.824 c 0.641,0 1.182,0.097 1.624,0.293 0.445,0.195 0.783,0.484 1.013,0.867 0.235,0.379 0.352,0.846 0.352,1.4 0,0.391 -0.08,0.748 -0.241,1.073 -0.156,0.32 -0.382,0.593 -0.679,0.82 a 2.99,2.99 0 0 1 -1.055,0.498 l -0.316,0.123 h -2.655 l -0.011,-0.92 h 2.004 c 0.406,0 0.744,-0.07 1.013,-0.211 0.27,-0.144 0.473,-0.338 0.61,-0.58 0.136,-0.242 0.205,-0.51 0.205,-0.803 0,-0.328 -0.065,-0.615 -0.194,-0.861 a 1.288,1.288 0 0 0 -0.609,-0.568 c -0.273,-0.137 -0.627,-0.205 -1.061,-0.205 h -1.693 V 636 h -1.131 z m 4.987,8.531 -2.075,-3.867 1.178,-0.006 2.104,3.803 V 636 Z m 2.357,-3.1 v -0.134 c 0,-0.457 0.066,-0.881 0.199,-1.272 0.133,-0.394 0.324,-0.736 0.574,-1.025 0.25,-0.293 0.553,-0.52 0.908,-0.68 a 2.823,2.823 0 0 1 1.196,-0.246 c 0.445,0 0.845,0.082 1.201,0.246 0.359,0.16 0.664,0.387 0.914,0.68 0.254,0.289 0.447,0.631 0.58,1.025 0.133,0.391 0.199,0.815 0.199,1.272 v 0.134 c 0,0.457 -0.066,0.881 -0.199,1.272 -0.133,0.39 -0.326,0.732 -0.58,1.025 -0.25,0.289 -0.553,0.516 -0.908,0.68 -0.352,0.16 -0.75,0.24 -1.196,0.24 -0.445,0 -0.845,-0.08 -1.201,-0.24 a 2.724,2.724 0 0 1 -0.914,-0.68 3.105,3.105 0 0 1 -0.574,-1.025 3.926,3.926 0 0 1 -0.199,-1.272 z m 1.084,-0.134 v 0.134 c 0,0.317 0.037,0.616 0.111,0.897 0.074,0.277 0.185,0.523 0.334,0.738 0.152,0.215 0.342,0.385 0.568,0.51 0.227,0.121 0.49,0.182 0.791,0.182 0.297,0 0.557,-0.061 0.78,-0.182 0.226,-0.125 0.414,-0.295 0.562,-0.51 0.149,-0.215 0.26,-0.461 0.334,-0.738 a 3.34,3.34 0 0 0 0.117,-0.897 v -0.134 c 0,-0.313 -0.039,-0.608 -0.117,-0.885 a 2.264,2.264 0 0 0 -0.34,-0.744 1.613,1.613 0 0 0 -0.562,-0.516 1.58,1.58 0 0 0 -0.785,-0.187 c -0.297,0 -0.559,0.062 -0.786,0.187 -0.222,0.125 -0.41,0.297 -0.562,0.516 -0.149,0.215 -0.26,0.463 -0.334,0.744 a 3.417,3.417 0 0 0 -0.111,0.885 z m 8.052,2.109 1.629,-5.215 h 0.715 l -0.141,1.037 -1.658,5.303 h -0.697 z m -1.096,-5.215 1.389,5.274 0.1,1.066 h -0.733 l -1.84,-6.34 z m 4.998,5.233 1.324,-5.233 h 1.079 l -1.84,6.34 h -0.727 z m -1.4,-5.233 1.594,5.127 0.181,1.213 h -0.691 l -1.705,-5.314 -0.141,-1.026 z m 9.007,4.658 c 0,-0.156 -0.035,-0.3 -0.105,-0.433 -0.067,-0.137 -0.205,-0.26 -0.416,-0.369 -0.207,-0.114 -0.52,-0.211 -0.938,-0.293 a 7.498,7.498 0 0 1 -0.955,-0.264 2.925,2.925 0 0 1 -0.72,-0.369 1.558,1.558 0 0 1 -0.452,-0.51 1.426,1.426 0 0 1 -0.158,-0.685 c 0,-0.25 0.055,-0.487 0.164,-0.709 0.114,-0.223 0.272,-0.42 0.475,-0.592 0.207,-0.172 0.455,-0.307 0.744,-0.405 0.289,-0.097 0.611,-0.146 0.967,-0.146 0.508,0 0.941,0.09 1.301,0.269 0.359,0.18 0.634,0.42 0.826,0.721 0.191,0.297 0.287,0.627 0.287,0.99 h -1.084 a 0.933,0.933 0 0 0 -0.158,-0.509 1.165,1.165 0 0 0 -0.452,-0.416 c -0.195,-0.11 -0.435,-0.164 -0.72,-0.164 -0.301,0 -0.545,0.046 -0.733,0.14 a 0.942,0.942 0 0 0 -0.404,0.346 0.871,0.871 0 0 0 -0.064,0.762 0.714,0.714 0 0 0 0.222,0.252 c 0.106,0.074 0.254,0.144 0.446,0.211 0.191,0.066 0.435,0.132 0.732,0.199 0.52,0.117 0.947,0.258 1.283,0.422 0.336,0.164 0.586,0.365 0.75,0.603 0.164,0.238 0.246,0.527 0.246,0.867 0,0.278 -0.058,0.532 -0.175,0.762 -0.114,0.231 -0.28,0.43 -0.499,0.598 a 2.446,2.446 0 0 1 -0.773,0.386 3.45,3.45 0 0 1 -1.002,0.135 c -0.559,0 -1.031,-0.099 -1.418,-0.299 -0.387,-0.199 -0.68,-0.457 -0.879,-0.773 a 1.85,1.85 0 0 1 -0.299,-1.002 h 1.09 c 0.016,0.297 0.102,0.533 0.258,0.709 0.156,0.172 0.348,0.295 0.574,0.369 0.227,0.07 0.451,0.106 0.674,0.106 0.297,0 0.545,-0.039 0.744,-0.118 0.203,-0.078 0.358,-0.185 0.463,-0.322 a 0.744,0.744 0 0 0 0.158,-0.469 z m 7.369,-3.439 v 7.559 h -1.09 v -8.778 h 0.996 z m 4.271,1.898 v 0.123 c 0,0.461 -0.055,0.889 -0.164,1.284 -0.109,0.39 -0.269,0.73 -0.48,1.019 a 2.184,2.184 0 0 1 -0.768,0.674 c -0.305,0.16 -0.654,0.24 -1.049,0.24 a 2.67,2.67 0 0 1 -1.066,-0.199 2.094,2.094 0 0 1 -0.785,-0.58 2.969,2.969 0 0 1 -0.516,-0.914 5.305,5.305 0 0 1 -0.258,-1.201 v -0.657 c 0.047,-0.468 0.135,-0.888 0.264,-1.259 0.129,-0.371 0.299,-0.688 0.51,-0.95 a 2.09,2.09 0 0 1 0.779,-0.603 2.487,2.487 0 0 1 1.055,-0.211 c 0.398,0 0.752,0.078 1.06,0.234 0.309,0.153 0.569,0.371 0.779,0.657 0.211,0.285 0.37,0.627 0.475,1.025 0.109,0.395 0.164,0.834 0.164,1.318 z m -1.09,0.123 v -0.123 c 0,-0.316 -0.033,-0.613 -0.099,-0.89 a 2.253,2.253 0 0 0 -0.311,-0.739 1.483,1.483 0 0 0 -0.527,-0.503 1.502,1.502 0 0 0 -0.768,-0.188 1.69,1.69 0 0 0 -0.715,0.141 c -0.199,0.093 -0.369,0.22 -0.509,0.381 a 1.999,1.999 0 0 0 -0.346,0.539 c -0.086,0.199 -0.15,0.406 -0.193,0.621 v 1.517 c 0.078,0.274 0.187,0.532 0.328,0.774 0.14,0.238 0.328,0.431 0.562,0.58 0.235,0.144 0.529,0.217 0.885,0.217 0.293,0 0.545,-0.061 0.756,-0.182 a 1.53,1.53 0 0 0 0.527,-0.51 c 0.141,-0.215 0.244,-0.461 0.311,-0.738 0.066,-0.281 0.099,-0.58 0.099,-0.897 z m 5.504,3.217 c -0.442,0 -0.842,-0.074 -1.201,-0.222 a 2.736,2.736 0 0 1 -0.92,-0.639 2.85,2.85 0 0 1 -0.586,-0.973 3.56,3.56 0 0 1 -0.205,-1.23 v -0.246 c 0,-0.516 0.076,-0.975 0.228,-1.377 0.153,-0.407 0.36,-0.75 0.621,-1.032 a 2.66,2.66 0 0 1 0.891,-0.638 2.55,2.55 0 0 1 1.031,-0.217 c 0.453,0 0.844,0.078 1.172,0.234 0.332,0.157 0.604,0.375 0.815,0.657 0.21,0.277 0.367,0.605 0.468,0.984 0.102,0.375 0.153,0.785 0.153,1.23 v 0.487 h -4.735 v -0.885 h 3.651 v -0.082 a 2.728,2.728 0 0 0 -0.176,-0.82 1.478,1.478 0 0 0 -0.469,-0.657 c -0.215,-0.171 -0.508,-0.257 -0.879,-0.257 a 1.466,1.466 0 0 0 -1.213,0.615 2.307,2.307 0 0 0 -0.345,0.744 3.775,3.775 0 0 0 -0.123,1.014 v 0.246 c 0,0.301 0.041,0.584 0.123,0.849 0.086,0.262 0.209,0.493 0.369,0.692 0.164,0.199 0.361,0.355 0.592,0.468 0.234,0.114 0.5,0.17 0.796,0.17 0.383,0 0.707,-0.078 0.973,-0.234 0.266,-0.156 0.498,-0.365 0.697,-0.627 l 0.657,0.522 a 3.026,3.026 0 0 1 -0.522,0.591 c -0.211,0.188 -0.471,0.34 -0.779,0.457 -0.305,0.118 -0.666,0.176 -1.084,0.176 z m 5.216,-5.461 V 636 h -1.084 v -6.34 h 1.055 z m 1.981,-1.031 -0.006,1.008 a 1.53,1.53 0 0 0 -0.258,-0.035 2.678,2.678 0 0 0 -0.27,-0.012 c -0.25,0 -0.47,0.039 -0.662,0.117 a 1.382,1.382 0 0 0 -0.486,0.328 1.58,1.58 0 0 0 -0.316,0.504 2.424,2.424 0 0 0 -0.147,0.633 l -0.305,0.176 c 0,-0.383 0.038,-0.742 0.112,-1.078 0.078,-0.336 0.197,-0.633 0.357,-0.891 0.16,-0.262 0.363,-0.465 0.61,-0.609 a 1.705,1.705 0 0 1 1.16,-0.194 0.8,0.8 0 0 1 0.211,0.053 z m 5.862,1.254 v 7.559 h -1.09 v -8.778 h 0.996 z m 4.272,1.898 v 0.123 c 0,0.461 -0.055,0.889 -0.164,1.284 -0.11,0.39 -0.27,0.73 -0.481,1.019 a 2.19,2.19 0 0 1 -0.767,0.674 c -0.305,0.16 -0.655,0.24 -1.049,0.24 -0.403,0 -0.758,-0.066 -1.067,-0.199 a 2.11,2.11 0 0 1 -0.785,-0.58 2.947,2.947 0 0 1 -0.515,-0.914 5.305,5.305 0 0 1 -0.258,-1.201 v -0.657 c 0.047,-0.468 0.134,-0.888 0.263,-1.259 0.129,-0.371 0.299,-0.688 0.51,-0.95 0.215,-0.265 0.475,-0.466 0.779,-0.603 a 2.49,2.49 0 0 1 1.055,-0.211 c 0.399,0 0.752,0.078 1.061,0.234 0.308,0.153 0.568,0.371 0.779,0.657 0.211,0.285 0.369,0.627 0.475,1.025 0.109,0.395 0.164,0.834 0.164,1.318 z m -1.09,0.123 v -0.123 a 3.78,3.78 0 0 0 -0.1,-0.89 2.252,2.252 0 0 0 -0.31,-0.739 1.486,1.486 0 0 0 -0.528,-0.503 1.498,1.498 0 0 0 -0.767,-0.188 c -0.274,0 -0.512,0.047 -0.715,0.141 -0.199,0.093 -0.369,0.22 -0.51,0.381 -0.14,0.156 -0.256,0.335 -0.346,0.539 -0.086,0.199 -0.15,0.406 -0.193,0.621 v 1.517 c 0.078,0.274 0.188,0.532 0.328,0.774 0.141,0.238 0.328,0.431 0.563,0.58 0.234,0.144 0.529,0.217 0.884,0.217 0.293,0 0.545,-0.061 0.756,-0.182 0.215,-0.125 0.391,-0.295 0.528,-0.51 0.14,-0.215 0.244,-0.461 0.31,-0.738 0.067,-0.281 0.1,-0.58 0.1,-0.897 z m 6.611,2.016 v -3.264 c 0,-0.25 -0.051,-0.466 -0.153,-0.65 a 0.995,0.995 0 0 0 -0.445,-0.434 1.62,1.62 0 0 0 -0.738,-0.152 c -0.274,0 -0.514,0.047 -0.721,0.141 a 1.239,1.239 0 0 0 -0.48,0.369 0.803,0.803 0 0 0 -0.17,0.492 h -1.084 c 0,-0.227 0.058,-0.451 0.176,-0.674 0.117,-0.223 0.285,-0.424 0.503,-0.603 0.223,-0.184 0.489,-0.329 0.797,-0.434 0.313,-0.109 0.66,-0.164 1.043,-0.164 0.461,0 0.867,0.078 1.219,0.234 0.356,0.157 0.633,0.393 0.832,0.709 0.203,0.313 0.305,0.705 0.305,1.178 v 2.953 c 0,0.211 0.017,0.436 0.052,0.674 0.04,0.238 0.096,0.443 0.17,0.615 V 636 h -1.13 a 2,2 0 0 1 -0.129,-0.498 3.914,3.914 0 0 1 -0.047,-0.586 z m 0.187,-2.76 0.012,0.762 h -1.096 c -0.308,0 -0.584,0.025 -0.826,0.076 a 1.883,1.883 0 0 0 -0.609,0.217 1.037,1.037 0 0 0 -0.375,0.369 0.981,0.981 0 0 0 -0.129,0.51 c 0,0.199 0.045,0.381 0.135,0.545 a 0.968,0.968 0 0 0 0.404,0.392 c 0.183,0.094 0.408,0.141 0.674,0.141 a 1.817,1.817 0 0 0 1.482,-0.727 c 0.152,-0.203 0.235,-0.4 0.246,-0.591 l 0.463,0.521 a 1.55,1.55 0 0 1 -0.223,0.545 2.603,2.603 0 0 1 -1.201,1.025 2.312,2.312 0 0 1 -0.925,0.176 c -0.43,0 -0.807,-0.084 -1.131,-0.252 a 1.919,1.919 0 0 1 -0.75,-0.674 1.78,1.78 0 0 1 -0.264,-0.955 c 0,-0.34 0.066,-0.638 0.199,-0.896 0.133,-0.262 0.324,-0.479 0.574,-0.651 0.25,-0.175 0.551,-0.308 0.903,-0.398 0.351,-0.09 0.744,-0.135 1.177,-0.135 z m 7.109,-2.496 h 0.985 v 6.205 c 0,0.559 -0.114,1.035 -0.34,1.43 a 2.218,2.218 0 0 1 -0.949,0.896 c -0.403,0.207 -0.868,0.311 -1.395,0.311 -0.219,0 -0.477,-0.035 -0.773,-0.106 a 3.121,3.121 0 0 1 -0.868,-0.345 2.169,2.169 0 0 1 -0.709,-0.651 l 0.569,-0.644 c 0.265,0.32 0.543,0.543 0.832,0.668 0.293,0.125 0.582,0.187 0.867,0.187 0.344,0 0.641,-0.064 0.891,-0.193 0.25,-0.129 0.443,-0.32 0.58,-0.574 0.14,-0.25 0.211,-0.559 0.211,-0.926 v -4.863 z m -4.365,3.24 v -0.123 c 0,-0.484 0.057,-0.923 0.17,-1.318 0.117,-0.398 0.283,-0.74 0.498,-1.025 a 2.235,2.235 0 0 1 1.834,-0.891 c 0.398,0 0.746,0.07 1.043,0.211 0.301,0.137 0.555,0.338 0.762,0.603 0.211,0.262 0.377,0.579 0.498,0.95 0.121,0.371 0.205,0.791 0.252,1.259 v 0.539 a 5.521,5.521 0 0 1 -0.252,1.254 2.963,2.963 0 0 1 -0.498,0.95 2.093,2.093 0 0 1 -0.762,0.603 2.523,2.523 0 0 1 -1.055,0.205 c -0.379,0 -0.722,-0.08 -1.031,-0.24 a 2.347,2.347 0 0 1 -0.785,-0.674 3.186,3.186 0 0 1 -0.504,-1.019 4.652,4.652 0 0 1 -0.17,-1.284 z m 1.084,-0.123 v 0.123 c 0,0.317 0.031,0.614 0.094,0.891 0.066,0.277 0.166,0.521 0.299,0.732 0.136,0.211 0.31,0.377 0.521,0.498 0.211,0.118 0.463,0.176 0.756,0.176 0.359,0 0.656,-0.076 0.891,-0.228 0.234,-0.153 0.419,-0.354 0.556,-0.604 0.141,-0.25 0.25,-0.521 0.328,-0.814 v -1.412 a 2.865,2.865 0 0 0 -0.199,-0.621 1.89,1.89 0 0 0 -0.34,-0.539 1.437,1.437 0 0 0 -0.51,-0.381 1.685,1.685 0 0 0 -0.714,-0.141 c -0.297,0 -0.553,0.063 -0.768,0.188 a 1.491,1.491 0 0 0 -0.521,0.503 2.4,2.4 0 0 0 -0.299,0.739 4.01,4.01 0 0 0 -0.094,0.89 z m 8.943,3.34 c -0.441,0 -0.842,-0.074 -1.201,-0.222 a 2.736,2.736 0 0 1 -0.92,-0.639 2.85,2.85 0 0 1 -0.586,-0.973 3.56,3.56 0 0 1 -0.205,-1.23 v -0.246 c 0,-0.516 0.076,-0.975 0.228,-1.377 0.153,-0.407 0.36,-0.75 0.621,-1.032 a 2.66,2.66 0 0 1 0.891,-0.638 2.55,2.55 0 0 1 1.031,-0.217 c 0.453,0 0.844,0.078 1.172,0.234 0.332,0.157 0.604,0.375 0.815,0.657 0.211,0.277 0.367,0.605 0.468,0.984 0.102,0.375 0.153,0.785 0.153,1.23 v 0.487 h -4.735 v -0.885 h 3.651 v -0.082 a 2.698,2.698 0 0 0 -0.176,-0.82 1.478,1.478 0 0 0 -0.469,-0.657 c -0.215,-0.171 -0.508,-0.257 -0.879,-0.257 a 1.466,1.466 0 0 0 -1.213,0.615 2.307,2.307 0 0 0 -0.345,0.744 3.775,3.775 0 0 0 -0.123,1.014 v 0.246 c 0,0.301 0.041,0.584 0.123,0.849 0.086,0.262 0.209,0.493 0.369,0.692 0.164,0.199 0.361,0.355 0.592,0.468 0.234,0.114 0.5,0.17 0.797,0.17 0.382,0 0.707,-0.078 0.972,-0.234 0.266,-0.156 0.498,-0.365 0.697,-0.627 l 0.657,0.522 a 3.026,3.026 0 0 1 -0.522,0.591 2.47,2.47 0 0 1 -0.779,0.457 c -0.305,0.118 -0.666,0.176 -1.084,0.176 z m 4.086,-0.691 c 0,-0.184 0.056,-0.338 0.171,-0.463 0.12,-0.129 0.28,-0.193 0.5,-0.193 0.22,0 0.39,0.064 0.5,0.193 0.12,0.125 0.18,0.279 0.18,0.463 0,0.179 -0.06,0.332 -0.18,0.457 -0.11,0.125 -0.28,0.187 -0.5,0.187 -0.22,0 -0.38,-0.062 -0.5,-0.187 a 0.65,0.65 0 0 1 -0.171,-0.457 z m 0.005,-5.174 a 0.68,0.68 0 0 1 0.166,-0.463 c 0.12,-0.129 0.29,-0.193 0.51,-0.193 0.22,0 0.38,0.064 0.5,0.193 0.11,0.125 0.17,0.279 0.17,0.463 a 0.67,0.67 0 0 1 -0.17,0.457 c -0.12,0.125 -0.28,0.187 -0.5,0.187 -0.22,0 -0.39,-0.062 -0.51,-0.187 a 0.672,0.672 0 0 1 -0.166,-0.457 z"
           class="Rows per page :"
           id="path6771" />
        <g
           class="Page"
           id="g6779">
          <path
             fill="#000000"
             fill-opacity="0.87"
             d="M 1015.27,628.422 V 637 h -1.08 v -7.225 l -2.19,0.797 v -0.978 l 3.1,-1.172 z m 8.84,3.633 v 1.3 c 0,0.7 -0.06,1.29 -0.18,1.77 -0.13,0.48 -0.31,0.867 -0.54,1.16 -0.24,0.293 -0.52,0.506 -0.85,0.639 -0.33,0.129 -0.7,0.193 -1.11,0.193 -0.33,0 -0.64,-0.041 -0.91,-0.123 a 2.12,2.12 0 0 1 -0.75,-0.392 2.444,2.444 0 0 1 -0.57,-0.715 3.988,3.988 0 0 1 -0.35,-1.067 7.048,7.048 0 0 1 -0.13,-1.465 v -1.3 c 0,-0.7 0.07,-1.285 0.19,-1.758 0.13,-0.473 0.31,-0.852 0.55,-1.137 0.23,-0.289 0.51,-0.496 0.84,-0.621 0.33,-0.125 0.7,-0.187 1.11,-0.187 0.34,0 0.64,0.041 0.92,0.123 0.28,0.078 0.53,0.205 0.75,0.38 0.22,0.172 0.4,0.403 0.55,0.692 0.16,0.285 0.28,0.635 0.36,1.049 0.08,0.414 0.12,0.9 0.12,1.459 z m -1.09,1.476 v -1.658 c 0,-0.383 -0.02,-0.719 -0.07,-1.008 -0.04,-0.293 -0.1,-0.543 -0.19,-0.75 a 1.317,1.317 0 0 0 -0.33,-0.504 1.18,1.18 0 0 0 -0.45,-0.281 1.654,1.654 0 0 0 -0.57,-0.094 c -0.25,0 -0.48,0.049 -0.68,0.147 -0.2,0.094 -0.37,0.244 -0.51,0.451 -0.13,0.207 -0.23,0.478 -0.3,0.814 -0.07,0.336 -0.11,0.745 -0.11,1.225 v 1.658 c 0,0.383 0.03,0.721 0.07,1.014 0.05,0.293 0.11,0.547 0.2,0.762 0.09,0.211 0.2,0.384 0.33,0.521 0.13,0.137 0.28,0.238 0.45,0.305 0.17,0.062 0.36,0.094 0.57,0.094 0.26,0 0.49,-0.051 0.69,-0.153 0.2,-0.101 0.37,-0.26 0.5,-0.474 0.14,-0.219 0.24,-0.498 0.31,-0.838 0.06,-0.344 0.09,-0.754 0.09,-1.231 z"
             class="10"
             id="path6773" />
          <g
             class="ArrowDropDownFilled"
             id="g6777">
            <path
               fill="#000000"
               fill-opacity="0.54"
               d="m 1032,629.5 5,5 5,-5 z"
               class="Vector"
               id="path6775" />
          </g>
        </g>
      </g>
      <path
         fill="#000000"
         fill-opacity="0.87"
         d="M 1079.27,627.422 V 636 h -1.08 v -7.225 l -2.19,0.797 v -0.978 l 3.1,-1.172 z m 5.96,4.506 v 0.89 h -2.86 v -0.89 z m 2.72,0.011 -0.87,-0.222 0.43,-4.248 h 4.37 v 1.002 h -3.45 l -0.26,2.32 c 0.16,-0.09 0.35,-0.174 0.59,-0.252 a 2.7,2.7 0 0 1 0.83,-0.117 c 0.4,0 0.75,0.068 1.06,0.205 0.32,0.133 0.58,0.324 0.8,0.574 0.22,0.25 0.39,0.551 0.51,0.903 0.12,0.351 0.18,0.744 0.18,1.177 0,0.41 -0.06,0.787 -0.17,1.131 -0.11,0.344 -0.28,0.645 -0.5,0.902 -0.22,0.254 -0.51,0.452 -0.85,0.592 -0.33,0.141 -0.73,0.211 -1.19,0.211 -0.34,0 -0.67,-0.047 -0.97,-0.14 a 2.33,2.33 0 0 1 -1.41,-1.178 2.954,2.954 0 0 1 -0.28,-1.043 h 1.03 c 0.05,0.32 0.14,0.59 0.28,0.808 0.14,0.219 0.33,0.385 0.55,0.498 0.23,0.11 0.5,0.165 0.8,0.165 0.26,0 0.49,-0.045 0.69,-0.135 0.2,-0.09 0.37,-0.219 0.5,-0.387 0.14,-0.168 0.24,-0.371 0.31,-0.609 0.08,-0.239 0.12,-0.506 0.12,-0.803 0,-0.27 -0.04,-0.52 -0.12,-0.75 a 1.621,1.621 0 0 0 -0.33,-0.604 1.433,1.433 0 0 0 -0.53,-0.398 1.73,1.73 0 0 0 -0.73,-0.146 c -0.36,0 -0.64,0.048 -0.83,0.146 -0.18,0.098 -0.37,0.23 -0.56,0.398 z m 8.98,0.961 v -0.134 c 0,-0.457 0.07,-0.881 0.2,-1.272 0.13,-0.394 0.33,-0.736 0.58,-1.025 0.25,-0.293 0.55,-0.52 0.9,-0.68 0.36,-0.164 0.76,-0.246 1.2,-0.246 0.44,0 0.84,0.082 1.2,0.246 0.36,0.16 0.66,0.387 0.91,0.68 0.26,0.289 0.45,0.631 0.58,1.025 0.14,0.391 0.2,0.815 0.2,1.272 v 0.134 c 0,0.457 -0.06,0.881 -0.2,1.272 -0.13,0.39 -0.32,0.732 -0.58,1.025 a 2.68,2.68 0 0 1 -0.9,0.68 c -0.36,0.16 -0.75,0.24 -1.2,0.24 -0.44,0 -0.84,-0.08 -1.2,-0.24 a 2.623,2.623 0 0 1 -0.91,-0.68 3.065,3.065 0 0 1 -0.58,-1.025 c -0.13,-0.391 -0.2,-0.815 -0.2,-1.272 z m 1.09,-0.134 v 0.134 c 0,0.317 0.03,0.616 0.11,0.897 0.07,0.277 0.18,0.523 0.33,0.738 0.15,0.215 0.34,0.385 0.57,0.51 0.23,0.121 0.49,0.182 0.79,0.182 0.3,0 0.56,-0.061 0.78,-0.182 0.23,-0.125 0.41,-0.295 0.56,-0.51 0.15,-0.215 0.26,-0.461 0.34,-0.738 0.07,-0.281 0.11,-0.58 0.11,-0.897 v -0.134 a 3.6,3.6 0 0 0 -0.11,-0.885 2.464,2.464 0 0 0 -0.34,-0.744 1.62,1.62 0 0 0 -0.57,-0.516 1.553,1.553 0 0 0 -0.78,-0.187 c -0.3,0 -0.56,0.062 -0.79,0.187 a 1.68,1.68 0 0 0 -0.56,0.516 c -0.15,0.215 -0.26,0.463 -0.33,0.744 -0.08,0.277 -0.11,0.572 -0.11,0.885 z m 8.06,3.234 H 1105 v -7.008 c 0,-0.457 0.08,-0.842 0.24,-1.154 0.17,-0.317 0.41,-0.555 0.72,-0.715 0.32,-0.164 0.69,-0.246 1.12,-0.246 a 3.063,3.063 0 0 1 0.75,0.094 l -0.06,0.884 a 1.935,1.935 0 0 0 -0.28,-0.041 4.828,4.828 0 0 0 -0.31,-0.011 c -0.23,0 -0.43,0.047 -0.6,0.14 a 0.864,0.864 0 0 0 -0.37,0.399 c -0.09,0.176 -0.13,0.392 -0.13,0.65 z m 1.35,-6.34 v 0.832 h -3.44 v -0.832 z m 8.43,-2.238 V 636 h -1.09 v -7.225 l -2.18,0.797 v -0.978 l 3.1,-1.172 z m 5.17,3.779 h 0.77 c 0.38,0 0.69,-0.062 0.94,-0.187 0.25,-0.129 0.43,-0.303 0.55,-0.522 0.13,-0.222 0.19,-0.472 0.19,-0.75 0,-0.328 -0.05,-0.603 -0.16,-0.826 a 1.138,1.138 0 0 0 -0.49,-0.504 c -0.22,-0.113 -0.5,-0.17 -0.84,-0.17 -0.3,0 -0.57,0.061 -0.81,0.182 a 1.3,1.3 0 0 0 -0.54,0.504 1.48,1.48 0 0 0 -0.19,0.773 h -1.09 c 0,-0.433 0.11,-0.828 0.33,-1.183 0.22,-0.356 0.53,-0.639 0.92,-0.85 0.4,-0.211 0.86,-0.316 1.38,-0.316 0.52,0 0.97,0.091 1.36,0.275 0.38,0.18 0.68,0.449 0.9,0.809 0.21,0.355 0.32,0.798 0.32,1.33 0,0.214 -0.05,0.445 -0.15,0.691 -0.1,0.242 -0.25,0.469 -0.46,0.68 a 2.45,2.45 0 0 1 -0.81,0.521 c -0.33,0.133 -0.73,0.199 -1.2,0.199 h -0.92 z m 0,0.891 v -0.651 h 0.92 c 0.54,0 0.99,0.065 1.35,0.194 0.36,0.129 0.63,0.301 0.84,0.515 0.2,0.215 0.35,0.452 0.43,0.709 0.09,0.254 0.13,0.508 0.13,0.762 0,0.399 -0.07,0.752 -0.21,1.061 -0.13,0.308 -0.32,0.57 -0.56,0.785 -0.25,0.215 -0.53,0.377 -0.86,0.486 -0.33,0.109 -0.68,0.164 -1.07,0.164 -0.37,0 -0.72,-0.053 -1.05,-0.158 a 2.75,2.75 0 0 1 -0.86,-0.457 2.142,2.142 0 0 1 -0.59,-0.744 2.35,2.35 0 0 1 -0.21,-1.014 h 1.09 c 0,0.297 0.06,0.557 0.19,0.779 0.13,0.223 0.32,0.397 0.56,0.522 0.25,0.121 0.54,0.182 0.87,0.182 0.33,0 0.62,-0.057 0.85,-0.17 0.25,-0.118 0.43,-0.293 0.56,-0.528 0.13,-0.234 0.2,-0.529 0.2,-0.884 0,-0.356 -0.07,-0.647 -0.22,-0.874 -0.15,-0.23 -0.36,-0.4 -0.64,-0.509 -0.26,-0.114 -0.58,-0.17 -0.95,-0.17 z"
         class="1-10 of 100"
         id="path6783" />
      <g
         class="Navigation"
         id="g6805">
        <g
           class="IconButton"
           id="g6793">
          <g
             class="UnstyledIconButton"
             id="g6791">
            <g
               class="Icon"
               id="g6789">
              <g
                 class="ChevronRightOutlined"
                 id="g6787">
                <path
                   fill="#000000"
                   fill-opacity="0.54"
                   d="m 1221.71,626 -1.41,1.41 4.58,4.59 -4.58,4.59 1.41,1.41 6,-6 z"
                   class="Vector"
                   id="path6785" />
              </g>
            </g>
          </g>
        </g>
        <g
           class="IconButton"
           id="g6803">
          <g
             class="UnstyledIconButton"
             id="g6801">
            <g
               class="Icon"
               id="g6799">
              <g
                 class="ChevronLeftOutlined"
                 id="g6797">
                <path
                   fill="#000000"
                   fill-opacity="0.54"
                   d="m 1179.71,627.41 -1.41,-1.41 -6,6 6,6 1.41,-1.41 -4.58,-4.59 z"
                   class="Vector"
                   id="path6795" />
              </g>
            </g>
          </g>
        </g>
      </g>
    </g>
  </g>
</svg>
